M48
;DRILL file {KiCad (5.0.0)} date 09/27/18 16:02:55
;FORMAT={-:-/ absolute / inch / decimal}
FMAT,2
INCH,TZ
T1C0.0157
T2C0.0315
T3C0.0319
T4C0.0360
T5C0.0394
T6C0.0906
%
G90
G05
M72
T1
X3.15Y-4.65
X3.15Y-4.75
X3.2Y-4.7
X3.25Y-4.65
X3.25Y-4.75
X3.35Y-1.5
X3.5808Y-4.4776
X3.7105Y-4.2043
X3.8818Y-4.1722
X4.0941Y-3.9552
X4.0955Y-3.8418
X4.2Y-2.5
X4.2Y-4.5
X4.2346Y-3.8724
X4.2377Y-3.5087
X4.2557Y-4.2895
X4.2604Y-2.8901
X4.2606Y-4.5899
X4.2608Y-3.3483
X4.2898Y-3.3968
X4.4068Y-3.0364
X4.4388Y-4.5123
X4.4505Y-2.6396
X4.4711Y-2.0969
X4.4893Y-4.3318
X4.5327Y-2.8182
X4.549Y-2.6413
X4.5601Y-3.4235
X4.5805Y-2.5965
X4.6157Y-3.1296
X4.6501Y-2.1561
X4.6602Y-2.7896
X4.7133Y-3.1956
X4.7436Y-2.8522
X4.7664Y-1.9793
X4.7879Y-3.2551
X4.8377Y-3.7919
X4.842Y-3.4825
X4.8432Y-2.0251
X4.8454Y-2.2363
X4.8513Y-2.427
X4.8628Y-2.0679
X4.8891Y-3.7546
X4.994Y-4.8751
X5.Y-4.65
X5.Y-4.75
X5.0067Y-2.9709
X5.0204Y-4.5199
X5.05Y-3.75
X5.0519Y-2.9169
X5.0999Y-4.8748
X5.1Y-4.75
X5.2Y-4.75
X5.2Y-4.8748
X5.3Y-2.7
X5.3619Y-4.1954
X5.3681Y-3.592
X5.3683Y-3.9486
X5.4026Y-1.965
X5.4229Y-2.2732
X5.433Y-2.4341
X5.4739Y-2.579
X5.4971Y-2.537
X5.507Y-3.7479
X5.5607Y-2.596
X5.5768Y-3.9437
X5.5778Y-3.219
X5.6856Y-4.2169
X5.7Y-3.
X5.7591Y-3.6423
X5.7782Y-4.2003
X5.7836Y-4.0781
X5.7992Y-3.6589
X5.8249Y-4.4689
X5.85Y-3.
X6.15Y-3.2
X6.2175Y-4.2575
T2
X5.3Y-1.2
X5.3Y-1.3
X5.3Y-1.4
X5.3Y-1.5
X5.3Y-1.6
X5.3Y-1.7
X5.3Y-1.8
X5.3Y-1.9
X5.3Y-2.
X5.3Y-2.1
X5.3Y-2.2
X5.3Y-2.3
X5.3Y-2.4
X5.3Y-2.5
X5.9Y-1.2
X5.9Y-1.3
X5.9Y-1.4
X5.9Y-1.5
X5.9Y-1.6
X5.9Y-1.7
X5.9Y-1.8
X5.9Y-1.9
X5.9Y-2.
X5.9Y-2.1
X5.9Y-2.2
X5.9Y-2.3
X5.9Y-2.4
X5.9Y-2.5
X5.35Y-5.375
X5.45Y-5.375
X5.55Y-5.375
X5.65Y-5.375
X5.75Y-5.375
X5.85Y-5.375
X5.95Y-5.375
X6.05Y-5.375
X6.15Y-5.375
X4.025Y-1.1766
X4.025Y-1.275
X3.9266Y-3.125
X4.025Y-3.125
X3.45Y-3.825
X3.5484Y-3.825
X4.1Y-1.825
X4.1Y-2.125
X4.32Y-5.375
X4.42Y-5.375
X4.52Y-5.375
X4.62Y-5.375
X4.72Y-5.375
X4.82Y-5.375
X4.92Y-5.375
X5.02Y-5.375
X5.12Y-5.375
X4.35Y-2.55
X4.35Y-2.65
X4.35Y-2.75
X4.35Y-2.85
X4.35Y-2.95
X4.35Y-3.05
X4.35Y-3.15
X4.35Y-3.25
X4.35Y-3.35
X4.35Y-3.45
X4.35Y-3.55
X4.35Y-3.65
X4.35Y-3.75
X4.35Y-3.85
X4.35Y-3.95
X4.35Y-4.05
X4.35Y-4.15
X4.35Y-4.25
X4.35Y-4.35
X4.35Y-4.45
X4.95Y-2.55
X4.95Y-2.65
X4.95Y-2.75
X4.95Y-2.85
X4.95Y-2.95
X4.95Y-3.05
X4.95Y-3.15
X4.95Y-3.25
X4.95Y-3.35
X4.95Y-3.45
X4.95Y-3.55
X4.95Y-3.65
X4.95Y-3.75
X4.95Y-3.85
X4.95Y-3.95
X4.95Y-4.05
X4.95Y-4.15
X4.95Y-4.25
X4.95Y-4.35
X4.95Y-4.45
X5.3Y-2.95
X5.3Y-3.05
X5.3Y-3.15
X5.3Y-3.25
X5.3Y-3.35
X5.3Y-3.45
X5.3Y-3.55
X5.3Y-3.65
X5.3Y-3.75
X5.3Y-3.85
X5.3Y-3.95
X5.3Y-4.05
X5.3Y-4.15
X5.3Y-4.25
X5.3Y-4.35
X5.3Y-4.45
X5.9Y-2.95
X5.9Y-3.05
X5.9Y-3.15
X5.9Y-3.25
X5.9Y-3.35
X5.9Y-3.45
X5.9Y-3.55
X5.9Y-3.65
X5.9Y-3.75
X5.9Y-3.85
X5.9Y-3.95
X5.9Y-4.05
X5.9Y-4.15
X5.9Y-4.25
X5.9Y-4.35
X5.9Y-4.45
X4.025Y-1.425
X4.025Y-1.5234
X3.25Y-5.375
X3.35Y-5.375
X3.45Y-5.375
X3.55Y-5.375
X3.65Y-5.375
X3.75Y-5.375
X3.85Y-5.375
X3.95Y-5.375
X4.05Y-5.375
X3.85Y-1.25
X3.85Y-1.4421
X4.0016Y-4.475
X4.1Y-4.475
X3.8Y-2.4
X4.1Y-2.4
X6.Y-2.95
X6.Y-3.0484
X3.5Y-4.075
X3.5Y-4.375
X3.6Y-4.075
X3.6Y-4.375
X3.7Y-4.075
X3.7Y-4.375
X3.8Y-4.075
X3.8Y-4.375
X3.9Y-4.075
X3.9Y-4.375
X4.Y-4.075
X4.Y-4.375
X4.1Y-4.075
X4.1Y-4.375
X3.225Y-3.275
X3.525Y-3.275
X4.2Y-3.4516
X4.2Y-3.55
X4.35Y-1.2
X4.35Y-1.3
X4.35Y-1.4
X4.35Y-1.5
X4.35Y-1.6
X4.35Y-1.7
X4.35Y-1.8
X4.35Y-1.9
X4.35Y-2.
X4.35Y-2.1
X4.35Y-2.2
X4.35Y-2.3
X4.95Y-1.2
X4.95Y-1.3
X4.95Y-1.4
X4.95Y-1.5
X4.95Y-1.6
X4.95Y-1.7
X4.95Y-1.8
X4.95Y-1.9
X4.95Y-2.
X4.95Y-2.1
X4.95Y-2.2
X4.95Y-2.3
X3.2675Y-3.66
X3.4596Y-3.66
X3.225Y-3.425
X3.525Y-3.425
X3.15Y-1.225
X3.2484Y-1.225
X6.Y-1.45
X6.Y-1.5484
X3.725Y-3.25
X3.725Y-3.35
X3.725Y-3.45
X3.725Y-3.55
X3.725Y-3.65
X3.725Y-3.75
X3.725Y-3.85
X4.025Y-3.25
X4.025Y-3.35
X4.025Y-3.45
X4.025Y-3.55
X4.025Y-3.65
X4.025Y-3.75
X4.025Y-3.85
X4.25Y-2.2016
X4.25Y-2.3
X3.1516Y-1.425
X3.25Y-1.425
X3.1766Y-3.825
X3.275Y-3.825
T3
X3.5638Y-1.8425
X3.5638Y-1.9425
X3.6425Y-1.8425
X3.6425Y-1.9425
T4
X3.15Y-4.945
X3.15Y-5.245
X3.25Y-4.945
X3.25Y-5.245
X3.35Y-4.945
X3.35Y-5.245
X3.45Y-4.945
X3.45Y-5.245
X3.55Y-4.945
X3.55Y-5.245
X3.65Y-4.945
X3.65Y-5.245
X3.75Y-4.945
X3.75Y-5.245
X3.85Y-4.945
X3.85Y-5.245
X3.95Y-4.945
X3.95Y-5.245
X4.05Y-4.945
X4.05Y-5.245
X4.2225Y-4.945
X4.2225Y-5.245
X4.3225Y-4.945
X4.3225Y-5.245
X4.4225Y-4.945
X4.4225Y-5.245
X4.5225Y-4.945
X4.5225Y-5.245
X4.6225Y-4.945
X4.6225Y-5.245
X4.7225Y-4.945
X4.7225Y-5.245
X4.8225Y-4.945
X4.8225Y-5.245
X4.9225Y-4.945
X4.9225Y-5.245
X5.0225Y-4.945
X5.0225Y-5.245
X5.1225Y-4.945
X5.1225Y-5.245
X5.255Y-4.945
X5.255Y-5.245
X5.355Y-4.945
X5.355Y-5.245
X5.455Y-4.945
X5.455Y-5.245
X5.555Y-4.945
X5.555Y-5.245
X5.655Y-4.945
X5.655Y-5.245
X5.755Y-4.945
X5.755Y-5.245
X5.855Y-4.945
X5.855Y-5.245
X5.955Y-4.945
X5.955Y-5.245
X6.055Y-4.945
X6.055Y-5.245
X6.155Y-4.945
X6.155Y-5.245
T5
X3.35Y-4.8
X3.45Y-4.8
X3.55Y-4.8
X3.65Y-4.8
X3.75Y-4.8
X3.85Y-4.8
X3.95Y-4.8
X4.05Y-4.8
X3.8Y-2.6
X3.8Y-2.7772
X4.0559Y-2.6
X4.0559Y-2.7772
X6.25Y-3.95
X6.25Y-4.05
X4.65Y-4.8
X4.75Y-4.8
X4.85Y-4.8
X4.95Y-4.8
X5.05Y-4.8
X5.15Y-4.8
X5.25Y-4.8
X5.35Y-4.8
X5.45Y-4.8
X5.55Y-4.8
X5.65Y-4.8
X5.75Y-4.8
X5.85Y-4.8
X5.95Y-4.8
X6.05Y-4.8
X6.15Y-4.8
T6
X3.4575Y-1.6563
X3.4575Y-2.1287
T0
M30
