%TF.GenerationSoftware,KiCad,Pcbnew,(5.0.0)*%
%TF.CreationDate,2018-09-27T16:02:53-07:00*%
%TF.ProjectId,Z80,5A38302E6B696361645F706362000000,rev?*%
%TF.SameCoordinates,Original*%
%TF.FileFunction,Legend,Bot*%
%TF.FilePolarity,Positive*%
%FSLAX46Y46*%
G04 Gerber Fmt 4.6, Leading zero omitted, Abs format (unit mm)*
G04 Created by KiCad (PCBNEW (5.0.0)) date 09/27/18 16:02:53*
%MOMM*%
%LPD*%
G01*
G04 APERTURE LIST*
%ADD10C,0.300000*%
%ADD11C,0.010000*%
G04 APERTURE END LIST*
D10*
X155733095Y-131144095D02*
X156475952Y-131144095D01*
X156104523Y-131144095D02*
X156104523Y-129844095D01*
X156228333Y-130029809D01*
X156352142Y-130153619D01*
X156475952Y-130215523D01*
X154495000Y-131144095D02*
X155237857Y-131144095D01*
X154866428Y-131144095D02*
X154866428Y-129844095D01*
X154990238Y-130029809D01*
X155114047Y-130153619D01*
X155237857Y-130215523D01*
X153318809Y-129844095D02*
X153937857Y-129844095D01*
X153999761Y-130463142D01*
X153937857Y-130401238D01*
X153814047Y-130339333D01*
X153504523Y-130339333D01*
X153380714Y-130401238D01*
X153318809Y-130463142D01*
X153256904Y-130586952D01*
X153256904Y-130896476D01*
X153318809Y-131020285D01*
X153380714Y-131082190D01*
X153504523Y-131144095D01*
X153814047Y-131144095D01*
X153937857Y-131082190D01*
X153999761Y-131020285D01*
X152761666Y-129967904D02*
X152699761Y-129906000D01*
X152575952Y-129844095D01*
X152266428Y-129844095D01*
X152142619Y-129906000D01*
X152080714Y-129967904D01*
X152018809Y-130091714D01*
X152018809Y-130215523D01*
X152080714Y-130401238D01*
X152823571Y-131144095D01*
X152018809Y-131144095D01*
X151214047Y-129844095D02*
X151090238Y-129844095D01*
X150966428Y-129906000D01*
X150904523Y-129967904D01*
X150842619Y-130091714D01*
X150780714Y-130339333D01*
X150780714Y-130648857D01*
X150842619Y-130896476D01*
X150904523Y-131020285D01*
X150966428Y-131082190D01*
X151090238Y-131144095D01*
X151214047Y-131144095D01*
X151337857Y-131082190D01*
X151399761Y-131020285D01*
X151461666Y-130896476D01*
X151523571Y-130648857D01*
X151523571Y-130339333D01*
X151461666Y-130091714D01*
X151399761Y-129967904D01*
X151337857Y-129906000D01*
X151214047Y-129844095D01*
X149975952Y-129844095D02*
X149852142Y-129844095D01*
X149728333Y-129906000D01*
X149666428Y-129967904D01*
X149604523Y-130091714D01*
X149542619Y-130339333D01*
X149542619Y-130648857D01*
X149604523Y-130896476D01*
X149666428Y-131020285D01*
X149728333Y-131082190D01*
X149852142Y-131144095D01*
X149975952Y-131144095D01*
X150099761Y-131082190D01*
X150161666Y-131020285D01*
X150223571Y-130896476D01*
X150285476Y-130648857D01*
X150285476Y-130339333D01*
X150223571Y-130091714D01*
X150161666Y-129967904D01*
X150099761Y-129906000D01*
X149975952Y-129844095D01*
X147995000Y-131144095D02*
X147995000Y-129844095D01*
X147995000Y-130339333D02*
X147871190Y-130277428D01*
X147623571Y-130277428D01*
X147499761Y-130339333D01*
X147437857Y-130401238D01*
X147375952Y-130525047D01*
X147375952Y-130896476D01*
X147437857Y-131020285D01*
X147499761Y-131082190D01*
X147623571Y-131144095D01*
X147871190Y-131144095D01*
X147995000Y-131082190D01*
X146261666Y-131144095D02*
X146261666Y-130463142D01*
X146323571Y-130339333D01*
X146447380Y-130277428D01*
X146694999Y-130277428D01*
X146818809Y-130339333D01*
X146261666Y-131082190D02*
X146385476Y-131144095D01*
X146694999Y-131144095D01*
X146818809Y-131082190D01*
X146880714Y-130958380D01*
X146880714Y-130834571D01*
X146818809Y-130710761D01*
X146694999Y-130648857D01*
X146385476Y-130648857D01*
X146261666Y-130586952D01*
X145085476Y-130277428D02*
X145085476Y-131144095D01*
X145642619Y-130277428D02*
X145642619Y-130958380D01*
X145580714Y-131082190D01*
X145456904Y-131144095D01*
X145271190Y-131144095D01*
X145147380Y-131082190D01*
X145085476Y-131020285D01*
X143909285Y-131144095D02*
X143909285Y-129844095D01*
X143909285Y-131082190D02*
X144033095Y-131144095D01*
X144280714Y-131144095D01*
X144404523Y-131082190D01*
X144466428Y-131020285D01*
X144528333Y-130896476D01*
X144528333Y-130525047D01*
X144466428Y-130401238D01*
X144404523Y-130339333D01*
X144280714Y-130277428D01*
X144033095Y-130277428D01*
X143909285Y-130339333D01*
X143228333Y-131082190D02*
X143228333Y-131144095D01*
X143290238Y-131267904D01*
X143352142Y-131329809D01*
X141494999Y-130401238D02*
X141618809Y-130339333D01*
X141680714Y-130277428D01*
X141742619Y-130153619D01*
X141742619Y-130091714D01*
X141680714Y-129967904D01*
X141618809Y-129906000D01*
X141494999Y-129844095D01*
X141247380Y-129844095D01*
X141123571Y-129906000D01*
X141061666Y-129967904D01*
X140999761Y-130091714D01*
X140999761Y-130153619D01*
X141061666Y-130277428D01*
X141123571Y-130339333D01*
X141247380Y-130401238D01*
X141494999Y-130401238D01*
X141618809Y-130463142D01*
X141680714Y-130525047D01*
X141742619Y-130648857D01*
X141742619Y-130896476D01*
X141680714Y-131020285D01*
X141618809Y-131082190D01*
X141494999Y-131144095D01*
X141247380Y-131144095D01*
X141123571Y-131082190D01*
X141061666Y-131020285D01*
X140999761Y-130896476D01*
X140999761Y-130648857D01*
X141061666Y-130525047D01*
X141123571Y-130463142D01*
X141247380Y-130401238D01*
X139452142Y-131144095D02*
X139452142Y-129844095D01*
X139452142Y-130339333D02*
X139328333Y-130277428D01*
X139080714Y-130277428D01*
X138956904Y-130339333D01*
X138894999Y-130401238D01*
X138833095Y-130525047D01*
X138833095Y-130896476D01*
X138894999Y-131020285D01*
X138956904Y-131082190D01*
X139080714Y-131144095D01*
X139328333Y-131144095D01*
X139452142Y-131082190D01*
X138275952Y-131144095D02*
X138275952Y-130277428D01*
X138275952Y-129844095D02*
X138337857Y-129906000D01*
X138275952Y-129967904D01*
X138214047Y-129906000D01*
X138275952Y-129844095D01*
X138275952Y-129967904D01*
X137842619Y-130277428D02*
X137347380Y-130277428D01*
X137656904Y-129844095D02*
X137656904Y-130958380D01*
X137594999Y-131082190D01*
X137471190Y-131144095D01*
X137347380Y-131144095D01*
X136975952Y-131082190D02*
X136852142Y-131144095D01*
X136604523Y-131144095D01*
X136480714Y-131082190D01*
X136418809Y-130958380D01*
X136418809Y-130896476D01*
X136480714Y-130772666D01*
X136604523Y-130710761D01*
X136790238Y-130710761D01*
X136914047Y-130648857D01*
X136975952Y-130525047D01*
X136975952Y-130463142D01*
X136914047Y-130339333D01*
X136790238Y-130277428D01*
X136604523Y-130277428D01*
X136480714Y-130339333D01*
X135799761Y-131082190D02*
X135799761Y-131144095D01*
X135861666Y-131267904D01*
X135923571Y-131329809D01*
X134252142Y-131144095D02*
X134252142Y-129844095D01*
X133694999Y-131144095D02*
X133694999Y-130463142D01*
X133756904Y-130339333D01*
X133880714Y-130277428D01*
X134066428Y-130277428D01*
X134190238Y-130339333D01*
X134252142Y-130401238D01*
X132518809Y-131144095D02*
X132518809Y-130463142D01*
X132580714Y-130339333D01*
X132704523Y-130277428D01*
X132952142Y-130277428D01*
X133075952Y-130339333D01*
X132518809Y-131082190D02*
X132642619Y-131144095D01*
X132952142Y-131144095D01*
X133075952Y-131082190D01*
X133137857Y-130958380D01*
X133137857Y-130834571D01*
X133075952Y-130710761D01*
X132952142Y-130648857D01*
X132642619Y-130648857D01*
X132518809Y-130586952D01*
X131899761Y-131144095D02*
X131899761Y-130277428D01*
X131899761Y-130525047D02*
X131837857Y-130401238D01*
X131775952Y-130339333D01*
X131652142Y-130277428D01*
X131528333Y-130277428D01*
X130537857Y-131144095D02*
X130537857Y-129844095D01*
X130537857Y-131082190D02*
X130661666Y-131144095D01*
X130909285Y-131144095D01*
X131033095Y-131082190D01*
X131094999Y-131020285D01*
X131156904Y-130896476D01*
X131156904Y-130525047D01*
X131094999Y-130401238D01*
X131033095Y-130339333D01*
X130909285Y-130277428D01*
X130661666Y-130277428D01*
X130537857Y-130339333D01*
X130042619Y-130277428D02*
X129794999Y-131144095D01*
X129547380Y-130525047D01*
X129299761Y-131144095D01*
X129052142Y-130277428D01*
X127999761Y-131144095D02*
X127999761Y-130463142D01*
X128061666Y-130339333D01*
X128185476Y-130277428D01*
X128433095Y-130277428D01*
X128556904Y-130339333D01*
X127999761Y-131082190D02*
X128123571Y-131144095D01*
X128433095Y-131144095D01*
X128556904Y-131082190D01*
X128618809Y-130958380D01*
X128618809Y-130834571D01*
X128556904Y-130710761D01*
X128433095Y-130648857D01*
X128123571Y-130648857D01*
X127999761Y-130586952D01*
X127380714Y-131144095D02*
X127380714Y-130277428D01*
X127380714Y-130525047D02*
X127318809Y-130401238D01*
X127256904Y-130339333D01*
X127133095Y-130277428D01*
X127009285Y-130277428D01*
X126080714Y-131082190D02*
X126204523Y-131144095D01*
X126452142Y-131144095D01*
X126575952Y-131082190D01*
X126637857Y-130958380D01*
X126637857Y-130463142D01*
X126575952Y-130339333D01*
X126452142Y-130277428D01*
X126204523Y-130277428D01*
X126080714Y-130339333D01*
X126018809Y-130463142D01*
X126018809Y-130586952D01*
X126637857Y-130710761D01*
X124099761Y-131639333D02*
X124161666Y-131577428D01*
X124285476Y-131391714D01*
X124347380Y-131267904D01*
X124409285Y-131082190D01*
X124471190Y-130772666D01*
X124471190Y-130525047D01*
X124409285Y-130215523D01*
X124347380Y-130029809D01*
X124285476Y-129906000D01*
X124161666Y-129720285D01*
X124099761Y-129658380D01*
X122861666Y-131144095D02*
X123294999Y-130525047D01*
X123604523Y-131144095D02*
X123604523Y-129844095D01*
X123109285Y-129844095D01*
X122985476Y-129906000D01*
X122923571Y-129967904D01*
X122861666Y-130091714D01*
X122861666Y-130277428D01*
X122923571Y-130401238D01*
X122985476Y-130463142D01*
X123109285Y-130525047D01*
X123604523Y-130525047D01*
X122490238Y-129844095D02*
X121747380Y-129844095D01*
X122118809Y-131144095D02*
X122118809Y-129844095D01*
X121375952Y-131082190D02*
X121190238Y-131144095D01*
X120880714Y-131144095D01*
X120756904Y-131082190D01*
X120694999Y-131020285D01*
X120633095Y-130896476D01*
X120633095Y-130772666D01*
X120694999Y-130648857D01*
X120756904Y-130586952D01*
X120880714Y-130525047D01*
X121128333Y-130463142D01*
X121252142Y-130401238D01*
X121314047Y-130339333D01*
X121375952Y-130215523D01*
X121375952Y-130091714D01*
X121314047Y-129967904D01*
X121252142Y-129906000D01*
X121128333Y-129844095D01*
X120818809Y-129844095D01*
X120633095Y-129906000D01*
X119147380Y-129782190D02*
X120261666Y-131453619D01*
X117971190Y-131020285D02*
X118033095Y-131082190D01*
X118218809Y-131144095D01*
X118342619Y-131144095D01*
X118528333Y-131082190D01*
X118652142Y-130958380D01*
X118714047Y-130834571D01*
X118775952Y-130586952D01*
X118775952Y-130401238D01*
X118714047Y-130153619D01*
X118652142Y-130029809D01*
X118528333Y-129906000D01*
X118342619Y-129844095D01*
X118218809Y-129844095D01*
X118033095Y-129906000D01*
X117971190Y-129967904D01*
X117599761Y-129844095D02*
X116856904Y-129844095D01*
X117228333Y-131144095D02*
X117228333Y-129844095D01*
X116485476Y-131082190D02*
X116299761Y-131144095D01*
X115990238Y-131144095D01*
X115866428Y-131082190D01*
X115804523Y-131020285D01*
X115742619Y-130896476D01*
X115742619Y-130772666D01*
X115804523Y-130648857D01*
X115866428Y-130586952D01*
X115990238Y-130525047D01*
X116237857Y-130463142D01*
X116361666Y-130401238D01*
X116423571Y-130339333D01*
X116485476Y-130215523D01*
X116485476Y-130091714D01*
X116423571Y-129967904D01*
X116361666Y-129906000D01*
X116237857Y-129844095D01*
X115928333Y-129844095D01*
X115742619Y-129906000D01*
X115309285Y-131639333D02*
X115247380Y-131577428D01*
X115123571Y-131391714D01*
X115061666Y-131267904D01*
X114999761Y-131082190D01*
X114937857Y-130772666D01*
X114937857Y-130525047D01*
X114999761Y-130215523D01*
X115061666Y-130029809D01*
X115123571Y-129906000D01*
X115247380Y-129720285D01*
X115309285Y-129658380D01*
X113328333Y-131144095D02*
X113328333Y-129844095D01*
X112771190Y-131144095D02*
X112771190Y-130463142D01*
X112833095Y-130339333D01*
X112956904Y-130277428D01*
X113142619Y-130277428D01*
X113266428Y-130339333D01*
X113328333Y-130401238D01*
X111594999Y-131144095D02*
X111594999Y-130463142D01*
X111656904Y-130339333D01*
X111780714Y-130277428D01*
X112028333Y-130277428D01*
X112152142Y-130339333D01*
X111594999Y-131082190D02*
X111718809Y-131144095D01*
X112028333Y-131144095D01*
X112152142Y-131082190D01*
X112214047Y-130958380D01*
X112214047Y-130834571D01*
X112152142Y-130710761D01*
X112028333Y-130648857D01*
X111718809Y-130648857D01*
X111594999Y-130586952D01*
X110975952Y-130277428D02*
X110975952Y-131144095D01*
X110975952Y-130401238D02*
X110914047Y-130339333D01*
X110790238Y-130277428D01*
X110604523Y-130277428D01*
X110480714Y-130339333D01*
X110418809Y-130463142D01*
X110418809Y-131144095D01*
X109242619Y-131144095D02*
X109242619Y-129844095D01*
X109242619Y-131082190D02*
X109366428Y-131144095D01*
X109614047Y-131144095D01*
X109737857Y-131082190D01*
X109799761Y-131020285D01*
X109861666Y-130896476D01*
X109861666Y-130525047D01*
X109799761Y-130401238D01*
X109737857Y-130339333D01*
X109614047Y-130277428D01*
X109366428Y-130277428D01*
X109242619Y-130339333D01*
X108685476Y-131082190D02*
X108561666Y-131144095D01*
X108314047Y-131144095D01*
X108190238Y-131082190D01*
X108128333Y-130958380D01*
X108128333Y-130896476D01*
X108190238Y-130772666D01*
X108314047Y-130710761D01*
X108499761Y-130710761D01*
X108623571Y-130648857D01*
X108685476Y-130525047D01*
X108685476Y-130463142D01*
X108623571Y-130339333D01*
X108499761Y-130277428D01*
X108314047Y-130277428D01*
X108190238Y-130339333D01*
X107571190Y-131144095D02*
X107571190Y-129844095D01*
X107014047Y-131144095D02*
X107014047Y-130463142D01*
X107075952Y-130339333D01*
X107199761Y-130277428D01*
X107385476Y-130277428D01*
X107509285Y-130339333D01*
X107571190Y-130401238D01*
X105837857Y-131144095D02*
X105837857Y-130463142D01*
X105899761Y-130339333D01*
X106023571Y-130277428D01*
X106271190Y-130277428D01*
X106394999Y-130339333D01*
X105837857Y-131082190D02*
X105961666Y-131144095D01*
X106271190Y-131144095D01*
X106394999Y-131082190D01*
X106456904Y-130958380D01*
X106456904Y-130834571D01*
X106394999Y-130710761D01*
X106271190Y-130648857D01*
X105961666Y-130648857D01*
X105837857Y-130586952D01*
X105218809Y-131144095D02*
X105218809Y-129844095D01*
X105094999Y-130648857D02*
X104723571Y-131144095D01*
X104723571Y-130277428D02*
X105218809Y-130772666D01*
X103671190Y-131082190D02*
X103794999Y-131144095D01*
X104042619Y-131144095D01*
X104166428Y-131082190D01*
X104228333Y-130958380D01*
X104228333Y-130463142D01*
X104166428Y-130339333D01*
X104042619Y-130277428D01*
X103794999Y-130277428D01*
X103671190Y-130339333D01*
X103609285Y-130463142D01*
X103609285Y-130586952D01*
X104228333Y-130710761D01*
X102990238Y-131082190D02*
X102990238Y-131144095D01*
X103052142Y-131267904D01*
X103114047Y-131329809D01*
X101442619Y-130277428D02*
X101442619Y-131144095D01*
X101442619Y-130401238D02*
X101380714Y-130339333D01*
X101256904Y-130277428D01*
X101071190Y-130277428D01*
X100947380Y-130339333D01*
X100885476Y-130463142D01*
X100885476Y-131144095D01*
X100080714Y-131144095D02*
X100204523Y-131082190D01*
X100266428Y-131020285D01*
X100328333Y-130896476D01*
X100328333Y-130525047D01*
X100266428Y-130401238D01*
X100204523Y-130339333D01*
X100080714Y-130277428D01*
X99894999Y-130277428D01*
X99771190Y-130339333D01*
X99709285Y-130401238D01*
X99647380Y-130525047D01*
X99647380Y-130896476D01*
X99709285Y-131020285D01*
X99771190Y-131082190D01*
X99894999Y-131144095D01*
X100080714Y-131144095D01*
X98099761Y-130277428D02*
X98099761Y-131577428D01*
X98099761Y-130339333D02*
X97975952Y-130277428D01*
X97728333Y-130277428D01*
X97604523Y-130339333D01*
X97542619Y-130401238D01*
X97480714Y-130525047D01*
X97480714Y-130896476D01*
X97542619Y-131020285D01*
X97604523Y-131082190D01*
X97728333Y-131144095D01*
X97975952Y-131144095D01*
X98099761Y-131082190D01*
X96366428Y-131144095D02*
X96366428Y-130463142D01*
X96428333Y-130339333D01*
X96552142Y-130277428D01*
X96799761Y-130277428D01*
X96923571Y-130339333D01*
X96366428Y-131082190D02*
X96490238Y-131144095D01*
X96799761Y-131144095D01*
X96923571Y-131082190D01*
X96985476Y-130958380D01*
X96985476Y-130834571D01*
X96923571Y-130710761D01*
X96799761Y-130648857D01*
X96490238Y-130648857D01*
X96366428Y-130586952D01*
X95747380Y-131144095D02*
X95747380Y-130277428D01*
X95747380Y-130525047D02*
X95685476Y-130401238D01*
X95623571Y-130339333D01*
X95499761Y-130277428D01*
X95375952Y-130277428D01*
X94942619Y-131144095D02*
X94942619Y-130277428D01*
X94942619Y-129844095D02*
X95004523Y-129906000D01*
X94942619Y-129967904D01*
X94880714Y-129906000D01*
X94942619Y-129844095D01*
X94942619Y-129967904D01*
X94509285Y-130277428D02*
X94014047Y-130277428D01*
X94323571Y-129844095D02*
X94323571Y-130958380D01*
X94261666Y-131082190D01*
X94137857Y-131144095D01*
X94014047Y-131144095D01*
X93704523Y-130277428D02*
X93394999Y-131144095D01*
X93085476Y-130277428D02*
X93394999Y-131144095D01*
X93518809Y-131453619D01*
X93580714Y-131515523D01*
X93704523Y-131577428D01*
X92528333Y-131082190D02*
X92528333Y-131144095D01*
X92590238Y-131267904D01*
X92652142Y-131329809D01*
X90299761Y-131144095D02*
X91042619Y-131144095D01*
X90671190Y-131144095D02*
X90671190Y-129844095D01*
X90794999Y-130029809D01*
X90918809Y-130153619D01*
X91042619Y-130215523D01*
X88814047Y-131082190D02*
X88690238Y-131144095D01*
X88442619Y-131144095D01*
X88318809Y-131082190D01*
X88256904Y-130958380D01*
X88256904Y-130896476D01*
X88318809Y-130772666D01*
X88442619Y-130710761D01*
X88628333Y-130710761D01*
X88752142Y-130648857D01*
X88814047Y-130525047D01*
X88814047Y-130463142D01*
X88752142Y-130339333D01*
X88628333Y-130277428D01*
X88442619Y-130277428D01*
X88318809Y-130339333D01*
X87885476Y-130277428D02*
X87390238Y-130277428D01*
X87699761Y-129844095D02*
X87699761Y-130958380D01*
X87637857Y-131082190D01*
X87514047Y-131144095D01*
X87390238Y-131144095D01*
X86771190Y-131144095D02*
X86894999Y-131082190D01*
X86956904Y-131020285D01*
X87018809Y-130896476D01*
X87018809Y-130525047D01*
X86956904Y-130401238D01*
X86894999Y-130339333D01*
X86771190Y-130277428D01*
X86585476Y-130277428D01*
X86461666Y-130339333D01*
X86399761Y-130401238D01*
X86337857Y-130525047D01*
X86337857Y-130896476D01*
X86399761Y-131020285D01*
X86461666Y-131082190D01*
X86585476Y-131144095D01*
X86771190Y-131144095D01*
X85780714Y-130277428D02*
X85780714Y-131577428D01*
X85780714Y-130339333D02*
X85656904Y-130277428D01*
X85409285Y-130277428D01*
X85285476Y-130339333D01*
X85223571Y-130401238D01*
X85161666Y-130525047D01*
X85161666Y-130896476D01*
X85223571Y-131020285D01*
X85285476Y-131082190D01*
X85409285Y-131144095D01*
X85656904Y-131144095D01*
X85780714Y-131082190D01*
X83614047Y-131144095D02*
X83614047Y-129844095D01*
X83614047Y-130339333D02*
X83490238Y-130277428D01*
X83242619Y-130277428D01*
X83118809Y-130339333D01*
X83056904Y-130401238D01*
X82994999Y-130525047D01*
X82994999Y-130896476D01*
X83056904Y-131020285D01*
X83118809Y-131082190D01*
X83242619Y-131144095D01*
X83490238Y-131144095D01*
X83614047Y-131082190D01*
X82437857Y-131144095D02*
X82437857Y-130277428D01*
X82437857Y-129844095D02*
X82499761Y-129906000D01*
X82437857Y-129967904D01*
X82375952Y-129906000D01*
X82437857Y-129844095D01*
X82437857Y-129967904D01*
X82004523Y-130277428D02*
X81509285Y-130277428D01*
X81818809Y-129844095D02*
X81818809Y-130958380D01*
X81756904Y-131082190D01*
X81633095Y-131144095D01*
X81509285Y-131144095D01*
X81075952Y-131020285D02*
X81014047Y-131082190D01*
X81075952Y-131144095D01*
X81137857Y-131082190D01*
X81075952Y-131020285D01*
X81075952Y-131144095D01*
X132684095Y-128923190D02*
X132498380Y-128985095D01*
X132188857Y-128985095D01*
X132065047Y-128923190D01*
X132003142Y-128861285D01*
X131941238Y-128737476D01*
X131941238Y-128613666D01*
X132003142Y-128489857D01*
X132065047Y-128427952D01*
X132188857Y-128366047D01*
X132436476Y-128304142D01*
X132560285Y-128242238D01*
X132622190Y-128180333D01*
X132684095Y-128056523D01*
X132684095Y-127932714D01*
X132622190Y-127808904D01*
X132560285Y-127747000D01*
X132436476Y-127685095D01*
X132126952Y-127685095D01*
X131941238Y-127747000D01*
X130888857Y-128923190D02*
X131012666Y-128985095D01*
X131260285Y-128985095D01*
X131384095Y-128923190D01*
X131446000Y-128799380D01*
X131446000Y-128304142D01*
X131384095Y-128180333D01*
X131260285Y-128118428D01*
X131012666Y-128118428D01*
X130888857Y-128180333D01*
X130826952Y-128304142D01*
X130826952Y-128427952D01*
X131446000Y-128551761D01*
X130269809Y-128985095D02*
X130269809Y-128118428D01*
X130269809Y-128366047D02*
X130207904Y-128242238D01*
X130146000Y-128180333D01*
X130022190Y-128118428D01*
X129898380Y-128118428D01*
X129465047Y-128985095D02*
X129465047Y-128118428D01*
X129465047Y-127685095D02*
X129526952Y-127747000D01*
X129465047Y-127808904D01*
X129403142Y-127747000D01*
X129465047Y-127685095D01*
X129465047Y-127808904D01*
X128288857Y-128985095D02*
X128288857Y-128304142D01*
X128350761Y-128180333D01*
X128474571Y-128118428D01*
X128722190Y-128118428D01*
X128846000Y-128180333D01*
X128288857Y-128923190D02*
X128412666Y-128985095D01*
X128722190Y-128985095D01*
X128846000Y-128923190D01*
X128907904Y-128799380D01*
X128907904Y-128675571D01*
X128846000Y-128551761D01*
X128722190Y-128489857D01*
X128412666Y-128489857D01*
X128288857Y-128427952D01*
X127484095Y-128985095D02*
X127607904Y-128923190D01*
X127669809Y-128799380D01*
X127669809Y-127685095D01*
X125255523Y-128861285D02*
X125317428Y-128923190D01*
X125503142Y-128985095D01*
X125626952Y-128985095D01*
X125812666Y-128923190D01*
X125936476Y-128799380D01*
X125998380Y-128675571D01*
X126060285Y-128427952D01*
X126060285Y-128242238D01*
X125998380Y-127994619D01*
X125936476Y-127870809D01*
X125812666Y-127747000D01*
X125626952Y-127685095D01*
X125503142Y-127685095D01*
X125317428Y-127747000D01*
X125255523Y-127808904D01*
X124512666Y-128985095D02*
X124636476Y-128923190D01*
X124698380Y-128861285D01*
X124760285Y-128737476D01*
X124760285Y-128366047D01*
X124698380Y-128242238D01*
X124636476Y-128180333D01*
X124512666Y-128118428D01*
X124326952Y-128118428D01*
X124203142Y-128180333D01*
X124141238Y-128242238D01*
X124079333Y-128366047D01*
X124079333Y-128737476D01*
X124141238Y-128861285D01*
X124203142Y-128923190D01*
X124326952Y-128985095D01*
X124512666Y-128985095D01*
X123522190Y-128118428D02*
X123522190Y-128985095D01*
X123522190Y-128242238D02*
X123460285Y-128180333D01*
X123336476Y-128118428D01*
X123150761Y-128118428D01*
X123026952Y-128180333D01*
X122965047Y-128304142D01*
X122965047Y-128985095D01*
X122346000Y-128118428D02*
X122346000Y-128985095D01*
X122346000Y-128242238D02*
X122284095Y-128180333D01*
X122160285Y-128118428D01*
X121974571Y-128118428D01*
X121850761Y-128180333D01*
X121788857Y-128304142D01*
X121788857Y-128985095D01*
X120674571Y-128923190D02*
X120798380Y-128985095D01*
X121046000Y-128985095D01*
X121169809Y-128923190D01*
X121231714Y-128799380D01*
X121231714Y-128304142D01*
X121169809Y-128180333D01*
X121046000Y-128118428D01*
X120798380Y-128118428D01*
X120674571Y-128180333D01*
X120612666Y-128304142D01*
X120612666Y-128427952D01*
X121231714Y-128551761D01*
X119498380Y-128923190D02*
X119622190Y-128985095D01*
X119869809Y-128985095D01*
X119993619Y-128923190D01*
X120055523Y-128861285D01*
X120117428Y-128737476D01*
X120117428Y-128366047D01*
X120055523Y-128242238D01*
X119993619Y-128180333D01*
X119869809Y-128118428D01*
X119622190Y-128118428D01*
X119498380Y-128180333D01*
X119126952Y-128118428D02*
X118631714Y-128118428D01*
X118941238Y-127685095D02*
X118941238Y-128799380D01*
X118879333Y-128923190D01*
X118755523Y-128985095D01*
X118631714Y-128985095D01*
X118198380Y-128985095D02*
X118198380Y-128118428D01*
X118198380Y-127685095D02*
X118260285Y-127747000D01*
X118198380Y-127808904D01*
X118136476Y-127747000D01*
X118198380Y-127685095D01*
X118198380Y-127808904D01*
X117393619Y-128985095D02*
X117517428Y-128923190D01*
X117579333Y-128861285D01*
X117641238Y-128737476D01*
X117641238Y-128366047D01*
X117579333Y-128242238D01*
X117517428Y-128180333D01*
X117393619Y-128118428D01*
X117207904Y-128118428D01*
X117084095Y-128180333D01*
X117022190Y-128242238D01*
X116960285Y-128366047D01*
X116960285Y-128737476D01*
X117022190Y-128861285D01*
X117084095Y-128923190D01*
X117207904Y-128985095D01*
X117393619Y-128985095D01*
X116403142Y-128118428D02*
X116403142Y-128985095D01*
X116403142Y-128242238D02*
X116341238Y-128180333D01*
X116217428Y-128118428D01*
X116031714Y-128118428D01*
X115907904Y-128180333D01*
X115846000Y-128304142D01*
X115846000Y-128985095D01*
X114236476Y-128985095D02*
X114236476Y-127685095D01*
X113926952Y-127685095D01*
X113741238Y-127747000D01*
X113617428Y-127870809D01*
X113555523Y-127994619D01*
X113493619Y-128242238D01*
X113493619Y-128427952D01*
X113555523Y-128675571D01*
X113617428Y-128799380D01*
X113741238Y-128923190D01*
X113926952Y-128985095D01*
X114236476Y-128985095D01*
X112441238Y-128923190D02*
X112565047Y-128985095D01*
X112812666Y-128985095D01*
X112936476Y-128923190D01*
X112998380Y-128799380D01*
X112998380Y-128304142D01*
X112936476Y-128180333D01*
X112812666Y-128118428D01*
X112565047Y-128118428D01*
X112441238Y-128180333D01*
X112379333Y-128304142D01*
X112379333Y-128427952D01*
X112998380Y-128551761D01*
X112007904Y-128118428D02*
X111512666Y-128118428D01*
X111822190Y-127685095D02*
X111822190Y-128799380D01*
X111760285Y-128923190D01*
X111636476Y-128985095D01*
X111512666Y-128985095D01*
X110522190Y-128985095D02*
X110522190Y-128304142D01*
X110584095Y-128180333D01*
X110707904Y-128118428D01*
X110955523Y-128118428D01*
X111079333Y-128180333D01*
X110522190Y-128923190D02*
X110646000Y-128985095D01*
X110955523Y-128985095D01*
X111079333Y-128923190D01*
X111141238Y-128799380D01*
X111141238Y-128675571D01*
X111079333Y-128551761D01*
X110955523Y-128489857D01*
X110646000Y-128489857D01*
X110522190Y-128427952D01*
X109903142Y-128985095D02*
X109903142Y-128118428D01*
X109903142Y-127685095D02*
X109965047Y-127747000D01*
X109903142Y-127808904D01*
X109841238Y-127747000D01*
X109903142Y-127685095D01*
X109903142Y-127808904D01*
X109098380Y-128985095D02*
X109222190Y-128923190D01*
X109284095Y-128799380D01*
X109284095Y-127685095D01*
X108665047Y-128923190D02*
X108541238Y-128985095D01*
X108293619Y-128985095D01*
X108169809Y-128923190D01*
X108107904Y-128799380D01*
X108107904Y-128737476D01*
X108169809Y-128613666D01*
X108293619Y-128551761D01*
X108479333Y-128551761D01*
X108603142Y-128489857D01*
X108665047Y-128366047D01*
X108665047Y-128304142D01*
X108603142Y-128180333D01*
X108479333Y-128118428D01*
X108293619Y-128118428D01*
X108169809Y-128180333D01*
D11*
G36*
X134032803Y-72165115D02*
X134165195Y-72128031D01*
X134352622Y-72070944D01*
X134582601Y-71997712D01*
X134842651Y-71912196D01*
X135004087Y-71857897D01*
X136125749Y-71459977D01*
X137165523Y-71054482D01*
X138125957Y-70640149D01*
X139009592Y-70215713D01*
X139818976Y-69779912D01*
X140556651Y-69331481D01*
X141225163Y-68869156D01*
X141592973Y-68585498D01*
X141861553Y-68356827D01*
X142145726Y-68092926D01*
X142428560Y-67811196D01*
X142693125Y-67529037D01*
X142922488Y-67263850D01*
X143089542Y-67047459D01*
X143283208Y-66744433D01*
X143474508Y-66390295D01*
X143649267Y-66015046D01*
X143793314Y-65648683D01*
X143877734Y-65379094D01*
X143923016Y-65198653D01*
X143954573Y-65038396D01*
X143974920Y-64874940D01*
X143986566Y-64684901D01*
X143992025Y-64444895D01*
X143993189Y-64304333D01*
X143987552Y-63918585D01*
X143963122Y-63591196D01*
X143915655Y-63297119D01*
X143840908Y-63011307D01*
X143734637Y-62708712D01*
X143713802Y-62655496D01*
X143531448Y-62252539D01*
X143312721Y-61881465D01*
X143045160Y-61524604D01*
X142716307Y-61164286D01*
X142541683Y-60993143D01*
X142003182Y-60538716D01*
X141401844Y-60140067D01*
X140739044Y-59797796D01*
X140016160Y-59512501D01*
X139234570Y-59284782D01*
X138395652Y-59115237D01*
X138133667Y-59075900D01*
X137910973Y-59051943D01*
X137621466Y-59031204D01*
X137282952Y-59014047D01*
X136913236Y-59000839D01*
X136530124Y-58991946D01*
X136151421Y-58987733D01*
X135794932Y-58988566D01*
X135478464Y-58994812D01*
X135219822Y-59006836D01*
X135128000Y-59014138D01*
X134239940Y-59130006D01*
X133411668Y-59304553D01*
X132641095Y-59538673D01*
X131926131Y-59833256D01*
X131264686Y-60189193D01*
X130654671Y-60607375D01*
X130093996Y-61088694D01*
X129963333Y-61216936D01*
X129490401Y-61746143D01*
X129096075Y-62303445D01*
X128777381Y-62894282D01*
X128531345Y-63524093D01*
X128368235Y-64135000D01*
X128338540Y-64295889D01*
X128317057Y-64470668D01*
X128302729Y-64675903D01*
X128294497Y-64928158D01*
X128291302Y-65243998D01*
X128291167Y-65341500D01*
X128292409Y-65651362D01*
X128293471Y-65706779D01*
X128577244Y-65706779D01*
X128577749Y-65182370D01*
X128579954Y-65108667D01*
X128604121Y-64652739D01*
X128647787Y-64258155D01*
X128716309Y-63902780D01*
X128815042Y-63564480D01*
X128949342Y-63221123D01*
X129124565Y-62850574D01*
X129127968Y-62843833D01*
X129344163Y-62453059D01*
X129584387Y-62096232D01*
X129865976Y-61750038D01*
X130206268Y-61391166D01*
X130214161Y-61383333D01*
X130635494Y-60994042D01*
X131057801Y-60665683D01*
X131508528Y-60378768D01*
X131974167Y-60133549D01*
X132633109Y-59848099D01*
X133306781Y-59626445D01*
X134013415Y-59463504D01*
X134768167Y-59354521D01*
X134966893Y-59333130D01*
X135150193Y-59313144D01*
X135290975Y-59297530D01*
X135339667Y-59291973D01*
X135478733Y-59282855D01*
X135687069Y-59278396D01*
X135949430Y-59278163D01*
X136250574Y-59281722D01*
X136575256Y-59288639D01*
X136908233Y-59298480D01*
X137234261Y-59310812D01*
X137538095Y-59325201D01*
X137804494Y-59341214D01*
X138018211Y-59358416D01*
X138131722Y-59371408D01*
X138971444Y-59522048D01*
X139752329Y-59729916D01*
X140473276Y-59994526D01*
X141133188Y-60315393D01*
X141730962Y-60692030D01*
X142265500Y-61123951D01*
X142412669Y-61263548D01*
X142828467Y-61722252D01*
X143164218Y-62202313D01*
X143422940Y-62708712D01*
X143601807Y-63224833D01*
X143651971Y-63477125D01*
X143684870Y-63788070D01*
X143700512Y-64133435D01*
X143698902Y-64488985D01*
X143680047Y-64830489D01*
X143643955Y-65133712D01*
X143601220Y-65337827D01*
X143408336Y-65888185D01*
X143132520Y-66430734D01*
X142775260Y-66964116D01*
X142338045Y-67486973D01*
X141822363Y-67997946D01*
X141229701Y-68495678D01*
X140561550Y-68978811D01*
X139819397Y-69445986D01*
X139004729Y-69895846D01*
X138147961Y-70313768D01*
X137758615Y-70487703D01*
X137327053Y-70671853D01*
X136867451Y-70860793D01*
X136393984Y-71049100D01*
X135920827Y-71231349D01*
X135462156Y-71402116D01*
X135032145Y-71555978D01*
X134644970Y-71687510D01*
X134314806Y-71791288D01*
X134200616Y-71824165D01*
X133945092Y-71895207D01*
X133171296Y-71510549D01*
X132454633Y-71131094D01*
X131812052Y-70740672D01*
X131233050Y-70331963D01*
X130707120Y-69897645D01*
X130302000Y-69511066D01*
X129850649Y-69006365D01*
X129472684Y-68483013D01*
X129156877Y-67925328D01*
X129135297Y-67881500D01*
X128935306Y-67438113D01*
X128783597Y-67019372D01*
X128676077Y-66604854D01*
X128608656Y-66174132D01*
X128577244Y-65706779D01*
X128293471Y-65706779D01*
X128297081Y-65895032D01*
X128306596Y-66090961D01*
X128322368Y-66257598D01*
X128345814Y-66413394D01*
X128378347Y-66576799D01*
X128389904Y-66629228D01*
X128584756Y-67314339D01*
X128855878Y-67968131D01*
X129203941Y-68591475D01*
X129629615Y-69185243D01*
X130133574Y-69750308D01*
X130716487Y-70287539D01*
X131379028Y-70797809D01*
X131840190Y-71107471D01*
X132008217Y-71209456D01*
X132218160Y-71328867D01*
X132457798Y-71459553D01*
X132714912Y-71595366D01*
X132977282Y-71730153D01*
X133232686Y-71857766D01*
X133468906Y-71972054D01*
X133673721Y-72066866D01*
X133834911Y-72136053D01*
X133940256Y-72173465D01*
X133967928Y-72178333D01*
X134032803Y-72165115D01*
X134032803Y-72165115D01*
G37*
X134032803Y-72165115D02*
X134165195Y-72128031D01*
X134352622Y-72070944D01*
X134582601Y-71997712D01*
X134842651Y-71912196D01*
X135004087Y-71857897D01*
X136125749Y-71459977D01*
X137165523Y-71054482D01*
X138125957Y-70640149D01*
X139009592Y-70215713D01*
X139818976Y-69779912D01*
X140556651Y-69331481D01*
X141225163Y-68869156D01*
X141592973Y-68585498D01*
X141861553Y-68356827D01*
X142145726Y-68092926D01*
X142428560Y-67811196D01*
X142693125Y-67529037D01*
X142922488Y-67263850D01*
X143089542Y-67047459D01*
X143283208Y-66744433D01*
X143474508Y-66390295D01*
X143649267Y-66015046D01*
X143793314Y-65648683D01*
X143877734Y-65379094D01*
X143923016Y-65198653D01*
X143954573Y-65038396D01*
X143974920Y-64874940D01*
X143986566Y-64684901D01*
X143992025Y-64444895D01*
X143993189Y-64304333D01*
X143987552Y-63918585D01*
X143963122Y-63591196D01*
X143915655Y-63297119D01*
X143840908Y-63011307D01*
X143734637Y-62708712D01*
X143713802Y-62655496D01*
X143531448Y-62252539D01*
X143312721Y-61881465D01*
X143045160Y-61524604D01*
X142716307Y-61164286D01*
X142541683Y-60993143D01*
X142003182Y-60538716D01*
X141401844Y-60140067D01*
X140739044Y-59797796D01*
X140016160Y-59512501D01*
X139234570Y-59284782D01*
X138395652Y-59115237D01*
X138133667Y-59075900D01*
X137910973Y-59051943D01*
X137621466Y-59031204D01*
X137282952Y-59014047D01*
X136913236Y-59000839D01*
X136530124Y-58991946D01*
X136151421Y-58987733D01*
X135794932Y-58988566D01*
X135478464Y-58994812D01*
X135219822Y-59006836D01*
X135128000Y-59014138D01*
X134239940Y-59130006D01*
X133411668Y-59304553D01*
X132641095Y-59538673D01*
X131926131Y-59833256D01*
X131264686Y-60189193D01*
X130654671Y-60607375D01*
X130093996Y-61088694D01*
X129963333Y-61216936D01*
X129490401Y-61746143D01*
X129096075Y-62303445D01*
X128777381Y-62894282D01*
X128531345Y-63524093D01*
X128368235Y-64135000D01*
X128338540Y-64295889D01*
X128317057Y-64470668D01*
X128302729Y-64675903D01*
X128294497Y-64928158D01*
X128291302Y-65243998D01*
X128291167Y-65341500D01*
X128292409Y-65651362D01*
X128293471Y-65706779D01*
X128577244Y-65706779D01*
X128577749Y-65182370D01*
X128579954Y-65108667D01*
X128604121Y-64652739D01*
X128647787Y-64258155D01*
X128716309Y-63902780D01*
X128815042Y-63564480D01*
X128949342Y-63221123D01*
X129124565Y-62850574D01*
X129127968Y-62843833D01*
X129344163Y-62453059D01*
X129584387Y-62096232D01*
X129865976Y-61750038D01*
X130206268Y-61391166D01*
X130214161Y-61383333D01*
X130635494Y-60994042D01*
X131057801Y-60665683D01*
X131508528Y-60378768D01*
X131974167Y-60133549D01*
X132633109Y-59848099D01*
X133306781Y-59626445D01*
X134013415Y-59463504D01*
X134768167Y-59354521D01*
X134966893Y-59333130D01*
X135150193Y-59313144D01*
X135290975Y-59297530D01*
X135339667Y-59291973D01*
X135478733Y-59282855D01*
X135687069Y-59278396D01*
X135949430Y-59278163D01*
X136250574Y-59281722D01*
X136575256Y-59288639D01*
X136908233Y-59298480D01*
X137234261Y-59310812D01*
X137538095Y-59325201D01*
X137804494Y-59341214D01*
X138018211Y-59358416D01*
X138131722Y-59371408D01*
X138971444Y-59522048D01*
X139752329Y-59729916D01*
X140473276Y-59994526D01*
X141133188Y-60315393D01*
X141730962Y-60692030D01*
X142265500Y-61123951D01*
X142412669Y-61263548D01*
X142828467Y-61722252D01*
X143164218Y-62202313D01*
X143422940Y-62708712D01*
X143601807Y-63224833D01*
X143651971Y-63477125D01*
X143684870Y-63788070D01*
X143700512Y-64133435D01*
X143698902Y-64488985D01*
X143680047Y-64830489D01*
X143643955Y-65133712D01*
X143601220Y-65337827D01*
X143408336Y-65888185D01*
X143132520Y-66430734D01*
X142775260Y-66964116D01*
X142338045Y-67486973D01*
X141822363Y-67997946D01*
X141229701Y-68495678D01*
X140561550Y-68978811D01*
X139819397Y-69445986D01*
X139004729Y-69895846D01*
X138147961Y-70313768D01*
X137758615Y-70487703D01*
X137327053Y-70671853D01*
X136867451Y-70860793D01*
X136393984Y-71049100D01*
X135920827Y-71231349D01*
X135462156Y-71402116D01*
X135032145Y-71555978D01*
X134644970Y-71687510D01*
X134314806Y-71791288D01*
X134200616Y-71824165D01*
X133945092Y-71895207D01*
X133171296Y-71510549D01*
X132454633Y-71131094D01*
X131812052Y-70740672D01*
X131233050Y-70331963D01*
X130707120Y-69897645D01*
X130302000Y-69511066D01*
X129850649Y-69006365D01*
X129472684Y-68483013D01*
X129156877Y-67925328D01*
X129135297Y-67881500D01*
X128935306Y-67438113D01*
X128783597Y-67019372D01*
X128676077Y-66604854D01*
X128608656Y-66174132D01*
X128577244Y-65706779D01*
X128293471Y-65706779D01*
X128297081Y-65895032D01*
X128306596Y-66090961D01*
X128322368Y-66257598D01*
X128345814Y-66413394D01*
X128378347Y-66576799D01*
X128389904Y-66629228D01*
X128584756Y-67314339D01*
X128855878Y-67968131D01*
X129203941Y-68591475D01*
X129629615Y-69185243D01*
X130133574Y-69750308D01*
X130716487Y-70287539D01*
X131379028Y-70797809D01*
X131840190Y-71107471D01*
X132008217Y-71209456D01*
X132218160Y-71328867D01*
X132457798Y-71459553D01*
X132714912Y-71595366D01*
X132977282Y-71730153D01*
X133232686Y-71857766D01*
X133468906Y-71972054D01*
X133673721Y-72066866D01*
X133834911Y-72136053D01*
X133940256Y-72173465D01*
X133967928Y-72178333D01*
X134032803Y-72165115D01*
G36*
X125718183Y-119130052D02*
X127184137Y-119129947D01*
X128643795Y-119129752D01*
X130094701Y-119129468D01*
X131534395Y-119129093D01*
X132960419Y-119128628D01*
X134370315Y-119128073D01*
X135761624Y-119127428D01*
X137131888Y-119126692D01*
X138478649Y-119125865D01*
X139799447Y-119124948D01*
X141091826Y-119123939D01*
X142353325Y-119122840D01*
X143581487Y-119121650D01*
X144773853Y-119120368D01*
X145927966Y-119118995D01*
X147041366Y-119117530D01*
X148111595Y-119115973D01*
X149136195Y-119114325D01*
X150112707Y-119112584D01*
X151038673Y-119110752D01*
X151911634Y-119108827D01*
X152729133Y-119106810D01*
X153488710Y-119104701D01*
X154187908Y-119102498D01*
X154824267Y-119100203D01*
X155395330Y-119097816D01*
X155898638Y-119095335D01*
X156331732Y-119092760D01*
X156692154Y-119090093D01*
X156977447Y-119087332D01*
X157185150Y-119084478D01*
X157312807Y-119081530D01*
X157356800Y-119078897D01*
X157525371Y-119025345D01*
X157668510Y-118932900D01*
X157756390Y-118851838D01*
X157797140Y-118813874D01*
X157834735Y-118781792D01*
X157868718Y-118751783D01*
X157898633Y-118720039D01*
X157924023Y-118682750D01*
X157944429Y-118636108D01*
X157959395Y-118576303D01*
X157968465Y-118499529D01*
X157971180Y-118401974D01*
X157967084Y-118279832D01*
X157955719Y-118129292D01*
X157936629Y-117946547D01*
X157909356Y-117727788D01*
X157873443Y-117469205D01*
X157828433Y-117166990D01*
X157773869Y-116817335D01*
X157709294Y-116416430D01*
X157634251Y-115960467D01*
X157548282Y-115445637D01*
X157450931Y-114868132D01*
X157341739Y-114224142D01*
X157220251Y-113509859D01*
X157086009Y-112721474D01*
X156938556Y-111855178D01*
X156864097Y-111417303D01*
X156736005Y-110664654D01*
X156611109Y-109932643D01*
X156490201Y-109225817D01*
X156374068Y-108548720D01*
X156263502Y-107905901D01*
X156159293Y-107301904D01*
X156062230Y-106741275D01*
X155973104Y-106228562D01*
X155892703Y-105768309D01*
X155821820Y-105365064D01*
X155761242Y-105023372D01*
X155711761Y-104747779D01*
X155674166Y-104542831D01*
X155649247Y-104413075D01*
X155638801Y-104365889D01*
X155622254Y-104321243D01*
X155594958Y-104267987D01*
X155553190Y-104201728D01*
X155493230Y-104118075D01*
X155411353Y-104012636D01*
X155303838Y-103881022D01*
X155166961Y-103718839D01*
X154997001Y-103521698D01*
X154790234Y-103285206D01*
X154542939Y-103004973D01*
X154251393Y-102676607D01*
X153911873Y-102295716D01*
X153520656Y-101857910D01*
X153370043Y-101689541D01*
X153022844Y-101301149D01*
X152692814Y-100931293D01*
X152384199Y-100584770D01*
X152101243Y-100266379D01*
X151848192Y-99980919D01*
X151629291Y-99733186D01*
X151448785Y-99527980D01*
X151310920Y-99370099D01*
X151219940Y-99264341D01*
X151180092Y-99215504D01*
X151178656Y-99212695D01*
X151221532Y-99192542D01*
X151324870Y-99147273D01*
X151471062Y-99084541D01*
X151574500Y-99040657D01*
X152058307Y-98824190D01*
X152571262Y-98573054D01*
X153093765Y-98298118D01*
X153606218Y-98010247D01*
X154089022Y-97720309D01*
X154522577Y-97439170D01*
X154749500Y-97280258D01*
X155508858Y-96685995D01*
X156190362Y-96059830D01*
X156795539Y-95399306D01*
X157325914Y-94701970D01*
X157783013Y-93965365D01*
X158168365Y-93187036D01*
X158483495Y-92364528D01*
X158729929Y-91495385D01*
X158906676Y-90593333D01*
X158939913Y-90313359D01*
X158964264Y-89968852D01*
X158979739Y-89579479D01*
X158986350Y-89164904D01*
X158984107Y-88744794D01*
X158973024Y-88338813D01*
X158953110Y-87966628D01*
X158924377Y-87647903D01*
X158904895Y-87503000D01*
X158841904Y-87154039D01*
X158757140Y-86761583D01*
X158657289Y-86351874D01*
X158549043Y-85951153D01*
X158439089Y-85585661D01*
X158348466Y-85320075D01*
X158191355Y-84930023D01*
X157994476Y-84499093D01*
X157770777Y-84052657D01*
X157533206Y-83616091D01*
X157294710Y-83214769D01*
X157194205Y-83058000D01*
X156561945Y-82174025D01*
X155867177Y-81346575D01*
X155111806Y-80577230D01*
X154297740Y-79867568D01*
X153426884Y-79219170D01*
X152501146Y-78633613D01*
X151522431Y-78112477D01*
X150854833Y-77807348D01*
X150604752Y-77705529D01*
X150299990Y-77589926D01*
X149961000Y-77467546D01*
X149608231Y-77345397D01*
X149262134Y-77230488D01*
X148943159Y-77129826D01*
X148671757Y-77050419D01*
X148558250Y-77020363D01*
X148411309Y-76980643D01*
X148303142Y-76946061D01*
X148253844Y-76923162D01*
X148252764Y-76920874D01*
X148286280Y-76889371D01*
X148375395Y-76822552D01*
X148504906Y-76731526D01*
X148602014Y-76665667D01*
X149003293Y-76379899D01*
X149432375Y-76043772D01*
X149873535Y-75671639D01*
X150311049Y-75277849D01*
X150729192Y-74876753D01*
X151112240Y-74482704D01*
X151444468Y-74110051D01*
X151570677Y-73956333D01*
X152135572Y-73182476D01*
X152623997Y-72375177D01*
X153037031Y-71531934D01*
X153375757Y-70650243D01*
X153641254Y-69727600D01*
X153834603Y-68761504D01*
X153846440Y-68685833D01*
X153890375Y-68319032D01*
X153921183Y-67891797D01*
X153938710Y-67427362D01*
X153942801Y-66948961D01*
X153933301Y-66479828D01*
X153910056Y-66043195D01*
X153872911Y-65662297D01*
X153866858Y-65616667D01*
X153688993Y-64618870D01*
X153433430Y-63648009D01*
X153099508Y-62702855D01*
X152686564Y-61782182D01*
X152193937Y-60884762D01*
X151620965Y-60009368D01*
X150966984Y-59154771D01*
X150231333Y-58319744D01*
X149571380Y-57653267D01*
X148680632Y-56850408D01*
X147752310Y-56118668D01*
X146783838Y-55456797D01*
X145772636Y-54863546D01*
X144716128Y-54337665D01*
X143611735Y-53877904D01*
X142456881Y-53483014D01*
X141248987Y-53151745D01*
X139985476Y-52882848D01*
X139586575Y-52812709D01*
X138448847Y-52650954D01*
X137270129Y-52538125D01*
X136065863Y-52474053D01*
X134851488Y-52458571D01*
X133642444Y-52491511D01*
X132454172Y-52572704D01*
X131302112Y-52701982D01*
X130201703Y-52879176D01*
X130005667Y-52917068D01*
X128821333Y-53186215D01*
X127699100Y-53511260D01*
X126636551Y-53893271D01*
X125631268Y-54333318D01*
X124680836Y-54832472D01*
X123782838Y-55391802D01*
X122934857Y-56012377D01*
X122837198Y-56090326D01*
X122120136Y-56716891D01*
X121479325Y-57379953D01*
X120914888Y-58079289D01*
X120426945Y-58814676D01*
X120015619Y-59585893D01*
X119681032Y-60392716D01*
X119423306Y-61234923D01*
X119242563Y-62112292D01*
X119156769Y-62802371D01*
X119104716Y-63376163D01*
X113299713Y-56886998D01*
X112731628Y-56251908D01*
X112178773Y-55633740D01*
X111643779Y-55035443D01*
X111129279Y-54459963D01*
X110637906Y-53910249D01*
X110172292Y-53389248D01*
X109735069Y-52899908D01*
X109328870Y-52445177D01*
X108956328Y-52028002D01*
X108620074Y-51651330D01*
X108322741Y-51318111D01*
X108066962Y-51031290D01*
X107855370Y-50793816D01*
X107690595Y-50608637D01*
X107575272Y-50478700D01*
X107512032Y-50406953D01*
X107500105Y-50392907D01*
X107542124Y-50393167D01*
X107659653Y-50396007D01*
X107843587Y-50401154D01*
X108084817Y-50408336D01*
X108374237Y-50417279D01*
X108702739Y-50427711D01*
X109061216Y-50439360D01*
X109156500Y-50442498D01*
X110100323Y-50473272D01*
X111009220Y-50502039D01*
X111888181Y-50528865D01*
X112742195Y-50553813D01*
X113576251Y-50576947D01*
X114395340Y-50598331D01*
X115204451Y-50618029D01*
X116008573Y-50636106D01*
X116812697Y-50652624D01*
X117621811Y-50667648D01*
X118440906Y-50681243D01*
X119274971Y-50693471D01*
X120128995Y-50704398D01*
X121007969Y-50714086D01*
X121916883Y-50722600D01*
X122860724Y-50730004D01*
X123844484Y-50736363D01*
X124873152Y-50741739D01*
X125951717Y-50746197D01*
X127085170Y-50749800D01*
X128278499Y-50752614D01*
X129536695Y-50754702D01*
X130864747Y-50756127D01*
X132267644Y-50756954D01*
X133701670Y-50757245D01*
X134879925Y-50757189D01*
X135975803Y-50756913D01*
X136991594Y-50756408D01*
X137929588Y-50755662D01*
X138792073Y-50754664D01*
X139581340Y-50753405D01*
X140299679Y-50751872D01*
X140949378Y-50750057D01*
X141532728Y-50747947D01*
X142052018Y-50745532D01*
X142509538Y-50742802D01*
X142907577Y-50739746D01*
X143248425Y-50736352D01*
X143534371Y-50732612D01*
X143767706Y-50728512D01*
X143950719Y-50724044D01*
X144085699Y-50719197D01*
X144174936Y-50713959D01*
X144220720Y-50708320D01*
X144221504Y-50708130D01*
X144486488Y-50607010D01*
X144686070Y-50452144D01*
X144820183Y-50243607D01*
X144888761Y-49981472D01*
X144890628Y-49965527D01*
X144889495Y-49914222D01*
X144879728Y-49814289D01*
X144860961Y-49663414D01*
X144832827Y-49459282D01*
X144794959Y-49199579D01*
X144746990Y-48881991D01*
X144688555Y-48504203D01*
X144619285Y-48063901D01*
X144538815Y-47558771D01*
X144446778Y-46986498D01*
X144342807Y-46344768D01*
X144226536Y-45631266D01*
X144097598Y-44843679D01*
X143955625Y-43979692D01*
X143800252Y-43036991D01*
X143631112Y-42013261D01*
X143621034Y-41952333D01*
X143487496Y-41145444D01*
X143357023Y-40357908D01*
X143230341Y-39594059D01*
X143108172Y-38858232D01*
X142991242Y-38154760D01*
X142880273Y-37487976D01*
X142775989Y-36862215D01*
X142679114Y-36281809D01*
X142590373Y-35751093D01*
X142510489Y-35274401D01*
X142440185Y-34856065D01*
X142380186Y-34500419D01*
X142331215Y-34211798D01*
X142293996Y-33994534D01*
X142269254Y-33852962D01*
X142258852Y-33796740D01*
X142177827Y-33512034D01*
X142061168Y-33295423D01*
X141901490Y-33135188D01*
X141802273Y-33072034D01*
X141791029Y-33067474D01*
X141773125Y-33063106D01*
X141746768Y-33058924D01*
X141710170Y-33054925D01*
X141661539Y-33051104D01*
X141599085Y-33047455D01*
X141521017Y-33043976D01*
X141425545Y-33040661D01*
X141310878Y-33037505D01*
X141175226Y-33034505D01*
X141016799Y-33031656D01*
X140833805Y-33028953D01*
X140624454Y-33026391D01*
X140386956Y-33023967D01*
X140119520Y-33021676D01*
X139820355Y-33019513D01*
X139487672Y-33017473D01*
X139119679Y-33015553D01*
X138714586Y-33013748D01*
X138270602Y-33012053D01*
X137785938Y-33010463D01*
X137258802Y-33008975D01*
X136687403Y-33007584D01*
X136069952Y-33006284D01*
X135404658Y-33005073D01*
X134689730Y-33003945D01*
X133923378Y-33002895D01*
X133103812Y-33001920D01*
X132229239Y-33001015D01*
X131297871Y-33000174D01*
X130307917Y-32999395D01*
X129257586Y-32998671D01*
X128145087Y-32998000D01*
X126968631Y-32997376D01*
X125726426Y-32996794D01*
X124416681Y-32996250D01*
X123037608Y-32995741D01*
X121587414Y-32995260D01*
X120064310Y-32994804D01*
X118466504Y-32994369D01*
X116792207Y-32993949D01*
X115039628Y-32993540D01*
X113206976Y-32993138D01*
X111292461Y-32992739D01*
X110172500Y-32992512D01*
X108541509Y-32992228D01*
X106931074Y-32992033D01*
X105343284Y-32991927D01*
X103780229Y-32991906D01*
X102244000Y-32991970D01*
X100736685Y-32992116D01*
X99260376Y-32992343D01*
X97817161Y-32992650D01*
X96409131Y-32993034D01*
X95038375Y-32993493D01*
X93706984Y-32994026D01*
X92417046Y-32994632D01*
X91170653Y-32995308D01*
X89969894Y-32996053D01*
X88816859Y-32996865D01*
X87713638Y-32997742D01*
X86662320Y-32998683D01*
X85664996Y-32999686D01*
X84723755Y-33000748D01*
X83840688Y-33001870D01*
X83017883Y-33003047D01*
X82257432Y-33004280D01*
X81561424Y-33005566D01*
X80931948Y-33006903D01*
X80371095Y-33008290D01*
X79880954Y-33009725D01*
X79463616Y-33011207D01*
X79121171Y-33012733D01*
X78855707Y-33014301D01*
X78669316Y-33015911D01*
X78564086Y-33017560D01*
X78539977Y-33018698D01*
X78320168Y-33109014D01*
X78137452Y-33270269D01*
X78093607Y-33326046D01*
X78064700Y-33363771D01*
X78038371Y-33397770D01*
X78015065Y-33431996D01*
X77995230Y-33470402D01*
X77979311Y-33516941D01*
X77967756Y-33575565D01*
X77961012Y-33650228D01*
X77959524Y-33744883D01*
X77962348Y-33824333D01*
X78738387Y-33824333D01*
X110087027Y-33824333D01*
X111713221Y-33824376D01*
X113318521Y-33824502D01*
X114900843Y-33824710D01*
X116458105Y-33824997D01*
X117988224Y-33825361D01*
X119489117Y-33825801D01*
X120958701Y-33826314D01*
X122394893Y-33826898D01*
X123795610Y-33827550D01*
X125158771Y-33828269D01*
X126482291Y-33829054D01*
X127764088Y-33829900D01*
X129002079Y-33830807D01*
X130194181Y-33831772D01*
X131338312Y-33832794D01*
X132432389Y-33833870D01*
X133474328Y-33834997D01*
X134462048Y-33836175D01*
X135393464Y-33837400D01*
X136266495Y-33838671D01*
X137079058Y-33839986D01*
X137829069Y-33841342D01*
X138514446Y-33842737D01*
X139133106Y-33844170D01*
X139682966Y-33845638D01*
X140161943Y-33847138D01*
X140567955Y-33848670D01*
X140898919Y-33850230D01*
X141152751Y-33851818D01*
X141327369Y-33853429D01*
X141420691Y-33855063D01*
X141436810Y-33856083D01*
X141443735Y-33900430D01*
X141463829Y-34024243D01*
X141496422Y-34223461D01*
X141540843Y-34494025D01*
X141596423Y-34831871D01*
X141662489Y-35232941D01*
X141738374Y-35693171D01*
X141823405Y-36208502D01*
X141916913Y-36774872D01*
X142018227Y-37388220D01*
X142126678Y-38044485D01*
X142241594Y-38739606D01*
X142362306Y-39469522D01*
X142488143Y-40230171D01*
X142618435Y-41017493D01*
X142752511Y-41827426D01*
X142762678Y-41888833D01*
X144087403Y-49889833D01*
X134220785Y-49902797D01*
X132718683Y-49904480D01*
X131295958Y-49905430D01*
X129947324Y-49905577D01*
X128667494Y-49904853D01*
X127451182Y-49903191D01*
X126293101Y-49900521D01*
X125187963Y-49896776D01*
X124130484Y-49891888D01*
X123115375Y-49885787D01*
X122137351Y-49878407D01*
X121191124Y-49869678D01*
X120271409Y-49859533D01*
X119372917Y-49847902D01*
X118490364Y-49834719D01*
X117618462Y-49819915D01*
X116751924Y-49803421D01*
X115885464Y-49785169D01*
X115013795Y-49765091D01*
X114131631Y-49743119D01*
X113233685Y-49719184D01*
X112314670Y-49693219D01*
X111369299Y-49665155D01*
X110392287Y-49634923D01*
X109378346Y-49602456D01*
X108361999Y-49569011D01*
X107897303Y-49553801D01*
X107456311Y-49539863D01*
X107046540Y-49527404D01*
X106675510Y-49516628D01*
X106350739Y-49507741D01*
X106079745Y-49500946D01*
X105870049Y-49496450D01*
X105729167Y-49494457D01*
X105664620Y-49495172D01*
X105662630Y-49495404D01*
X105664306Y-49509373D01*
X105690100Y-49549438D01*
X105741702Y-49617520D01*
X105820805Y-49715536D01*
X105929100Y-49845406D01*
X106068279Y-50009049D01*
X106240035Y-50208383D01*
X106446059Y-50445328D01*
X106688042Y-50721802D01*
X106967678Y-51039725D01*
X107286657Y-51401016D01*
X107646672Y-51807592D01*
X108049414Y-52261374D01*
X108496576Y-52764280D01*
X108989849Y-53318229D01*
X109530925Y-53925140D01*
X110121496Y-54586933D01*
X110763254Y-55305525D01*
X111457890Y-56082836D01*
X112207097Y-56920784D01*
X112369610Y-57102500D01*
X118299553Y-63732833D01*
X119415176Y-63732833D01*
X119438272Y-63119000D01*
X119512207Y-62260364D01*
X119668014Y-61421577D01*
X119904631Y-60605446D01*
X120220996Y-59814783D01*
X120616046Y-59052396D01*
X121088719Y-58321095D01*
X121415044Y-57891054D01*
X121914188Y-57324073D01*
X122488197Y-56768368D01*
X123127368Y-56231134D01*
X123821998Y-55719569D01*
X124562384Y-55240870D01*
X125338824Y-54802234D01*
X126053175Y-54450979D01*
X126998365Y-54057838D01*
X128008084Y-53713503D01*
X129076808Y-53419228D01*
X130199017Y-53176264D01*
X131369187Y-52985865D01*
X132581796Y-52849282D01*
X133371167Y-52791069D01*
X133668543Y-52778210D01*
X134033431Y-52769968D01*
X134449766Y-52766108D01*
X134901483Y-52766396D01*
X135372518Y-52770598D01*
X135846807Y-52778480D01*
X136308286Y-52789806D01*
X136740890Y-52804342D01*
X137128555Y-52821855D01*
X137455216Y-52842109D01*
X137583333Y-52852530D01*
X138945740Y-53009229D01*
X140252618Y-53229631D01*
X141504329Y-53513840D01*
X142701235Y-53861962D01*
X143843698Y-54274102D01*
X144932081Y-54750365D01*
X145944167Y-55278051D01*
X146251462Y-55460481D01*
X146603107Y-55683393D01*
X146978630Y-55932799D01*
X147357560Y-56194713D01*
X147719426Y-56455146D01*
X148043758Y-56700113D01*
X148161217Y-56792900D01*
X148466231Y-57047850D01*
X148806799Y-57349772D01*
X149165990Y-57682372D01*
X149526874Y-58029352D01*
X149872519Y-58374418D01*
X150185995Y-58701273D01*
X150450372Y-58993622D01*
X150463845Y-59009179D01*
X151138894Y-59844274D01*
X151731377Y-60691714D01*
X152242925Y-61554903D01*
X152675166Y-62437246D01*
X153029728Y-63342150D01*
X153308241Y-64273019D01*
X153512333Y-65233259D01*
X153548986Y-65459060D01*
X153593095Y-65826885D01*
X153624269Y-66255357D01*
X153642350Y-66721424D01*
X153647181Y-67202037D01*
X153638604Y-67674144D01*
X153616462Y-68114696D01*
X153580597Y-68500642D01*
X153570293Y-68579969D01*
X153403555Y-69506122D01*
X153164330Y-70395783D01*
X152851688Y-71250318D01*
X152464699Y-72071093D01*
X152002434Y-72859471D01*
X151463964Y-73616819D01*
X150848359Y-74344501D01*
X150154689Y-75043883D01*
X149382026Y-75716330D01*
X148529440Y-76363206D01*
X148044450Y-76696414D01*
X147855882Y-76825435D01*
X147708874Y-76933511D01*
X147612332Y-77013590D01*
X147575162Y-77058620D01*
X147578783Y-77065194D01*
X147641911Y-77082876D01*
X147768141Y-77115266D01*
X147938202Y-77157499D01*
X148103167Y-77197586D01*
X149207573Y-77503431D01*
X150270430Y-77878778D01*
X151288768Y-78322012D01*
X152259618Y-78831515D01*
X153180010Y-79405671D01*
X154046974Y-80042863D01*
X154857542Y-80741476D01*
X155174774Y-81047167D01*
X155887498Y-81806855D01*
X156518483Y-82586020D01*
X157068861Y-83386789D01*
X157539764Y-84211288D01*
X157932323Y-85061645D01*
X158247670Y-85939985D01*
X158486935Y-86848435D01*
X158609696Y-87503000D01*
X158642695Y-87778333D01*
X158667097Y-88118616D01*
X158682907Y-88504569D01*
X158690130Y-88916914D01*
X158688772Y-89336372D01*
X158678837Y-89743665D01*
X158660331Y-90119512D01*
X158633259Y-90444637D01*
X158608834Y-90634158D01*
X158433686Y-91512851D01*
X158189872Y-92348914D01*
X157876341Y-93143657D01*
X157492041Y-93898391D01*
X157035921Y-94614425D01*
X156506929Y-95293071D01*
X155904014Y-95935639D01*
X155226124Y-96543440D01*
X154472209Y-97117783D01*
X153641216Y-97659979D01*
X152732093Y-98171340D01*
X152442333Y-98319749D01*
X152217957Y-98429699D01*
X151978731Y-98542593D01*
X151737610Y-98652797D01*
X151507550Y-98754675D01*
X151301509Y-98842592D01*
X151132442Y-98910914D01*
X151013305Y-98954006D01*
X150957054Y-98966232D01*
X150956379Y-98966030D01*
X150924018Y-98933445D01*
X150839209Y-98842053D01*
X150705881Y-98696212D01*
X150527964Y-98500280D01*
X150309389Y-98258616D01*
X150054084Y-97975578D01*
X149765980Y-97655525D01*
X149449008Y-97302815D01*
X149107096Y-96921806D01*
X148744174Y-96516856D01*
X148364173Y-96092325D01*
X148236977Y-95950109D01*
X145550708Y-92946052D01*
X146029242Y-92706265D01*
X146708909Y-92328271D01*
X147325922Y-91907947D01*
X147877224Y-91448506D01*
X148359756Y-90953161D01*
X148770463Y-90425125D01*
X149106286Y-89867611D01*
X149364167Y-89283833D01*
X149409537Y-89154000D01*
X149506713Y-88840502D01*
X149577537Y-88553115D01*
X149625522Y-88267723D01*
X149654184Y-87960209D01*
X149667036Y-87606458D01*
X149668635Y-87376000D01*
X149663235Y-86996134D01*
X149644920Y-86675539D01*
X149609669Y-86389288D01*
X149553458Y-86112453D01*
X149472266Y-85820106D01*
X149365400Y-85496877D01*
X149095041Y-84845372D01*
X148742408Y-84206217D01*
X148309342Y-83582135D01*
X147797688Y-82975849D01*
X147355165Y-82526514D01*
X146699612Y-81959945D01*
X145988993Y-81457552D01*
X145223723Y-81019553D01*
X144404218Y-80646170D01*
X143530892Y-80337622D01*
X142888937Y-80160621D01*
X142416041Y-80044305D01*
X141682437Y-80319370D01*
X140926380Y-80607994D01*
X140166212Y-80908010D01*
X139416765Y-81213211D01*
X138692871Y-81517389D01*
X138009361Y-81814338D01*
X137381067Y-82097850D01*
X136957160Y-82296899D01*
X136716194Y-82411076D01*
X136539575Y-82491013D01*
X136416096Y-82540679D01*
X136334548Y-82564041D01*
X136283724Y-82565067D01*
X136252415Y-82547725D01*
X136251436Y-82546732D01*
X136218767Y-82510627D01*
X136131863Y-82413890D01*
X135992934Y-82258992D01*
X135804194Y-82048406D01*
X135567853Y-81784601D01*
X135286126Y-81470050D01*
X134961223Y-81107223D01*
X134595357Y-80698593D01*
X134190739Y-80246630D01*
X133749583Y-79753806D01*
X133274101Y-79222593D01*
X132766503Y-78655461D01*
X132229004Y-78054882D01*
X131663814Y-77423327D01*
X131073146Y-76763268D01*
X130459212Y-76077175D01*
X129824225Y-75367522D01*
X129170395Y-74636778D01*
X128499937Y-73887415D01*
X127815061Y-73121904D01*
X127804113Y-73109667D01*
X119415176Y-63732833D01*
X118299553Y-63732833D01*
X119161126Y-64696166D01*
X119210606Y-65061166D01*
X119375270Y-65969050D01*
X119618941Y-66846628D01*
X119941500Y-67693724D01*
X120342828Y-68510161D01*
X120822809Y-69295760D01*
X121381323Y-70050347D01*
X122018252Y-70773743D01*
X122733478Y-71465772D01*
X123526883Y-72126256D01*
X124311833Y-72696400D01*
X124824328Y-73031487D01*
X125386172Y-73373256D01*
X125975232Y-73709504D01*
X126569377Y-74028025D01*
X127146478Y-74316616D01*
X127684402Y-74563071D01*
X127740833Y-74587342D01*
X127985085Y-74700172D01*
X128160422Y-74802205D01*
X128280451Y-74901578D01*
X128297769Y-74920420D01*
X128431371Y-75072741D01*
X127832102Y-75407420D01*
X127413752Y-75650707D01*
X126968563Y-75926713D01*
X126518584Y-76220779D01*
X126085860Y-76518243D01*
X125692440Y-76804447D01*
X125454833Y-76988167D01*
X124925551Y-77440486D01*
X124401032Y-77945832D01*
X123897067Y-78486610D01*
X123429443Y-79045223D01*
X123013952Y-79604075D01*
X122757800Y-79993714D01*
X122306465Y-80803654D01*
X121929498Y-81652454D01*
X121627404Y-82537588D01*
X121557129Y-82822431D01*
X136534792Y-82822431D01*
X136583417Y-82794504D01*
X136699005Y-82737190D01*
X136871047Y-82655262D01*
X137089036Y-82553496D01*
X137342465Y-82436663D01*
X137620825Y-82309537D01*
X137913610Y-82176893D01*
X138210312Y-82043504D01*
X138500423Y-81914143D01*
X138773437Y-81793585D01*
X139018845Y-81686602D01*
X139226140Y-81597968D01*
X139276667Y-81576778D01*
X139519966Y-81476596D01*
X139822674Y-81353969D01*
X140165135Y-81216741D01*
X140527692Y-81072756D01*
X140890692Y-80929856D01*
X141202833Y-80808151D01*
X141545018Y-80674933D01*
X141820021Y-80568876D01*
X142040288Y-80488374D01*
X142218266Y-80431820D01*
X142366402Y-80397606D01*
X142497144Y-80384126D01*
X142622937Y-80389773D01*
X142756229Y-80412939D01*
X142909467Y-80452018D01*
X143095097Y-80505404D01*
X143234833Y-80545818D01*
X144057134Y-80818063D01*
X144843236Y-81152737D01*
X145583006Y-81544717D01*
X146266313Y-81988882D01*
X146615717Y-82254627D01*
X146821209Y-82431490D01*
X147059104Y-82654773D01*
X147313534Y-82907872D01*
X147568629Y-83174179D01*
X147808518Y-83437086D01*
X148017333Y-83679987D01*
X148179203Y-83886275D01*
X148192495Y-83904667D01*
X148580229Y-84495378D01*
X148888651Y-85076186D01*
X149120926Y-85656306D01*
X149280223Y-86244950D01*
X149369710Y-86851332D01*
X149393245Y-87397167D01*
X149371464Y-87943794D01*
X149304019Y-88439699D01*
X149185554Y-88908615D01*
X149010713Y-89374276D01*
X148886989Y-89640833D01*
X148726467Y-89949323D01*
X148565663Y-90217010D01*
X148389786Y-90463578D01*
X148184046Y-90708714D01*
X147933652Y-90972102D01*
X147753758Y-91149087D01*
X147205601Y-91625372D01*
X146596206Y-92053002D01*
X145918847Y-92436662D01*
X145867213Y-92462744D01*
X145359942Y-92717031D01*
X145223232Y-92575932D01*
X145179172Y-92528023D01*
X145082054Y-92420670D01*
X144935207Y-92257590D01*
X144741959Y-92042498D01*
X144505638Y-91779111D01*
X144229572Y-91471145D01*
X143917089Y-91122315D01*
X143571518Y-90736339D01*
X143196186Y-90316930D01*
X142794421Y-89867807D01*
X142369552Y-89392685D01*
X141924907Y-88895279D01*
X141463813Y-88379306D01*
X141115862Y-87989833D01*
X140641092Y-87458374D01*
X140178038Y-86940080D01*
X139730227Y-86438898D01*
X139301187Y-85958775D01*
X138894447Y-85503657D01*
X138513534Y-85077490D01*
X138161977Y-84684222D01*
X137843305Y-84327799D01*
X137561044Y-84012167D01*
X137318724Y-83741273D01*
X137119872Y-83519064D01*
X136968017Y-83349486D01*
X136866686Y-83236485D01*
X136829017Y-83194612D01*
X136704525Y-83052842D01*
X136607188Y-82934506D01*
X136547604Y-82853010D01*
X136534792Y-82822431D01*
X121557129Y-82822431D01*
X121400687Y-83456529D01*
X121249854Y-84406751D01*
X121175409Y-85385729D01*
X121177857Y-86390934D01*
X121257704Y-87419843D01*
X121263187Y-87467182D01*
X121351963Y-88035746D01*
X131771877Y-88035746D01*
X131819524Y-87485421D01*
X131933349Y-86962286D01*
X132115491Y-86463168D01*
X132368086Y-85984892D01*
X132693273Y-85524286D01*
X133093189Y-85078176D01*
X133569973Y-84643389D01*
X134125763Y-84216752D01*
X134762696Y-83795091D01*
X135219667Y-83523071D01*
X135434209Y-83402474D01*
X135587729Y-83322491D01*
X135690825Y-83278577D01*
X135754094Y-83266187D01*
X135787184Y-83279714D01*
X135820551Y-83316840D01*
X135907236Y-83413638D01*
X136044143Y-83566646D01*
X136228179Y-83772401D01*
X136456247Y-84027441D01*
X136725251Y-84328304D01*
X137032098Y-84671526D01*
X137373691Y-85053646D01*
X137746935Y-85471201D01*
X138148734Y-85920728D01*
X138575995Y-86398766D01*
X139025621Y-86901851D01*
X139494516Y-87426522D01*
X139979587Y-87969316D01*
X140164485Y-88176224D01*
X140769470Y-88853526D01*
X141319793Y-89470288D01*
X141817493Y-90028844D01*
X142264611Y-90531526D01*
X142663187Y-90980670D01*
X143015261Y-91378609D01*
X143322873Y-91727677D01*
X143588065Y-92030209D01*
X143812875Y-92288537D01*
X143999344Y-92504997D01*
X144149513Y-92681921D01*
X144265421Y-92821645D01*
X144349109Y-92926502D01*
X144402618Y-92998825D01*
X144427986Y-93040949D01*
X144429029Y-93054711D01*
X144315157Y-93101355D01*
X144129984Y-93156714D01*
X143886119Y-93218199D01*
X143596171Y-93283221D01*
X143272747Y-93349191D01*
X142928457Y-93413522D01*
X142575909Y-93473623D01*
X142227711Y-93526906D01*
X141943667Y-93565016D01*
X141716931Y-93585808D01*
X141420836Y-93601840D01*
X141070550Y-93613198D01*
X140681244Y-93619969D01*
X140268084Y-93622241D01*
X139846240Y-93620100D01*
X139430881Y-93613635D01*
X139037175Y-93602932D01*
X138680291Y-93588078D01*
X138375398Y-93569160D01*
X138137664Y-93546266D01*
X138112500Y-93543004D01*
X137204783Y-93390938D01*
X136357356Y-93187687D01*
X135572021Y-92933966D01*
X134850581Y-92630491D01*
X134194836Y-92277975D01*
X133606590Y-91877134D01*
X133317700Y-91640893D01*
X132870654Y-91199523D01*
X132500131Y-90721972D01*
X132205818Y-90207621D01*
X131987401Y-89655850D01*
X131844568Y-89066040D01*
X131788270Y-88616434D01*
X131771877Y-88035746D01*
X121351963Y-88035746D01*
X121426227Y-88511361D01*
X121666292Y-89522266D01*
X121983660Y-90500376D01*
X122378612Y-91446170D01*
X122851425Y-92360127D01*
X123402379Y-93242728D01*
X124031753Y-94094452D01*
X124739827Y-94915779D01*
X125526878Y-95707187D01*
X126393187Y-96469157D01*
X126600321Y-96637605D01*
X127576196Y-97365809D01*
X128605176Y-98028294D01*
X129686747Y-98624864D01*
X130820394Y-99155324D01*
X132005604Y-99619479D01*
X133241861Y-100017132D01*
X134528651Y-100348089D01*
X135865460Y-100612153D01*
X137251773Y-100809130D01*
X137708200Y-100858204D01*
X138825024Y-100944493D01*
X139992050Y-100988253D01*
X141191118Y-100990354D01*
X142404069Y-100951668D01*
X143612743Y-100873067D01*
X144798979Y-100755421D01*
X145944618Y-100599602D01*
X147002500Y-100412294D01*
X147378758Y-100333465D01*
X147779942Y-100242907D01*
X148193056Y-100144074D01*
X148605103Y-100040421D01*
X149003089Y-99935401D01*
X149374018Y-99832469D01*
X149704894Y-99735080D01*
X149982721Y-99646687D01*
X150194505Y-99570746D01*
X150243393Y-99550834D01*
X150271867Y-99562959D01*
X150331768Y-99612644D01*
X150425588Y-99702564D01*
X150555817Y-99835397D01*
X150724946Y-100013819D01*
X150935464Y-100240505D01*
X151189862Y-100518134D01*
X151490630Y-100849381D01*
X151840259Y-101236923D01*
X152241240Y-101683436D01*
X152586995Y-102069614D01*
X154864703Y-104616334D01*
X156003400Y-111310250D01*
X156129821Y-112053351D01*
X156252619Y-112775009D01*
X156371022Y-113470688D01*
X156484256Y-114135858D01*
X156591550Y-114765982D01*
X156692130Y-115356529D01*
X156785225Y-115902965D01*
X156870061Y-116400755D01*
X156945866Y-116845367D01*
X157011868Y-117232268D01*
X157067293Y-117556922D01*
X157111370Y-117814798D01*
X157143325Y-118001361D01*
X157162386Y-118112078D01*
X157167593Y-118141750D01*
X157193089Y-118279333D01*
X123427544Y-118279333D01*
X121397212Y-118279284D01*
X119418903Y-118279138D01*
X117493730Y-118278895D01*
X115622808Y-118278558D01*
X113807247Y-118278127D01*
X112048163Y-118277603D01*
X110346667Y-118276989D01*
X108703872Y-118276286D01*
X107120893Y-118275493D01*
X105598840Y-118274614D01*
X104138829Y-118273649D01*
X102741970Y-118272600D01*
X101409379Y-118271468D01*
X100142166Y-118270253D01*
X98941447Y-118268959D01*
X97808332Y-118267584D01*
X96743937Y-118266132D01*
X95749372Y-118264604D01*
X94825752Y-118263000D01*
X93974190Y-118261322D01*
X93195798Y-118259571D01*
X92491689Y-118257749D01*
X91862977Y-118255856D01*
X91310774Y-118253895D01*
X90836193Y-118251866D01*
X90440348Y-118249771D01*
X90124351Y-118247611D01*
X89889315Y-118245387D01*
X89736354Y-118243101D01*
X89666580Y-118240753D01*
X89662000Y-118239968D01*
X89655194Y-118194825D01*
X89635226Y-118070238D01*
X89602767Y-117870291D01*
X89558491Y-117599068D01*
X89503069Y-117260654D01*
X89437174Y-116859131D01*
X89361478Y-116398585D01*
X89276653Y-115883100D01*
X89183373Y-115316761D01*
X89082309Y-114703650D01*
X88974134Y-114047853D01*
X88859520Y-113353453D01*
X88739140Y-112624536D01*
X88613666Y-111865184D01*
X88483771Y-111079483D01*
X88350126Y-110271517D01*
X88349667Y-110268741D01*
X88215951Y-109460179D01*
X88085986Y-108673562D01*
X87960445Y-107912996D01*
X87840001Y-107182587D01*
X87725328Y-106486443D01*
X87617098Y-105828670D01*
X87515986Y-105213373D01*
X87422663Y-104644660D01*
X87337805Y-104126637D01*
X87262083Y-103663411D01*
X87196172Y-103259088D01*
X87140744Y-102917775D01*
X87096472Y-102643577D01*
X87064032Y-102440602D01*
X87044094Y-102312956D01*
X87037333Y-102264773D01*
X87040733Y-102257483D01*
X87052886Y-102250699D01*
X87076722Y-102244405D01*
X87115168Y-102238582D01*
X87171154Y-102233212D01*
X87247609Y-102228277D01*
X87347462Y-102223759D01*
X87473642Y-102219641D01*
X87629079Y-102215904D01*
X87816700Y-102212530D01*
X88039436Y-102209501D01*
X88300214Y-102206799D01*
X88601965Y-102204407D01*
X88947617Y-102202305D01*
X89340099Y-102200477D01*
X89782341Y-102198905D01*
X90277270Y-102197569D01*
X90827817Y-102196452D01*
X91436910Y-102195537D01*
X92107479Y-102194805D01*
X92842451Y-102194238D01*
X93644757Y-102193818D01*
X94517325Y-102193527D01*
X95463085Y-102193348D01*
X96484965Y-102193262D01*
X97585894Y-102193250D01*
X98668417Y-102193291D01*
X100459696Y-102193730D01*
X102167312Y-102194852D01*
X103792268Y-102196666D01*
X105335565Y-102199175D01*
X106798204Y-102202388D01*
X108181187Y-102206309D01*
X109485515Y-102210946D01*
X110712191Y-102216304D01*
X111862214Y-102222389D01*
X112936588Y-102229207D01*
X113936314Y-102236765D01*
X114862393Y-102245069D01*
X115715826Y-102254125D01*
X116497616Y-102263939D01*
X117208764Y-102274517D01*
X117850272Y-102285866D01*
X118423140Y-102297991D01*
X118928371Y-102310898D01*
X119210667Y-102319379D01*
X119921964Y-102341796D01*
X120646207Y-102363873D01*
X121378163Y-102385491D01*
X122112599Y-102406527D01*
X122844281Y-102426862D01*
X123567976Y-102446373D01*
X124278452Y-102464939D01*
X124970476Y-102482440D01*
X125638813Y-102498754D01*
X126278231Y-102513760D01*
X126883497Y-102527337D01*
X127449377Y-102539364D01*
X127970640Y-102549720D01*
X128442050Y-102558283D01*
X128858376Y-102564933D01*
X129214385Y-102569548D01*
X129504842Y-102572007D01*
X129724515Y-102572190D01*
X129868171Y-102569974D01*
X129918065Y-102567215D01*
X130063296Y-102552500D01*
X122831817Y-94382167D01*
X122197748Y-93665782D01*
X121577954Y-92965537D01*
X120974809Y-92284112D01*
X120390685Y-91624186D01*
X119827956Y-90988441D01*
X119288994Y-90379558D01*
X118776172Y-89800216D01*
X118291863Y-89253096D01*
X117838440Y-88740880D01*
X117418275Y-88266247D01*
X117033743Y-87831877D01*
X116687215Y-87440453D01*
X116381065Y-87094653D01*
X116117665Y-86797159D01*
X115899389Y-86550650D01*
X115728609Y-86357809D01*
X115607698Y-86221315D01*
X115539029Y-86143848D01*
X115523649Y-86126547D01*
X115494582Y-86089972D01*
X115476901Y-86047646D01*
X115471114Y-85985253D01*
X115477725Y-85888477D01*
X115497242Y-85743002D01*
X115530170Y-85534512D01*
X115548553Y-85422079D01*
X115739438Y-84039470D01*
X115867276Y-82609941D01*
X115932322Y-81142800D01*
X115934833Y-79647354D01*
X115875063Y-78132909D01*
X115753268Y-76608771D01*
X115569702Y-75084248D01*
X115324622Y-73568645D01*
X115206392Y-72951856D01*
X114825258Y-71256114D01*
X114368515Y-69594021D01*
X113834879Y-67962279D01*
X113223067Y-66357591D01*
X112531796Y-64776657D01*
X111759782Y-63216182D01*
X110905742Y-61672866D01*
X110647437Y-61236194D01*
X109927876Y-60097996D01*
X109182016Y-59038875D01*
X108407872Y-58056810D01*
X107603456Y-57149777D01*
X106766781Y-56315753D01*
X105895860Y-55552715D01*
X104988707Y-54858640D01*
X104043333Y-54231505D01*
X103394705Y-53851737D01*
X102414588Y-53354482D01*
X101384582Y-52924629D01*
X100306832Y-52562789D01*
X99183483Y-52269573D01*
X98016680Y-52045593D01*
X96808568Y-51891462D01*
X96393000Y-51855400D01*
X96072065Y-51837491D01*
X95687246Y-51826912D01*
X95257582Y-51823306D01*
X94802108Y-51826317D01*
X94339863Y-51835589D01*
X93889884Y-51850766D01*
X93471208Y-51871492D01*
X93102873Y-51897410D01*
X92858167Y-51921536D01*
X91699088Y-52092506D01*
X90590436Y-52329584D01*
X89528390Y-52633873D01*
X88509128Y-53006476D01*
X87528828Y-53448497D01*
X87471976Y-53476843D01*
X87266993Y-53578060D01*
X87089999Y-53662525D01*
X86954044Y-53724244D01*
X86872182Y-53757223D01*
X86854247Y-53760532D01*
X86821045Y-53722542D01*
X86736215Y-53626190D01*
X86604226Y-53476529D01*
X86429544Y-53278615D01*
X86216640Y-53037500D01*
X85969980Y-52758240D01*
X85694033Y-52445888D01*
X85393267Y-52105499D01*
X85072150Y-51742126D01*
X84735151Y-51360825D01*
X84386738Y-50966648D01*
X84031378Y-50564650D01*
X83673541Y-50159886D01*
X83317694Y-49757409D01*
X82968305Y-49362274D01*
X82629843Y-48979534D01*
X82306776Y-48614245D01*
X82003572Y-48271459D01*
X81724699Y-47956232D01*
X81474626Y-47673617D01*
X81257820Y-47428668D01*
X81078750Y-47226441D01*
X80941884Y-47071988D01*
X80851690Y-46970364D01*
X80812637Y-46926623D01*
X80812525Y-46926500D01*
X80796796Y-46908382D01*
X80781790Y-46886978D01*
X80766849Y-46858297D01*
X80751316Y-46818349D01*
X80734535Y-46763142D01*
X80715846Y-46688686D01*
X80694592Y-46590990D01*
X80670117Y-46466064D01*
X80641763Y-46309916D01*
X80608872Y-46118556D01*
X80570787Y-45887993D01*
X80526849Y-45614237D01*
X80476403Y-45293296D01*
X80418790Y-44921179D01*
X80353353Y-44493897D01*
X80279434Y-44007458D01*
X80196376Y-43457871D01*
X80103521Y-42841146D01*
X80000213Y-42153292D01*
X79885792Y-41390318D01*
X79759603Y-40548233D01*
X79738468Y-40407167D01*
X79629591Y-39680769D01*
X79523932Y-38976416D01*
X79422188Y-38298735D01*
X79325057Y-37652351D01*
X79233237Y-37041894D01*
X79147427Y-36471988D01*
X79068325Y-35947262D01*
X78996628Y-35472341D01*
X78933036Y-35051854D01*
X78878245Y-34690426D01*
X78832955Y-34392684D01*
X78797863Y-34163257D01*
X78773668Y-34006770D01*
X78761068Y-33927850D01*
X78759565Y-33919583D01*
X78738387Y-33824333D01*
X77962348Y-33824333D01*
X77963740Y-33863481D01*
X77974106Y-34009976D01*
X77991069Y-34188322D01*
X78015076Y-34402470D01*
X78046573Y-34656373D01*
X78086008Y-34953985D01*
X78133826Y-35299258D01*
X78190474Y-35696145D01*
X78256400Y-36148598D01*
X78332050Y-36660572D01*
X78417870Y-37236018D01*
X78514307Y-37878889D01*
X78621808Y-38593138D01*
X78740820Y-39382719D01*
X78871789Y-40251583D01*
X78889507Y-40369179D01*
X79000349Y-41103947D01*
X79108266Y-41817539D01*
X79212543Y-42505305D01*
X79312465Y-43162594D01*
X79407316Y-43784757D01*
X79496379Y-44367143D01*
X79578940Y-44905103D01*
X79654282Y-45393985D01*
X79721689Y-45829141D01*
X79780447Y-46205920D01*
X79829838Y-46519671D01*
X79869148Y-46765745D01*
X79897661Y-46939492D01*
X79914660Y-47036262D01*
X79918376Y-47053500D01*
X79971042Y-47172935D01*
X80062613Y-47320023D01*
X80167306Y-47455667D01*
X80238576Y-47537298D01*
X80358823Y-47674224D01*
X80523420Y-47861212D01*
X80727743Y-48093034D01*
X80967165Y-48364457D01*
X81237061Y-48670251D01*
X81532806Y-49005185D01*
X81849775Y-49364029D01*
X82183341Y-49741552D01*
X82528879Y-50132523D01*
X82881765Y-50531711D01*
X83237372Y-50933886D01*
X83591075Y-51333817D01*
X83938249Y-51726272D01*
X84274268Y-52106022D01*
X84594507Y-52467836D01*
X84894340Y-52806482D01*
X85169141Y-53116731D01*
X85414286Y-53393351D01*
X85625149Y-53631111D01*
X85797105Y-53824782D01*
X85925527Y-53969131D01*
X86005792Y-54058929D01*
X86030913Y-54086601D01*
X86155606Y-54219368D01*
X85781553Y-54475754D01*
X85288935Y-54836249D01*
X84772856Y-55255682D01*
X84249946Y-55718416D01*
X83736832Y-56208813D01*
X83250142Y-56711235D01*
X82806504Y-57210047D01*
X82577753Y-57488667D01*
X81867704Y-58441981D01*
X81220478Y-59434808D01*
X80635126Y-60469828D01*
X80110698Y-61549724D01*
X79646245Y-62677178D01*
X79240817Y-63854869D01*
X78893467Y-65085481D01*
X78603244Y-66371694D01*
X78369200Y-67716190D01*
X78190385Y-69121651D01*
X78097326Y-70146333D01*
X78082031Y-70403561D01*
X78069439Y-70732190D01*
X78059547Y-71118997D01*
X78052353Y-71550762D01*
X78050707Y-71720422D01*
X78332818Y-71720422D01*
X78396613Y-70212709D01*
X78524094Y-68756614D01*
X78715119Y-67352889D01*
X78969545Y-66002286D01*
X79287230Y-64705560D01*
X79668032Y-63463462D01*
X80111807Y-62276744D01*
X80618414Y-61146161D01*
X80638357Y-61105426D01*
X80833252Y-60714347D01*
X81008678Y-60376977D01*
X81178366Y-60069140D01*
X81356047Y-59766662D01*
X81555454Y-59445366D01*
X81773596Y-59106704D01*
X82432956Y-58160543D01*
X83132763Y-57281590D01*
X83870431Y-56472566D01*
X84643375Y-55736193D01*
X85449010Y-55075193D01*
X85936667Y-54723002D01*
X86338833Y-54446673D01*
X86428974Y-54538920D01*
X86469167Y-54583010D01*
X86561530Y-54686138D01*
X86702162Y-54843904D01*
X86887158Y-55051907D01*
X87112616Y-55305749D01*
X87374632Y-55601031D01*
X87669305Y-55933352D01*
X87992731Y-56298313D01*
X88341008Y-56691515D01*
X88710231Y-57108559D01*
X89096499Y-57545044D01*
X89340376Y-57820721D01*
X92002803Y-60830708D01*
X93222205Y-60830708D01*
X93223475Y-60815026D01*
X93231842Y-60805754D01*
X93233904Y-60804566D01*
X93315463Y-60771167D01*
X93454438Y-60723925D01*
X93626467Y-60670922D01*
X93706507Y-60647814D01*
X94324624Y-60512979D01*
X94983934Y-60444046D01*
X95671764Y-60441596D01*
X96375442Y-60506206D01*
X96477565Y-60521104D01*
X97001761Y-60634025D01*
X97538318Y-60810028D01*
X98061920Y-61038489D01*
X98547247Y-61308785D01*
X98849647Y-61516443D01*
X99125411Y-61744790D01*
X99422251Y-62025939D01*
X99720252Y-62338611D01*
X99999501Y-62661525D01*
X100240082Y-62973401D01*
X100317399Y-63084858D01*
X100642998Y-63614158D01*
X100965960Y-64222671D01*
X101284244Y-64904943D01*
X101595807Y-65655521D01*
X101898608Y-66468954D01*
X102190603Y-67339788D01*
X102469751Y-68262571D01*
X102734011Y-69231851D01*
X102954080Y-70125167D01*
X103018225Y-70402936D01*
X103085338Y-70700985D01*
X103153053Y-71008042D01*
X103219006Y-71312838D01*
X103280834Y-71604102D01*
X103336171Y-71870562D01*
X103382654Y-72100949D01*
X103417917Y-72283991D01*
X103439597Y-72408419D01*
X103445329Y-72462962D01*
X103444792Y-72464319D01*
X103415887Y-72434453D01*
X103333667Y-72344296D01*
X103200914Y-72196976D01*
X103020409Y-71995619D01*
X102794934Y-71743353D01*
X102527270Y-71443302D01*
X102220198Y-71098596D01*
X101876500Y-70712359D01*
X101498957Y-70287719D01*
X101090351Y-69827803D01*
X100653462Y-69335736D01*
X100191073Y-68814647D01*
X99705964Y-68267661D01*
X99200917Y-67697905D01*
X98678714Y-67108506D01*
X98286413Y-66665540D01*
X97654936Y-65952322D01*
X97077300Y-65299736D01*
X96551167Y-64705073D01*
X96074200Y-64165620D01*
X95644063Y-63678667D01*
X95258418Y-63241502D01*
X94914927Y-62851415D01*
X94611254Y-62505693D01*
X94345061Y-62201626D01*
X94114011Y-61936502D01*
X93915768Y-61707611D01*
X93747993Y-61512242D01*
X93608349Y-61347682D01*
X93494500Y-61211221D01*
X93404109Y-61100148D01*
X93334837Y-61011752D01*
X93284348Y-60943321D01*
X93250304Y-60892144D01*
X93230369Y-60855510D01*
X93222205Y-60830708D01*
X92002803Y-60830708D01*
X92161636Y-61010275D01*
X91868212Y-61216339D01*
X91654059Y-61379982D01*
X91413781Y-61585177D01*
X91167232Y-61813039D01*
X90934269Y-62044683D01*
X90734748Y-62261225D01*
X90613331Y-62409857D01*
X90313396Y-62868750D01*
X90045134Y-63403490D01*
X89808511Y-64011418D01*
X89603492Y-64689875D01*
X89430043Y-65436203D01*
X89288131Y-66247742D01*
X89177721Y-67121834D01*
X89098778Y-68055820D01*
X89051269Y-69047042D01*
X89039010Y-69842875D01*
X89338197Y-69842875D01*
X89366887Y-68662084D01*
X89435682Y-67546607D01*
X89539006Y-66548000D01*
X89656952Y-65770409D01*
X89806960Y-65047480D01*
X89987418Y-64384244D01*
X90196711Y-63785732D01*
X90433225Y-63256974D01*
X90695346Y-62803002D01*
X90779483Y-62681107D01*
X90904971Y-62522515D01*
X91065556Y-62342734D01*
X91250784Y-62151158D01*
X91450199Y-61957180D01*
X91653345Y-61770195D01*
X91849766Y-61599596D01*
X92029009Y-61454777D01*
X92180616Y-61345132D01*
X92294132Y-61280054D01*
X92353490Y-61266933D01*
X92385666Y-61299216D01*
X92471222Y-61391930D01*
X92607475Y-61542061D01*
X92791739Y-61746597D01*
X93021332Y-62002524D01*
X93293569Y-62306828D01*
X93605766Y-62656496D01*
X93955239Y-63048514D01*
X94339304Y-63479868D01*
X94755276Y-63947546D01*
X95200473Y-64448534D01*
X95672209Y-64979817D01*
X96167802Y-65538384D01*
X96684565Y-66121219D01*
X97219817Y-66725311D01*
X97770872Y-67347644D01*
X97999828Y-67606333D01*
X98557072Y-68236031D01*
X99099752Y-68849280D01*
X99625168Y-69443032D01*
X100130623Y-70014237D01*
X100613419Y-70559844D01*
X101070855Y-71076804D01*
X101500235Y-71562068D01*
X101898859Y-72012584D01*
X102264028Y-72425303D01*
X102593045Y-72797175D01*
X102883211Y-73125151D01*
X103131827Y-73406180D01*
X103336194Y-73637212D01*
X103493614Y-73815197D01*
X103601388Y-73937087D01*
X103656819Y-73999830D01*
X103663704Y-74007653D01*
X103695606Y-74081416D01*
X103733387Y-74231815D01*
X103776102Y-74451096D01*
X103822805Y-74731503D01*
X103872551Y-75065282D01*
X103924393Y-75444679D01*
X103977386Y-75861937D01*
X104030584Y-76309303D01*
X104083043Y-76779022D01*
X104133815Y-77263338D01*
X104181957Y-77754498D01*
X104226521Y-78244745D01*
X104266562Y-78726326D01*
X104301135Y-79191486D01*
X104307879Y-79290333D01*
X104342530Y-79871554D01*
X104371312Y-80487021D01*
X104394144Y-81124891D01*
X104410941Y-81773320D01*
X104421622Y-82420464D01*
X104426104Y-83054478D01*
X104424303Y-83663518D01*
X104416138Y-84235741D01*
X104401526Y-84759301D01*
X104380383Y-85222355D01*
X104352628Y-85613059D01*
X104352084Y-85619167D01*
X104256499Y-86509256D01*
X104135385Y-87322248D01*
X103987828Y-88062056D01*
X103812912Y-88732595D01*
X103609720Y-89337778D01*
X103377337Y-89881518D01*
X103334019Y-89969811D01*
X102998954Y-90550684D01*
X102607115Y-91068897D01*
X102159462Y-91523719D01*
X101656953Y-91914419D01*
X101100550Y-92240265D01*
X100491210Y-92500528D01*
X99829895Y-92694476D01*
X99726059Y-92717850D01*
X99568335Y-92749749D01*
X99419122Y-92773664D01*
X99262102Y-92790708D01*
X99080957Y-92801995D01*
X98859367Y-92808638D01*
X98581016Y-92811751D01*
X98340333Y-92812430D01*
X98015740Y-92811759D01*
X97760203Y-92808469D01*
X97558123Y-92801497D01*
X97393904Y-92789780D01*
X97251948Y-92772255D01*
X97116658Y-92747860D01*
X96994295Y-92720704D01*
X96383281Y-92539140D01*
X95808587Y-92288528D01*
X95263040Y-91964792D01*
X94739465Y-91563857D01*
X94386311Y-91239137D01*
X93950572Y-90772434D01*
X93542868Y-90255573D01*
X93161406Y-89684665D01*
X92804393Y-89055817D01*
X92470035Y-88365140D01*
X92156539Y-87608742D01*
X91862113Y-86782733D01*
X91584964Y-85883221D01*
X91323299Y-84906317D01*
X91165955Y-84250953D01*
X90816379Y-82665049D01*
X90502764Y-81099364D01*
X90225526Y-79558405D01*
X89985078Y-78046684D01*
X89781834Y-76568710D01*
X89616210Y-75128991D01*
X89488620Y-73732039D01*
X89399478Y-72382362D01*
X89349199Y-71084471D01*
X89338197Y-69842875D01*
X89039010Y-69842875D01*
X89035159Y-70092840D01*
X89050414Y-71190557D01*
X89097000Y-72337532D01*
X89174883Y-73531108D01*
X89284029Y-74768625D01*
X89424403Y-76047425D01*
X89595972Y-77364849D01*
X89798700Y-78718239D01*
X90032555Y-80104935D01*
X90297501Y-81522279D01*
X90593505Y-82967612D01*
X90895123Y-84328000D01*
X91124490Y-85271858D01*
X91361835Y-86138673D01*
X91609883Y-86935907D01*
X91871357Y-87671019D01*
X92148982Y-88351472D01*
X92445481Y-88984726D01*
X92763579Y-89578241D01*
X92891844Y-89796836D01*
X93210573Y-90293577D01*
X93542644Y-90739834D01*
X93913551Y-91168914D01*
X94064159Y-91328356D01*
X94481338Y-91729617D01*
X94899851Y-92065321D01*
X95341884Y-92351969D01*
X95694500Y-92540883D01*
X96183908Y-92760555D01*
X96661273Y-92924754D01*
X97146046Y-93037448D01*
X97657681Y-93102607D01*
X98215630Y-93124199D01*
X98530833Y-93119517D01*
X99223712Y-93073688D01*
X99856444Y-92977882D01*
X100439715Y-92828507D01*
X100984209Y-92621971D01*
X101500609Y-92354682D01*
X101999600Y-92023048D01*
X102162825Y-91898437D01*
X102623640Y-91482330D01*
X103038488Y-90997170D01*
X103404273Y-90446912D01*
X103631068Y-90021833D01*
X103871350Y-89468582D01*
X104080904Y-88860868D01*
X104260159Y-88195643D01*
X104409546Y-87469859D01*
X104529495Y-86680470D01*
X104620434Y-85824428D01*
X104682793Y-84898686D01*
X104717003Y-83900195D01*
X104723493Y-82825910D01*
X104717488Y-82317167D01*
X104686041Y-81064912D01*
X104634253Y-79872287D01*
X104560430Y-78716334D01*
X104462873Y-77574094D01*
X104339888Y-76422609D01*
X104200186Y-75315768D01*
X104167683Y-75069729D01*
X104140547Y-74854436D01*
X104120346Y-74683174D01*
X104108648Y-74569230D01*
X104107010Y-74525900D01*
X104137301Y-74554268D01*
X104220116Y-74642588D01*
X104352173Y-74787136D01*
X104530192Y-74984191D01*
X104750892Y-75230029D01*
X105010990Y-75520930D01*
X105307208Y-75853170D01*
X105636263Y-76223027D01*
X105994874Y-76626778D01*
X106379761Y-77060703D01*
X106787642Y-77521077D01*
X107215237Y-78004179D01*
X107659264Y-78506287D01*
X108116442Y-79023678D01*
X108583491Y-79552630D01*
X109057130Y-80089420D01*
X109534076Y-80630327D01*
X110011051Y-81171627D01*
X110484771Y-81709599D01*
X110951957Y-82240521D01*
X111409327Y-82760669D01*
X111853600Y-83266322D01*
X112281496Y-83753757D01*
X112689733Y-84219253D01*
X113075030Y-84659086D01*
X113434107Y-85069534D01*
X113763682Y-85446876D01*
X114060474Y-85787388D01*
X114321202Y-86087349D01*
X114542585Y-86343035D01*
X114721343Y-86550726D01*
X114854194Y-86706698D01*
X114937857Y-86807229D01*
X114969051Y-86848597D01*
X114969176Y-86849056D01*
X114964442Y-86956085D01*
X114933493Y-87132790D01*
X114879344Y-87369386D01*
X114805012Y-87656091D01*
X114713510Y-87983118D01*
X114607855Y-88340683D01*
X114491063Y-88719002D01*
X114366148Y-89108291D01*
X114236126Y-89498765D01*
X114104012Y-89880639D01*
X113972822Y-90244129D01*
X113845572Y-90579450D01*
X113735107Y-90853377D01*
X113311149Y-91800922D01*
X112840512Y-92729931D01*
X112329571Y-93630746D01*
X111784703Y-94493711D01*
X111212281Y-95309167D01*
X110618681Y-96067457D01*
X110010278Y-96758924D01*
X109491239Y-97282194D01*
X108681857Y-97995835D01*
X107833052Y-98637276D01*
X106943162Y-99207254D01*
X106010528Y-99706505D01*
X105033487Y-100135765D01*
X104010378Y-100495772D01*
X102939541Y-100787261D01*
X101819315Y-101010969D01*
X100753333Y-101156504D01*
X100395334Y-101188465D01*
X99977339Y-101214484D01*
X99519891Y-101234160D01*
X99043528Y-101247093D01*
X98568793Y-101252881D01*
X98116224Y-101251122D01*
X97706364Y-101241417D01*
X97359752Y-101223363D01*
X97353416Y-101222900D01*
X96254641Y-101113889D01*
X95213067Y-100951438D01*
X94218096Y-100732820D01*
X93259132Y-100455311D01*
X92325579Y-100116186D01*
X91406841Y-99712719D01*
X91321100Y-99671502D01*
X90366100Y-99169524D01*
X89447661Y-98605465D01*
X88563984Y-97977365D01*
X87713274Y-97283266D01*
X86893733Y-96521206D01*
X86103567Y-95689227D01*
X85340977Y-94785368D01*
X84604167Y-93807670D01*
X83891342Y-92754173D01*
X83200703Y-91622917D01*
X82530456Y-90411943D01*
X82145205Y-89662000D01*
X81446287Y-88179458D01*
X80819814Y-86670857D01*
X80265099Y-85133239D01*
X79781452Y-83563644D01*
X79368186Y-81959114D01*
X79024612Y-80316691D01*
X78750042Y-78633416D01*
X78543786Y-76906329D01*
X78405157Y-75132474D01*
X78333466Y-73308890D01*
X78332853Y-73279000D01*
X78332818Y-71720422D01*
X78050707Y-71720422D01*
X78047855Y-72014261D01*
X78046052Y-72496273D01*
X78046941Y-72983575D01*
X78050520Y-73462944D01*
X78056787Y-73921160D01*
X78065740Y-74344999D01*
X78077377Y-74721240D01*
X78091696Y-75036659D01*
X78098096Y-75141667D01*
X78253107Y-76955408D01*
X78472789Y-78716455D01*
X78758038Y-80427805D01*
X79109751Y-82092454D01*
X79528823Y-83713399D01*
X80016152Y-85293636D01*
X80572634Y-86836161D01*
X81199166Y-88343971D01*
X81896644Y-89820061D01*
X82665965Y-91267429D01*
X83196298Y-92179806D01*
X83927240Y-93333456D01*
X84686203Y-94407726D01*
X85474429Y-95403558D01*
X86293163Y-96321892D01*
X87143647Y-97163670D01*
X88027124Y-97929831D01*
X88944838Y-98621318D01*
X89898030Y-99239071D01*
X90887945Y-99784031D01*
X91915826Y-100257140D01*
X92982915Y-100659337D01*
X94090455Y-100991564D01*
X95165333Y-101240060D01*
X95652167Y-101337334D01*
X93233171Y-101339778D01*
X101705833Y-101339778D01*
X102298500Y-101220047D01*
X103407449Y-100961896D01*
X104456592Y-100646663D01*
X105450724Y-100271992D01*
X106394640Y-99835527D01*
X107293137Y-99334912D01*
X108151008Y-98767793D01*
X108973051Y-98131813D01*
X109474000Y-97695366D01*
X110168757Y-97014241D01*
X110841750Y-96257559D01*
X111488467Y-95432656D01*
X112104401Y-94546866D01*
X112685039Y-93607523D01*
X113225873Y-92621960D01*
X113722392Y-91597513D01*
X114170086Y-90541515D01*
X114564445Y-89461301D01*
X114596468Y-89365258D01*
X114675616Y-89117021D01*
X114765932Y-88818993D01*
X114861754Y-88491280D01*
X114957422Y-88153988D01*
X115047274Y-87827223D01*
X115125649Y-87531092D01*
X115186887Y-87285701D01*
X115208947Y-87189960D01*
X115237351Y-87115790D01*
X115269119Y-87103756D01*
X115270658Y-87105294D01*
X115301550Y-87140079D01*
X115386057Y-87235442D01*
X115521677Y-87388558D01*
X115705912Y-87596602D01*
X115936261Y-87856752D01*
X116210224Y-88166183D01*
X116525302Y-88522071D01*
X116878994Y-88921592D01*
X117268801Y-89361923D01*
X117692222Y-89840238D01*
X118146758Y-90353715D01*
X118629909Y-90899529D01*
X119139175Y-91474857D01*
X119672056Y-92076874D01*
X120226051Y-92702756D01*
X120798662Y-93349680D01*
X121387389Y-94014822D01*
X121731262Y-94403333D01*
X128157228Y-101663500D01*
X127631530Y-101677257D01*
X127436754Y-101679661D01*
X127159987Y-101678911D01*
X126803844Y-101675067D01*
X126370941Y-101668190D01*
X125863892Y-101658339D01*
X125285312Y-101645575D01*
X124637816Y-101629959D01*
X123924019Y-101611550D01*
X123146536Y-101590409D01*
X122307983Y-101566596D01*
X121410973Y-101540172D01*
X120544167Y-101513848D01*
X119723756Y-101490568D01*
X118824620Y-101468727D01*
X117852690Y-101448394D01*
X116813896Y-101429638D01*
X115714169Y-101412528D01*
X114559438Y-101397134D01*
X113355636Y-101383526D01*
X112108692Y-101371772D01*
X110824537Y-101361942D01*
X109509102Y-101354105D01*
X108168316Y-101348331D01*
X106808111Y-101344688D01*
X105981500Y-101343552D01*
X101705833Y-101339778D01*
X93233171Y-101339778D01*
X91363496Y-101341667D01*
X90583972Y-101342796D01*
X89886550Y-101344542D01*
X89268666Y-101346936D01*
X88727758Y-101350007D01*
X88261263Y-101353786D01*
X87866617Y-101358303D01*
X87541258Y-101363587D01*
X87282623Y-101369668D01*
X87088148Y-101376577D01*
X86955272Y-101384344D01*
X86881430Y-101392997D01*
X86876163Y-101394158D01*
X86618254Y-101494596D01*
X86417301Y-101653690D01*
X86279427Y-101864893D01*
X86213027Y-102103449D01*
X86212901Y-102148644D01*
X86219918Y-102233301D01*
X86234516Y-102360192D01*
X86257135Y-102532096D01*
X86288212Y-102751786D01*
X86328184Y-103022038D01*
X86377491Y-103345627D01*
X86436570Y-103725329D01*
X86505859Y-104163920D01*
X86585796Y-104664175D01*
X86676820Y-105228868D01*
X86779368Y-105860777D01*
X86893879Y-106562675D01*
X87020790Y-107337338D01*
X87160540Y-108187543D01*
X87313567Y-109116063D01*
X87456561Y-109982000D01*
X87589327Y-110784993D01*
X87719271Y-111570191D01*
X87845644Y-112333105D01*
X87967699Y-113069246D01*
X88084687Y-113774123D01*
X88195860Y-114443248D01*
X88300470Y-115072131D01*
X88397770Y-115656283D01*
X88487010Y-116191214D01*
X88567443Y-116672434D01*
X88638320Y-117095455D01*
X88698894Y-117455786D01*
X88748416Y-117748939D01*
X88786138Y-117970424D01*
X88811312Y-118115751D01*
X88820532Y-118166930D01*
X88861880Y-118380855D01*
X88896227Y-118530571D01*
X88931253Y-118635251D01*
X88974641Y-118714069D01*
X89034072Y-118786200D01*
X89092748Y-118846397D01*
X89249162Y-118977497D01*
X89413670Y-119054379D01*
X89490789Y-119075217D01*
X89546047Y-119078253D01*
X89683513Y-119081203D01*
X89900729Y-119084069D01*
X90195237Y-119086849D01*
X90564577Y-119089545D01*
X91006292Y-119092154D01*
X91517923Y-119094678D01*
X92097012Y-119097117D01*
X92741101Y-119099469D01*
X93447730Y-119101736D01*
X94214441Y-119103916D01*
X95038777Y-119106011D01*
X95918278Y-119108018D01*
X96850487Y-119109940D01*
X97832945Y-119111775D01*
X98863192Y-119113522D01*
X99938772Y-119115183D01*
X101057226Y-119116757D01*
X102216095Y-119118244D01*
X103412920Y-119119644D01*
X104645244Y-119120956D01*
X105910608Y-119122180D01*
X107206553Y-119123317D01*
X108530621Y-119124366D01*
X109880354Y-119125327D01*
X111253294Y-119126200D01*
X112646981Y-119126984D01*
X114058958Y-119127680D01*
X115486766Y-119128288D01*
X116927946Y-119128807D01*
X118380041Y-119129237D01*
X119840591Y-119129579D01*
X121307139Y-119129831D01*
X122777226Y-119129994D01*
X124248394Y-119130068D01*
X125718183Y-119130052D01*
X125718183Y-119130052D01*
G37*
X125718183Y-119130052D02*
X127184137Y-119129947D01*
X128643795Y-119129752D01*
X130094701Y-119129468D01*
X131534395Y-119129093D01*
X132960419Y-119128628D01*
X134370315Y-119128073D01*
X135761624Y-119127428D01*
X137131888Y-119126692D01*
X138478649Y-119125865D01*
X139799447Y-119124948D01*
X141091826Y-119123939D01*
X142353325Y-119122840D01*
X143581487Y-119121650D01*
X144773853Y-119120368D01*
X145927966Y-119118995D01*
X147041366Y-119117530D01*
X148111595Y-119115973D01*
X149136195Y-119114325D01*
X150112707Y-119112584D01*
X151038673Y-119110752D01*
X151911634Y-119108827D01*
X152729133Y-119106810D01*
X153488710Y-119104701D01*
X154187908Y-119102498D01*
X154824267Y-119100203D01*
X155395330Y-119097816D01*
X155898638Y-119095335D01*
X156331732Y-119092760D01*
X156692154Y-119090093D01*
X156977447Y-119087332D01*
X157185150Y-119084478D01*
X157312807Y-119081530D01*
X157356800Y-119078897D01*
X157525371Y-119025345D01*
X157668510Y-118932900D01*
X157756390Y-118851838D01*
X157797140Y-118813874D01*
X157834735Y-118781792D01*
X157868718Y-118751783D01*
X157898633Y-118720039D01*
X157924023Y-118682750D01*
X157944429Y-118636108D01*
X157959395Y-118576303D01*
X157968465Y-118499529D01*
X157971180Y-118401974D01*
X157967084Y-118279832D01*
X157955719Y-118129292D01*
X157936629Y-117946547D01*
X157909356Y-117727788D01*
X157873443Y-117469205D01*
X157828433Y-117166990D01*
X157773869Y-116817335D01*
X157709294Y-116416430D01*
X157634251Y-115960467D01*
X157548282Y-115445637D01*
X157450931Y-114868132D01*
X157341739Y-114224142D01*
X157220251Y-113509859D01*
X157086009Y-112721474D01*
X156938556Y-111855178D01*
X156864097Y-111417303D01*
X156736005Y-110664654D01*
X156611109Y-109932643D01*
X156490201Y-109225817D01*
X156374068Y-108548720D01*
X156263502Y-107905901D01*
X156159293Y-107301904D01*
X156062230Y-106741275D01*
X155973104Y-106228562D01*
X155892703Y-105768309D01*
X155821820Y-105365064D01*
X155761242Y-105023372D01*
X155711761Y-104747779D01*
X155674166Y-104542831D01*
X155649247Y-104413075D01*
X155638801Y-104365889D01*
X155622254Y-104321243D01*
X155594958Y-104267987D01*
X155553190Y-104201728D01*
X155493230Y-104118075D01*
X155411353Y-104012636D01*
X155303838Y-103881022D01*
X155166961Y-103718839D01*
X154997001Y-103521698D01*
X154790234Y-103285206D01*
X154542939Y-103004973D01*
X154251393Y-102676607D01*
X153911873Y-102295716D01*
X153520656Y-101857910D01*
X153370043Y-101689541D01*
X153022844Y-101301149D01*
X152692814Y-100931293D01*
X152384199Y-100584770D01*
X152101243Y-100266379D01*
X151848192Y-99980919D01*
X151629291Y-99733186D01*
X151448785Y-99527980D01*
X151310920Y-99370099D01*
X151219940Y-99264341D01*
X151180092Y-99215504D01*
X151178656Y-99212695D01*
X151221532Y-99192542D01*
X151324870Y-99147273D01*
X151471062Y-99084541D01*
X151574500Y-99040657D01*
X152058307Y-98824190D01*
X152571262Y-98573054D01*
X153093765Y-98298118D01*
X153606218Y-98010247D01*
X154089022Y-97720309D01*
X154522577Y-97439170D01*
X154749500Y-97280258D01*
X155508858Y-96685995D01*
X156190362Y-96059830D01*
X156795539Y-95399306D01*
X157325914Y-94701970D01*
X157783013Y-93965365D01*
X158168365Y-93187036D01*
X158483495Y-92364528D01*
X158729929Y-91495385D01*
X158906676Y-90593333D01*
X158939913Y-90313359D01*
X158964264Y-89968852D01*
X158979739Y-89579479D01*
X158986350Y-89164904D01*
X158984107Y-88744794D01*
X158973024Y-88338813D01*
X158953110Y-87966628D01*
X158924377Y-87647903D01*
X158904895Y-87503000D01*
X158841904Y-87154039D01*
X158757140Y-86761583D01*
X158657289Y-86351874D01*
X158549043Y-85951153D01*
X158439089Y-85585661D01*
X158348466Y-85320075D01*
X158191355Y-84930023D01*
X157994476Y-84499093D01*
X157770777Y-84052657D01*
X157533206Y-83616091D01*
X157294710Y-83214769D01*
X157194205Y-83058000D01*
X156561945Y-82174025D01*
X155867177Y-81346575D01*
X155111806Y-80577230D01*
X154297740Y-79867568D01*
X153426884Y-79219170D01*
X152501146Y-78633613D01*
X151522431Y-78112477D01*
X150854833Y-77807348D01*
X150604752Y-77705529D01*
X150299990Y-77589926D01*
X149961000Y-77467546D01*
X149608231Y-77345397D01*
X149262134Y-77230488D01*
X148943159Y-77129826D01*
X148671757Y-77050419D01*
X148558250Y-77020363D01*
X148411309Y-76980643D01*
X148303142Y-76946061D01*
X148253844Y-76923162D01*
X148252764Y-76920874D01*
X148286280Y-76889371D01*
X148375395Y-76822552D01*
X148504906Y-76731526D01*
X148602014Y-76665667D01*
X149003293Y-76379899D01*
X149432375Y-76043772D01*
X149873535Y-75671639D01*
X150311049Y-75277849D01*
X150729192Y-74876753D01*
X151112240Y-74482704D01*
X151444468Y-74110051D01*
X151570677Y-73956333D01*
X152135572Y-73182476D01*
X152623997Y-72375177D01*
X153037031Y-71531934D01*
X153375757Y-70650243D01*
X153641254Y-69727600D01*
X153834603Y-68761504D01*
X153846440Y-68685833D01*
X153890375Y-68319032D01*
X153921183Y-67891797D01*
X153938710Y-67427362D01*
X153942801Y-66948961D01*
X153933301Y-66479828D01*
X153910056Y-66043195D01*
X153872911Y-65662297D01*
X153866858Y-65616667D01*
X153688993Y-64618870D01*
X153433430Y-63648009D01*
X153099508Y-62702855D01*
X152686564Y-61782182D01*
X152193937Y-60884762D01*
X151620965Y-60009368D01*
X150966984Y-59154771D01*
X150231333Y-58319744D01*
X149571380Y-57653267D01*
X148680632Y-56850408D01*
X147752310Y-56118668D01*
X146783838Y-55456797D01*
X145772636Y-54863546D01*
X144716128Y-54337665D01*
X143611735Y-53877904D01*
X142456881Y-53483014D01*
X141248987Y-53151745D01*
X139985476Y-52882848D01*
X139586575Y-52812709D01*
X138448847Y-52650954D01*
X137270129Y-52538125D01*
X136065863Y-52474053D01*
X134851488Y-52458571D01*
X133642444Y-52491511D01*
X132454172Y-52572704D01*
X131302112Y-52701982D01*
X130201703Y-52879176D01*
X130005667Y-52917068D01*
X128821333Y-53186215D01*
X127699100Y-53511260D01*
X126636551Y-53893271D01*
X125631268Y-54333318D01*
X124680836Y-54832472D01*
X123782838Y-55391802D01*
X122934857Y-56012377D01*
X122837198Y-56090326D01*
X122120136Y-56716891D01*
X121479325Y-57379953D01*
X120914888Y-58079289D01*
X120426945Y-58814676D01*
X120015619Y-59585893D01*
X119681032Y-60392716D01*
X119423306Y-61234923D01*
X119242563Y-62112292D01*
X119156769Y-62802371D01*
X119104716Y-63376163D01*
X113299713Y-56886998D01*
X112731628Y-56251908D01*
X112178773Y-55633740D01*
X111643779Y-55035443D01*
X111129279Y-54459963D01*
X110637906Y-53910249D01*
X110172292Y-53389248D01*
X109735069Y-52899908D01*
X109328870Y-52445177D01*
X108956328Y-52028002D01*
X108620074Y-51651330D01*
X108322741Y-51318111D01*
X108066962Y-51031290D01*
X107855370Y-50793816D01*
X107690595Y-50608637D01*
X107575272Y-50478700D01*
X107512032Y-50406953D01*
X107500105Y-50392907D01*
X107542124Y-50393167D01*
X107659653Y-50396007D01*
X107843587Y-50401154D01*
X108084817Y-50408336D01*
X108374237Y-50417279D01*
X108702739Y-50427711D01*
X109061216Y-50439360D01*
X109156500Y-50442498D01*
X110100323Y-50473272D01*
X111009220Y-50502039D01*
X111888181Y-50528865D01*
X112742195Y-50553813D01*
X113576251Y-50576947D01*
X114395340Y-50598331D01*
X115204451Y-50618029D01*
X116008573Y-50636106D01*
X116812697Y-50652624D01*
X117621811Y-50667648D01*
X118440906Y-50681243D01*
X119274971Y-50693471D01*
X120128995Y-50704398D01*
X121007969Y-50714086D01*
X121916883Y-50722600D01*
X122860724Y-50730004D01*
X123844484Y-50736363D01*
X124873152Y-50741739D01*
X125951717Y-50746197D01*
X127085170Y-50749800D01*
X128278499Y-50752614D01*
X129536695Y-50754702D01*
X130864747Y-50756127D01*
X132267644Y-50756954D01*
X133701670Y-50757245D01*
X134879925Y-50757189D01*
X135975803Y-50756913D01*
X136991594Y-50756408D01*
X137929588Y-50755662D01*
X138792073Y-50754664D01*
X139581340Y-50753405D01*
X140299679Y-50751872D01*
X140949378Y-50750057D01*
X141532728Y-50747947D01*
X142052018Y-50745532D01*
X142509538Y-50742802D01*
X142907577Y-50739746D01*
X143248425Y-50736352D01*
X143534371Y-50732612D01*
X143767706Y-50728512D01*
X143950719Y-50724044D01*
X144085699Y-50719197D01*
X144174936Y-50713959D01*
X144220720Y-50708320D01*
X144221504Y-50708130D01*
X144486488Y-50607010D01*
X144686070Y-50452144D01*
X144820183Y-50243607D01*
X144888761Y-49981472D01*
X144890628Y-49965527D01*
X144889495Y-49914222D01*
X144879728Y-49814289D01*
X144860961Y-49663414D01*
X144832827Y-49459282D01*
X144794959Y-49199579D01*
X144746990Y-48881991D01*
X144688555Y-48504203D01*
X144619285Y-48063901D01*
X144538815Y-47558771D01*
X144446778Y-46986498D01*
X144342807Y-46344768D01*
X144226536Y-45631266D01*
X144097598Y-44843679D01*
X143955625Y-43979692D01*
X143800252Y-43036991D01*
X143631112Y-42013261D01*
X143621034Y-41952333D01*
X143487496Y-41145444D01*
X143357023Y-40357908D01*
X143230341Y-39594059D01*
X143108172Y-38858232D01*
X142991242Y-38154760D01*
X142880273Y-37487976D01*
X142775989Y-36862215D01*
X142679114Y-36281809D01*
X142590373Y-35751093D01*
X142510489Y-35274401D01*
X142440185Y-34856065D01*
X142380186Y-34500419D01*
X142331215Y-34211798D01*
X142293996Y-33994534D01*
X142269254Y-33852962D01*
X142258852Y-33796740D01*
X142177827Y-33512034D01*
X142061168Y-33295423D01*
X141901490Y-33135188D01*
X141802273Y-33072034D01*
X141791029Y-33067474D01*
X141773125Y-33063106D01*
X141746768Y-33058924D01*
X141710170Y-33054925D01*
X141661539Y-33051104D01*
X141599085Y-33047455D01*
X141521017Y-33043976D01*
X141425545Y-33040661D01*
X141310878Y-33037505D01*
X141175226Y-33034505D01*
X141016799Y-33031656D01*
X140833805Y-33028953D01*
X140624454Y-33026391D01*
X140386956Y-33023967D01*
X140119520Y-33021676D01*
X139820355Y-33019513D01*
X139487672Y-33017473D01*
X139119679Y-33015553D01*
X138714586Y-33013748D01*
X138270602Y-33012053D01*
X137785938Y-33010463D01*
X137258802Y-33008975D01*
X136687403Y-33007584D01*
X136069952Y-33006284D01*
X135404658Y-33005073D01*
X134689730Y-33003945D01*
X133923378Y-33002895D01*
X133103812Y-33001920D01*
X132229239Y-33001015D01*
X131297871Y-33000174D01*
X130307917Y-32999395D01*
X129257586Y-32998671D01*
X128145087Y-32998000D01*
X126968631Y-32997376D01*
X125726426Y-32996794D01*
X124416681Y-32996250D01*
X123037608Y-32995741D01*
X121587414Y-32995260D01*
X120064310Y-32994804D01*
X118466504Y-32994369D01*
X116792207Y-32993949D01*
X115039628Y-32993540D01*
X113206976Y-32993138D01*
X111292461Y-32992739D01*
X110172500Y-32992512D01*
X108541509Y-32992228D01*
X106931074Y-32992033D01*
X105343284Y-32991927D01*
X103780229Y-32991906D01*
X102244000Y-32991970D01*
X100736685Y-32992116D01*
X99260376Y-32992343D01*
X97817161Y-32992650D01*
X96409131Y-32993034D01*
X95038375Y-32993493D01*
X93706984Y-32994026D01*
X92417046Y-32994632D01*
X91170653Y-32995308D01*
X89969894Y-32996053D01*
X88816859Y-32996865D01*
X87713638Y-32997742D01*
X86662320Y-32998683D01*
X85664996Y-32999686D01*
X84723755Y-33000748D01*
X83840688Y-33001870D01*
X83017883Y-33003047D01*
X82257432Y-33004280D01*
X81561424Y-33005566D01*
X80931948Y-33006903D01*
X80371095Y-33008290D01*
X79880954Y-33009725D01*
X79463616Y-33011207D01*
X79121171Y-33012733D01*
X78855707Y-33014301D01*
X78669316Y-33015911D01*
X78564086Y-33017560D01*
X78539977Y-33018698D01*
X78320168Y-33109014D01*
X78137452Y-33270269D01*
X78093607Y-33326046D01*
X78064700Y-33363771D01*
X78038371Y-33397770D01*
X78015065Y-33431996D01*
X77995230Y-33470402D01*
X77979311Y-33516941D01*
X77967756Y-33575565D01*
X77961012Y-33650228D01*
X77959524Y-33744883D01*
X77962348Y-33824333D01*
X78738387Y-33824333D01*
X110087027Y-33824333D01*
X111713221Y-33824376D01*
X113318521Y-33824502D01*
X114900843Y-33824710D01*
X116458105Y-33824997D01*
X117988224Y-33825361D01*
X119489117Y-33825801D01*
X120958701Y-33826314D01*
X122394893Y-33826898D01*
X123795610Y-33827550D01*
X125158771Y-33828269D01*
X126482291Y-33829054D01*
X127764088Y-33829900D01*
X129002079Y-33830807D01*
X130194181Y-33831772D01*
X131338312Y-33832794D01*
X132432389Y-33833870D01*
X133474328Y-33834997D01*
X134462048Y-33836175D01*
X135393464Y-33837400D01*
X136266495Y-33838671D01*
X137079058Y-33839986D01*
X137829069Y-33841342D01*
X138514446Y-33842737D01*
X139133106Y-33844170D01*
X139682966Y-33845638D01*
X140161943Y-33847138D01*
X140567955Y-33848670D01*
X140898919Y-33850230D01*
X141152751Y-33851818D01*
X141327369Y-33853429D01*
X141420691Y-33855063D01*
X141436810Y-33856083D01*
X141443735Y-33900430D01*
X141463829Y-34024243D01*
X141496422Y-34223461D01*
X141540843Y-34494025D01*
X141596423Y-34831871D01*
X141662489Y-35232941D01*
X141738374Y-35693171D01*
X141823405Y-36208502D01*
X141916913Y-36774872D01*
X142018227Y-37388220D01*
X142126678Y-38044485D01*
X142241594Y-38739606D01*
X142362306Y-39469522D01*
X142488143Y-40230171D01*
X142618435Y-41017493D01*
X142752511Y-41827426D01*
X142762678Y-41888833D01*
X144087403Y-49889833D01*
X134220785Y-49902797D01*
X132718683Y-49904480D01*
X131295958Y-49905430D01*
X129947324Y-49905577D01*
X128667494Y-49904853D01*
X127451182Y-49903191D01*
X126293101Y-49900521D01*
X125187963Y-49896776D01*
X124130484Y-49891888D01*
X123115375Y-49885787D01*
X122137351Y-49878407D01*
X121191124Y-49869678D01*
X120271409Y-49859533D01*
X119372917Y-49847902D01*
X118490364Y-49834719D01*
X117618462Y-49819915D01*
X116751924Y-49803421D01*
X115885464Y-49785169D01*
X115013795Y-49765091D01*
X114131631Y-49743119D01*
X113233685Y-49719184D01*
X112314670Y-49693219D01*
X111369299Y-49665155D01*
X110392287Y-49634923D01*
X109378346Y-49602456D01*
X108361999Y-49569011D01*
X107897303Y-49553801D01*
X107456311Y-49539863D01*
X107046540Y-49527404D01*
X106675510Y-49516628D01*
X106350739Y-49507741D01*
X106079745Y-49500946D01*
X105870049Y-49496450D01*
X105729167Y-49494457D01*
X105664620Y-49495172D01*
X105662630Y-49495404D01*
X105664306Y-49509373D01*
X105690100Y-49549438D01*
X105741702Y-49617520D01*
X105820805Y-49715536D01*
X105929100Y-49845406D01*
X106068279Y-50009049D01*
X106240035Y-50208383D01*
X106446059Y-50445328D01*
X106688042Y-50721802D01*
X106967678Y-51039725D01*
X107286657Y-51401016D01*
X107646672Y-51807592D01*
X108049414Y-52261374D01*
X108496576Y-52764280D01*
X108989849Y-53318229D01*
X109530925Y-53925140D01*
X110121496Y-54586933D01*
X110763254Y-55305525D01*
X111457890Y-56082836D01*
X112207097Y-56920784D01*
X112369610Y-57102500D01*
X118299553Y-63732833D01*
X119415176Y-63732833D01*
X119438272Y-63119000D01*
X119512207Y-62260364D01*
X119668014Y-61421577D01*
X119904631Y-60605446D01*
X120220996Y-59814783D01*
X120616046Y-59052396D01*
X121088719Y-58321095D01*
X121415044Y-57891054D01*
X121914188Y-57324073D01*
X122488197Y-56768368D01*
X123127368Y-56231134D01*
X123821998Y-55719569D01*
X124562384Y-55240870D01*
X125338824Y-54802234D01*
X126053175Y-54450979D01*
X126998365Y-54057838D01*
X128008084Y-53713503D01*
X129076808Y-53419228D01*
X130199017Y-53176264D01*
X131369187Y-52985865D01*
X132581796Y-52849282D01*
X133371167Y-52791069D01*
X133668543Y-52778210D01*
X134033431Y-52769968D01*
X134449766Y-52766108D01*
X134901483Y-52766396D01*
X135372518Y-52770598D01*
X135846807Y-52778480D01*
X136308286Y-52789806D01*
X136740890Y-52804342D01*
X137128555Y-52821855D01*
X137455216Y-52842109D01*
X137583333Y-52852530D01*
X138945740Y-53009229D01*
X140252618Y-53229631D01*
X141504329Y-53513840D01*
X142701235Y-53861962D01*
X143843698Y-54274102D01*
X144932081Y-54750365D01*
X145944167Y-55278051D01*
X146251462Y-55460481D01*
X146603107Y-55683393D01*
X146978630Y-55932799D01*
X147357560Y-56194713D01*
X147719426Y-56455146D01*
X148043758Y-56700113D01*
X148161217Y-56792900D01*
X148466231Y-57047850D01*
X148806799Y-57349772D01*
X149165990Y-57682372D01*
X149526874Y-58029352D01*
X149872519Y-58374418D01*
X150185995Y-58701273D01*
X150450372Y-58993622D01*
X150463845Y-59009179D01*
X151138894Y-59844274D01*
X151731377Y-60691714D01*
X152242925Y-61554903D01*
X152675166Y-62437246D01*
X153029728Y-63342150D01*
X153308241Y-64273019D01*
X153512333Y-65233259D01*
X153548986Y-65459060D01*
X153593095Y-65826885D01*
X153624269Y-66255357D01*
X153642350Y-66721424D01*
X153647181Y-67202037D01*
X153638604Y-67674144D01*
X153616462Y-68114696D01*
X153580597Y-68500642D01*
X153570293Y-68579969D01*
X153403555Y-69506122D01*
X153164330Y-70395783D01*
X152851688Y-71250318D01*
X152464699Y-72071093D01*
X152002434Y-72859471D01*
X151463964Y-73616819D01*
X150848359Y-74344501D01*
X150154689Y-75043883D01*
X149382026Y-75716330D01*
X148529440Y-76363206D01*
X148044450Y-76696414D01*
X147855882Y-76825435D01*
X147708874Y-76933511D01*
X147612332Y-77013590D01*
X147575162Y-77058620D01*
X147578783Y-77065194D01*
X147641911Y-77082876D01*
X147768141Y-77115266D01*
X147938202Y-77157499D01*
X148103167Y-77197586D01*
X149207573Y-77503431D01*
X150270430Y-77878778D01*
X151288768Y-78322012D01*
X152259618Y-78831515D01*
X153180010Y-79405671D01*
X154046974Y-80042863D01*
X154857542Y-80741476D01*
X155174774Y-81047167D01*
X155887498Y-81806855D01*
X156518483Y-82586020D01*
X157068861Y-83386789D01*
X157539764Y-84211288D01*
X157932323Y-85061645D01*
X158247670Y-85939985D01*
X158486935Y-86848435D01*
X158609696Y-87503000D01*
X158642695Y-87778333D01*
X158667097Y-88118616D01*
X158682907Y-88504569D01*
X158690130Y-88916914D01*
X158688772Y-89336372D01*
X158678837Y-89743665D01*
X158660331Y-90119512D01*
X158633259Y-90444637D01*
X158608834Y-90634158D01*
X158433686Y-91512851D01*
X158189872Y-92348914D01*
X157876341Y-93143657D01*
X157492041Y-93898391D01*
X157035921Y-94614425D01*
X156506929Y-95293071D01*
X155904014Y-95935639D01*
X155226124Y-96543440D01*
X154472209Y-97117783D01*
X153641216Y-97659979D01*
X152732093Y-98171340D01*
X152442333Y-98319749D01*
X152217957Y-98429699D01*
X151978731Y-98542593D01*
X151737610Y-98652797D01*
X151507550Y-98754675D01*
X151301509Y-98842592D01*
X151132442Y-98910914D01*
X151013305Y-98954006D01*
X150957054Y-98966232D01*
X150956379Y-98966030D01*
X150924018Y-98933445D01*
X150839209Y-98842053D01*
X150705881Y-98696212D01*
X150527964Y-98500280D01*
X150309389Y-98258616D01*
X150054084Y-97975578D01*
X149765980Y-97655525D01*
X149449008Y-97302815D01*
X149107096Y-96921806D01*
X148744174Y-96516856D01*
X148364173Y-96092325D01*
X148236977Y-95950109D01*
X145550708Y-92946052D01*
X146029242Y-92706265D01*
X146708909Y-92328271D01*
X147325922Y-91907947D01*
X147877224Y-91448506D01*
X148359756Y-90953161D01*
X148770463Y-90425125D01*
X149106286Y-89867611D01*
X149364167Y-89283833D01*
X149409537Y-89154000D01*
X149506713Y-88840502D01*
X149577537Y-88553115D01*
X149625522Y-88267723D01*
X149654184Y-87960209D01*
X149667036Y-87606458D01*
X149668635Y-87376000D01*
X149663235Y-86996134D01*
X149644920Y-86675539D01*
X149609669Y-86389288D01*
X149553458Y-86112453D01*
X149472266Y-85820106D01*
X149365400Y-85496877D01*
X149095041Y-84845372D01*
X148742408Y-84206217D01*
X148309342Y-83582135D01*
X147797688Y-82975849D01*
X147355165Y-82526514D01*
X146699612Y-81959945D01*
X145988993Y-81457552D01*
X145223723Y-81019553D01*
X144404218Y-80646170D01*
X143530892Y-80337622D01*
X142888937Y-80160621D01*
X142416041Y-80044305D01*
X141682437Y-80319370D01*
X140926380Y-80607994D01*
X140166212Y-80908010D01*
X139416765Y-81213211D01*
X138692871Y-81517389D01*
X138009361Y-81814338D01*
X137381067Y-82097850D01*
X136957160Y-82296899D01*
X136716194Y-82411076D01*
X136539575Y-82491013D01*
X136416096Y-82540679D01*
X136334548Y-82564041D01*
X136283724Y-82565067D01*
X136252415Y-82547725D01*
X136251436Y-82546732D01*
X136218767Y-82510627D01*
X136131863Y-82413890D01*
X135992934Y-82258992D01*
X135804194Y-82048406D01*
X135567853Y-81784601D01*
X135286126Y-81470050D01*
X134961223Y-81107223D01*
X134595357Y-80698593D01*
X134190739Y-80246630D01*
X133749583Y-79753806D01*
X133274101Y-79222593D01*
X132766503Y-78655461D01*
X132229004Y-78054882D01*
X131663814Y-77423327D01*
X131073146Y-76763268D01*
X130459212Y-76077175D01*
X129824225Y-75367522D01*
X129170395Y-74636778D01*
X128499937Y-73887415D01*
X127815061Y-73121904D01*
X127804113Y-73109667D01*
X119415176Y-63732833D01*
X118299553Y-63732833D01*
X119161126Y-64696166D01*
X119210606Y-65061166D01*
X119375270Y-65969050D01*
X119618941Y-66846628D01*
X119941500Y-67693724D01*
X120342828Y-68510161D01*
X120822809Y-69295760D01*
X121381323Y-70050347D01*
X122018252Y-70773743D01*
X122733478Y-71465772D01*
X123526883Y-72126256D01*
X124311833Y-72696400D01*
X124824328Y-73031487D01*
X125386172Y-73373256D01*
X125975232Y-73709504D01*
X126569377Y-74028025D01*
X127146478Y-74316616D01*
X127684402Y-74563071D01*
X127740833Y-74587342D01*
X127985085Y-74700172D01*
X128160422Y-74802205D01*
X128280451Y-74901578D01*
X128297769Y-74920420D01*
X128431371Y-75072741D01*
X127832102Y-75407420D01*
X127413752Y-75650707D01*
X126968563Y-75926713D01*
X126518584Y-76220779D01*
X126085860Y-76518243D01*
X125692440Y-76804447D01*
X125454833Y-76988167D01*
X124925551Y-77440486D01*
X124401032Y-77945832D01*
X123897067Y-78486610D01*
X123429443Y-79045223D01*
X123013952Y-79604075D01*
X122757800Y-79993714D01*
X122306465Y-80803654D01*
X121929498Y-81652454D01*
X121627404Y-82537588D01*
X121557129Y-82822431D01*
X136534792Y-82822431D01*
X136583417Y-82794504D01*
X136699005Y-82737190D01*
X136871047Y-82655262D01*
X137089036Y-82553496D01*
X137342465Y-82436663D01*
X137620825Y-82309537D01*
X137913610Y-82176893D01*
X138210312Y-82043504D01*
X138500423Y-81914143D01*
X138773437Y-81793585D01*
X139018845Y-81686602D01*
X139226140Y-81597968D01*
X139276667Y-81576778D01*
X139519966Y-81476596D01*
X139822674Y-81353969D01*
X140165135Y-81216741D01*
X140527692Y-81072756D01*
X140890692Y-80929856D01*
X141202833Y-80808151D01*
X141545018Y-80674933D01*
X141820021Y-80568876D01*
X142040288Y-80488374D01*
X142218266Y-80431820D01*
X142366402Y-80397606D01*
X142497144Y-80384126D01*
X142622937Y-80389773D01*
X142756229Y-80412939D01*
X142909467Y-80452018D01*
X143095097Y-80505404D01*
X143234833Y-80545818D01*
X144057134Y-80818063D01*
X144843236Y-81152737D01*
X145583006Y-81544717D01*
X146266313Y-81988882D01*
X146615717Y-82254627D01*
X146821209Y-82431490D01*
X147059104Y-82654773D01*
X147313534Y-82907872D01*
X147568629Y-83174179D01*
X147808518Y-83437086D01*
X148017333Y-83679987D01*
X148179203Y-83886275D01*
X148192495Y-83904667D01*
X148580229Y-84495378D01*
X148888651Y-85076186D01*
X149120926Y-85656306D01*
X149280223Y-86244950D01*
X149369710Y-86851332D01*
X149393245Y-87397167D01*
X149371464Y-87943794D01*
X149304019Y-88439699D01*
X149185554Y-88908615D01*
X149010713Y-89374276D01*
X148886989Y-89640833D01*
X148726467Y-89949323D01*
X148565663Y-90217010D01*
X148389786Y-90463578D01*
X148184046Y-90708714D01*
X147933652Y-90972102D01*
X147753758Y-91149087D01*
X147205601Y-91625372D01*
X146596206Y-92053002D01*
X145918847Y-92436662D01*
X145867213Y-92462744D01*
X145359942Y-92717031D01*
X145223232Y-92575932D01*
X145179172Y-92528023D01*
X145082054Y-92420670D01*
X144935207Y-92257590D01*
X144741959Y-92042498D01*
X144505638Y-91779111D01*
X144229572Y-91471145D01*
X143917089Y-91122315D01*
X143571518Y-90736339D01*
X143196186Y-90316930D01*
X142794421Y-89867807D01*
X142369552Y-89392685D01*
X141924907Y-88895279D01*
X141463813Y-88379306D01*
X141115862Y-87989833D01*
X140641092Y-87458374D01*
X140178038Y-86940080D01*
X139730227Y-86438898D01*
X139301187Y-85958775D01*
X138894447Y-85503657D01*
X138513534Y-85077490D01*
X138161977Y-84684222D01*
X137843305Y-84327799D01*
X137561044Y-84012167D01*
X137318724Y-83741273D01*
X137119872Y-83519064D01*
X136968017Y-83349486D01*
X136866686Y-83236485D01*
X136829017Y-83194612D01*
X136704525Y-83052842D01*
X136607188Y-82934506D01*
X136547604Y-82853010D01*
X136534792Y-82822431D01*
X121557129Y-82822431D01*
X121400687Y-83456529D01*
X121249854Y-84406751D01*
X121175409Y-85385729D01*
X121177857Y-86390934D01*
X121257704Y-87419843D01*
X121263187Y-87467182D01*
X121351963Y-88035746D01*
X131771877Y-88035746D01*
X131819524Y-87485421D01*
X131933349Y-86962286D01*
X132115491Y-86463168D01*
X132368086Y-85984892D01*
X132693273Y-85524286D01*
X133093189Y-85078176D01*
X133569973Y-84643389D01*
X134125763Y-84216752D01*
X134762696Y-83795091D01*
X135219667Y-83523071D01*
X135434209Y-83402474D01*
X135587729Y-83322491D01*
X135690825Y-83278577D01*
X135754094Y-83266187D01*
X135787184Y-83279714D01*
X135820551Y-83316840D01*
X135907236Y-83413638D01*
X136044143Y-83566646D01*
X136228179Y-83772401D01*
X136456247Y-84027441D01*
X136725251Y-84328304D01*
X137032098Y-84671526D01*
X137373691Y-85053646D01*
X137746935Y-85471201D01*
X138148734Y-85920728D01*
X138575995Y-86398766D01*
X139025621Y-86901851D01*
X139494516Y-87426522D01*
X139979587Y-87969316D01*
X140164485Y-88176224D01*
X140769470Y-88853526D01*
X141319793Y-89470288D01*
X141817493Y-90028844D01*
X142264611Y-90531526D01*
X142663187Y-90980670D01*
X143015261Y-91378609D01*
X143322873Y-91727677D01*
X143588065Y-92030209D01*
X143812875Y-92288537D01*
X143999344Y-92504997D01*
X144149513Y-92681921D01*
X144265421Y-92821645D01*
X144349109Y-92926502D01*
X144402618Y-92998825D01*
X144427986Y-93040949D01*
X144429029Y-93054711D01*
X144315157Y-93101355D01*
X144129984Y-93156714D01*
X143886119Y-93218199D01*
X143596171Y-93283221D01*
X143272747Y-93349191D01*
X142928457Y-93413522D01*
X142575909Y-93473623D01*
X142227711Y-93526906D01*
X141943667Y-93565016D01*
X141716931Y-93585808D01*
X141420836Y-93601840D01*
X141070550Y-93613198D01*
X140681244Y-93619969D01*
X140268084Y-93622241D01*
X139846240Y-93620100D01*
X139430881Y-93613635D01*
X139037175Y-93602932D01*
X138680291Y-93588078D01*
X138375398Y-93569160D01*
X138137664Y-93546266D01*
X138112500Y-93543004D01*
X137204783Y-93390938D01*
X136357356Y-93187687D01*
X135572021Y-92933966D01*
X134850581Y-92630491D01*
X134194836Y-92277975D01*
X133606590Y-91877134D01*
X133317700Y-91640893D01*
X132870654Y-91199523D01*
X132500131Y-90721972D01*
X132205818Y-90207621D01*
X131987401Y-89655850D01*
X131844568Y-89066040D01*
X131788270Y-88616434D01*
X131771877Y-88035746D01*
X121351963Y-88035746D01*
X121426227Y-88511361D01*
X121666292Y-89522266D01*
X121983660Y-90500376D01*
X122378612Y-91446170D01*
X122851425Y-92360127D01*
X123402379Y-93242728D01*
X124031753Y-94094452D01*
X124739827Y-94915779D01*
X125526878Y-95707187D01*
X126393187Y-96469157D01*
X126600321Y-96637605D01*
X127576196Y-97365809D01*
X128605176Y-98028294D01*
X129686747Y-98624864D01*
X130820394Y-99155324D01*
X132005604Y-99619479D01*
X133241861Y-100017132D01*
X134528651Y-100348089D01*
X135865460Y-100612153D01*
X137251773Y-100809130D01*
X137708200Y-100858204D01*
X138825024Y-100944493D01*
X139992050Y-100988253D01*
X141191118Y-100990354D01*
X142404069Y-100951668D01*
X143612743Y-100873067D01*
X144798979Y-100755421D01*
X145944618Y-100599602D01*
X147002500Y-100412294D01*
X147378758Y-100333465D01*
X147779942Y-100242907D01*
X148193056Y-100144074D01*
X148605103Y-100040421D01*
X149003089Y-99935401D01*
X149374018Y-99832469D01*
X149704894Y-99735080D01*
X149982721Y-99646687D01*
X150194505Y-99570746D01*
X150243393Y-99550834D01*
X150271867Y-99562959D01*
X150331768Y-99612644D01*
X150425588Y-99702564D01*
X150555817Y-99835397D01*
X150724946Y-100013819D01*
X150935464Y-100240505D01*
X151189862Y-100518134D01*
X151490630Y-100849381D01*
X151840259Y-101236923D01*
X152241240Y-101683436D01*
X152586995Y-102069614D01*
X154864703Y-104616334D01*
X156003400Y-111310250D01*
X156129821Y-112053351D01*
X156252619Y-112775009D01*
X156371022Y-113470688D01*
X156484256Y-114135858D01*
X156591550Y-114765982D01*
X156692130Y-115356529D01*
X156785225Y-115902965D01*
X156870061Y-116400755D01*
X156945866Y-116845367D01*
X157011868Y-117232268D01*
X157067293Y-117556922D01*
X157111370Y-117814798D01*
X157143325Y-118001361D01*
X157162386Y-118112078D01*
X157167593Y-118141750D01*
X157193089Y-118279333D01*
X123427544Y-118279333D01*
X121397212Y-118279284D01*
X119418903Y-118279138D01*
X117493730Y-118278895D01*
X115622808Y-118278558D01*
X113807247Y-118278127D01*
X112048163Y-118277603D01*
X110346667Y-118276989D01*
X108703872Y-118276286D01*
X107120893Y-118275493D01*
X105598840Y-118274614D01*
X104138829Y-118273649D01*
X102741970Y-118272600D01*
X101409379Y-118271468D01*
X100142166Y-118270253D01*
X98941447Y-118268959D01*
X97808332Y-118267584D01*
X96743937Y-118266132D01*
X95749372Y-118264604D01*
X94825752Y-118263000D01*
X93974190Y-118261322D01*
X93195798Y-118259571D01*
X92491689Y-118257749D01*
X91862977Y-118255856D01*
X91310774Y-118253895D01*
X90836193Y-118251866D01*
X90440348Y-118249771D01*
X90124351Y-118247611D01*
X89889315Y-118245387D01*
X89736354Y-118243101D01*
X89666580Y-118240753D01*
X89662000Y-118239968D01*
X89655194Y-118194825D01*
X89635226Y-118070238D01*
X89602767Y-117870291D01*
X89558491Y-117599068D01*
X89503069Y-117260654D01*
X89437174Y-116859131D01*
X89361478Y-116398585D01*
X89276653Y-115883100D01*
X89183373Y-115316761D01*
X89082309Y-114703650D01*
X88974134Y-114047853D01*
X88859520Y-113353453D01*
X88739140Y-112624536D01*
X88613666Y-111865184D01*
X88483771Y-111079483D01*
X88350126Y-110271517D01*
X88349667Y-110268741D01*
X88215951Y-109460179D01*
X88085986Y-108673562D01*
X87960445Y-107912996D01*
X87840001Y-107182587D01*
X87725328Y-106486443D01*
X87617098Y-105828670D01*
X87515986Y-105213373D01*
X87422663Y-104644660D01*
X87337805Y-104126637D01*
X87262083Y-103663411D01*
X87196172Y-103259088D01*
X87140744Y-102917775D01*
X87096472Y-102643577D01*
X87064032Y-102440602D01*
X87044094Y-102312956D01*
X87037333Y-102264773D01*
X87040733Y-102257483D01*
X87052886Y-102250699D01*
X87076722Y-102244405D01*
X87115168Y-102238582D01*
X87171154Y-102233212D01*
X87247609Y-102228277D01*
X87347462Y-102223759D01*
X87473642Y-102219641D01*
X87629079Y-102215904D01*
X87816700Y-102212530D01*
X88039436Y-102209501D01*
X88300214Y-102206799D01*
X88601965Y-102204407D01*
X88947617Y-102202305D01*
X89340099Y-102200477D01*
X89782341Y-102198905D01*
X90277270Y-102197569D01*
X90827817Y-102196452D01*
X91436910Y-102195537D01*
X92107479Y-102194805D01*
X92842451Y-102194238D01*
X93644757Y-102193818D01*
X94517325Y-102193527D01*
X95463085Y-102193348D01*
X96484965Y-102193262D01*
X97585894Y-102193250D01*
X98668417Y-102193291D01*
X100459696Y-102193730D01*
X102167312Y-102194852D01*
X103792268Y-102196666D01*
X105335565Y-102199175D01*
X106798204Y-102202388D01*
X108181187Y-102206309D01*
X109485515Y-102210946D01*
X110712191Y-102216304D01*
X111862214Y-102222389D01*
X112936588Y-102229207D01*
X113936314Y-102236765D01*
X114862393Y-102245069D01*
X115715826Y-102254125D01*
X116497616Y-102263939D01*
X117208764Y-102274517D01*
X117850272Y-102285866D01*
X118423140Y-102297991D01*
X118928371Y-102310898D01*
X119210667Y-102319379D01*
X119921964Y-102341796D01*
X120646207Y-102363873D01*
X121378163Y-102385491D01*
X122112599Y-102406527D01*
X122844281Y-102426862D01*
X123567976Y-102446373D01*
X124278452Y-102464939D01*
X124970476Y-102482440D01*
X125638813Y-102498754D01*
X126278231Y-102513760D01*
X126883497Y-102527337D01*
X127449377Y-102539364D01*
X127970640Y-102549720D01*
X128442050Y-102558283D01*
X128858376Y-102564933D01*
X129214385Y-102569548D01*
X129504842Y-102572007D01*
X129724515Y-102572190D01*
X129868171Y-102569974D01*
X129918065Y-102567215D01*
X130063296Y-102552500D01*
X122831817Y-94382167D01*
X122197748Y-93665782D01*
X121577954Y-92965537D01*
X120974809Y-92284112D01*
X120390685Y-91624186D01*
X119827956Y-90988441D01*
X119288994Y-90379558D01*
X118776172Y-89800216D01*
X118291863Y-89253096D01*
X117838440Y-88740880D01*
X117418275Y-88266247D01*
X117033743Y-87831877D01*
X116687215Y-87440453D01*
X116381065Y-87094653D01*
X116117665Y-86797159D01*
X115899389Y-86550650D01*
X115728609Y-86357809D01*
X115607698Y-86221315D01*
X115539029Y-86143848D01*
X115523649Y-86126547D01*
X115494582Y-86089972D01*
X115476901Y-86047646D01*
X115471114Y-85985253D01*
X115477725Y-85888477D01*
X115497242Y-85743002D01*
X115530170Y-85534512D01*
X115548553Y-85422079D01*
X115739438Y-84039470D01*
X115867276Y-82609941D01*
X115932322Y-81142800D01*
X115934833Y-79647354D01*
X115875063Y-78132909D01*
X115753268Y-76608771D01*
X115569702Y-75084248D01*
X115324622Y-73568645D01*
X115206392Y-72951856D01*
X114825258Y-71256114D01*
X114368515Y-69594021D01*
X113834879Y-67962279D01*
X113223067Y-66357591D01*
X112531796Y-64776657D01*
X111759782Y-63216182D01*
X110905742Y-61672866D01*
X110647437Y-61236194D01*
X109927876Y-60097996D01*
X109182016Y-59038875D01*
X108407872Y-58056810D01*
X107603456Y-57149777D01*
X106766781Y-56315753D01*
X105895860Y-55552715D01*
X104988707Y-54858640D01*
X104043333Y-54231505D01*
X103394705Y-53851737D01*
X102414588Y-53354482D01*
X101384582Y-52924629D01*
X100306832Y-52562789D01*
X99183483Y-52269573D01*
X98016680Y-52045593D01*
X96808568Y-51891462D01*
X96393000Y-51855400D01*
X96072065Y-51837491D01*
X95687246Y-51826912D01*
X95257582Y-51823306D01*
X94802108Y-51826317D01*
X94339863Y-51835589D01*
X93889884Y-51850766D01*
X93471208Y-51871492D01*
X93102873Y-51897410D01*
X92858167Y-51921536D01*
X91699088Y-52092506D01*
X90590436Y-52329584D01*
X89528390Y-52633873D01*
X88509128Y-53006476D01*
X87528828Y-53448497D01*
X87471976Y-53476843D01*
X87266993Y-53578060D01*
X87089999Y-53662525D01*
X86954044Y-53724244D01*
X86872182Y-53757223D01*
X86854247Y-53760532D01*
X86821045Y-53722542D01*
X86736215Y-53626190D01*
X86604226Y-53476529D01*
X86429544Y-53278615D01*
X86216640Y-53037500D01*
X85969980Y-52758240D01*
X85694033Y-52445888D01*
X85393267Y-52105499D01*
X85072150Y-51742126D01*
X84735151Y-51360825D01*
X84386738Y-50966648D01*
X84031378Y-50564650D01*
X83673541Y-50159886D01*
X83317694Y-49757409D01*
X82968305Y-49362274D01*
X82629843Y-48979534D01*
X82306776Y-48614245D01*
X82003572Y-48271459D01*
X81724699Y-47956232D01*
X81474626Y-47673617D01*
X81257820Y-47428668D01*
X81078750Y-47226441D01*
X80941884Y-47071988D01*
X80851690Y-46970364D01*
X80812637Y-46926623D01*
X80812525Y-46926500D01*
X80796796Y-46908382D01*
X80781790Y-46886978D01*
X80766849Y-46858297D01*
X80751316Y-46818349D01*
X80734535Y-46763142D01*
X80715846Y-46688686D01*
X80694592Y-46590990D01*
X80670117Y-46466064D01*
X80641763Y-46309916D01*
X80608872Y-46118556D01*
X80570787Y-45887993D01*
X80526849Y-45614237D01*
X80476403Y-45293296D01*
X80418790Y-44921179D01*
X80353353Y-44493897D01*
X80279434Y-44007458D01*
X80196376Y-43457871D01*
X80103521Y-42841146D01*
X80000213Y-42153292D01*
X79885792Y-41390318D01*
X79759603Y-40548233D01*
X79738468Y-40407167D01*
X79629591Y-39680769D01*
X79523932Y-38976416D01*
X79422188Y-38298735D01*
X79325057Y-37652351D01*
X79233237Y-37041894D01*
X79147427Y-36471988D01*
X79068325Y-35947262D01*
X78996628Y-35472341D01*
X78933036Y-35051854D01*
X78878245Y-34690426D01*
X78832955Y-34392684D01*
X78797863Y-34163257D01*
X78773668Y-34006770D01*
X78761068Y-33927850D01*
X78759565Y-33919583D01*
X78738387Y-33824333D01*
X77962348Y-33824333D01*
X77963740Y-33863481D01*
X77974106Y-34009976D01*
X77991069Y-34188322D01*
X78015076Y-34402470D01*
X78046573Y-34656373D01*
X78086008Y-34953985D01*
X78133826Y-35299258D01*
X78190474Y-35696145D01*
X78256400Y-36148598D01*
X78332050Y-36660572D01*
X78417870Y-37236018D01*
X78514307Y-37878889D01*
X78621808Y-38593138D01*
X78740820Y-39382719D01*
X78871789Y-40251583D01*
X78889507Y-40369179D01*
X79000349Y-41103947D01*
X79108266Y-41817539D01*
X79212543Y-42505305D01*
X79312465Y-43162594D01*
X79407316Y-43784757D01*
X79496379Y-44367143D01*
X79578940Y-44905103D01*
X79654282Y-45393985D01*
X79721689Y-45829141D01*
X79780447Y-46205920D01*
X79829838Y-46519671D01*
X79869148Y-46765745D01*
X79897661Y-46939492D01*
X79914660Y-47036262D01*
X79918376Y-47053500D01*
X79971042Y-47172935D01*
X80062613Y-47320023D01*
X80167306Y-47455667D01*
X80238576Y-47537298D01*
X80358823Y-47674224D01*
X80523420Y-47861212D01*
X80727743Y-48093034D01*
X80967165Y-48364457D01*
X81237061Y-48670251D01*
X81532806Y-49005185D01*
X81849775Y-49364029D01*
X82183341Y-49741552D01*
X82528879Y-50132523D01*
X82881765Y-50531711D01*
X83237372Y-50933886D01*
X83591075Y-51333817D01*
X83938249Y-51726272D01*
X84274268Y-52106022D01*
X84594507Y-52467836D01*
X84894340Y-52806482D01*
X85169141Y-53116731D01*
X85414286Y-53393351D01*
X85625149Y-53631111D01*
X85797105Y-53824782D01*
X85925527Y-53969131D01*
X86005792Y-54058929D01*
X86030913Y-54086601D01*
X86155606Y-54219368D01*
X85781553Y-54475754D01*
X85288935Y-54836249D01*
X84772856Y-55255682D01*
X84249946Y-55718416D01*
X83736832Y-56208813D01*
X83250142Y-56711235D01*
X82806504Y-57210047D01*
X82577753Y-57488667D01*
X81867704Y-58441981D01*
X81220478Y-59434808D01*
X80635126Y-60469828D01*
X80110698Y-61549724D01*
X79646245Y-62677178D01*
X79240817Y-63854869D01*
X78893467Y-65085481D01*
X78603244Y-66371694D01*
X78369200Y-67716190D01*
X78190385Y-69121651D01*
X78097326Y-70146333D01*
X78082031Y-70403561D01*
X78069439Y-70732190D01*
X78059547Y-71118997D01*
X78052353Y-71550762D01*
X78050707Y-71720422D01*
X78332818Y-71720422D01*
X78396613Y-70212709D01*
X78524094Y-68756614D01*
X78715119Y-67352889D01*
X78969545Y-66002286D01*
X79287230Y-64705560D01*
X79668032Y-63463462D01*
X80111807Y-62276744D01*
X80618414Y-61146161D01*
X80638357Y-61105426D01*
X80833252Y-60714347D01*
X81008678Y-60376977D01*
X81178366Y-60069140D01*
X81356047Y-59766662D01*
X81555454Y-59445366D01*
X81773596Y-59106704D01*
X82432956Y-58160543D01*
X83132763Y-57281590D01*
X83870431Y-56472566D01*
X84643375Y-55736193D01*
X85449010Y-55075193D01*
X85936667Y-54723002D01*
X86338833Y-54446673D01*
X86428974Y-54538920D01*
X86469167Y-54583010D01*
X86561530Y-54686138D01*
X86702162Y-54843904D01*
X86887158Y-55051907D01*
X87112616Y-55305749D01*
X87374632Y-55601031D01*
X87669305Y-55933352D01*
X87992731Y-56298313D01*
X88341008Y-56691515D01*
X88710231Y-57108559D01*
X89096499Y-57545044D01*
X89340376Y-57820721D01*
X92002803Y-60830708D01*
X93222205Y-60830708D01*
X93223475Y-60815026D01*
X93231842Y-60805754D01*
X93233904Y-60804566D01*
X93315463Y-60771167D01*
X93454438Y-60723925D01*
X93626467Y-60670922D01*
X93706507Y-60647814D01*
X94324624Y-60512979D01*
X94983934Y-60444046D01*
X95671764Y-60441596D01*
X96375442Y-60506206D01*
X96477565Y-60521104D01*
X97001761Y-60634025D01*
X97538318Y-60810028D01*
X98061920Y-61038489D01*
X98547247Y-61308785D01*
X98849647Y-61516443D01*
X99125411Y-61744790D01*
X99422251Y-62025939D01*
X99720252Y-62338611D01*
X99999501Y-62661525D01*
X100240082Y-62973401D01*
X100317399Y-63084858D01*
X100642998Y-63614158D01*
X100965960Y-64222671D01*
X101284244Y-64904943D01*
X101595807Y-65655521D01*
X101898608Y-66468954D01*
X102190603Y-67339788D01*
X102469751Y-68262571D01*
X102734011Y-69231851D01*
X102954080Y-70125167D01*
X103018225Y-70402936D01*
X103085338Y-70700985D01*
X103153053Y-71008042D01*
X103219006Y-71312838D01*
X103280834Y-71604102D01*
X103336171Y-71870562D01*
X103382654Y-72100949D01*
X103417917Y-72283991D01*
X103439597Y-72408419D01*
X103445329Y-72462962D01*
X103444792Y-72464319D01*
X103415887Y-72434453D01*
X103333667Y-72344296D01*
X103200914Y-72196976D01*
X103020409Y-71995619D01*
X102794934Y-71743353D01*
X102527270Y-71443302D01*
X102220198Y-71098596D01*
X101876500Y-70712359D01*
X101498957Y-70287719D01*
X101090351Y-69827803D01*
X100653462Y-69335736D01*
X100191073Y-68814647D01*
X99705964Y-68267661D01*
X99200917Y-67697905D01*
X98678714Y-67108506D01*
X98286413Y-66665540D01*
X97654936Y-65952322D01*
X97077300Y-65299736D01*
X96551167Y-64705073D01*
X96074200Y-64165620D01*
X95644063Y-63678667D01*
X95258418Y-63241502D01*
X94914927Y-62851415D01*
X94611254Y-62505693D01*
X94345061Y-62201626D01*
X94114011Y-61936502D01*
X93915768Y-61707611D01*
X93747993Y-61512242D01*
X93608349Y-61347682D01*
X93494500Y-61211221D01*
X93404109Y-61100148D01*
X93334837Y-61011752D01*
X93284348Y-60943321D01*
X93250304Y-60892144D01*
X93230369Y-60855510D01*
X93222205Y-60830708D01*
X92002803Y-60830708D01*
X92161636Y-61010275D01*
X91868212Y-61216339D01*
X91654059Y-61379982D01*
X91413781Y-61585177D01*
X91167232Y-61813039D01*
X90934269Y-62044683D01*
X90734748Y-62261225D01*
X90613331Y-62409857D01*
X90313396Y-62868750D01*
X90045134Y-63403490D01*
X89808511Y-64011418D01*
X89603492Y-64689875D01*
X89430043Y-65436203D01*
X89288131Y-66247742D01*
X89177721Y-67121834D01*
X89098778Y-68055820D01*
X89051269Y-69047042D01*
X89039010Y-69842875D01*
X89338197Y-69842875D01*
X89366887Y-68662084D01*
X89435682Y-67546607D01*
X89539006Y-66548000D01*
X89656952Y-65770409D01*
X89806960Y-65047480D01*
X89987418Y-64384244D01*
X90196711Y-63785732D01*
X90433225Y-63256974D01*
X90695346Y-62803002D01*
X90779483Y-62681107D01*
X90904971Y-62522515D01*
X91065556Y-62342734D01*
X91250784Y-62151158D01*
X91450199Y-61957180D01*
X91653345Y-61770195D01*
X91849766Y-61599596D01*
X92029009Y-61454777D01*
X92180616Y-61345132D01*
X92294132Y-61280054D01*
X92353490Y-61266933D01*
X92385666Y-61299216D01*
X92471222Y-61391930D01*
X92607475Y-61542061D01*
X92791739Y-61746597D01*
X93021332Y-62002524D01*
X93293569Y-62306828D01*
X93605766Y-62656496D01*
X93955239Y-63048514D01*
X94339304Y-63479868D01*
X94755276Y-63947546D01*
X95200473Y-64448534D01*
X95672209Y-64979817D01*
X96167802Y-65538384D01*
X96684565Y-66121219D01*
X97219817Y-66725311D01*
X97770872Y-67347644D01*
X97999828Y-67606333D01*
X98557072Y-68236031D01*
X99099752Y-68849280D01*
X99625168Y-69443032D01*
X100130623Y-70014237D01*
X100613419Y-70559844D01*
X101070855Y-71076804D01*
X101500235Y-71562068D01*
X101898859Y-72012584D01*
X102264028Y-72425303D01*
X102593045Y-72797175D01*
X102883211Y-73125151D01*
X103131827Y-73406180D01*
X103336194Y-73637212D01*
X103493614Y-73815197D01*
X103601388Y-73937087D01*
X103656819Y-73999830D01*
X103663704Y-74007653D01*
X103695606Y-74081416D01*
X103733387Y-74231815D01*
X103776102Y-74451096D01*
X103822805Y-74731503D01*
X103872551Y-75065282D01*
X103924393Y-75444679D01*
X103977386Y-75861937D01*
X104030584Y-76309303D01*
X104083043Y-76779022D01*
X104133815Y-77263338D01*
X104181957Y-77754498D01*
X104226521Y-78244745D01*
X104266562Y-78726326D01*
X104301135Y-79191486D01*
X104307879Y-79290333D01*
X104342530Y-79871554D01*
X104371312Y-80487021D01*
X104394144Y-81124891D01*
X104410941Y-81773320D01*
X104421622Y-82420464D01*
X104426104Y-83054478D01*
X104424303Y-83663518D01*
X104416138Y-84235741D01*
X104401526Y-84759301D01*
X104380383Y-85222355D01*
X104352628Y-85613059D01*
X104352084Y-85619167D01*
X104256499Y-86509256D01*
X104135385Y-87322248D01*
X103987828Y-88062056D01*
X103812912Y-88732595D01*
X103609720Y-89337778D01*
X103377337Y-89881518D01*
X103334019Y-89969811D01*
X102998954Y-90550684D01*
X102607115Y-91068897D01*
X102159462Y-91523719D01*
X101656953Y-91914419D01*
X101100550Y-92240265D01*
X100491210Y-92500528D01*
X99829895Y-92694476D01*
X99726059Y-92717850D01*
X99568335Y-92749749D01*
X99419122Y-92773664D01*
X99262102Y-92790708D01*
X99080957Y-92801995D01*
X98859367Y-92808638D01*
X98581016Y-92811751D01*
X98340333Y-92812430D01*
X98015740Y-92811759D01*
X97760203Y-92808469D01*
X97558123Y-92801497D01*
X97393904Y-92789780D01*
X97251948Y-92772255D01*
X97116658Y-92747860D01*
X96994295Y-92720704D01*
X96383281Y-92539140D01*
X95808587Y-92288528D01*
X95263040Y-91964792D01*
X94739465Y-91563857D01*
X94386311Y-91239137D01*
X93950572Y-90772434D01*
X93542868Y-90255573D01*
X93161406Y-89684665D01*
X92804393Y-89055817D01*
X92470035Y-88365140D01*
X92156539Y-87608742D01*
X91862113Y-86782733D01*
X91584964Y-85883221D01*
X91323299Y-84906317D01*
X91165955Y-84250953D01*
X90816379Y-82665049D01*
X90502764Y-81099364D01*
X90225526Y-79558405D01*
X89985078Y-78046684D01*
X89781834Y-76568710D01*
X89616210Y-75128991D01*
X89488620Y-73732039D01*
X89399478Y-72382362D01*
X89349199Y-71084471D01*
X89338197Y-69842875D01*
X89039010Y-69842875D01*
X89035159Y-70092840D01*
X89050414Y-71190557D01*
X89097000Y-72337532D01*
X89174883Y-73531108D01*
X89284029Y-74768625D01*
X89424403Y-76047425D01*
X89595972Y-77364849D01*
X89798700Y-78718239D01*
X90032555Y-80104935D01*
X90297501Y-81522279D01*
X90593505Y-82967612D01*
X90895123Y-84328000D01*
X91124490Y-85271858D01*
X91361835Y-86138673D01*
X91609883Y-86935907D01*
X91871357Y-87671019D01*
X92148982Y-88351472D01*
X92445481Y-88984726D01*
X92763579Y-89578241D01*
X92891844Y-89796836D01*
X93210573Y-90293577D01*
X93542644Y-90739834D01*
X93913551Y-91168914D01*
X94064159Y-91328356D01*
X94481338Y-91729617D01*
X94899851Y-92065321D01*
X95341884Y-92351969D01*
X95694500Y-92540883D01*
X96183908Y-92760555D01*
X96661273Y-92924754D01*
X97146046Y-93037448D01*
X97657681Y-93102607D01*
X98215630Y-93124199D01*
X98530833Y-93119517D01*
X99223712Y-93073688D01*
X99856444Y-92977882D01*
X100439715Y-92828507D01*
X100984209Y-92621971D01*
X101500609Y-92354682D01*
X101999600Y-92023048D01*
X102162825Y-91898437D01*
X102623640Y-91482330D01*
X103038488Y-90997170D01*
X103404273Y-90446912D01*
X103631068Y-90021833D01*
X103871350Y-89468582D01*
X104080904Y-88860868D01*
X104260159Y-88195643D01*
X104409546Y-87469859D01*
X104529495Y-86680470D01*
X104620434Y-85824428D01*
X104682793Y-84898686D01*
X104717003Y-83900195D01*
X104723493Y-82825910D01*
X104717488Y-82317167D01*
X104686041Y-81064912D01*
X104634253Y-79872287D01*
X104560430Y-78716334D01*
X104462873Y-77574094D01*
X104339888Y-76422609D01*
X104200186Y-75315768D01*
X104167683Y-75069729D01*
X104140547Y-74854436D01*
X104120346Y-74683174D01*
X104108648Y-74569230D01*
X104107010Y-74525900D01*
X104137301Y-74554268D01*
X104220116Y-74642588D01*
X104352173Y-74787136D01*
X104530192Y-74984191D01*
X104750892Y-75230029D01*
X105010990Y-75520930D01*
X105307208Y-75853170D01*
X105636263Y-76223027D01*
X105994874Y-76626778D01*
X106379761Y-77060703D01*
X106787642Y-77521077D01*
X107215237Y-78004179D01*
X107659264Y-78506287D01*
X108116442Y-79023678D01*
X108583491Y-79552630D01*
X109057130Y-80089420D01*
X109534076Y-80630327D01*
X110011051Y-81171627D01*
X110484771Y-81709599D01*
X110951957Y-82240521D01*
X111409327Y-82760669D01*
X111853600Y-83266322D01*
X112281496Y-83753757D01*
X112689733Y-84219253D01*
X113075030Y-84659086D01*
X113434107Y-85069534D01*
X113763682Y-85446876D01*
X114060474Y-85787388D01*
X114321202Y-86087349D01*
X114542585Y-86343035D01*
X114721343Y-86550726D01*
X114854194Y-86706698D01*
X114937857Y-86807229D01*
X114969051Y-86848597D01*
X114969176Y-86849056D01*
X114964442Y-86956085D01*
X114933493Y-87132790D01*
X114879344Y-87369386D01*
X114805012Y-87656091D01*
X114713510Y-87983118D01*
X114607855Y-88340683D01*
X114491063Y-88719002D01*
X114366148Y-89108291D01*
X114236126Y-89498765D01*
X114104012Y-89880639D01*
X113972822Y-90244129D01*
X113845572Y-90579450D01*
X113735107Y-90853377D01*
X113311149Y-91800922D01*
X112840512Y-92729931D01*
X112329571Y-93630746D01*
X111784703Y-94493711D01*
X111212281Y-95309167D01*
X110618681Y-96067457D01*
X110010278Y-96758924D01*
X109491239Y-97282194D01*
X108681857Y-97995835D01*
X107833052Y-98637276D01*
X106943162Y-99207254D01*
X106010528Y-99706505D01*
X105033487Y-100135765D01*
X104010378Y-100495772D01*
X102939541Y-100787261D01*
X101819315Y-101010969D01*
X100753333Y-101156504D01*
X100395334Y-101188465D01*
X99977339Y-101214484D01*
X99519891Y-101234160D01*
X99043528Y-101247093D01*
X98568793Y-101252881D01*
X98116224Y-101251122D01*
X97706364Y-101241417D01*
X97359752Y-101223363D01*
X97353416Y-101222900D01*
X96254641Y-101113889D01*
X95213067Y-100951438D01*
X94218096Y-100732820D01*
X93259132Y-100455311D01*
X92325579Y-100116186D01*
X91406841Y-99712719D01*
X91321100Y-99671502D01*
X90366100Y-99169524D01*
X89447661Y-98605465D01*
X88563984Y-97977365D01*
X87713274Y-97283266D01*
X86893733Y-96521206D01*
X86103567Y-95689227D01*
X85340977Y-94785368D01*
X84604167Y-93807670D01*
X83891342Y-92754173D01*
X83200703Y-91622917D01*
X82530456Y-90411943D01*
X82145205Y-89662000D01*
X81446287Y-88179458D01*
X80819814Y-86670857D01*
X80265099Y-85133239D01*
X79781452Y-83563644D01*
X79368186Y-81959114D01*
X79024612Y-80316691D01*
X78750042Y-78633416D01*
X78543786Y-76906329D01*
X78405157Y-75132474D01*
X78333466Y-73308890D01*
X78332853Y-73279000D01*
X78332818Y-71720422D01*
X78050707Y-71720422D01*
X78047855Y-72014261D01*
X78046052Y-72496273D01*
X78046941Y-72983575D01*
X78050520Y-73462944D01*
X78056787Y-73921160D01*
X78065740Y-74344999D01*
X78077377Y-74721240D01*
X78091696Y-75036659D01*
X78098096Y-75141667D01*
X78253107Y-76955408D01*
X78472789Y-78716455D01*
X78758038Y-80427805D01*
X79109751Y-82092454D01*
X79528823Y-83713399D01*
X80016152Y-85293636D01*
X80572634Y-86836161D01*
X81199166Y-88343971D01*
X81896644Y-89820061D01*
X82665965Y-91267429D01*
X83196298Y-92179806D01*
X83927240Y-93333456D01*
X84686203Y-94407726D01*
X85474429Y-95403558D01*
X86293163Y-96321892D01*
X87143647Y-97163670D01*
X88027124Y-97929831D01*
X88944838Y-98621318D01*
X89898030Y-99239071D01*
X90887945Y-99784031D01*
X91915826Y-100257140D01*
X92982915Y-100659337D01*
X94090455Y-100991564D01*
X95165333Y-101240060D01*
X95652167Y-101337334D01*
X93233171Y-101339778D01*
X101705833Y-101339778D01*
X102298500Y-101220047D01*
X103407449Y-100961896D01*
X104456592Y-100646663D01*
X105450724Y-100271992D01*
X106394640Y-99835527D01*
X107293137Y-99334912D01*
X108151008Y-98767793D01*
X108973051Y-98131813D01*
X109474000Y-97695366D01*
X110168757Y-97014241D01*
X110841750Y-96257559D01*
X111488467Y-95432656D01*
X112104401Y-94546866D01*
X112685039Y-93607523D01*
X113225873Y-92621960D01*
X113722392Y-91597513D01*
X114170086Y-90541515D01*
X114564445Y-89461301D01*
X114596468Y-89365258D01*
X114675616Y-89117021D01*
X114765932Y-88818993D01*
X114861754Y-88491280D01*
X114957422Y-88153988D01*
X115047274Y-87827223D01*
X115125649Y-87531092D01*
X115186887Y-87285701D01*
X115208947Y-87189960D01*
X115237351Y-87115790D01*
X115269119Y-87103756D01*
X115270658Y-87105294D01*
X115301550Y-87140079D01*
X115386057Y-87235442D01*
X115521677Y-87388558D01*
X115705912Y-87596602D01*
X115936261Y-87856752D01*
X116210224Y-88166183D01*
X116525302Y-88522071D01*
X116878994Y-88921592D01*
X117268801Y-89361923D01*
X117692222Y-89840238D01*
X118146758Y-90353715D01*
X118629909Y-90899529D01*
X119139175Y-91474857D01*
X119672056Y-92076874D01*
X120226051Y-92702756D01*
X120798662Y-93349680D01*
X121387389Y-94014822D01*
X121731262Y-94403333D01*
X128157228Y-101663500D01*
X127631530Y-101677257D01*
X127436754Y-101679661D01*
X127159987Y-101678911D01*
X126803844Y-101675067D01*
X126370941Y-101668190D01*
X125863892Y-101658339D01*
X125285312Y-101645575D01*
X124637816Y-101629959D01*
X123924019Y-101611550D01*
X123146536Y-101590409D01*
X122307983Y-101566596D01*
X121410973Y-101540172D01*
X120544167Y-101513848D01*
X119723756Y-101490568D01*
X118824620Y-101468727D01*
X117852690Y-101448394D01*
X116813896Y-101429638D01*
X115714169Y-101412528D01*
X114559438Y-101397134D01*
X113355636Y-101383526D01*
X112108692Y-101371772D01*
X110824537Y-101361942D01*
X109509102Y-101354105D01*
X108168316Y-101348331D01*
X106808111Y-101344688D01*
X105981500Y-101343552D01*
X101705833Y-101339778D01*
X93233171Y-101339778D01*
X91363496Y-101341667D01*
X90583972Y-101342796D01*
X89886550Y-101344542D01*
X89268666Y-101346936D01*
X88727758Y-101350007D01*
X88261263Y-101353786D01*
X87866617Y-101358303D01*
X87541258Y-101363587D01*
X87282623Y-101369668D01*
X87088148Y-101376577D01*
X86955272Y-101384344D01*
X86881430Y-101392997D01*
X86876163Y-101394158D01*
X86618254Y-101494596D01*
X86417301Y-101653690D01*
X86279427Y-101864893D01*
X86213027Y-102103449D01*
X86212901Y-102148644D01*
X86219918Y-102233301D01*
X86234516Y-102360192D01*
X86257135Y-102532096D01*
X86288212Y-102751786D01*
X86328184Y-103022038D01*
X86377491Y-103345627D01*
X86436570Y-103725329D01*
X86505859Y-104163920D01*
X86585796Y-104664175D01*
X86676820Y-105228868D01*
X86779368Y-105860777D01*
X86893879Y-106562675D01*
X87020790Y-107337338D01*
X87160540Y-108187543D01*
X87313567Y-109116063D01*
X87456561Y-109982000D01*
X87589327Y-110784993D01*
X87719271Y-111570191D01*
X87845644Y-112333105D01*
X87967699Y-113069246D01*
X88084687Y-113774123D01*
X88195860Y-114443248D01*
X88300470Y-115072131D01*
X88397770Y-115656283D01*
X88487010Y-116191214D01*
X88567443Y-116672434D01*
X88638320Y-117095455D01*
X88698894Y-117455786D01*
X88748416Y-117748939D01*
X88786138Y-117970424D01*
X88811312Y-118115751D01*
X88820532Y-118166930D01*
X88861880Y-118380855D01*
X88896227Y-118530571D01*
X88931253Y-118635251D01*
X88974641Y-118714069D01*
X89034072Y-118786200D01*
X89092748Y-118846397D01*
X89249162Y-118977497D01*
X89413670Y-119054379D01*
X89490789Y-119075217D01*
X89546047Y-119078253D01*
X89683513Y-119081203D01*
X89900729Y-119084069D01*
X90195237Y-119086849D01*
X90564577Y-119089545D01*
X91006292Y-119092154D01*
X91517923Y-119094678D01*
X92097012Y-119097117D01*
X92741101Y-119099469D01*
X93447730Y-119101736D01*
X94214441Y-119103916D01*
X95038777Y-119106011D01*
X95918278Y-119108018D01*
X96850487Y-119109940D01*
X97832945Y-119111775D01*
X98863192Y-119113522D01*
X99938772Y-119115183D01*
X101057226Y-119116757D01*
X102216095Y-119118244D01*
X103412920Y-119119644D01*
X104645244Y-119120956D01*
X105910608Y-119122180D01*
X107206553Y-119123317D01*
X108530621Y-119124366D01*
X109880354Y-119125327D01*
X111253294Y-119126200D01*
X112646981Y-119126984D01*
X114058958Y-119127680D01*
X115486766Y-119128288D01*
X116927946Y-119128807D01*
X118380041Y-119129237D01*
X119840591Y-119129579D01*
X121307139Y-119129831D01*
X122777226Y-119129994D01*
X124248394Y-119130068D01*
X125718183Y-119130052D01*
M02*
