%TF.GenerationSoftware,KiCad,Pcbnew,(5.0.0)*%
%TF.CreationDate,2018-09-27T16:02:53-07:00*%
%TF.ProjectId,Z80,5A38302E6B696361645F706362000000,rev?*%
%TF.SameCoordinates,Original*%
%TF.FileFunction,Legend,Top*%
%TF.FilePolarity,Positive*%
%FSLAX46Y46*%
G04 Gerber Fmt 4.6, Leading zero omitted, Abs format (unit mm)*
G04 Created by KiCad (PCBNEW (5.0.0)) date 09/27/18 16:02:53*
%MOMM*%
%LPD*%
G01*
G04 APERTURE LIST*
%ADD10C,0.300000*%
%ADD11C,0.120000*%
%ADD12C,0.203200*%
%ADD13C,0.150000*%
%ADD14C,0.050000*%
G04 APERTURE END LIST*
D10*
X78443357Y-101508642D02*
X78657642Y-101580071D01*
X79014785Y-101580071D01*
X79157642Y-101508642D01*
X79229071Y-101437214D01*
X79300500Y-101294357D01*
X79300500Y-101151500D01*
X79229071Y-101008642D01*
X79157642Y-100937214D01*
X79014785Y-100865785D01*
X78729071Y-100794357D01*
X78586214Y-100722928D01*
X78514785Y-100651500D01*
X78443357Y-100508642D01*
X78443357Y-100365785D01*
X78514785Y-100222928D01*
X78586214Y-100151500D01*
X78729071Y-100080071D01*
X79086214Y-100080071D01*
X79300500Y-100151500D01*
X80229071Y-100865785D02*
X80229071Y-101580071D01*
X79729071Y-100080071D02*
X80229071Y-100865785D01*
X80729071Y-100080071D01*
X81157642Y-101508642D02*
X81371928Y-101580071D01*
X81729071Y-101580071D01*
X81871928Y-101508642D01*
X81943357Y-101437214D01*
X82014785Y-101294357D01*
X82014785Y-101151500D01*
X81943357Y-101008642D01*
X81871928Y-100937214D01*
X81729071Y-100865785D01*
X81443357Y-100794357D01*
X81300500Y-100722928D01*
X81229071Y-100651500D01*
X81157642Y-100508642D01*
X81157642Y-100365785D01*
X81229071Y-100222928D01*
X81300500Y-100151500D01*
X81443357Y-100080071D01*
X81800500Y-100080071D01*
X82014785Y-100151500D01*
X82443357Y-100080071D02*
X83300500Y-100080071D01*
X82871928Y-101580071D02*
X82871928Y-100080071D01*
X83800500Y-100794357D02*
X84300500Y-100794357D01*
X84514785Y-101580071D02*
X83800500Y-101580071D01*
X83800500Y-100080071D01*
X84514785Y-100080071D01*
X85157642Y-101580071D02*
X85157642Y-100080071D01*
X85657642Y-101151500D01*
X86157642Y-100080071D01*
X86157642Y-101580071D01*
X88871928Y-101437214D02*
X88800500Y-101508642D01*
X88586214Y-101580071D01*
X88443357Y-101580071D01*
X88229071Y-101508642D01*
X88086214Y-101365785D01*
X88014785Y-101222928D01*
X87943357Y-100937214D01*
X87943357Y-100722928D01*
X88014785Y-100437214D01*
X88086214Y-100294357D01*
X88229071Y-100151500D01*
X88443357Y-100080071D01*
X88586214Y-100080071D01*
X88800500Y-100151500D01*
X88871928Y-100222928D01*
X90229071Y-101580071D02*
X89514785Y-101580071D01*
X89514785Y-100080071D01*
X91014785Y-100080071D02*
X91300500Y-100080071D01*
X91443357Y-100151500D01*
X91586214Y-100294357D01*
X91657642Y-100580071D01*
X91657642Y-101080071D01*
X91586214Y-101365785D01*
X91443357Y-101508642D01*
X91300500Y-101580071D01*
X91014785Y-101580071D01*
X90871928Y-101508642D01*
X90729071Y-101365785D01*
X90657642Y-101080071D01*
X90657642Y-100580071D01*
X90729071Y-100294357D01*
X90871928Y-100151500D01*
X91014785Y-100080071D01*
X93157642Y-101437214D02*
X93086214Y-101508642D01*
X92871928Y-101580071D01*
X92729071Y-101580071D01*
X92514785Y-101508642D01*
X92371928Y-101365785D01*
X92300500Y-101222928D01*
X92229071Y-100937214D01*
X92229071Y-100722928D01*
X92300500Y-100437214D01*
X92371928Y-100294357D01*
X92514785Y-100151500D01*
X92729071Y-100080071D01*
X92871928Y-100080071D01*
X93086214Y-100151500D01*
X93157642Y-100222928D01*
X93800500Y-101580071D02*
X93800500Y-100080071D01*
X94657642Y-101580071D02*
X94014785Y-100722928D01*
X94657642Y-100080071D02*
X93800500Y-100937214D01*
X151844857Y-30809428D02*
X151702000Y-30738000D01*
X151630571Y-30666571D01*
X151559142Y-30523714D01*
X151559142Y-30452285D01*
X151630571Y-30309428D01*
X151702000Y-30238000D01*
X151844857Y-30166571D01*
X152130571Y-30166571D01*
X152273428Y-30238000D01*
X152344857Y-30309428D01*
X152416285Y-30452285D01*
X152416285Y-30523714D01*
X152344857Y-30666571D01*
X152273428Y-30738000D01*
X152130571Y-30809428D01*
X151844857Y-30809428D01*
X151702000Y-30880857D01*
X151630571Y-30952285D01*
X151559142Y-31095142D01*
X151559142Y-31380857D01*
X151630571Y-31523714D01*
X151702000Y-31595142D01*
X151844857Y-31666571D01*
X152130571Y-31666571D01*
X152273428Y-31595142D01*
X152344857Y-31523714D01*
X152416285Y-31380857D01*
X152416285Y-31095142D01*
X152344857Y-30952285D01*
X152273428Y-30880857D01*
X152130571Y-30809428D01*
X153059142Y-31666571D02*
X153059142Y-30166571D01*
X153916285Y-31666571D02*
X153273428Y-30809428D01*
X153916285Y-30166571D02*
X153059142Y-31023714D01*
X156559142Y-31666571D02*
X156059142Y-30952285D01*
X155702000Y-31666571D02*
X155702000Y-30166571D01*
X156273428Y-30166571D01*
X156416285Y-30238000D01*
X156487714Y-30309428D01*
X156559142Y-30452285D01*
X156559142Y-30666571D01*
X156487714Y-30809428D01*
X156416285Y-30880857D01*
X156273428Y-30952285D01*
X155702000Y-30952285D01*
X157487714Y-30166571D02*
X157773428Y-30166571D01*
X157916285Y-30238000D01*
X158059142Y-30380857D01*
X158130571Y-30666571D01*
X158130571Y-31166571D01*
X158059142Y-31452285D01*
X157916285Y-31595142D01*
X157773428Y-31666571D01*
X157487714Y-31666571D01*
X157344857Y-31595142D01*
X157202000Y-31452285D01*
X157130571Y-31166571D01*
X157130571Y-30666571D01*
X157202000Y-30380857D01*
X157344857Y-30238000D01*
X157487714Y-30166571D01*
X158773428Y-31666571D02*
X158773428Y-30166571D01*
X159273428Y-31238000D01*
X159773428Y-30166571D01*
X159773428Y-31666571D01*
X144788428Y-71632071D02*
X144074142Y-71632071D01*
X144002714Y-72346357D01*
X144074142Y-72274928D01*
X144217000Y-72203500D01*
X144574142Y-72203500D01*
X144717000Y-72274928D01*
X144788428Y-72346357D01*
X144859857Y-72489214D01*
X144859857Y-72846357D01*
X144788428Y-72989214D01*
X144717000Y-73060642D01*
X144574142Y-73132071D01*
X144217000Y-73132071D01*
X144074142Y-73060642D01*
X144002714Y-72989214D01*
X146145571Y-71632071D02*
X145859857Y-71632071D01*
X145717000Y-71703500D01*
X145645571Y-71774928D01*
X145502714Y-71989214D01*
X145431285Y-72274928D01*
X145431285Y-72846357D01*
X145502714Y-72989214D01*
X145574142Y-73060642D01*
X145717000Y-73132071D01*
X146002714Y-73132071D01*
X146145571Y-73060642D01*
X146217000Y-72989214D01*
X146288428Y-72846357D01*
X146288428Y-72489214D01*
X146217000Y-72346357D01*
X146145571Y-72274928D01*
X146002714Y-72203500D01*
X145717000Y-72203500D01*
X145574142Y-72274928D01*
X145502714Y-72346357D01*
X145431285Y-72489214D01*
X146931285Y-73132071D02*
X146931285Y-71632071D01*
X147788428Y-73132071D02*
X147145571Y-72274928D01*
X147788428Y-71632071D02*
X146931285Y-72489214D01*
X150431285Y-73132071D02*
X149931285Y-72417785D01*
X149574142Y-73132071D02*
X149574142Y-71632071D01*
X150145571Y-71632071D01*
X150288428Y-71703500D01*
X150359857Y-71774928D01*
X150431285Y-71917785D01*
X150431285Y-72132071D01*
X150359857Y-72274928D01*
X150288428Y-72346357D01*
X150145571Y-72417785D01*
X149574142Y-72417785D01*
X151002714Y-72703500D02*
X151717000Y-72703500D01*
X150859857Y-73132071D02*
X151359857Y-71632071D01*
X151859857Y-73132071D01*
X152359857Y-73132071D02*
X152359857Y-71632071D01*
X152859857Y-72703500D01*
X153359857Y-71632071D01*
X153359857Y-73132071D01*
X91123428Y-40072571D02*
X91123428Y-41286857D01*
X91194857Y-41429714D01*
X91266285Y-41501142D01*
X91409142Y-41572571D01*
X91694857Y-41572571D01*
X91837714Y-41501142D01*
X91909142Y-41429714D01*
X91980571Y-41286857D01*
X91980571Y-40072571D01*
X92623428Y-41144000D02*
X93337714Y-41144000D01*
X92480571Y-41572571D02*
X92980571Y-40072571D01*
X93480571Y-41572571D01*
X94837714Y-41572571D02*
X94337714Y-40858285D01*
X93980571Y-41572571D02*
X93980571Y-40072571D01*
X94552000Y-40072571D01*
X94694857Y-40144000D01*
X94766285Y-40215428D01*
X94837714Y-40358285D01*
X94837714Y-40572571D01*
X94766285Y-40715428D01*
X94694857Y-40786857D01*
X94552000Y-40858285D01*
X93980571Y-40858285D01*
X95266285Y-40072571D02*
X96123428Y-40072571D01*
X95694857Y-41572571D02*
X95694857Y-40072571D01*
X97766285Y-40572571D02*
X96623428Y-41001142D01*
X97766285Y-41429714D01*
X98480571Y-41001142D02*
X99623428Y-41001142D01*
X100337714Y-40572571D02*
X101480571Y-41001142D01*
X100337714Y-41429714D01*
X102194857Y-40072571D02*
X102194857Y-41286857D01*
X102266285Y-41429714D01*
X102337714Y-41501142D01*
X102480571Y-41572571D01*
X102766285Y-41572571D01*
X102909142Y-41501142D01*
X102980571Y-41429714D01*
X103052000Y-41286857D01*
X103052000Y-40072571D01*
X103694857Y-41501142D02*
X103909142Y-41572571D01*
X104266285Y-41572571D01*
X104409142Y-41501142D01*
X104480571Y-41429714D01*
X104552000Y-41286857D01*
X104552000Y-41144000D01*
X104480571Y-41001142D01*
X104409142Y-40929714D01*
X104266285Y-40858285D01*
X103980571Y-40786857D01*
X103837714Y-40715428D01*
X103766285Y-40644000D01*
X103694857Y-40501142D01*
X103694857Y-40358285D01*
X103766285Y-40215428D01*
X103837714Y-40144000D01*
X103980571Y-40072571D01*
X104337714Y-40072571D01*
X104552000Y-40144000D01*
X105694857Y-40786857D02*
X105909142Y-40858285D01*
X105980571Y-40929714D01*
X106052000Y-41072571D01*
X106052000Y-41286857D01*
X105980571Y-41429714D01*
X105909142Y-41501142D01*
X105766285Y-41572571D01*
X105194857Y-41572571D01*
X105194857Y-40072571D01*
X105694857Y-40072571D01*
X105837714Y-40144000D01*
X105909142Y-40215428D01*
X105980571Y-40358285D01*
X105980571Y-40501142D01*
X105909142Y-40644000D01*
X105837714Y-40715428D01*
X105694857Y-40786857D01*
X105194857Y-40786857D01*
X128107428Y-31904714D02*
X128036000Y-31976142D01*
X127821714Y-32047571D01*
X127678857Y-32047571D01*
X127464571Y-31976142D01*
X127321714Y-31833285D01*
X127250285Y-31690428D01*
X127178857Y-31404714D01*
X127178857Y-31190428D01*
X127250285Y-30904714D01*
X127321714Y-30761857D01*
X127464571Y-30619000D01*
X127678857Y-30547571D01*
X127821714Y-30547571D01*
X128036000Y-30619000D01*
X128107428Y-30690428D01*
X129036000Y-30547571D02*
X129321714Y-30547571D01*
X129464571Y-30619000D01*
X129607428Y-30761857D01*
X129678857Y-31047571D01*
X129678857Y-31547571D01*
X129607428Y-31833285D01*
X129464571Y-31976142D01*
X129321714Y-32047571D01*
X129036000Y-32047571D01*
X128893142Y-31976142D01*
X128750285Y-31833285D01*
X128678857Y-31547571D01*
X128678857Y-31047571D01*
X128750285Y-30761857D01*
X128893142Y-30619000D01*
X129036000Y-30547571D01*
X130321714Y-32047571D02*
X130321714Y-30547571D01*
X130821714Y-31619000D01*
X131321714Y-30547571D01*
X131321714Y-32047571D01*
X121198285Y-61599071D02*
X122198285Y-61599071D01*
X121198285Y-63099071D01*
X122198285Y-63099071D01*
X122984000Y-62241928D02*
X122841142Y-62170500D01*
X122769714Y-62099071D01*
X122698285Y-61956214D01*
X122698285Y-61884785D01*
X122769714Y-61741928D01*
X122841142Y-61670500D01*
X122984000Y-61599071D01*
X123269714Y-61599071D01*
X123412571Y-61670500D01*
X123484000Y-61741928D01*
X123555428Y-61884785D01*
X123555428Y-61956214D01*
X123484000Y-62099071D01*
X123412571Y-62170500D01*
X123269714Y-62241928D01*
X122984000Y-62241928D01*
X122841142Y-62313357D01*
X122769714Y-62384785D01*
X122698285Y-62527642D01*
X122698285Y-62813357D01*
X122769714Y-62956214D01*
X122841142Y-63027642D01*
X122984000Y-63099071D01*
X123269714Y-63099071D01*
X123412571Y-63027642D01*
X123484000Y-62956214D01*
X123555428Y-62813357D01*
X123555428Y-62527642D01*
X123484000Y-62384785D01*
X123412571Y-62313357D01*
X123269714Y-62241928D01*
X124484000Y-61599071D02*
X124626857Y-61599071D01*
X124769714Y-61670500D01*
X124841142Y-61741928D01*
X124912571Y-61884785D01*
X124984000Y-62170500D01*
X124984000Y-62527642D01*
X124912571Y-62813357D01*
X124841142Y-62956214D01*
X124769714Y-63027642D01*
X124626857Y-63099071D01*
X124484000Y-63099071D01*
X124341142Y-63027642D01*
X124269714Y-62956214D01*
X124198285Y-62813357D01*
X124126857Y-62527642D01*
X124126857Y-62170500D01*
X124198285Y-61884785D01*
X124269714Y-61741928D01*
X124341142Y-61670500D01*
X124484000Y-61599071D01*
X127626857Y-62956214D02*
X127555428Y-63027642D01*
X127341142Y-63099071D01*
X127198285Y-63099071D01*
X126984000Y-63027642D01*
X126841142Y-62884785D01*
X126769714Y-62741928D01*
X126698285Y-62456214D01*
X126698285Y-62241928D01*
X126769714Y-61956214D01*
X126841142Y-61813357D01*
X126984000Y-61670500D01*
X127198285Y-61599071D01*
X127341142Y-61599071D01*
X127555428Y-61670500D01*
X127626857Y-61741928D01*
X128269714Y-63099071D02*
X128269714Y-61599071D01*
X128841142Y-61599071D01*
X128984000Y-61670500D01*
X129055428Y-61741928D01*
X129126857Y-61884785D01*
X129126857Y-62099071D01*
X129055428Y-62241928D01*
X128984000Y-62313357D01*
X128841142Y-62384785D01*
X128269714Y-62384785D01*
X129769714Y-61599071D02*
X129769714Y-62813357D01*
X129841142Y-62956214D01*
X129912571Y-63027642D01*
X130055428Y-63099071D01*
X130341142Y-63099071D01*
X130484000Y-63027642D01*
X130555428Y-62956214D01*
X130626857Y-62813357D01*
X130626857Y-61599071D01*
X84656666Y-118668095D02*
X85523333Y-118668095D01*
X84966190Y-119968095D01*
X87877619Y-118668095D02*
X87630000Y-118668095D01*
X87506190Y-118730000D01*
X87444285Y-118791904D01*
X87320476Y-118977619D01*
X87258571Y-119225238D01*
X87258571Y-119720476D01*
X87320476Y-119844285D01*
X87382380Y-119906190D01*
X87506190Y-119968095D01*
X87753809Y-119968095D01*
X87877619Y-119906190D01*
X87939523Y-119844285D01*
X88001428Y-119720476D01*
X88001428Y-119410952D01*
X87939523Y-119287142D01*
X87877619Y-119225238D01*
X87753809Y-119163333D01*
X87506190Y-119163333D01*
X87382380Y-119225238D01*
X87320476Y-119287142D01*
X87258571Y-119410952D01*
X90479523Y-118668095D02*
X89860476Y-118668095D01*
X89798571Y-119287142D01*
X89860476Y-119225238D01*
X89984285Y-119163333D01*
X90293809Y-119163333D01*
X90417619Y-119225238D01*
X90479523Y-119287142D01*
X90541428Y-119410952D01*
X90541428Y-119720476D01*
X90479523Y-119844285D01*
X90417619Y-119906190D01*
X90293809Y-119968095D01*
X89984285Y-119968095D01*
X89860476Y-119906190D01*
X89798571Y-119844285D01*
X92957619Y-119101428D02*
X92957619Y-119968095D01*
X92648095Y-118606190D02*
X92338571Y-119534761D01*
X93143333Y-119534761D01*
X94816666Y-118668095D02*
X95621428Y-118668095D01*
X95188095Y-119163333D01*
X95373809Y-119163333D01*
X95497619Y-119225238D01*
X95559523Y-119287142D01*
X95621428Y-119410952D01*
X95621428Y-119720476D01*
X95559523Y-119844285D01*
X95497619Y-119906190D01*
X95373809Y-119968095D01*
X95002380Y-119968095D01*
X94878571Y-119906190D01*
X94816666Y-119844285D01*
X97418571Y-118791904D02*
X97480476Y-118730000D01*
X97604285Y-118668095D01*
X97913809Y-118668095D01*
X98037619Y-118730000D01*
X98099523Y-118791904D01*
X98161428Y-118915714D01*
X98161428Y-119039523D01*
X98099523Y-119225238D01*
X97356666Y-119968095D01*
X98161428Y-119968095D01*
X100701428Y-119968095D02*
X99958571Y-119968095D01*
X100330000Y-119968095D02*
X100330000Y-118668095D01*
X100206190Y-118853809D01*
X100082380Y-118977619D01*
X99958571Y-119039523D01*
X102808095Y-118668095D02*
X102931904Y-118668095D01*
X103055714Y-118730000D01*
X103117619Y-118791904D01*
X103179523Y-118915714D01*
X103241428Y-119163333D01*
X103241428Y-119472857D01*
X103179523Y-119720476D01*
X103117619Y-119844285D01*
X103055714Y-119906190D01*
X102931904Y-119968095D01*
X102808095Y-119968095D01*
X102684285Y-119906190D01*
X102622380Y-119844285D01*
X102560476Y-119720476D01*
X102498571Y-119472857D01*
X102498571Y-119163333D01*
X102560476Y-118915714D01*
X102622380Y-118791904D01*
X102684285Y-118730000D01*
X102808095Y-118668095D01*
X117862380Y-119968095D02*
X117119523Y-119968095D01*
X117490952Y-119968095D02*
X117490952Y-118668095D01*
X117367142Y-118853809D01*
X117243333Y-118977619D01*
X117119523Y-119039523D01*
X119038571Y-118668095D02*
X118419523Y-118668095D01*
X118357619Y-119287142D01*
X118419523Y-119225238D01*
X118543333Y-119163333D01*
X118852857Y-119163333D01*
X118976666Y-119225238D01*
X119038571Y-119287142D01*
X119100476Y-119410952D01*
X119100476Y-119720476D01*
X119038571Y-119844285D01*
X118976666Y-119906190D01*
X118852857Y-119968095D01*
X118543333Y-119968095D01*
X118419523Y-119906190D01*
X118357619Y-119844285D01*
X120402380Y-119968095D02*
X119659523Y-119968095D01*
X120030952Y-119968095D02*
X120030952Y-118668095D01*
X119907142Y-118853809D01*
X119783333Y-118977619D01*
X119659523Y-119039523D01*
X121516666Y-119101428D02*
X121516666Y-119968095D01*
X121207142Y-118606190D02*
X120897619Y-119534761D01*
X121702380Y-119534761D01*
X122942380Y-119968095D02*
X122199523Y-119968095D01*
X122570952Y-119968095D02*
X122570952Y-118668095D01*
X122447142Y-118853809D01*
X122323333Y-118977619D01*
X122199523Y-119039523D01*
X123375714Y-118668095D02*
X124180476Y-118668095D01*
X123747142Y-119163333D01*
X123932857Y-119163333D01*
X124056666Y-119225238D01*
X124118571Y-119287142D01*
X124180476Y-119410952D01*
X124180476Y-119720476D01*
X124118571Y-119844285D01*
X124056666Y-119906190D01*
X123932857Y-119968095D01*
X123561428Y-119968095D01*
X123437619Y-119906190D01*
X123375714Y-119844285D01*
X125482380Y-119968095D02*
X124739523Y-119968095D01*
X125110952Y-119968095D02*
X125110952Y-118668095D01*
X124987142Y-118853809D01*
X124863333Y-118977619D01*
X124739523Y-119039523D01*
X125977619Y-118791904D02*
X126039523Y-118730000D01*
X126163333Y-118668095D01*
X126472857Y-118668095D01*
X126596666Y-118730000D01*
X126658571Y-118791904D01*
X126720476Y-118915714D01*
X126720476Y-119039523D01*
X126658571Y-119225238D01*
X125915714Y-119968095D01*
X126720476Y-119968095D01*
X128022380Y-119968095D02*
X127279523Y-119968095D01*
X127650952Y-119968095D02*
X127650952Y-118668095D01*
X127527142Y-118853809D01*
X127403333Y-118977619D01*
X127279523Y-119039523D01*
X129260476Y-119968095D02*
X128517619Y-119968095D01*
X128889047Y-119968095D02*
X128889047Y-118668095D01*
X128765238Y-118853809D01*
X128641428Y-118977619D01*
X128517619Y-119039523D01*
X130562380Y-119968095D02*
X129819523Y-119968095D01*
X130190952Y-119968095D02*
X130190952Y-118668095D01*
X130067142Y-118853809D01*
X129943333Y-118977619D01*
X129819523Y-119039523D01*
X131367142Y-118668095D02*
X131490952Y-118668095D01*
X131614761Y-118730000D01*
X131676666Y-118791904D01*
X131738571Y-118915714D01*
X131800476Y-119163333D01*
X131800476Y-119472857D01*
X131738571Y-119720476D01*
X131676666Y-119844285D01*
X131614761Y-119906190D01*
X131490952Y-119968095D01*
X131367142Y-119968095D01*
X131243333Y-119906190D01*
X131181428Y-119844285D01*
X131119523Y-119720476D01*
X131057619Y-119472857D01*
X131057619Y-119163333D01*
X131119523Y-118915714D01*
X131181428Y-118791904D01*
X131243333Y-118730000D01*
X131367142Y-118668095D01*
X133102380Y-119968095D02*
X133350000Y-119968095D01*
X133473809Y-119906190D01*
X133535714Y-119844285D01*
X133659523Y-119658571D01*
X133721428Y-119410952D01*
X133721428Y-118915714D01*
X133659523Y-118791904D01*
X133597619Y-118730000D01*
X133473809Y-118668095D01*
X133226190Y-118668095D01*
X133102380Y-118730000D01*
X133040476Y-118791904D01*
X132978571Y-118915714D01*
X132978571Y-119225238D01*
X133040476Y-119349047D01*
X133102380Y-119410952D01*
X133226190Y-119472857D01*
X133473809Y-119472857D01*
X133597619Y-119410952D01*
X133659523Y-119349047D01*
X133721428Y-119225238D01*
X135766190Y-119225238D02*
X135642380Y-119163333D01*
X135580476Y-119101428D01*
X135518571Y-118977619D01*
X135518571Y-118915714D01*
X135580476Y-118791904D01*
X135642380Y-118730000D01*
X135766190Y-118668095D01*
X136013809Y-118668095D01*
X136137619Y-118730000D01*
X136199523Y-118791904D01*
X136261428Y-118915714D01*
X136261428Y-118977619D01*
X136199523Y-119101428D01*
X136137619Y-119163333D01*
X136013809Y-119225238D01*
X135766190Y-119225238D01*
X135642380Y-119287142D01*
X135580476Y-119349047D01*
X135518571Y-119472857D01*
X135518571Y-119720476D01*
X135580476Y-119844285D01*
X135642380Y-119906190D01*
X135766190Y-119968095D01*
X136013809Y-119968095D01*
X136137619Y-119906190D01*
X136199523Y-119844285D01*
X136261428Y-119720476D01*
X136261428Y-119472857D01*
X136199523Y-119349047D01*
X136137619Y-119287142D01*
X136013809Y-119225238D01*
X137996666Y-118668095D02*
X138863333Y-118668095D01*
X138306190Y-119968095D01*
X141217619Y-118668095D02*
X140970000Y-118668095D01*
X140846190Y-118730000D01*
X140784285Y-118791904D01*
X140660476Y-118977619D01*
X140598571Y-119225238D01*
X140598571Y-119720476D01*
X140660476Y-119844285D01*
X140722380Y-119906190D01*
X140846190Y-119968095D01*
X141093809Y-119968095D01*
X141217619Y-119906190D01*
X141279523Y-119844285D01*
X141341428Y-119720476D01*
X141341428Y-119410952D01*
X141279523Y-119287142D01*
X141217619Y-119225238D01*
X141093809Y-119163333D01*
X140846190Y-119163333D01*
X140722380Y-119225238D01*
X140660476Y-119287142D01*
X140598571Y-119410952D01*
X143819523Y-118668095D02*
X143200476Y-118668095D01*
X143138571Y-119287142D01*
X143200476Y-119225238D01*
X143324285Y-119163333D01*
X143633809Y-119163333D01*
X143757619Y-119225238D01*
X143819523Y-119287142D01*
X143881428Y-119410952D01*
X143881428Y-119720476D01*
X143819523Y-119844285D01*
X143757619Y-119906190D01*
X143633809Y-119968095D01*
X143324285Y-119968095D01*
X143200476Y-119906190D01*
X143138571Y-119844285D01*
X146297619Y-119101428D02*
X146297619Y-119968095D01*
X145988095Y-118606190D02*
X145678571Y-119534761D01*
X146483333Y-119534761D01*
X148156666Y-118668095D02*
X148961428Y-118668095D01*
X148528095Y-119163333D01*
X148713809Y-119163333D01*
X148837619Y-119225238D01*
X148899523Y-119287142D01*
X148961428Y-119410952D01*
X148961428Y-119720476D01*
X148899523Y-119844285D01*
X148837619Y-119906190D01*
X148713809Y-119968095D01*
X148342380Y-119968095D01*
X148218571Y-119906190D01*
X148156666Y-119844285D01*
X150758571Y-118791904D02*
X150820476Y-118730000D01*
X150944285Y-118668095D01*
X151253809Y-118668095D01*
X151377619Y-118730000D01*
X151439523Y-118791904D01*
X151501428Y-118915714D01*
X151501428Y-119039523D01*
X151439523Y-119225238D01*
X150696666Y-119968095D01*
X151501428Y-119968095D01*
X154041428Y-119968095D02*
X153298571Y-119968095D01*
X153670000Y-119968095D02*
X153670000Y-118668095D01*
X153546190Y-118853809D01*
X153422380Y-118977619D01*
X153298571Y-119039523D01*
X156148095Y-118668095D02*
X156271904Y-118668095D01*
X156395714Y-118730000D01*
X156457619Y-118791904D01*
X156519523Y-118915714D01*
X156581428Y-119163333D01*
X156581428Y-119472857D01*
X156519523Y-119720476D01*
X156457619Y-119844285D01*
X156395714Y-119906190D01*
X156271904Y-119968095D01*
X156148095Y-119968095D01*
X156024285Y-119906190D01*
X155962380Y-119844285D01*
X155900476Y-119720476D01*
X155838571Y-119472857D01*
X155838571Y-119163333D01*
X155900476Y-118915714D01*
X155962380Y-118791904D01*
X156024285Y-118730000D01*
X156148095Y-118668095D01*
X153797142Y-102437500D02*
X153654285Y-102366071D01*
X153440000Y-102366071D01*
X153225714Y-102437500D01*
X153082857Y-102580357D01*
X153011428Y-102723214D01*
X152940000Y-103008928D01*
X152940000Y-103223214D01*
X153011428Y-103508928D01*
X153082857Y-103651785D01*
X153225714Y-103794642D01*
X153440000Y-103866071D01*
X153582857Y-103866071D01*
X153797142Y-103794642D01*
X153868571Y-103723214D01*
X153868571Y-103223214D01*
X153582857Y-103223214D01*
X154511428Y-103866071D02*
X154511428Y-102366071D01*
X155368571Y-103866071D01*
X155368571Y-102366071D01*
X156082857Y-103866071D02*
X156082857Y-102366071D01*
X156440000Y-102366071D01*
X156654285Y-102437500D01*
X156797142Y-102580357D01*
X156868571Y-102723214D01*
X156940000Y-103008928D01*
X156940000Y-103223214D01*
X156868571Y-103508928D01*
X156797142Y-103651785D01*
X156654285Y-103794642D01*
X156440000Y-103866071D01*
X156082857Y-103866071D01*
X153011428Y-100627642D02*
X154154285Y-100627642D01*
X153582857Y-101199071D02*
X153582857Y-100056214D01*
X155582857Y-99699071D02*
X154868571Y-99699071D01*
X154797142Y-100413357D01*
X154868571Y-100341928D01*
X155011428Y-100270500D01*
X155368571Y-100270500D01*
X155511428Y-100341928D01*
X155582857Y-100413357D01*
X155654285Y-100556214D01*
X155654285Y-100913357D01*
X155582857Y-101056214D01*
X155511428Y-101127642D01*
X155368571Y-101199071D01*
X155011428Y-101199071D01*
X154868571Y-101127642D01*
X154797142Y-101056214D01*
X156082857Y-99699071D02*
X156582857Y-101199071D01*
X157082857Y-99699071D01*
X87384500Y-118197142D02*
X87384500Y-115197142D01*
X88098785Y-115197142D01*
X88527357Y-115340000D01*
X88813071Y-115625714D01*
X88955928Y-115911428D01*
X89098785Y-116482857D01*
X89098785Y-116911428D01*
X88955928Y-117482857D01*
X88813071Y-117768571D01*
X88527357Y-118054285D01*
X88098785Y-118197142D01*
X87384500Y-118197142D01*
X90241642Y-117340000D02*
X91670214Y-117340000D01*
X89955928Y-118197142D02*
X90955928Y-115197142D01*
X91955928Y-118197142D01*
X92527357Y-115197142D02*
X94241642Y-115197142D01*
X93384500Y-118197142D02*
X93384500Y-115197142D01*
X95098785Y-117340000D02*
X96527357Y-117340000D01*
X94813071Y-118197142D02*
X95813071Y-115197142D01*
X96813071Y-118197142D01*
X127477428Y-117340000D02*
X128906000Y-117340000D01*
X127191714Y-118197142D02*
X128191714Y-115197142D01*
X129191714Y-118197142D01*
X130191714Y-118197142D02*
X130191714Y-115197142D01*
X130906000Y-115197142D01*
X131334571Y-115340000D01*
X131620285Y-115625714D01*
X131763142Y-115911428D01*
X131906000Y-116482857D01*
X131906000Y-116911428D01*
X131763142Y-117482857D01*
X131620285Y-117768571D01*
X131334571Y-118054285D01*
X130906000Y-118197142D01*
X130191714Y-118197142D01*
X133191714Y-118197142D02*
X133191714Y-115197142D01*
X133906000Y-115197142D01*
X134334571Y-115340000D01*
X134620285Y-115625714D01*
X134763142Y-115911428D01*
X134906000Y-116482857D01*
X134906000Y-116911428D01*
X134763142Y-117482857D01*
X134620285Y-117768571D01*
X134334571Y-118054285D01*
X133906000Y-118197142D01*
X133191714Y-118197142D01*
X137906000Y-118197142D02*
X136906000Y-116768571D01*
X136191714Y-118197142D02*
X136191714Y-115197142D01*
X137334571Y-115197142D01*
X137620285Y-115340000D01*
X137763142Y-115482857D01*
X137906000Y-115768571D01*
X137906000Y-116197142D01*
X137763142Y-116482857D01*
X137620285Y-116625714D01*
X137334571Y-116768571D01*
X136191714Y-116768571D01*
X139191714Y-116625714D02*
X140191714Y-116625714D01*
X140620285Y-118197142D02*
X139191714Y-118197142D01*
X139191714Y-115197142D01*
X140620285Y-115197142D01*
X141763142Y-118054285D02*
X142191714Y-118197142D01*
X142906000Y-118197142D01*
X143191714Y-118054285D01*
X143334571Y-117911428D01*
X143477428Y-117625714D01*
X143477428Y-117340000D01*
X143334571Y-117054285D01*
X143191714Y-116911428D01*
X142906000Y-116768571D01*
X142334571Y-116625714D01*
X142048857Y-116482857D01*
X141906000Y-116340000D01*
X141763142Y-116054285D01*
X141763142Y-115768571D01*
X141906000Y-115482857D01*
X142048857Y-115340000D01*
X142334571Y-115197142D01*
X143048857Y-115197142D01*
X143477428Y-115340000D01*
X144620285Y-118054285D02*
X145048857Y-118197142D01*
X145763142Y-118197142D01*
X146048857Y-118054285D01*
X146191714Y-117911428D01*
X146334571Y-117625714D01*
X146334571Y-117340000D01*
X146191714Y-117054285D01*
X146048857Y-116911428D01*
X145763142Y-116768571D01*
X145191714Y-116625714D01*
X144906000Y-116482857D01*
X144763142Y-116340000D01*
X144620285Y-116054285D01*
X144620285Y-115768571D01*
X144763142Y-115482857D01*
X144906000Y-115340000D01*
X145191714Y-115197142D01*
X145906000Y-115197142D01*
X146334571Y-115340000D01*
X159893928Y-49039214D02*
X159893928Y-50039214D01*
X158393928Y-49039214D01*
X158393928Y-50039214D01*
X159251071Y-50824928D02*
X159322500Y-50682071D01*
X159393928Y-50610642D01*
X159536785Y-50539214D01*
X159608214Y-50539214D01*
X159751071Y-50610642D01*
X159822500Y-50682071D01*
X159893928Y-50824928D01*
X159893928Y-51110642D01*
X159822500Y-51253500D01*
X159751071Y-51324928D01*
X159608214Y-51396357D01*
X159536785Y-51396357D01*
X159393928Y-51324928D01*
X159322500Y-51253500D01*
X159251071Y-51110642D01*
X159251071Y-50824928D01*
X159179642Y-50682071D01*
X159108214Y-50610642D01*
X158965357Y-50539214D01*
X158679642Y-50539214D01*
X158536785Y-50610642D01*
X158465357Y-50682071D01*
X158393928Y-50824928D01*
X158393928Y-51110642D01*
X158465357Y-51253500D01*
X158536785Y-51324928D01*
X158679642Y-51396357D01*
X158965357Y-51396357D01*
X159108214Y-51324928D01*
X159179642Y-51253500D01*
X159251071Y-51110642D01*
X159893928Y-52324928D02*
X159893928Y-52467785D01*
X159822500Y-52610642D01*
X159751071Y-52682071D01*
X159608214Y-52753500D01*
X159322500Y-52824928D01*
X158965357Y-52824928D01*
X158679642Y-52753500D01*
X158536785Y-52682071D01*
X158465357Y-52610642D01*
X158393928Y-52467785D01*
X158393928Y-52324928D01*
X158465357Y-52182071D01*
X158536785Y-52110642D01*
X158679642Y-52039214D01*
X158965357Y-51967785D01*
X159322500Y-51967785D01*
X159608214Y-52039214D01*
X159751071Y-52110642D01*
X159822500Y-52182071D01*
X159893928Y-52324928D01*
X158393928Y-54610642D02*
X159893928Y-54610642D01*
X158822500Y-55110642D01*
X159893928Y-55610642D01*
X158393928Y-55610642D01*
X158393928Y-56324928D02*
X159393928Y-56324928D01*
X159893928Y-56324928D02*
X159822500Y-56253500D01*
X159751071Y-56324928D01*
X159822500Y-56396357D01*
X159893928Y-56324928D01*
X159751071Y-56324928D01*
X158465357Y-57682071D02*
X158393928Y-57539214D01*
X158393928Y-57253500D01*
X158465357Y-57110642D01*
X158536785Y-57039214D01*
X158679642Y-56967785D01*
X159108214Y-56967785D01*
X159251071Y-57039214D01*
X159322500Y-57110642D01*
X159393928Y-57253500D01*
X159393928Y-57539214D01*
X159322500Y-57682071D01*
X158393928Y-58324928D02*
X159393928Y-58324928D01*
X159108214Y-58324928D02*
X159251071Y-58396357D01*
X159322500Y-58467785D01*
X159393928Y-58610642D01*
X159393928Y-58753500D01*
X158393928Y-59467785D02*
X158465357Y-59324928D01*
X158536785Y-59253500D01*
X158679642Y-59182071D01*
X159108214Y-59182071D01*
X159251071Y-59253500D01*
X159322500Y-59324928D01*
X159393928Y-59467785D01*
X159393928Y-59682071D01*
X159322500Y-59824928D01*
X159251071Y-59896357D01*
X159108214Y-59967785D01*
X158679642Y-59967785D01*
X158536785Y-59896357D01*
X158465357Y-59824928D01*
X158393928Y-59682071D01*
X158393928Y-59467785D01*
X158465357Y-61253500D02*
X158393928Y-61110642D01*
X158393928Y-60824928D01*
X158465357Y-60682071D01*
X158536785Y-60610642D01*
X158679642Y-60539214D01*
X159108214Y-60539214D01*
X159251071Y-60610642D01*
X159322500Y-60682071D01*
X159393928Y-60824928D01*
X159393928Y-61110642D01*
X159322500Y-61253500D01*
X158393928Y-62110642D02*
X158465357Y-61967785D01*
X158536785Y-61896357D01*
X158679642Y-61824928D01*
X159108214Y-61824928D01*
X159251071Y-61896357D01*
X159322500Y-61967785D01*
X159393928Y-62110642D01*
X159393928Y-62324928D01*
X159322500Y-62467785D01*
X159251071Y-62539214D01*
X159108214Y-62610642D01*
X158679642Y-62610642D01*
X158536785Y-62539214D01*
X158465357Y-62467785D01*
X158393928Y-62324928D01*
X158393928Y-62110642D01*
X158393928Y-63253500D02*
X159393928Y-63253500D01*
X159251071Y-63253500D02*
X159322500Y-63324928D01*
X159393928Y-63467785D01*
X159393928Y-63682071D01*
X159322500Y-63824928D01*
X159179642Y-63896357D01*
X158393928Y-63896357D01*
X159179642Y-63896357D02*
X159322500Y-63967785D01*
X159393928Y-64110642D01*
X159393928Y-64324928D01*
X159322500Y-64467785D01*
X159179642Y-64539214D01*
X158393928Y-64539214D01*
X159393928Y-65253500D02*
X157893928Y-65253500D01*
X159322500Y-65253500D02*
X159393928Y-65396357D01*
X159393928Y-65682071D01*
X159322500Y-65824928D01*
X159251071Y-65896357D01*
X159108214Y-65967785D01*
X158679642Y-65967785D01*
X158536785Y-65896357D01*
X158465357Y-65824928D01*
X158393928Y-65682071D01*
X158393928Y-65396357D01*
X158465357Y-65253500D01*
X159393928Y-67253500D02*
X158393928Y-67253500D01*
X159393928Y-66610642D02*
X158608214Y-66610642D01*
X158465357Y-66682071D01*
X158393928Y-66824928D01*
X158393928Y-67039214D01*
X158465357Y-67182071D01*
X158536785Y-67253500D01*
X159393928Y-67753500D02*
X159393928Y-68324928D01*
X159893928Y-67967785D02*
X158608214Y-67967785D01*
X158465357Y-68039214D01*
X158393928Y-68182071D01*
X158393928Y-68324928D01*
X158465357Y-69396357D02*
X158393928Y-69253500D01*
X158393928Y-68967785D01*
X158465357Y-68824928D01*
X158608214Y-68753500D01*
X159179642Y-68753500D01*
X159322500Y-68824928D01*
X159393928Y-68967785D01*
X159393928Y-69253500D01*
X159322500Y-69396357D01*
X159179642Y-69467785D01*
X159036785Y-69467785D01*
X158893928Y-68753500D01*
X158393928Y-70110642D02*
X159393928Y-70110642D01*
X159108214Y-70110642D02*
X159251071Y-70182071D01*
X159322500Y-70253500D01*
X159393928Y-70396357D01*
X159393928Y-70539214D01*
X157201071Y-47860642D02*
X157272500Y-47932071D01*
X157343928Y-48074928D01*
X157343928Y-48432071D01*
X157272500Y-48574928D01*
X157201071Y-48646357D01*
X157058214Y-48717785D01*
X156915357Y-48717785D01*
X156701071Y-48646357D01*
X155843928Y-47789214D01*
X155843928Y-48717785D01*
X157343928Y-49646357D02*
X157343928Y-49789214D01*
X157272500Y-49932071D01*
X157201071Y-50003500D01*
X157058214Y-50074928D01*
X156772500Y-50146357D01*
X156415357Y-50146357D01*
X156129642Y-50074928D01*
X155986785Y-50003500D01*
X155915357Y-49932071D01*
X155843928Y-49789214D01*
X155843928Y-49646357D01*
X155915357Y-49503500D01*
X155986785Y-49432071D01*
X156129642Y-49360642D01*
X156415357Y-49289214D01*
X156772500Y-49289214D01*
X157058214Y-49360642D01*
X157201071Y-49432071D01*
X157272500Y-49503500D01*
X157343928Y-49646357D01*
X155843928Y-51574928D02*
X155843928Y-50717785D01*
X155843928Y-51146357D02*
X157343928Y-51146357D01*
X157129642Y-51003500D01*
X156986785Y-50860642D01*
X156915357Y-50717785D01*
X156701071Y-52432071D02*
X156772500Y-52289214D01*
X156843928Y-52217785D01*
X156986785Y-52146357D01*
X157058214Y-52146357D01*
X157201071Y-52217785D01*
X157272500Y-52289214D01*
X157343928Y-52432071D01*
X157343928Y-52717785D01*
X157272500Y-52860642D01*
X157201071Y-52932071D01*
X157058214Y-53003500D01*
X156986785Y-53003500D01*
X156843928Y-52932071D01*
X156772500Y-52860642D01*
X156701071Y-52717785D01*
X156701071Y-52432071D01*
X156629642Y-52289214D01*
X156558214Y-52217785D01*
X156415357Y-52146357D01*
X156129642Y-52146357D01*
X155986785Y-52217785D01*
X155915357Y-52289214D01*
X155843928Y-52432071D01*
X155843928Y-52717785D01*
X155915357Y-52860642D01*
X155986785Y-52932071D01*
X156129642Y-53003500D01*
X156415357Y-53003500D01*
X156558214Y-52932071D01*
X156629642Y-52860642D01*
X156701071Y-52717785D01*
X156272500Y-54717785D02*
X156272500Y-55432071D01*
X155843928Y-54574928D02*
X157343928Y-55074928D01*
X155843928Y-55574928D01*
X155843928Y-56074928D02*
X156843928Y-56074928D01*
X157343928Y-56074928D02*
X157272500Y-56003500D01*
X157201071Y-56074928D01*
X157272500Y-56146357D01*
X157343928Y-56074928D01*
X157201071Y-56074928D01*
X155843928Y-57432071D02*
X157343928Y-57432071D01*
X155915357Y-57432071D02*
X155843928Y-57289214D01*
X155843928Y-57003500D01*
X155915357Y-56860642D01*
X155986785Y-56789214D01*
X156129642Y-56717785D01*
X156558214Y-56717785D01*
X156701071Y-56789214D01*
X156772500Y-56860642D01*
X156843928Y-57003500D01*
X156843928Y-57289214D01*
X156772500Y-57432071D01*
X155843928Y-58789214D02*
X156629642Y-58789214D01*
X156772500Y-58717785D01*
X156843928Y-58574928D01*
X156843928Y-58289214D01*
X156772500Y-58146357D01*
X155915357Y-58789214D02*
X155843928Y-58646357D01*
X155843928Y-58289214D01*
X155915357Y-58146357D01*
X156058214Y-58074928D01*
X156201071Y-58074928D01*
X156343928Y-58146357D01*
X156415357Y-58289214D01*
X156415357Y-58646357D01*
X156486785Y-58789214D01*
X156843928Y-59503500D02*
X155843928Y-59503500D01*
X156701071Y-59503500D02*
X156772500Y-59574928D01*
X156843928Y-59717785D01*
X156843928Y-59932071D01*
X156772500Y-60074928D01*
X156629642Y-60146357D01*
X155843928Y-60146357D01*
X155843928Y-62717785D02*
X155843928Y-62003500D01*
X157343928Y-62003500D01*
X155843928Y-63860642D02*
X156629642Y-63860642D01*
X156772500Y-63789214D01*
X156843928Y-63646357D01*
X156843928Y-63360642D01*
X156772500Y-63217785D01*
X155915357Y-63860642D02*
X155843928Y-63717785D01*
X155843928Y-63360642D01*
X155915357Y-63217785D01*
X156058214Y-63146357D01*
X156201071Y-63146357D01*
X156343928Y-63217785D01*
X156415357Y-63360642D01*
X156415357Y-63717785D01*
X156486785Y-63860642D01*
X156843928Y-64432071D02*
X155843928Y-64717785D01*
X156558214Y-65003500D01*
X155843928Y-65289214D01*
X156843928Y-65574928D01*
X155843928Y-66146357D02*
X156843928Y-66146357D01*
X156558214Y-66146357D02*
X156701071Y-66217785D01*
X156772500Y-66289214D01*
X156843928Y-66432071D01*
X156843928Y-66574928D01*
X155915357Y-67646357D02*
X155843928Y-67503500D01*
X155843928Y-67217785D01*
X155915357Y-67074928D01*
X156058214Y-67003500D01*
X156629642Y-67003500D01*
X156772500Y-67074928D01*
X156843928Y-67217785D01*
X156843928Y-67503500D01*
X156772500Y-67646357D01*
X156629642Y-67717785D01*
X156486785Y-67717785D01*
X156343928Y-67003500D01*
X156843928Y-68360642D02*
X155843928Y-68360642D01*
X156701071Y-68360642D02*
X156772500Y-68432071D01*
X156843928Y-68574928D01*
X156843928Y-68789214D01*
X156772500Y-68932071D01*
X156629642Y-69003500D01*
X155843928Y-69003500D01*
X155915357Y-70360642D02*
X155843928Y-70217785D01*
X155843928Y-69932071D01*
X155915357Y-69789214D01*
X155986785Y-69717785D01*
X156129642Y-69646357D01*
X156558214Y-69646357D01*
X156701071Y-69717785D01*
X156772500Y-69789214D01*
X156843928Y-69932071D01*
X156843928Y-70217785D01*
X156772500Y-70360642D01*
X155915357Y-71574928D02*
X155843928Y-71432071D01*
X155843928Y-71146357D01*
X155915357Y-71003500D01*
X156058214Y-70932071D01*
X156629642Y-70932071D01*
X156772500Y-71003500D01*
X156843928Y-71146357D01*
X156843928Y-71432071D01*
X156772500Y-71574928D01*
X156629642Y-71646357D01*
X156486785Y-71646357D01*
X156343928Y-70932071D01*
D11*
X160080000Y-104200000D02*
X158750000Y-104200000D01*
X160080000Y-102870000D02*
X160080000Y-104200000D01*
X160080000Y-101600000D02*
X157420000Y-101600000D01*
X157420000Y-101600000D02*
X157420000Y-99000000D01*
X160080000Y-101600000D02*
X160080000Y-99000000D01*
X160080000Y-99000000D02*
X157420000Y-99000000D01*
X104200000Y-120590000D02*
X104200000Y-121920000D01*
X102870000Y-120590000D02*
X104200000Y-120590000D01*
X101600000Y-120590000D02*
X101600000Y-123250000D01*
X101600000Y-123250000D02*
X83760000Y-123250000D01*
X101600000Y-120590000D02*
X83760000Y-120590000D01*
X83760000Y-120590000D02*
X83760000Y-123250000D01*
X157540000Y-120590000D02*
X157540000Y-121920000D01*
X156210000Y-120590000D02*
X157540000Y-120590000D01*
X154940000Y-120590000D02*
X154940000Y-123250000D01*
X154940000Y-123250000D02*
X116780000Y-123250000D01*
X154940000Y-120590000D02*
X116780000Y-120590000D01*
X116780000Y-120590000D02*
X116780000Y-123250000D01*
X104570000Y-125603000D02*
X104570000Y-123903000D01*
X104570000Y-123903000D02*
X102870000Y-123903000D01*
X78600000Y-134633000D02*
X78600000Y-124193000D01*
X78600000Y-124193000D02*
X104280000Y-124193000D01*
X104280000Y-124193000D02*
X104280000Y-134633000D01*
X104280000Y-134633000D02*
X78600000Y-134633000D01*
X131522000Y-134633000D02*
X105842000Y-134633000D01*
X131522000Y-124193000D02*
X131522000Y-134633000D01*
X105842000Y-124193000D02*
X131522000Y-124193000D01*
X105842000Y-134633000D02*
X105842000Y-124193000D01*
X131812000Y-123903000D02*
X130112000Y-123903000D01*
X131812000Y-125603000D02*
X131812000Y-123903000D01*
X157747000Y-134633000D02*
X132067000Y-134633000D01*
X157747000Y-124193000D02*
X157747000Y-134633000D01*
X132067000Y-124193000D02*
X157747000Y-124193000D01*
X132067000Y-134633000D02*
X132067000Y-124193000D01*
X158037000Y-123903000D02*
X156337000Y-123903000D01*
X158037000Y-125603000D02*
X158037000Y-123903000D01*
X105819000Y-89507000D02*
X105819000Y-88333000D01*
X107541000Y-89507000D02*
X107541000Y-88333000D01*
X82522000Y-98016000D02*
X81348000Y-98016000D01*
X82522000Y-96294000D02*
X81348000Y-96294000D01*
X88293000Y-98016000D02*
X89467000Y-98016000D01*
X88293000Y-96294000D02*
X89467000Y-96294000D01*
X101572000Y-78514000D02*
X100398000Y-78514000D01*
X101572000Y-80236000D02*
X100398000Y-80236000D01*
X153261000Y-37493000D02*
X153261000Y-38667000D01*
X151539000Y-37493000D02*
X151539000Y-38667000D01*
X151539000Y-75593000D02*
X151539000Y-76767000D01*
X153261000Y-75593000D02*
X153261000Y-76767000D01*
X103477000Y-114526000D02*
X102303000Y-114526000D01*
X103477000Y-112804000D02*
X102303000Y-112804000D01*
X108811000Y-57757000D02*
X108811000Y-56583000D01*
X107089000Y-57757000D02*
X107089000Y-56583000D01*
X103096000Y-31722000D02*
X103096000Y-30548000D01*
X101374000Y-31722000D02*
X101374000Y-30548000D01*
X103096000Y-36858000D02*
X103096000Y-38032000D01*
X101374000Y-36858000D02*
X101374000Y-38032000D01*
X81887000Y-37056000D02*
X80713000Y-37056000D01*
X81887000Y-35334000D02*
X80713000Y-35334000D01*
X80673000Y-31976000D02*
X81847000Y-31976000D01*
X80673000Y-30254000D02*
X81847000Y-30254000D01*
X94549500Y-41969500D02*
X94549500Y-54169500D01*
X77529500Y-54169500D02*
X77529500Y-41969500D01*
X94549500Y-54169500D02*
X89469500Y-54169500D01*
X86169500Y-54169500D02*
X77529500Y-54169500D01*
X94549500Y-41969500D02*
X89469500Y-41969500D01*
X86169500Y-41969500D02*
X77529500Y-41969500D01*
X82515000Y-85685000D02*
X82515000Y-86015000D01*
X88935000Y-85685000D02*
X82515000Y-85685000D01*
X88935000Y-86015000D02*
X88935000Y-85685000D01*
X82515000Y-88305000D02*
X82515000Y-87975000D01*
X88935000Y-88305000D02*
X82515000Y-88305000D01*
X88935000Y-87975000D02*
X88935000Y-88305000D01*
X88935000Y-84165000D02*
X88935000Y-84495000D01*
X88935000Y-84495000D02*
X82515000Y-84495000D01*
X82515000Y-84495000D02*
X82515000Y-84165000D01*
X88935000Y-82205000D02*
X88935000Y-81875000D01*
X88935000Y-81875000D02*
X82515000Y-81875000D01*
X82515000Y-81875000D02*
X82515000Y-82205000D01*
X105450000Y-46955000D02*
X105120000Y-46955000D01*
X105450000Y-53375000D02*
X105450000Y-46955000D01*
X105120000Y-53375000D02*
X105450000Y-53375000D01*
X102830000Y-46955000D02*
X103160000Y-46955000D01*
X102830000Y-53375000D02*
X102830000Y-46955000D01*
X103160000Y-53375000D02*
X102830000Y-53375000D01*
X97120000Y-59980000D02*
X97120000Y-59650000D01*
X97120000Y-59650000D02*
X103540000Y-59650000D01*
X103540000Y-59650000D02*
X103540000Y-59980000D01*
X97120000Y-61940000D02*
X97120000Y-62270000D01*
X97120000Y-62270000D02*
X103540000Y-62270000D01*
X103540000Y-62270000D02*
X103540000Y-61940000D01*
X101600000Y-137925000D02*
X101600000Y-135125000D01*
X81110000Y-137925000D02*
X104310000Y-137925000D01*
X81110000Y-135125000D02*
X81110000Y-137925000D01*
X104310000Y-135125000D02*
X81110000Y-135125000D01*
X104310000Y-137925000D02*
X104310000Y-135125000D01*
X128778000Y-137925000D02*
X128778000Y-135125000D01*
X108288000Y-137925000D02*
X131488000Y-137925000D01*
X108288000Y-135125000D02*
X108288000Y-137925000D01*
X131488000Y-135125000D02*
X108288000Y-135125000D01*
X131488000Y-137925000D02*
X131488000Y-135125000D01*
X157650000Y-137925000D02*
X157650000Y-135125000D01*
X157650000Y-135125000D02*
X134450000Y-135125000D01*
X134450000Y-135125000D02*
X134450000Y-137925000D01*
X134450000Y-137925000D02*
X157650000Y-137925000D01*
X154940000Y-137925000D02*
X154940000Y-135125000D01*
X102890000Y-66950000D02*
X102890000Y-69630000D01*
X96650000Y-69630000D02*
X96650000Y-66950000D01*
X96800000Y-65170000D02*
X102740000Y-65170000D01*
X96800000Y-71410000D02*
X102740000Y-71410000D01*
X101184214Y-68290000D02*
G75*
G03X101184214Y-68290000I-1414214J0D01*
G01*
X101075000Y-81220000D02*
X99425000Y-81220000D01*
X101075000Y-99120000D02*
X101075000Y-81220000D01*
X95775000Y-99120000D02*
X101075000Y-99120000D01*
X95775000Y-81220000D02*
X95775000Y-99120000D01*
X97425000Y-81220000D02*
X95775000Y-81220000D01*
X99425000Y-81220000D02*
G75*
G02X97425000Y-81220000I-1000000J0D01*
G01*
X124570000Y-29150000D02*
X119110000Y-29150000D01*
X124570000Y-59750000D02*
X124570000Y-29150000D01*
X111650000Y-59750000D02*
X124570000Y-59750000D01*
X111650000Y-29150000D02*
X111650000Y-59750000D01*
X117110000Y-29150000D02*
X111650000Y-29150000D01*
X119110000Y-29150000D02*
G75*
G02X117110000Y-29150000I-1000000J0D01*
G01*
X124570000Y-63440000D02*
X119110000Y-63440000D01*
X124570000Y-114360000D02*
X124570000Y-63440000D01*
X111650000Y-114360000D02*
X124570000Y-114360000D01*
X111650000Y-63440000D02*
X111650000Y-114360000D01*
X117110000Y-63440000D02*
X111650000Y-63440000D01*
X119110000Y-63440000D02*
G75*
G02X117110000Y-63440000I-1000000J0D01*
G01*
X148700000Y-29150000D02*
X143240000Y-29150000D01*
X148700000Y-64830000D02*
X148700000Y-29150000D01*
X135780000Y-64830000D02*
X148700000Y-64830000D01*
X135780000Y-29150000D02*
X135780000Y-64830000D01*
X141240000Y-29150000D02*
X135780000Y-29150000D01*
X143240000Y-29150000D02*
G75*
G02X141240000Y-29150000I-1000000J0D01*
G01*
X148700000Y-73600000D02*
X143240000Y-73600000D01*
X148700000Y-114360000D02*
X148700000Y-73600000D01*
X135780000Y-114360000D02*
X148700000Y-114360000D01*
X135780000Y-73600000D02*
X135780000Y-114360000D01*
X141240000Y-73600000D02*
X135780000Y-73600000D01*
X143240000Y-73600000D02*
G75*
G02X141240000Y-73600000I-1000000J0D01*
G01*
X105470000Y-108315000D02*
G75*
G02X105470000Y-106315000I0J1000000D01*
G01*
X105470000Y-106315000D02*
X105470000Y-104665000D01*
X105470000Y-104665000D02*
X87570000Y-104665000D01*
X87570000Y-104665000D02*
X87570000Y-109965000D01*
X87570000Y-109965000D02*
X105470000Y-109965000D01*
X105470000Y-109965000D02*
X105470000Y-108315000D01*
D12*
X85556600Y-34650000D02*
G75*
G03X85556600Y-34650000I-325600J0D01*
G01*
D11*
X88559500Y-95489000D02*
G75*
G03X88559500Y-90439000I0J2525000D01*
G01*
X82309500Y-95489000D02*
G75*
G02X82309500Y-90439000I0J2525000D01*
G01*
X82309500Y-95489000D02*
X88559500Y-95489000D01*
X82309500Y-90439000D02*
X88559500Y-90439000D01*
X100315000Y-31065000D02*
X100315000Y-37315000D01*
X95265000Y-31065000D02*
X95265000Y-37315000D01*
X95265000Y-31065000D02*
G75*
G02X100315000Y-31065000I2525000J0D01*
G01*
X95265000Y-37315000D02*
G75*
G03X100315000Y-37315000I2525000J0D01*
G01*
D13*
X157416666Y-105652380D02*
X157416666Y-104652380D01*
X157797619Y-104652380D01*
X157892857Y-104700000D01*
X157940476Y-104747619D01*
X157988095Y-104842857D01*
X157988095Y-104985714D01*
X157940476Y-105080952D01*
X157892857Y-105128571D01*
X157797619Y-105176190D01*
X157416666Y-105176190D01*
X158321428Y-104652380D02*
X158559523Y-105652380D01*
X158750000Y-104938095D01*
X158940476Y-105652380D01*
X159178571Y-104652380D01*
X160130952Y-105652380D02*
X159797619Y-105176190D01*
X159559523Y-105652380D02*
X159559523Y-104652380D01*
X159940476Y-104652380D01*
X160035714Y-104700000D01*
X160083333Y-104747619D01*
X160130952Y-104842857D01*
X160130952Y-104985714D01*
X160083333Y-105080952D01*
X160035714Y-105128571D01*
X159940476Y-105176190D01*
X159559523Y-105176190D01*
X104652380Y-122253333D02*
X105366666Y-122253333D01*
X105509523Y-122300952D01*
X105604761Y-122396190D01*
X105652380Y-122539047D01*
X105652380Y-122634285D01*
X104652380Y-121872380D02*
X104652380Y-121253333D01*
X105033333Y-121586666D01*
X105033333Y-121443809D01*
X105080952Y-121348571D01*
X105128571Y-121300952D01*
X105223809Y-121253333D01*
X105461904Y-121253333D01*
X105557142Y-121300952D01*
X105604761Y-121348571D01*
X105652380Y-121443809D01*
X105652380Y-121729523D01*
X105604761Y-121824761D01*
X105557142Y-121872380D01*
X157992380Y-122253333D02*
X158706666Y-122253333D01*
X158849523Y-122300952D01*
X158944761Y-122396190D01*
X158992380Y-122539047D01*
X158992380Y-122634285D01*
X158087619Y-121824761D02*
X158040000Y-121777142D01*
X157992380Y-121681904D01*
X157992380Y-121443809D01*
X158040000Y-121348571D01*
X158087619Y-121300952D01*
X158182857Y-121253333D01*
X158278095Y-121253333D01*
X158420952Y-121300952D01*
X158992380Y-121872380D01*
X158992380Y-121253333D01*
X102163571Y-130873333D02*
X102211190Y-130730476D01*
X102258809Y-130682857D01*
X102354047Y-130635238D01*
X102496904Y-130635238D01*
X102592142Y-130682857D01*
X102639761Y-130730476D01*
X102687380Y-130825714D01*
X102687380Y-131206666D01*
X101687380Y-131206666D01*
X101687380Y-130873333D01*
X101735000Y-130778095D01*
X101782619Y-130730476D01*
X101877857Y-130682857D01*
X101973095Y-130682857D01*
X102068333Y-130730476D01*
X102115952Y-130778095D01*
X102163571Y-130873333D01*
X102163571Y-131206666D01*
X102401666Y-130254285D02*
X102401666Y-129778095D01*
X102687380Y-130349523D02*
X101687380Y-130016190D01*
X102687380Y-129682857D01*
X102687380Y-128778095D02*
X102211190Y-129111428D01*
X102687380Y-129349523D02*
X101687380Y-129349523D01*
X101687380Y-128968571D01*
X101735000Y-128873333D01*
X101782619Y-128825714D01*
X101877857Y-128778095D01*
X102020714Y-128778095D01*
X102115952Y-128825714D01*
X102163571Y-128873333D01*
X102211190Y-128968571D01*
X102211190Y-129349523D01*
X102687380Y-127825714D02*
X102687380Y-128397142D01*
X102687380Y-128111428D02*
X101687380Y-128111428D01*
X101830238Y-128206666D01*
X101925476Y-128301904D01*
X101973095Y-128397142D01*
X129532571Y-130873333D02*
X129580190Y-130730476D01*
X129627809Y-130682857D01*
X129723047Y-130635238D01*
X129865904Y-130635238D01*
X129961142Y-130682857D01*
X130008761Y-130730476D01*
X130056380Y-130825714D01*
X130056380Y-131206666D01*
X129056380Y-131206666D01*
X129056380Y-130873333D01*
X129104000Y-130778095D01*
X129151619Y-130730476D01*
X129246857Y-130682857D01*
X129342095Y-130682857D01*
X129437333Y-130730476D01*
X129484952Y-130778095D01*
X129532571Y-130873333D01*
X129532571Y-131206666D01*
X129770666Y-130254285D02*
X129770666Y-129778095D01*
X130056380Y-130349523D02*
X129056380Y-130016190D01*
X130056380Y-129682857D01*
X130056380Y-128778095D02*
X129580190Y-129111428D01*
X130056380Y-129349523D02*
X129056380Y-129349523D01*
X129056380Y-128968571D01*
X129104000Y-128873333D01*
X129151619Y-128825714D01*
X129246857Y-128778095D01*
X129389714Y-128778095D01*
X129484952Y-128825714D01*
X129532571Y-128873333D01*
X129580190Y-128968571D01*
X129580190Y-129349523D01*
X129151619Y-128397142D02*
X129104000Y-128349523D01*
X129056380Y-128254285D01*
X129056380Y-128016190D01*
X129104000Y-127920952D01*
X129151619Y-127873333D01*
X129246857Y-127825714D01*
X129342095Y-127825714D01*
X129484952Y-127873333D01*
X130056380Y-128444761D01*
X130056380Y-127825714D01*
X156202071Y-130492333D02*
X156249690Y-130349476D01*
X156297309Y-130301857D01*
X156392547Y-130254238D01*
X156535404Y-130254238D01*
X156630642Y-130301857D01*
X156678261Y-130349476D01*
X156725880Y-130444714D01*
X156725880Y-130825666D01*
X155725880Y-130825666D01*
X155725880Y-130492333D01*
X155773500Y-130397095D01*
X155821119Y-130349476D01*
X155916357Y-130301857D01*
X156011595Y-130301857D01*
X156106833Y-130349476D01*
X156154452Y-130397095D01*
X156202071Y-130492333D01*
X156202071Y-130825666D01*
X156440166Y-129873285D02*
X156440166Y-129397095D01*
X156725880Y-129968523D02*
X155725880Y-129635190D01*
X156725880Y-129301857D01*
X156725880Y-128397095D02*
X156249690Y-128730428D01*
X156725880Y-128968523D02*
X155725880Y-128968523D01*
X155725880Y-128587571D01*
X155773500Y-128492333D01*
X155821119Y-128444714D01*
X155916357Y-128397095D01*
X156059214Y-128397095D01*
X156154452Y-128444714D01*
X156202071Y-128492333D01*
X156249690Y-128587571D01*
X156249690Y-128968523D01*
X155725880Y-128063761D02*
X155725880Y-127444714D01*
X156106833Y-127778047D01*
X156106833Y-127635190D01*
X156154452Y-127539952D01*
X156202071Y-127492333D01*
X156297309Y-127444714D01*
X156535404Y-127444714D01*
X156630642Y-127492333D01*
X156678261Y-127539952D01*
X156725880Y-127635190D01*
X156725880Y-127920904D01*
X156678261Y-128016142D01*
X156630642Y-128063761D01*
X104927142Y-89086666D02*
X104974761Y-89134285D01*
X105022380Y-89277142D01*
X105022380Y-89372380D01*
X104974761Y-89515238D01*
X104879523Y-89610476D01*
X104784285Y-89658095D01*
X104593809Y-89705714D01*
X104450952Y-89705714D01*
X104260476Y-89658095D01*
X104165238Y-89610476D01*
X104070000Y-89515238D01*
X104022380Y-89372380D01*
X104022380Y-89277142D01*
X104070000Y-89134285D01*
X104117619Y-89086666D01*
X105022380Y-88134285D02*
X105022380Y-88705714D01*
X105022380Y-88420000D02*
X104022380Y-88420000D01*
X104165238Y-88515238D01*
X104260476Y-88610476D01*
X104308095Y-88705714D01*
X81768333Y-99417142D02*
X81720714Y-99464761D01*
X81577857Y-99512380D01*
X81482619Y-99512380D01*
X81339761Y-99464761D01*
X81244523Y-99369523D01*
X81196904Y-99274285D01*
X81149285Y-99083809D01*
X81149285Y-98940952D01*
X81196904Y-98750476D01*
X81244523Y-98655238D01*
X81339761Y-98560000D01*
X81482619Y-98512380D01*
X81577857Y-98512380D01*
X81720714Y-98560000D01*
X81768333Y-98607619D01*
X82149285Y-98607619D02*
X82196904Y-98560000D01*
X82292142Y-98512380D01*
X82530238Y-98512380D01*
X82625476Y-98560000D01*
X82673095Y-98607619D01*
X82720714Y-98702857D01*
X82720714Y-98798095D01*
X82673095Y-98940952D01*
X82101666Y-99512380D01*
X82720714Y-99512380D01*
X88733333Y-99417142D02*
X88685714Y-99464761D01*
X88542857Y-99512380D01*
X88447619Y-99512380D01*
X88304761Y-99464761D01*
X88209523Y-99369523D01*
X88161904Y-99274285D01*
X88114285Y-99083809D01*
X88114285Y-98940952D01*
X88161904Y-98750476D01*
X88209523Y-98655238D01*
X88304761Y-98560000D01*
X88447619Y-98512380D01*
X88542857Y-98512380D01*
X88685714Y-98560000D01*
X88733333Y-98607619D01*
X89066666Y-98512380D02*
X89685714Y-98512380D01*
X89352380Y-98893333D01*
X89495238Y-98893333D01*
X89590476Y-98940952D01*
X89638095Y-98988571D01*
X89685714Y-99083809D01*
X89685714Y-99321904D01*
X89638095Y-99417142D01*
X89590476Y-99464761D01*
X89495238Y-99512380D01*
X89209523Y-99512380D01*
X89114285Y-99464761D01*
X89066666Y-99417142D01*
X100818333Y-77192142D02*
X100770714Y-77239761D01*
X100627857Y-77287380D01*
X100532619Y-77287380D01*
X100389761Y-77239761D01*
X100294523Y-77144523D01*
X100246904Y-77049285D01*
X100199285Y-76858809D01*
X100199285Y-76715952D01*
X100246904Y-76525476D01*
X100294523Y-76430238D01*
X100389761Y-76335000D01*
X100532619Y-76287380D01*
X100627857Y-76287380D01*
X100770714Y-76335000D01*
X100818333Y-76382619D01*
X101675476Y-76620714D02*
X101675476Y-77287380D01*
X101437380Y-76239761D02*
X101199285Y-76954047D01*
X101818333Y-76954047D01*
X154867142Y-38246666D02*
X154914761Y-38294285D01*
X154962380Y-38437142D01*
X154962380Y-38532380D01*
X154914761Y-38675238D01*
X154819523Y-38770476D01*
X154724285Y-38818095D01*
X154533809Y-38865714D01*
X154390952Y-38865714D01*
X154200476Y-38818095D01*
X154105238Y-38770476D01*
X154010000Y-38675238D01*
X153962380Y-38532380D01*
X153962380Y-38437142D01*
X154010000Y-38294285D01*
X154057619Y-38246666D01*
X153962380Y-37341904D02*
X153962380Y-37818095D01*
X154438571Y-37865714D01*
X154390952Y-37818095D01*
X154343333Y-37722857D01*
X154343333Y-37484761D01*
X154390952Y-37389523D01*
X154438571Y-37341904D01*
X154533809Y-37294285D01*
X154771904Y-37294285D01*
X154867142Y-37341904D01*
X154914761Y-37389523D01*
X154962380Y-37484761D01*
X154962380Y-37722857D01*
X154914761Y-37818095D01*
X154867142Y-37865714D01*
X154867142Y-76346666D02*
X154914761Y-76394285D01*
X154962380Y-76537142D01*
X154962380Y-76632380D01*
X154914761Y-76775238D01*
X154819523Y-76870476D01*
X154724285Y-76918095D01*
X154533809Y-76965714D01*
X154390952Y-76965714D01*
X154200476Y-76918095D01*
X154105238Y-76870476D01*
X154010000Y-76775238D01*
X153962380Y-76632380D01*
X153962380Y-76537142D01*
X154010000Y-76394285D01*
X154057619Y-76346666D01*
X153962380Y-75489523D02*
X153962380Y-75680000D01*
X154010000Y-75775238D01*
X154057619Y-75822857D01*
X154200476Y-75918095D01*
X154390952Y-75965714D01*
X154771904Y-75965714D01*
X154867142Y-75918095D01*
X154914761Y-75870476D01*
X154962380Y-75775238D01*
X154962380Y-75584761D01*
X154914761Y-75489523D01*
X154867142Y-75441904D01*
X154771904Y-75394285D01*
X154533809Y-75394285D01*
X154438571Y-75441904D01*
X154390952Y-75489523D01*
X154343333Y-75584761D01*
X154343333Y-75775238D01*
X154390952Y-75870476D01*
X154438571Y-75918095D01*
X154533809Y-75965714D01*
X102723333Y-115927142D02*
X102675714Y-115974761D01*
X102532857Y-116022380D01*
X102437619Y-116022380D01*
X102294761Y-115974761D01*
X102199523Y-115879523D01*
X102151904Y-115784285D01*
X102104285Y-115593809D01*
X102104285Y-115450952D01*
X102151904Y-115260476D01*
X102199523Y-115165238D01*
X102294761Y-115070000D01*
X102437619Y-115022380D01*
X102532857Y-115022380D01*
X102675714Y-115070000D01*
X102723333Y-115117619D01*
X103056666Y-115022380D02*
X103723333Y-115022380D01*
X103294761Y-116022380D01*
X106402142Y-57316666D02*
X106449761Y-57364285D01*
X106497380Y-57507142D01*
X106497380Y-57602380D01*
X106449761Y-57745238D01*
X106354523Y-57840476D01*
X106259285Y-57888095D01*
X106068809Y-57935714D01*
X105925952Y-57935714D01*
X105735476Y-57888095D01*
X105640238Y-57840476D01*
X105545000Y-57745238D01*
X105497380Y-57602380D01*
X105497380Y-57507142D01*
X105545000Y-57364285D01*
X105592619Y-57316666D01*
X105925952Y-56745238D02*
X105878333Y-56840476D01*
X105830714Y-56888095D01*
X105735476Y-56935714D01*
X105687857Y-56935714D01*
X105592619Y-56888095D01*
X105545000Y-56840476D01*
X105497380Y-56745238D01*
X105497380Y-56554761D01*
X105545000Y-56459523D01*
X105592619Y-56411904D01*
X105687857Y-56364285D01*
X105735476Y-56364285D01*
X105830714Y-56411904D01*
X105878333Y-56459523D01*
X105925952Y-56554761D01*
X105925952Y-56745238D01*
X105973571Y-56840476D01*
X106021190Y-56888095D01*
X106116428Y-56935714D01*
X106306904Y-56935714D01*
X106402142Y-56888095D01*
X106449761Y-56840476D01*
X106497380Y-56745238D01*
X106497380Y-56554761D01*
X106449761Y-56459523D01*
X106402142Y-56411904D01*
X106306904Y-56364285D01*
X106116428Y-56364285D01*
X106021190Y-56411904D01*
X105973571Y-56459523D01*
X105925952Y-56554761D01*
X100482142Y-31301666D02*
X100529761Y-31349285D01*
X100577380Y-31492142D01*
X100577380Y-31587380D01*
X100529761Y-31730238D01*
X100434523Y-31825476D01*
X100339285Y-31873095D01*
X100148809Y-31920714D01*
X100005952Y-31920714D01*
X99815476Y-31873095D01*
X99720238Y-31825476D01*
X99625000Y-31730238D01*
X99577380Y-31587380D01*
X99577380Y-31492142D01*
X99625000Y-31349285D01*
X99672619Y-31301666D01*
X100577380Y-30825476D02*
X100577380Y-30635000D01*
X100529761Y-30539761D01*
X100482142Y-30492142D01*
X100339285Y-30396904D01*
X100148809Y-30349285D01*
X99767857Y-30349285D01*
X99672619Y-30396904D01*
X99625000Y-30444523D01*
X99577380Y-30539761D01*
X99577380Y-30730238D01*
X99625000Y-30825476D01*
X99672619Y-30873095D01*
X99767857Y-30920714D01*
X100005952Y-30920714D01*
X100101190Y-30873095D01*
X100148809Y-30825476D01*
X100196428Y-30730238D01*
X100196428Y-30539761D01*
X100148809Y-30444523D01*
X100101190Y-30396904D01*
X100005952Y-30349285D01*
X104702142Y-38087857D02*
X104749761Y-38135476D01*
X104797380Y-38278333D01*
X104797380Y-38373571D01*
X104749761Y-38516428D01*
X104654523Y-38611666D01*
X104559285Y-38659285D01*
X104368809Y-38706904D01*
X104225952Y-38706904D01*
X104035476Y-38659285D01*
X103940238Y-38611666D01*
X103845000Y-38516428D01*
X103797380Y-38373571D01*
X103797380Y-38278333D01*
X103845000Y-38135476D01*
X103892619Y-38087857D01*
X104797380Y-37135476D02*
X104797380Y-37706904D01*
X104797380Y-37421190D02*
X103797380Y-37421190D01*
X103940238Y-37516428D01*
X104035476Y-37611666D01*
X104083095Y-37706904D01*
X103797380Y-36516428D02*
X103797380Y-36421190D01*
X103845000Y-36325952D01*
X103892619Y-36278333D01*
X103987857Y-36230714D01*
X104178333Y-36183095D01*
X104416428Y-36183095D01*
X104606904Y-36230714D01*
X104702142Y-36278333D01*
X104749761Y-36325952D01*
X104797380Y-36421190D01*
X104797380Y-36516428D01*
X104749761Y-36611666D01*
X104702142Y-36659285D01*
X104606904Y-36706904D01*
X104416428Y-36754523D01*
X104178333Y-36754523D01*
X103987857Y-36706904D01*
X103892619Y-36659285D01*
X103845000Y-36611666D01*
X103797380Y-36516428D01*
X80637142Y-39092142D02*
X80589523Y-39139761D01*
X80446666Y-39187380D01*
X80351428Y-39187380D01*
X80208571Y-39139761D01*
X80113333Y-39044523D01*
X80065714Y-38949285D01*
X80018095Y-38758809D01*
X80018095Y-38615952D01*
X80065714Y-38425476D01*
X80113333Y-38330238D01*
X80208571Y-38235000D01*
X80351428Y-38187380D01*
X80446666Y-38187380D01*
X80589523Y-38235000D01*
X80637142Y-38282619D01*
X81589523Y-39187380D02*
X81018095Y-39187380D01*
X81303809Y-39187380D02*
X81303809Y-38187380D01*
X81208571Y-38330238D01*
X81113333Y-38425476D01*
X81018095Y-38473095D01*
X82541904Y-39187380D02*
X81970476Y-39187380D01*
X82256190Y-39187380D02*
X82256190Y-38187380D01*
X82160952Y-38330238D01*
X82065714Y-38425476D01*
X81970476Y-38473095D01*
X80617142Y-29362142D02*
X80569523Y-29409761D01*
X80426666Y-29457380D01*
X80331428Y-29457380D01*
X80188571Y-29409761D01*
X80093333Y-29314523D01*
X80045714Y-29219285D01*
X79998095Y-29028809D01*
X79998095Y-28885952D01*
X80045714Y-28695476D01*
X80093333Y-28600238D01*
X80188571Y-28505000D01*
X80331428Y-28457380D01*
X80426666Y-28457380D01*
X80569523Y-28505000D01*
X80617142Y-28552619D01*
X81569523Y-29457380D02*
X80998095Y-29457380D01*
X81283809Y-29457380D02*
X81283809Y-28457380D01*
X81188571Y-28600238D01*
X81093333Y-28695476D01*
X80998095Y-28743095D01*
X81950476Y-28552619D02*
X81998095Y-28505000D01*
X82093333Y-28457380D01*
X82331428Y-28457380D01*
X82426666Y-28505000D01*
X82474285Y-28552619D01*
X82521904Y-28647857D01*
X82521904Y-28743095D01*
X82474285Y-28885952D01*
X81902857Y-29457380D01*
X82521904Y-29457380D01*
X80921880Y-48402833D02*
X81636166Y-48402833D01*
X81779023Y-48450452D01*
X81874261Y-48545690D01*
X81921880Y-48688547D01*
X81921880Y-48783785D01*
X81921880Y-47402833D02*
X81921880Y-47974261D01*
X81921880Y-47688547D02*
X80921880Y-47688547D01*
X81064738Y-47783785D01*
X81159976Y-47879023D01*
X81207595Y-47974261D01*
X85558333Y-87447380D02*
X85225000Y-86971190D01*
X84986904Y-87447380D02*
X84986904Y-86447380D01*
X85367857Y-86447380D01*
X85463095Y-86495000D01*
X85510714Y-86542619D01*
X85558333Y-86637857D01*
X85558333Y-86780714D01*
X85510714Y-86875952D01*
X85463095Y-86923571D01*
X85367857Y-86971190D01*
X84986904Y-86971190D01*
X86510714Y-87447380D02*
X85939285Y-87447380D01*
X86225000Y-87447380D02*
X86225000Y-86447380D01*
X86129761Y-86590238D01*
X86034523Y-86685476D01*
X85939285Y-86733095D01*
X85558333Y-83637380D02*
X85225000Y-83161190D01*
X84986904Y-83637380D02*
X84986904Y-82637380D01*
X85367857Y-82637380D01*
X85463095Y-82685000D01*
X85510714Y-82732619D01*
X85558333Y-82827857D01*
X85558333Y-82970714D01*
X85510714Y-83065952D01*
X85463095Y-83113571D01*
X85367857Y-83161190D01*
X84986904Y-83161190D01*
X85939285Y-82732619D02*
X85986904Y-82685000D01*
X86082142Y-82637380D01*
X86320238Y-82637380D01*
X86415476Y-82685000D01*
X86463095Y-82732619D01*
X86510714Y-82827857D01*
X86510714Y-82923095D01*
X86463095Y-83065952D01*
X85891666Y-83637380D01*
X86510714Y-83637380D01*
X104592380Y-50331666D02*
X104116190Y-50665000D01*
X104592380Y-50903095D02*
X103592380Y-50903095D01*
X103592380Y-50522142D01*
X103640000Y-50426904D01*
X103687619Y-50379285D01*
X103782857Y-50331666D01*
X103925714Y-50331666D01*
X104020952Y-50379285D01*
X104068571Y-50426904D01*
X104116190Y-50522142D01*
X104116190Y-50903095D01*
X103592380Y-49998333D02*
X103592380Y-49379285D01*
X103973333Y-49712619D01*
X103973333Y-49569761D01*
X104020952Y-49474523D01*
X104068571Y-49426904D01*
X104163809Y-49379285D01*
X104401904Y-49379285D01*
X104497142Y-49426904D01*
X104544761Y-49474523D01*
X104592380Y-49569761D01*
X104592380Y-49855476D01*
X104544761Y-49950714D01*
X104497142Y-49998333D01*
X100163333Y-61412380D02*
X99830000Y-60936190D01*
X99591904Y-61412380D02*
X99591904Y-60412380D01*
X99972857Y-60412380D01*
X100068095Y-60460000D01*
X100115714Y-60507619D01*
X100163333Y-60602857D01*
X100163333Y-60745714D01*
X100115714Y-60840952D01*
X100068095Y-60888571D01*
X99972857Y-60936190D01*
X99591904Y-60936190D01*
X101020476Y-60745714D02*
X101020476Y-61412380D01*
X100782380Y-60364761D02*
X100544285Y-61079047D01*
X101163333Y-61079047D01*
X90749523Y-139377380D02*
X90416190Y-138901190D01*
X90178095Y-139377380D02*
X90178095Y-138377380D01*
X90559047Y-138377380D01*
X90654285Y-138425000D01*
X90701904Y-138472619D01*
X90749523Y-138567857D01*
X90749523Y-138710714D01*
X90701904Y-138805952D01*
X90654285Y-138853571D01*
X90559047Y-138901190D01*
X90178095Y-138901190D01*
X91178095Y-139377380D02*
X91178095Y-138377380D01*
X91749523Y-139377380D01*
X91749523Y-138377380D01*
X92749523Y-139377380D02*
X92178095Y-139377380D01*
X92463809Y-139377380D02*
X92463809Y-138377380D01*
X92368571Y-138520238D01*
X92273333Y-138615476D01*
X92178095Y-138663095D01*
X117927523Y-139377380D02*
X117594190Y-138901190D01*
X117356095Y-139377380D02*
X117356095Y-138377380D01*
X117737047Y-138377380D01*
X117832285Y-138425000D01*
X117879904Y-138472619D01*
X117927523Y-138567857D01*
X117927523Y-138710714D01*
X117879904Y-138805952D01*
X117832285Y-138853571D01*
X117737047Y-138901190D01*
X117356095Y-138901190D01*
X118356095Y-139377380D02*
X118356095Y-138377380D01*
X118927523Y-139377380D01*
X118927523Y-138377380D01*
X119356095Y-138472619D02*
X119403714Y-138425000D01*
X119498952Y-138377380D01*
X119737047Y-138377380D01*
X119832285Y-138425000D01*
X119879904Y-138472619D01*
X119927523Y-138567857D01*
X119927523Y-138663095D01*
X119879904Y-138805952D01*
X119308476Y-139377380D01*
X119927523Y-139377380D01*
X144089523Y-139377380D02*
X143756190Y-138901190D01*
X143518095Y-139377380D02*
X143518095Y-138377380D01*
X143899047Y-138377380D01*
X143994285Y-138425000D01*
X144041904Y-138472619D01*
X144089523Y-138567857D01*
X144089523Y-138710714D01*
X144041904Y-138805952D01*
X143994285Y-138853571D01*
X143899047Y-138901190D01*
X143518095Y-138901190D01*
X144518095Y-139377380D02*
X144518095Y-138377380D01*
X145089523Y-139377380D01*
X145089523Y-138377380D01*
X145470476Y-138377380D02*
X146089523Y-138377380D01*
X145756190Y-138758333D01*
X145899047Y-138758333D01*
X145994285Y-138805952D01*
X146041904Y-138853571D01*
X146089523Y-138948809D01*
X146089523Y-139186904D01*
X146041904Y-139282142D01*
X145994285Y-139329761D01*
X145899047Y-139377380D01*
X145613333Y-139377380D01*
X145518095Y-139329761D01*
X145470476Y-139282142D01*
X98317619Y-64442380D02*
X97984285Y-63966190D01*
X97746190Y-64442380D02*
X97746190Y-63442380D01*
X98127142Y-63442380D01*
X98222380Y-63490000D01*
X98270000Y-63537619D01*
X98317619Y-63632857D01*
X98317619Y-63775714D01*
X98270000Y-63870952D01*
X98222380Y-63918571D01*
X98127142Y-63966190D01*
X97746190Y-63966190D01*
X98746190Y-63918571D02*
X99079523Y-63918571D01*
X99222380Y-64442380D02*
X98746190Y-64442380D01*
X98746190Y-63442380D01*
X99222380Y-63442380D01*
X99603333Y-64394761D02*
X99746190Y-64442380D01*
X99984285Y-64442380D01*
X100079523Y-64394761D01*
X100127142Y-64347142D01*
X100174761Y-64251904D01*
X100174761Y-64156666D01*
X100127142Y-64061428D01*
X100079523Y-64013809D01*
X99984285Y-63966190D01*
X99793809Y-63918571D01*
X99698571Y-63870952D01*
X99650952Y-63823333D01*
X99603333Y-63728095D01*
X99603333Y-63632857D01*
X99650952Y-63537619D01*
X99698571Y-63490000D01*
X99793809Y-63442380D01*
X100031904Y-63442380D01*
X100174761Y-63490000D01*
X100603333Y-63918571D02*
X100936666Y-63918571D01*
X101079523Y-64442380D02*
X100603333Y-64442380D01*
X100603333Y-63442380D01*
X101079523Y-63442380D01*
X101365238Y-63442380D02*
X101936666Y-63442380D01*
X101650952Y-64442380D02*
X101650952Y-63442380D01*
X95758095Y-79672380D02*
X95758095Y-80481904D01*
X95805714Y-80577142D01*
X95853333Y-80624761D01*
X95948571Y-80672380D01*
X96139047Y-80672380D01*
X96234285Y-80624761D01*
X96281904Y-80577142D01*
X96329523Y-80481904D01*
X96329523Y-79672380D01*
X97329523Y-80672380D02*
X96758095Y-80672380D01*
X97043809Y-80672380D02*
X97043809Y-79672380D01*
X96948571Y-79815238D01*
X96853333Y-79910476D01*
X96758095Y-79958095D01*
X127000095Y-28916380D02*
X127000095Y-29725904D01*
X127047714Y-29821142D01*
X127095333Y-29868761D01*
X127190571Y-29916380D01*
X127381047Y-29916380D01*
X127476285Y-29868761D01*
X127523904Y-29821142D01*
X127571523Y-29725904D01*
X127571523Y-28916380D01*
X128000095Y-29011619D02*
X128047714Y-28964000D01*
X128142952Y-28916380D01*
X128381047Y-28916380D01*
X128476285Y-28964000D01*
X128523904Y-29011619D01*
X128571523Y-29106857D01*
X128571523Y-29202095D01*
X128523904Y-29344952D01*
X127952476Y-29916380D01*
X128571523Y-29916380D01*
X117348095Y-61892380D02*
X117348095Y-62701904D01*
X117395714Y-62797142D01*
X117443333Y-62844761D01*
X117538571Y-62892380D01*
X117729047Y-62892380D01*
X117824285Y-62844761D01*
X117871904Y-62797142D01*
X117919523Y-62701904D01*
X117919523Y-61892380D01*
X118300476Y-61892380D02*
X118919523Y-61892380D01*
X118586190Y-62273333D01*
X118729047Y-62273333D01*
X118824285Y-62320952D01*
X118871904Y-62368571D01*
X118919523Y-62463809D01*
X118919523Y-62701904D01*
X118871904Y-62797142D01*
X118824285Y-62844761D01*
X118729047Y-62892380D01*
X118443333Y-62892380D01*
X118348095Y-62844761D01*
X118300476Y-62797142D01*
X151066595Y-28725880D02*
X151066595Y-29535404D01*
X151114214Y-29630642D01*
X151161833Y-29678261D01*
X151257071Y-29725880D01*
X151447547Y-29725880D01*
X151542785Y-29678261D01*
X151590404Y-29630642D01*
X151638023Y-29535404D01*
X151638023Y-28725880D01*
X152542785Y-29059214D02*
X152542785Y-29725880D01*
X152304690Y-28678261D02*
X152066595Y-29392547D01*
X152685642Y-29392547D01*
X141478095Y-72052380D02*
X141478095Y-72861904D01*
X141525714Y-72957142D01*
X141573333Y-73004761D01*
X141668571Y-73052380D01*
X141859047Y-73052380D01*
X141954285Y-73004761D01*
X142001904Y-72957142D01*
X142049523Y-72861904D01*
X142049523Y-72052380D01*
X143001904Y-72052380D02*
X142525714Y-72052380D01*
X142478095Y-72528571D01*
X142525714Y-72480952D01*
X142620952Y-72433333D01*
X142859047Y-72433333D01*
X142954285Y-72480952D01*
X143001904Y-72528571D01*
X143049523Y-72623809D01*
X143049523Y-72861904D01*
X143001904Y-72957142D01*
X142954285Y-73004761D01*
X142859047Y-73052380D01*
X142620952Y-73052380D01*
X142525714Y-73004761D01*
X142478095Y-72957142D01*
X105922380Y-108076904D02*
X106731904Y-108076904D01*
X106827142Y-108029285D01*
X106874761Y-107981666D01*
X106922380Y-107886428D01*
X106922380Y-107695952D01*
X106874761Y-107600714D01*
X106827142Y-107553095D01*
X106731904Y-107505476D01*
X105922380Y-107505476D01*
X105922380Y-106600714D02*
X105922380Y-106791190D01*
X105970000Y-106886428D01*
X106017619Y-106934047D01*
X106160476Y-107029285D01*
X106350952Y-107076904D01*
X106731904Y-107076904D01*
X106827142Y-107029285D01*
X106874761Y-106981666D01*
X106922380Y-106886428D01*
X106922380Y-106695952D01*
X106874761Y-106600714D01*
X106827142Y-106553095D01*
X106731904Y-106505476D01*
X106493809Y-106505476D01*
X106398571Y-106553095D01*
X106350952Y-106600714D01*
X106303333Y-106695952D01*
X106303333Y-106886428D01*
X106350952Y-106981666D01*
X106398571Y-107029285D01*
X106493809Y-107076904D01*
D14*
X84404285Y-28662380D02*
X84404285Y-29471904D01*
X84447142Y-29567142D01*
X84490000Y-29614761D01*
X84575714Y-29662380D01*
X84747142Y-29662380D01*
X84832857Y-29614761D01*
X84875714Y-29567142D01*
X84918571Y-29471904D01*
X84918571Y-28662380D01*
X85261428Y-28662380D02*
X85861428Y-28662380D01*
X85475714Y-29662380D01*
X87352428Y-34012142D02*
X87309571Y-34059761D01*
X87181000Y-34107380D01*
X87095285Y-34107380D01*
X86966714Y-34059761D01*
X86881000Y-33964523D01*
X86838142Y-33869285D01*
X86795285Y-33678809D01*
X86795285Y-33535952D01*
X86838142Y-33345476D01*
X86881000Y-33250238D01*
X86966714Y-33155000D01*
X87095285Y-33107380D01*
X87181000Y-33107380D01*
X87309571Y-33155000D01*
X87352428Y-33202619D01*
X87738142Y-34107380D02*
X87738142Y-33107380D01*
X87738142Y-33583571D02*
X88252428Y-33583571D01*
X88252428Y-34107380D02*
X88252428Y-33107380D01*
X88595285Y-33107380D02*
X89152428Y-33107380D01*
X88852428Y-33488333D01*
X88981000Y-33488333D01*
X89066714Y-33535952D01*
X89109571Y-33583571D01*
X89152428Y-33678809D01*
X89152428Y-33916904D01*
X89109571Y-34012142D01*
X89066714Y-34059761D01*
X88981000Y-34107380D01*
X88723857Y-34107380D01*
X88638142Y-34059761D01*
X88595285Y-34012142D01*
X89923857Y-33440714D02*
X89923857Y-34107380D01*
X89709571Y-33059761D02*
X89495285Y-33774047D01*
X90052428Y-33774047D01*
X90566714Y-33107380D02*
X90652428Y-33107380D01*
X90738142Y-33155000D01*
X90781000Y-33202619D01*
X90823857Y-33297857D01*
X90866714Y-33488333D01*
X90866714Y-33726428D01*
X90823857Y-33916904D01*
X90781000Y-34012142D01*
X90738142Y-34059761D01*
X90652428Y-34107380D01*
X90566714Y-34107380D01*
X90481000Y-34059761D01*
X90438142Y-34012142D01*
X90395285Y-33916904D01*
X90352428Y-33726428D01*
X90352428Y-33488333D01*
X90395285Y-33297857D01*
X90438142Y-33202619D01*
X90481000Y-33155000D01*
X90566714Y-33107380D01*
X91723857Y-33155000D02*
X91638142Y-33107380D01*
X91509571Y-33107380D01*
X91381000Y-33155000D01*
X91295285Y-33250238D01*
X91252428Y-33345476D01*
X91209571Y-33535952D01*
X91209571Y-33678809D01*
X91252428Y-33869285D01*
X91295285Y-33964523D01*
X91381000Y-34059761D01*
X91509571Y-34107380D01*
X91595285Y-34107380D01*
X91723857Y-34059761D01*
X91766714Y-34012142D01*
X91766714Y-33678809D01*
X91595285Y-33678809D01*
D13*
X84958309Y-89415190D02*
X84958309Y-89891380D01*
X84624976Y-88891380D02*
X84958309Y-89415190D01*
X85291642Y-88891380D01*
X86148785Y-89891380D02*
X85577357Y-89891380D01*
X85863071Y-89891380D02*
X85863071Y-88891380D01*
X85767833Y-89034238D01*
X85672595Y-89129476D01*
X85577357Y-89177095D01*
X101291190Y-34666190D02*
X101767380Y-34666190D01*
X100767380Y-34999523D02*
X101291190Y-34666190D01*
X100767380Y-34332857D01*
X100862619Y-34047142D02*
X100815000Y-33999523D01*
X100767380Y-33904285D01*
X100767380Y-33666190D01*
X100815000Y-33570952D01*
X100862619Y-33523333D01*
X100957857Y-33475714D01*
X101053095Y-33475714D01*
X101195952Y-33523333D01*
X101767380Y-34094761D01*
X101767380Y-33475714D01*
M02*
