%TF.GenerationSoftware,KiCad,Pcbnew,(5.0.0)*%
%TF.CreationDate,2018-09-27T16:02:53-07:00*%
%TF.ProjectId,Z80,5A38302E6B696361645F706362000000,rev?*%
%TF.SameCoordinates,Original*%
%TF.FileFunction,Copper,L1,Top,Signal*%
%TF.FilePolarity,Positive*%
%FSLAX46Y46*%
G04 Gerber Fmt 4.6, Leading zero omitted, Abs format (unit mm)*
G04 Created by KiCad (PCBNEW (5.0.0)) date 09/27/18 16:02:53*
%MOMM*%
%LPD*%
G01*
G04 APERTURE LIST*
%ADD10O,1.700000X1.700000*%
%ADD11R,1.700000X1.700000*%
%ADD12R,2.032000X2.032000*%
%ADD13C,2.032000*%
%ADD14C,1.600000*%
%ADD15C,2.700000*%
%ADD16C,1.520000*%
%ADD17O,1.600000X1.600000*%
%ADD18R,1.600000X1.600000*%
%ADD19C,1.700000*%
%ADD20R,0.635000X1.524000*%
%ADD21C,1.500000*%
%ADD22C,0.800000*%
%ADD23C,0.250000*%
%ADD24C,0.400000*%
%ADD25C,0.254000*%
G04 APERTURE END LIST*
D10*
X158750000Y-100330000D03*
D11*
X158750000Y-102870000D03*
D10*
X85090000Y-121920000D03*
X87630000Y-121920000D03*
X90170000Y-121920000D03*
X92710000Y-121920000D03*
X95250000Y-121920000D03*
X97790000Y-121920000D03*
X100330000Y-121920000D03*
D11*
X102870000Y-121920000D03*
D10*
X118110000Y-121920000D03*
X120650000Y-121920000D03*
X123190000Y-121920000D03*
X125730000Y-121920000D03*
X128270000Y-121920000D03*
X130810000Y-121920000D03*
X133350000Y-121920000D03*
X135890000Y-121920000D03*
X138430000Y-121920000D03*
X140970000Y-121920000D03*
X143510000Y-121920000D03*
X146050000Y-121920000D03*
X148590000Y-121920000D03*
X151130000Y-121920000D03*
X153670000Y-121920000D03*
D11*
X156210000Y-121920000D03*
D12*
X102870000Y-125603000D03*
D13*
X100330000Y-125603000D03*
X97790000Y-125603000D03*
X95250000Y-125603000D03*
X85090000Y-133223000D03*
X87630000Y-133223000D03*
X90170000Y-133223000D03*
X92710000Y-133223000D03*
X92710000Y-125603000D03*
X90170000Y-125603000D03*
X87630000Y-125603000D03*
X85090000Y-125603000D03*
X82550000Y-133223000D03*
X80010000Y-133223000D03*
X80010000Y-125603000D03*
X82550000Y-125603000D03*
X95250000Y-133223000D03*
X97790000Y-133223000D03*
X100330000Y-133223000D03*
X102870000Y-133223000D03*
X130112000Y-133223000D03*
X127572000Y-133223000D03*
X125032000Y-133223000D03*
X122492000Y-133223000D03*
X109792000Y-125603000D03*
X107252000Y-125603000D03*
X107252000Y-133223000D03*
X109792000Y-133223000D03*
X112332000Y-125603000D03*
X114872000Y-125603000D03*
X117412000Y-125603000D03*
X119952000Y-125603000D03*
X119952000Y-133223000D03*
X117412000Y-133223000D03*
X114872000Y-133223000D03*
X112332000Y-133223000D03*
X122492000Y-125603000D03*
X125032000Y-125603000D03*
X127572000Y-125603000D03*
D12*
X130112000Y-125603000D03*
D13*
X156337000Y-133223000D03*
X153797000Y-133223000D03*
X151257000Y-133223000D03*
X148717000Y-133223000D03*
X136017000Y-125603000D03*
X133477000Y-125603000D03*
X133477000Y-133223000D03*
X136017000Y-133223000D03*
X138557000Y-125603000D03*
X141097000Y-125603000D03*
X143637000Y-125603000D03*
X146177000Y-125603000D03*
X146177000Y-133223000D03*
X143637000Y-133223000D03*
X141097000Y-133223000D03*
X138557000Y-133223000D03*
X148717000Y-125603000D03*
X151257000Y-125603000D03*
X153797000Y-125603000D03*
D12*
X156337000Y-125603000D03*
D14*
X106680000Y-90170000D03*
X106680000Y-87670000D03*
X83185000Y-97155000D03*
X80685000Y-97155000D03*
X90130000Y-97155000D03*
X87630000Y-97155000D03*
X99735000Y-79375000D03*
X102235000Y-79375000D03*
X152400000Y-36830000D03*
X152400000Y-39330000D03*
X152400000Y-77430000D03*
X152400000Y-74930000D03*
X104140000Y-113665000D03*
X101640000Y-113665000D03*
X107950000Y-55920000D03*
X107950000Y-58420000D03*
X102235000Y-29885000D03*
X102235000Y-32385000D03*
X102235000Y-36195000D03*
X102235000Y-38695000D03*
X82550000Y-36195000D03*
X80050000Y-36195000D03*
X82510000Y-31115000D03*
X80010000Y-31115000D03*
D15*
X87819500Y-54069500D03*
X87819500Y-42069500D03*
D16*
X90519500Y-46799500D03*
X90519500Y-49339500D03*
X92519500Y-49339500D03*
X92519500Y-46799500D03*
D17*
X81915000Y-86995000D03*
D14*
X89535000Y-86995000D03*
X89535000Y-83185000D03*
D17*
X81915000Y-83185000D03*
X104140000Y-46355000D03*
D14*
X104140000Y-53975000D03*
X96520000Y-60960000D03*
D17*
X104140000Y-60960000D03*
X82550000Y-136525000D03*
X85090000Y-136525000D03*
X87630000Y-136525000D03*
X90170000Y-136525000D03*
X92710000Y-136525000D03*
X95250000Y-136525000D03*
X97790000Y-136525000D03*
X100330000Y-136525000D03*
D18*
X102870000Y-136525000D03*
D17*
X109728000Y-136525000D03*
X112268000Y-136525000D03*
X114808000Y-136525000D03*
X117348000Y-136525000D03*
X119888000Y-136525000D03*
X122428000Y-136525000D03*
X124968000Y-136525000D03*
X127508000Y-136525000D03*
D18*
X130048000Y-136525000D03*
X156210000Y-136525000D03*
D17*
X153670000Y-136525000D03*
X151130000Y-136525000D03*
X148590000Y-136525000D03*
X146050000Y-136525000D03*
X143510000Y-136525000D03*
X140970000Y-136525000D03*
X138430000Y-136525000D03*
X135890000Y-136525000D03*
D19*
X96520000Y-66040000D03*
X103020000Y-66040000D03*
X96520000Y-70540000D03*
X103020000Y-70540000D03*
D17*
X102235000Y-82550000D03*
X94615000Y-97790000D03*
X102235000Y-85090000D03*
X94615000Y-95250000D03*
X102235000Y-87630000D03*
X94615000Y-92710000D03*
X102235000Y-90170000D03*
X94615000Y-90170000D03*
X102235000Y-92710000D03*
X94615000Y-87630000D03*
X102235000Y-95250000D03*
X94615000Y-85090000D03*
X102235000Y-97790000D03*
D18*
X94615000Y-82550000D03*
D17*
X125730000Y-30480000D03*
X110490000Y-58420000D03*
X125730000Y-33020000D03*
X110490000Y-55880000D03*
X125730000Y-35560000D03*
X110490000Y-53340000D03*
X125730000Y-38100000D03*
X110490000Y-50800000D03*
X125730000Y-40640000D03*
X110490000Y-48260000D03*
X125730000Y-43180000D03*
X110490000Y-45720000D03*
X125730000Y-45720000D03*
X110490000Y-43180000D03*
X125730000Y-48260000D03*
X110490000Y-40640000D03*
X125730000Y-50800000D03*
X110490000Y-38100000D03*
X125730000Y-53340000D03*
X110490000Y-35560000D03*
X125730000Y-55880000D03*
X110490000Y-33020000D03*
X125730000Y-58420000D03*
D18*
X110490000Y-30480000D03*
D17*
X125730000Y-64770000D03*
X110490000Y-113030000D03*
X125730000Y-67310000D03*
X110490000Y-110490000D03*
X125730000Y-69850000D03*
X110490000Y-107950000D03*
X125730000Y-72390000D03*
X110490000Y-105410000D03*
X125730000Y-74930000D03*
X110490000Y-102870000D03*
X125730000Y-77470000D03*
X110490000Y-100330000D03*
X125730000Y-80010000D03*
X110490000Y-97790000D03*
X125730000Y-82550000D03*
X110490000Y-95250000D03*
X125730000Y-85090000D03*
X110490000Y-92710000D03*
X125730000Y-87630000D03*
X110490000Y-90170000D03*
X125730000Y-90170000D03*
X110490000Y-87630000D03*
X125730000Y-92710000D03*
X110490000Y-85090000D03*
X125730000Y-95250000D03*
X110490000Y-82550000D03*
X125730000Y-97790000D03*
X110490000Y-80010000D03*
X125730000Y-100330000D03*
X110490000Y-77470000D03*
X125730000Y-102870000D03*
X110490000Y-74930000D03*
X125730000Y-105410000D03*
X110490000Y-72390000D03*
X125730000Y-107950000D03*
X110490000Y-69850000D03*
X125730000Y-110490000D03*
X110490000Y-67310000D03*
X125730000Y-113030000D03*
D18*
X110490000Y-64770000D03*
D17*
X149860000Y-30480000D03*
X134620000Y-63500000D03*
X149860000Y-33020000D03*
X134620000Y-60960000D03*
X149860000Y-35560000D03*
X134620000Y-58420000D03*
X149860000Y-38100000D03*
X134620000Y-55880000D03*
X149860000Y-40640000D03*
X134620000Y-53340000D03*
X149860000Y-43180000D03*
X134620000Y-50800000D03*
X149860000Y-45720000D03*
X134620000Y-48260000D03*
X149860000Y-48260000D03*
X134620000Y-45720000D03*
X149860000Y-50800000D03*
X134620000Y-43180000D03*
X149860000Y-53340000D03*
X134620000Y-40640000D03*
X149860000Y-55880000D03*
X134620000Y-38100000D03*
X149860000Y-58420000D03*
X134620000Y-35560000D03*
X149860000Y-60960000D03*
X134620000Y-33020000D03*
X149860000Y-63500000D03*
D18*
X134620000Y-30480000D03*
D17*
X149860000Y-74930000D03*
X134620000Y-113030000D03*
X149860000Y-77470000D03*
X134620000Y-110490000D03*
X149860000Y-80010000D03*
X134620000Y-107950000D03*
X149860000Y-82550000D03*
X134620000Y-105410000D03*
X149860000Y-85090000D03*
X134620000Y-102870000D03*
X149860000Y-87630000D03*
X134620000Y-100330000D03*
X149860000Y-90170000D03*
X134620000Y-97790000D03*
X149860000Y-92710000D03*
X134620000Y-95250000D03*
X149860000Y-95250000D03*
X134620000Y-92710000D03*
X149860000Y-97790000D03*
X134620000Y-90170000D03*
X149860000Y-100330000D03*
X134620000Y-87630000D03*
X149860000Y-102870000D03*
X134620000Y-85090000D03*
X149860000Y-105410000D03*
X134620000Y-82550000D03*
X149860000Y-107950000D03*
X134620000Y-80010000D03*
X149860000Y-110490000D03*
X134620000Y-77470000D03*
X149860000Y-113030000D03*
D18*
X134620000Y-74930000D03*
X104140000Y-103505000D03*
D17*
X88900000Y-111125000D03*
X101600000Y-103505000D03*
X91440000Y-111125000D03*
X99060000Y-103505000D03*
X93980000Y-111125000D03*
X96520000Y-103505000D03*
X96520000Y-111125000D03*
X93980000Y-103505000D03*
X99060000Y-111125000D03*
X91440000Y-103505000D03*
X101600000Y-111125000D03*
X88900000Y-103505000D03*
X104140000Y-111125000D03*
D20*
X86106000Y-36350000D03*
X88646000Y-30960000D03*
X84836000Y-36350000D03*
X87376000Y-36350000D03*
X88646000Y-36350000D03*
X87376000Y-30960000D03*
X89916000Y-30960000D03*
X91186000Y-30960000D03*
X91186000Y-36350000D03*
X93726000Y-30960000D03*
X89916000Y-36350000D03*
X92456000Y-36350000D03*
X92456000Y-30960000D03*
X93726000Y-36350000D03*
X86106000Y-30960000D03*
X84836000Y-30960000D03*
D21*
X87874500Y-92964000D03*
X82994500Y-92964000D03*
X97790000Y-31750000D03*
X97790000Y-36630000D03*
D22*
X137740500Y-57738900D03*
X127518800Y-114804200D03*
X137998000Y-61827300D03*
X127171000Y-75461800D03*
X117237600Y-79492800D03*
X115543900Y-67087800D03*
X111932300Y-77123500D03*
X116343700Y-65950400D03*
X139037200Y-65505800D03*
X141650900Y-100170400D03*
X139625100Y-64440100D03*
X139878900Y-95196800D03*
X123016700Y-51436900D03*
X115826000Y-86957800D03*
X94246000Y-106789000D03*
X104025500Y-97581700D03*
X144414200Y-107109200D03*
X103990800Y-100463200D03*
X118112100Y-54765100D03*
X128270000Y-95250000D03*
X127000000Y-118110000D03*
X81280000Y-119380000D03*
X80010000Y-120650000D03*
X82550000Y-120650000D03*
X80010000Y-118110000D03*
X82550000Y-118110000D03*
X132080000Y-120650000D03*
X132080000Y-123820300D03*
X129540000Y-120650000D03*
X129536855Y-123820300D03*
X127000000Y-120650000D03*
X126847000Y-123827484D03*
X106680000Y-114300000D03*
X85090000Y-38100000D03*
X156210000Y-81280000D03*
X134620000Y-68580000D03*
X144780000Y-76200000D03*
X148590000Y-76200000D03*
X106680000Y-63500000D03*
X157924500Y-108140500D03*
X119717300Y-81167000D03*
X114029100Y-110028300D03*
X112745400Y-114611400D03*
X141675000Y-81762100D03*
X108224900Y-85048000D03*
X108094000Y-108954400D03*
X118368600Y-70856000D03*
X120486700Y-72444900D03*
X113043000Y-67046500D03*
X147300200Y-92936300D03*
X141241400Y-65939300D03*
X115131600Y-71581300D03*
X113565400Y-53260700D03*
X128318000Y-74089700D03*
X121066600Y-50274600D03*
X146903200Y-103584100D03*
X136350400Y-91236000D03*
X146767100Y-106688400D03*
X147953200Y-113511000D03*
X136355200Y-100295700D03*
X137225600Y-49911600D03*
X123516200Y-52523600D03*
X123073000Y-56800800D03*
X122987900Y-88455100D03*
X107638300Y-89122200D03*
X107560100Y-98359900D03*
X124184400Y-95367000D03*
X108960400Y-86279500D03*
X90951300Y-113732300D03*
X108219600Y-116583300D03*
X108213000Y-73409300D03*
X121613000Y-82678600D03*
X122877000Y-96313100D03*
X98598000Y-105974300D03*
X123223100Y-61645100D03*
X146280200Y-92514500D03*
X136191600Y-106561900D03*
D23*
X125730000Y-35560000D02*
X125730000Y-36685300D01*
X134620000Y-55880000D02*
X134620000Y-54754700D01*
X134620000Y-54754700D02*
X134338600Y-54754700D01*
X134338600Y-54754700D02*
X133494700Y-53910800D01*
X133494700Y-53910800D02*
X133494700Y-44168700D01*
X133494700Y-44168700D02*
X126011300Y-36685300D01*
X126011300Y-36685300D02*
X125730000Y-36685300D01*
X109364700Y-97790000D02*
X109209300Y-97634600D01*
X109209300Y-97634600D02*
X107259700Y-97634600D01*
X107259700Y-97634600D02*
X106834800Y-98059500D01*
X106834800Y-98059500D02*
X106834800Y-98730400D01*
X106834800Y-98730400D02*
X102870000Y-102695200D01*
X102870000Y-102695200D02*
X102870000Y-121920000D01*
X102870000Y-121920000D02*
X102870000Y-125603000D01*
X134620000Y-104284700D02*
X134901300Y-104284700D01*
X134901300Y-104284700D02*
X137531500Y-101654500D01*
X137531500Y-101654500D02*
X137531500Y-85967900D01*
X137531500Y-85967900D02*
X137272700Y-85709100D01*
X137272700Y-85709100D02*
X137272700Y-58206700D01*
X137272700Y-58206700D02*
X137740500Y-57738900D01*
X110490000Y-97790000D02*
X109364700Y-97790000D01*
X134620000Y-105410000D02*
X134620000Y-104284700D01*
X134620000Y-107950000D02*
X133494700Y-107950000D01*
X133494700Y-107950000D02*
X133494700Y-108828300D01*
X133494700Y-108828300D02*
X127518800Y-114804200D01*
X134620000Y-107950000D02*
X134620000Y-107387300D01*
X137998000Y-61827300D02*
X137998000Y-103629500D01*
X137998000Y-103629500D02*
X134802800Y-106824700D01*
X134802800Y-106824700D02*
X134620000Y-106824700D01*
X134620000Y-107387300D02*
X134620000Y-106824700D01*
X100330000Y-125603000D02*
X100330000Y-123095300D01*
X100330000Y-121920000D02*
X100330000Y-123095300D01*
X125730000Y-38100000D02*
X125730000Y-39225300D01*
X134620000Y-58420000D02*
X134620000Y-57294700D01*
X134620000Y-57294700D02*
X134338700Y-57294700D01*
X134338700Y-57294700D02*
X127425300Y-50381300D01*
X127425300Y-50381300D02*
X127425300Y-40639300D01*
X127425300Y-40639300D02*
X126011300Y-39225300D01*
X126011300Y-39225300D02*
X125730000Y-39225300D01*
X110490000Y-93272600D02*
X110537000Y-93272600D01*
X110537000Y-93272600D02*
X117237600Y-86572000D01*
X117237600Y-86572000D02*
X117237600Y-79492800D01*
X134057300Y-60960000D02*
X127171000Y-67846300D01*
X127171000Y-67846300D02*
X127171000Y-75461800D01*
X134620000Y-60960000D02*
X134057300Y-60960000D01*
X134057300Y-60960000D02*
X126855300Y-53758000D01*
X126855300Y-53758000D02*
X126855300Y-42609200D01*
X126855300Y-42609200D02*
X126011400Y-41765300D01*
X126011400Y-41765300D02*
X125730000Y-41765300D01*
X125730000Y-40640000D02*
X125730000Y-41765300D01*
X97790000Y-121920000D02*
X97790000Y-120744700D01*
X97790000Y-120744700D02*
X100185400Y-118349300D01*
X100185400Y-118349300D02*
X100185400Y-103138700D01*
X100185400Y-103138700D02*
X110051500Y-93272600D01*
X110051500Y-93272600D02*
X110490000Y-93272600D01*
X97790000Y-125603000D02*
X97790000Y-121920000D01*
X110490000Y-92710000D02*
X110490000Y-93272600D01*
X125730000Y-44305300D02*
X125373300Y-44305300D01*
X125373300Y-44305300D02*
X115543900Y-54134700D01*
X115543900Y-54134700D02*
X115543900Y-67087800D01*
X111932300Y-77123500D02*
X115893300Y-73162500D01*
X115893300Y-73162500D02*
X115893300Y-67437200D01*
X115893300Y-67437200D02*
X115543900Y-67087800D01*
X125730000Y-43180000D02*
X125730000Y-44305300D01*
X95250000Y-125603000D02*
X95250000Y-121920000D01*
X149860000Y-110490000D02*
X149860000Y-111615300D01*
X149860000Y-111615300D02*
X150141300Y-111615300D01*
X150141300Y-111615300D02*
X157678400Y-119152400D01*
X157678400Y-119152400D02*
X157678400Y-126809500D01*
X157678400Y-126809500D02*
X157502800Y-126985100D01*
X157502800Y-126985100D02*
X94092100Y-126985100D01*
X94092100Y-126985100D02*
X92710000Y-125603000D01*
X125730000Y-45720000D02*
X124595500Y-45720000D01*
X124595500Y-45720000D02*
X116343700Y-53971800D01*
X116343700Y-53971800D02*
X116343700Y-65950400D01*
X110490000Y-78884700D02*
X111196900Y-78884700D01*
X111196900Y-78884700D02*
X116343700Y-73737900D01*
X116343700Y-73737900D02*
X116343700Y-65950400D01*
X110490000Y-80010000D02*
X110490000Y-78884700D01*
X139037200Y-65505800D02*
X139037200Y-97556700D01*
X139037200Y-97556700D02*
X141650900Y-100170400D01*
X92710000Y-125603000D02*
X92710000Y-121920000D01*
X139625100Y-64440100D02*
X139878900Y-64693900D01*
X139878900Y-64693900D02*
X139878900Y-95196800D01*
X90170000Y-120744700D02*
X95250000Y-115664700D01*
X95250000Y-115664700D02*
X95250000Y-100612400D01*
X95250000Y-100612400D02*
X101898700Y-93963700D01*
X101898700Y-93963700D02*
X104510600Y-93963700D01*
X104510600Y-93963700D02*
X108748000Y-89726300D01*
X108748000Y-89726300D02*
X108748000Y-87750400D01*
X108748000Y-87750400D02*
X110283100Y-86215300D01*
X110283100Y-86215300D02*
X110490000Y-86215300D01*
X90170000Y-121920000D02*
X90170000Y-120744700D01*
X110490000Y-85090000D02*
X110490000Y-86215300D01*
X90170000Y-125603000D02*
X90170000Y-121920000D01*
X115826000Y-86957800D02*
X115826000Y-79735500D01*
X115826000Y-79735500D02*
X117133000Y-78428500D01*
X117133000Y-78428500D02*
X117133000Y-54676600D01*
X117133000Y-54676600D02*
X120372700Y-51436900D01*
X120372700Y-51436900D02*
X123016700Y-51436900D01*
X115826000Y-86957800D02*
X112287500Y-86957800D01*
X112287500Y-86957800D02*
X111615300Y-87630000D01*
X110490000Y-87630000D02*
X111615300Y-87630000D01*
X110490000Y-87630000D02*
X110490000Y-88755300D01*
X110490000Y-88755300D02*
X110208600Y-88755300D01*
X110208600Y-88755300D02*
X109364700Y-89599200D01*
X109364700Y-89599200D02*
X109364700Y-92242500D01*
X109364700Y-92242500D02*
X104025500Y-97581700D01*
X87630000Y-121920000D02*
X87630000Y-120744700D01*
X94246000Y-106789000D02*
X92628300Y-108406700D01*
X92628300Y-108406700D02*
X92628300Y-115746400D01*
X92628300Y-115746400D02*
X87630000Y-120744700D01*
X87630000Y-125603000D02*
X87630000Y-121920000D01*
X118112100Y-54765100D02*
X117611600Y-55265600D01*
X117611600Y-55265600D02*
X117611600Y-78841000D01*
X117611600Y-78841000D02*
X117962900Y-79192300D01*
X117962900Y-79192300D02*
X117962900Y-86933100D01*
X117962900Y-86933100D02*
X110771300Y-94124700D01*
X110771300Y-94124700D02*
X110490000Y-94124700D01*
X109364700Y-95250000D02*
X109007400Y-95250000D01*
X109007400Y-95250000D02*
X103990800Y-100266600D01*
X103990800Y-100266600D02*
X103990800Y-100463200D01*
X149860000Y-102870000D02*
X148734700Y-102870000D01*
X148734700Y-102870000D02*
X144495500Y-107109200D01*
X144495500Y-107109200D02*
X144414200Y-107109200D01*
X110490000Y-95250000D02*
X110490000Y-94124700D01*
X110490000Y-95250000D02*
X109364700Y-95250000D01*
X85090000Y-125603000D02*
X85090000Y-121920000D01*
X95414999Y-96990001D02*
X94615000Y-97790000D01*
X100965000Y-91440000D02*
X95414999Y-96990001D01*
X105410000Y-91440000D02*
X100965000Y-91440000D01*
X106680000Y-90170000D02*
X105410000Y-91440000D01*
X126793799Y-117903799D02*
X127000000Y-118110000D01*
X126793799Y-114456199D02*
X126793799Y-117903799D01*
X128270000Y-95250000D02*
X128270000Y-112979998D01*
X128270000Y-112979998D02*
X126793799Y-114456199D01*
X132080000Y-120650000D02*
X132080000Y-123820300D01*
X129540000Y-120650000D02*
X129540000Y-123817155D01*
X129540000Y-123817155D02*
X129536855Y-123820300D01*
X127000000Y-120650000D02*
X127000000Y-123674484D01*
X127000000Y-123674484D02*
X126847000Y-123827484D01*
X144780000Y-76200000D02*
X148590000Y-76200000D01*
X122428000Y-136525000D02*
X123553300Y-136525000D01*
X123553300Y-136525000D02*
X123553300Y-136243600D01*
X123553300Y-136243600D02*
X124397200Y-135399700D01*
X124397200Y-135399700D02*
X127935300Y-135399700D01*
X127935300Y-135399700D02*
X130112000Y-133223000D01*
X119888000Y-136525000D02*
X121013300Y-136525000D01*
X121013300Y-136525000D02*
X121013300Y-136243700D01*
X121013300Y-136243700D02*
X122340900Y-134916100D01*
X122340900Y-134916100D02*
X125878900Y-134916100D01*
X125878900Y-134916100D02*
X127572000Y-133223000D01*
X118110000Y-121920000D02*
X118110000Y-123095300D01*
X118110000Y-123095300D02*
X117412000Y-123793300D01*
X117412000Y-123793300D02*
X117412000Y-125603000D01*
X112745400Y-114611400D02*
X118110000Y-119976000D01*
X118110000Y-119976000D02*
X118110000Y-121920000D01*
X114029100Y-110028300D02*
X119717300Y-104340100D01*
X119717300Y-104340100D02*
X119717300Y-81167000D01*
X149860000Y-77470000D02*
X148734700Y-77470000D01*
X141675000Y-81762100D02*
X144442600Y-81762100D01*
X144442600Y-81762100D02*
X148734700Y-77470000D01*
X110490000Y-72390000D02*
X110490000Y-73515300D01*
X108224900Y-85048000D02*
X108224900Y-75499100D01*
X108224900Y-75499100D02*
X110208700Y-73515300D01*
X110208700Y-73515300D02*
X110490000Y-73515300D01*
X120650000Y-120744700D02*
X111668200Y-111762900D01*
X111668200Y-111762900D02*
X110133100Y-111762900D01*
X110133100Y-111762900D02*
X108094000Y-109723800D01*
X108094000Y-109723800D02*
X108094000Y-108954400D01*
X120650000Y-121920000D02*
X120650000Y-120744700D01*
X120650000Y-122507600D02*
X120650000Y-121920000D01*
X120650000Y-122507600D02*
X120650000Y-123095300D01*
X119952000Y-125603000D02*
X119952000Y-123793300D01*
X119952000Y-123793300D02*
X120650000Y-123095300D01*
X112268000Y-136525000D02*
X113393300Y-136525000D01*
X113393300Y-136525000D02*
X113393300Y-136243600D01*
X113393300Y-136243600D02*
X114237200Y-135399700D01*
X114237200Y-135399700D02*
X117775300Y-135399700D01*
X117775300Y-135399700D02*
X119952000Y-133223000D01*
X109728000Y-136525000D02*
X110853300Y-136525000D01*
X110853300Y-136525000D02*
X110853300Y-136243700D01*
X110853300Y-136243700D02*
X112180900Y-134916100D01*
X112180900Y-134916100D02*
X115718900Y-134916100D01*
X115718900Y-134916100D02*
X117412000Y-133223000D01*
X110831300Y-104140000D02*
X112719600Y-106028300D01*
X112719600Y-106028300D02*
X112719600Y-110274300D01*
X112719600Y-110274300D02*
X123190000Y-120744700D01*
X105265300Y-103505000D02*
X105900300Y-104140000D01*
X105900300Y-104140000D02*
X110831300Y-104140000D01*
X118368600Y-70856000D02*
X118427500Y-70914900D01*
X118427500Y-70914900D02*
X118427500Y-96543800D01*
X118427500Y-96543800D02*
X110831300Y-104140000D01*
X123190000Y-121920000D02*
X123190000Y-120744700D01*
X104140000Y-103505000D02*
X105265300Y-103505000D01*
X123190000Y-122507600D02*
X123190000Y-121920000D01*
X123190000Y-122507600D02*
X123190000Y-123095300D01*
X122492000Y-125603000D02*
X122492000Y-123793300D01*
X122492000Y-123793300D02*
X123190000Y-123095300D01*
X133494700Y-33020000D02*
X132369400Y-34145300D01*
X132369400Y-34145300D02*
X125547600Y-34145300D01*
X125547600Y-34145300D02*
X112840100Y-46852800D01*
X112840100Y-46852800D02*
X112840100Y-66843600D01*
X112840100Y-66843600D02*
X113043000Y-67046500D01*
X125730000Y-121920000D02*
X125730000Y-120744700D01*
X120486700Y-72444900D02*
X120486700Y-115501400D01*
X120486700Y-115501400D02*
X125730000Y-120744700D01*
X134620000Y-33020000D02*
X133494700Y-33020000D01*
X125032000Y-125603000D02*
X125730000Y-124905000D01*
X125730000Y-124905000D02*
X125730000Y-121920000D01*
X147300200Y-92936300D02*
X147300200Y-92508700D01*
X147300200Y-92508700D02*
X140445900Y-85654400D01*
X140445900Y-85654400D02*
X140445900Y-53438100D01*
X140445900Y-53438100D02*
X149578700Y-44305300D01*
X149578700Y-44305300D02*
X149860000Y-44305300D01*
X128270000Y-121920000D02*
X128270000Y-123095300D01*
X128270000Y-123095300D02*
X127572000Y-123793300D01*
X127572000Y-123793300D02*
X127572000Y-125603000D01*
X147300200Y-92936300D02*
X147300200Y-96864400D01*
X147300200Y-96864400D02*
X134944600Y-109220000D01*
X134944600Y-109220000D02*
X134233400Y-109220000D01*
X134233400Y-109220000D02*
X128270000Y-115183400D01*
X128270000Y-115183400D02*
X128270000Y-121920000D01*
X149860000Y-43180000D02*
X149860000Y-44305300D01*
X149860000Y-97790000D02*
X149860000Y-96664700D01*
X141241400Y-65939300D02*
X140923000Y-66257700D01*
X140923000Y-66257700D02*
X140923000Y-83464700D01*
X140923000Y-83464700D02*
X148083300Y-90625000D01*
X148083300Y-90625000D02*
X148083300Y-95169300D01*
X148083300Y-95169300D02*
X149578700Y-96664700D01*
X149578700Y-96664700D02*
X149860000Y-96664700D01*
X149860000Y-49385300D02*
X149578700Y-49385300D01*
X149578700Y-49385300D02*
X141241400Y-57722600D01*
X141241400Y-57722600D02*
X141241400Y-65939300D01*
X130810000Y-121920000D02*
X130810000Y-120744700D01*
X149860000Y-97790000D02*
X135889100Y-111760900D01*
X135889100Y-111760900D02*
X135889100Y-115665600D01*
X135889100Y-115665600D02*
X130810000Y-120744700D01*
X149860000Y-48260000D02*
X149860000Y-49385300D01*
X130112000Y-124261700D02*
X130810000Y-123563700D01*
X130810000Y-123563700D02*
X130810000Y-121920000D01*
X130112000Y-125603000D02*
X130112000Y-124261700D01*
X151454000Y-87630000D02*
X151454000Y-100362300D01*
X151454000Y-100362300D02*
X150216300Y-101600000D01*
X150216300Y-101600000D02*
X147811700Y-101600000D01*
X147811700Y-101600000D02*
X137065300Y-112346400D01*
X137065300Y-112346400D02*
X137065300Y-119569400D01*
X137065300Y-119569400D02*
X135890000Y-120744700D01*
X151454000Y-87630000D02*
X153978800Y-85105200D01*
X153978800Y-85105200D02*
X153978800Y-43163700D01*
X153978800Y-43163700D02*
X150040400Y-39225300D01*
X150040400Y-39225300D02*
X149860000Y-39225300D01*
X150985300Y-87630000D02*
X151454000Y-87630000D01*
X149860000Y-87630000D02*
X150985300Y-87630000D01*
X135890000Y-121920000D02*
X135890000Y-120744700D01*
X136017000Y-125603000D02*
X135890000Y-125476000D01*
X135890000Y-125476000D02*
X135890000Y-121920000D01*
X149860000Y-38100000D02*
X149860000Y-39225300D01*
X133350000Y-121920000D02*
X133350000Y-120744700D01*
X149860000Y-90170000D02*
X149860000Y-91295300D01*
X149860000Y-91295300D02*
X150141300Y-91295300D01*
X150141300Y-91295300D02*
X151003600Y-92157600D01*
X151003600Y-92157600D02*
X151003600Y-98275700D01*
X151003600Y-98275700D02*
X150219300Y-99060000D01*
X150219300Y-99060000D02*
X149538400Y-99060000D01*
X149538400Y-99060000D02*
X136339500Y-112258900D01*
X136339500Y-112258900D02*
X136339500Y-117755200D01*
X136339500Y-117755200D02*
X133350000Y-120744700D01*
X133477000Y-125603000D02*
X133350000Y-125476000D01*
X133350000Y-125476000D02*
X133350000Y-121920000D01*
X113565400Y-53260700D02*
X114639100Y-54334400D01*
X114639100Y-54334400D02*
X114639100Y-71088800D01*
X114639100Y-71088800D02*
X115131600Y-71581300D01*
X134620000Y-85090000D02*
X134620000Y-83964700D01*
X134620000Y-83964700D02*
X134338600Y-83964700D01*
X134338600Y-83964700D02*
X133494700Y-83120800D01*
X133494700Y-83120800D02*
X133494700Y-79266400D01*
X133494700Y-79266400D02*
X128318000Y-74089700D01*
X138557000Y-125603000D02*
X138430000Y-125476000D01*
X138430000Y-125476000D02*
X138430000Y-121920000D01*
X125730000Y-75492600D02*
X124604600Y-74367200D01*
X124604600Y-74367200D02*
X124604600Y-51999000D01*
X124604600Y-51999000D02*
X122880200Y-50274600D01*
X122880200Y-50274600D02*
X121066600Y-50274600D01*
X125730000Y-75492600D02*
X125730000Y-76055300D01*
X125730000Y-74930000D02*
X125730000Y-75492600D01*
X134620000Y-87630000D02*
X134620000Y-86504700D01*
X134620000Y-86504700D02*
X134398700Y-86504700D01*
X134398700Y-86504700D02*
X133044300Y-85150300D01*
X133044300Y-85150300D02*
X133044300Y-83185900D01*
X133044300Y-83185900D02*
X125913700Y-76055300D01*
X125913700Y-76055300D02*
X125730000Y-76055300D01*
X141097000Y-125603000D02*
X140970000Y-125476000D01*
X140970000Y-125476000D02*
X140970000Y-121920000D01*
X146903200Y-103584100D02*
X143510000Y-106977300D01*
X143510000Y-106977300D02*
X143510000Y-121920000D01*
X134620000Y-40640000D02*
X136350400Y-42370400D01*
X136350400Y-42370400D02*
X136350400Y-91236000D01*
X134620000Y-90170000D02*
X134620000Y-89044700D01*
X125730000Y-77470000D02*
X125730000Y-78595300D01*
X125730000Y-78595300D02*
X125906800Y-78595300D01*
X125906800Y-78595300D02*
X126855300Y-79543800D01*
X126855300Y-79543800D02*
X126855300Y-79819400D01*
X126855300Y-79819400D02*
X133494700Y-86458800D01*
X133494700Y-86458800D02*
X133494700Y-88200800D01*
X133494700Y-88200800D02*
X134338600Y-89044700D01*
X134338600Y-89044700D02*
X134620000Y-89044700D01*
X143637000Y-125603000D02*
X143510000Y-125476000D01*
X143510000Y-125476000D02*
X143510000Y-121920000D01*
X134620000Y-43180000D02*
X134620000Y-42054700D01*
X134620000Y-42054700D02*
X134338700Y-42054700D01*
X134338700Y-42054700D02*
X133480700Y-41196700D01*
X133480700Y-41196700D02*
X133480700Y-40184400D01*
X133480700Y-40184400D02*
X134160100Y-39505000D01*
X134160100Y-39505000D02*
X145124000Y-39505000D01*
X145124000Y-39505000D02*
X147710600Y-36918400D01*
X147710600Y-36918400D02*
X150283800Y-36918400D01*
X150283800Y-36918400D02*
X151019400Y-37654000D01*
X151019400Y-37654000D02*
X151019400Y-39567300D01*
X151019400Y-39567300D02*
X154462300Y-43010200D01*
X154462300Y-43010200D02*
X154462300Y-99885600D01*
X154462300Y-99885600D02*
X150207900Y-104140000D01*
X150207900Y-104140000D02*
X149315500Y-104140000D01*
X149315500Y-104140000D02*
X146767100Y-106688400D01*
X146767100Y-106688400D02*
X146050000Y-107405500D01*
X146050000Y-107405500D02*
X146050000Y-121920000D01*
X125730000Y-80010000D02*
X125730000Y-81135300D01*
X134620000Y-92710000D02*
X134620000Y-91584700D01*
X134620000Y-91584700D02*
X134338700Y-91584700D01*
X134338700Y-91584700D02*
X130651700Y-87897700D01*
X130651700Y-87897700D02*
X130651700Y-85810900D01*
X130651700Y-85810900D02*
X125976100Y-81135300D01*
X125976100Y-81135300D02*
X125730000Y-81135300D01*
X146177000Y-125603000D02*
X146050000Y-125476000D01*
X146050000Y-125476000D02*
X146050000Y-121920000D01*
X134600700Y-94342200D02*
X130201300Y-89942900D01*
X130201300Y-89942900D02*
X130201300Y-87865300D01*
X130201300Y-87865300D02*
X126011300Y-83675300D01*
X126011300Y-83675300D02*
X125730000Y-83675300D01*
X134620000Y-94687300D02*
X134620000Y-94361600D01*
X134620000Y-94361600D02*
X134600700Y-94342200D01*
X134620000Y-46845300D02*
X134901400Y-46845300D01*
X134901400Y-46845300D02*
X135745300Y-47689200D01*
X135745300Y-47689200D02*
X135745300Y-90815400D01*
X135745300Y-90815400D02*
X135558600Y-91002100D01*
X135558600Y-91002100D02*
X135558600Y-91615300D01*
X135558600Y-91615300D02*
X135745300Y-91802000D01*
X135745300Y-91802000D02*
X135745300Y-93197600D01*
X135745300Y-93197600D02*
X134600700Y-94342200D01*
X125730000Y-82550000D02*
X125730000Y-83675300D01*
X134620000Y-45720000D02*
X134620000Y-46845300D01*
X134620000Y-95250000D02*
X134620000Y-94687300D01*
X148717000Y-125603000D02*
X148590000Y-125476000D01*
X148590000Y-125476000D02*
X148590000Y-121920000D01*
X151130000Y-121920000D02*
X151130000Y-120744700D01*
X147953200Y-113511000D02*
X147953200Y-117567900D01*
X147953200Y-117567900D02*
X151130000Y-120744700D01*
X134620000Y-97508600D02*
X136355200Y-99243800D01*
X136355200Y-99243800D02*
X136355200Y-100295700D01*
X134620000Y-97508600D02*
X134620000Y-97227300D01*
X134620000Y-97790000D02*
X134620000Y-97508600D01*
X134620000Y-96664700D02*
X134901300Y-96664700D01*
X134901300Y-96664700D02*
X137075700Y-94490300D01*
X137075700Y-94490300D02*
X137075700Y-90935500D01*
X137075700Y-90935500D02*
X136822400Y-90682200D01*
X136822400Y-90682200D02*
X136822400Y-50314800D01*
X136822400Y-50314800D02*
X137225600Y-49911600D01*
X125730000Y-85090000D02*
X125730000Y-86215300D01*
X134620000Y-97227300D02*
X127381800Y-89989100D01*
X127381800Y-89989100D02*
X127381800Y-87585800D01*
X127381800Y-87585800D02*
X126011300Y-86215300D01*
X126011300Y-86215300D02*
X125730000Y-86215300D01*
X134620000Y-97227300D02*
X134620000Y-96664700D01*
X151257000Y-125603000D02*
X151130000Y-125476000D01*
X151130000Y-125476000D02*
X151130000Y-121920000D01*
X125730000Y-87859100D02*
X124084100Y-86213200D01*
X124084100Y-86213200D02*
X124084100Y-53091500D01*
X124084100Y-53091500D02*
X123516200Y-52523600D01*
X125730000Y-87859100D02*
X125730000Y-88088200D01*
X125730000Y-87630000D02*
X125730000Y-87859100D01*
X125730000Y-88192600D02*
X125730000Y-88755300D01*
X125730000Y-88192600D02*
X125730000Y-88088200D01*
X153670000Y-121920000D02*
X153670000Y-123095300D01*
X153797000Y-125603000D02*
X153797000Y-123222300D01*
X153797000Y-123222300D02*
X153670000Y-123095300D01*
X134620000Y-100330000D02*
X134620000Y-99204700D01*
X125730000Y-88755300D02*
X125906800Y-88755300D01*
X125906800Y-88755300D02*
X126855300Y-89703800D01*
X126855300Y-89703800D02*
X126855300Y-91429000D01*
X126855300Y-91429000D02*
X133494700Y-98068400D01*
X133494700Y-98068400D02*
X133494700Y-98360800D01*
X133494700Y-98360800D02*
X134338600Y-99204700D01*
X134338600Y-99204700D02*
X134620000Y-99204700D01*
X122987900Y-88455100D02*
X122445300Y-87912500D01*
X122445300Y-87912500D02*
X122445300Y-57428500D01*
X122445300Y-57428500D02*
X123073000Y-56800800D01*
X125730000Y-90170000D02*
X125730000Y-91295300D01*
X134620000Y-102870000D02*
X134620000Y-101744700D01*
X134620000Y-101744700D02*
X134338700Y-101744700D01*
X134338700Y-101744700D02*
X133044300Y-100450300D01*
X133044300Y-100450300D02*
X133044300Y-98343800D01*
X133044300Y-98343800D02*
X125995800Y-91295300D01*
X125995800Y-91295300D02*
X125730000Y-91295300D01*
X156337000Y-125603000D02*
X156337000Y-124261700D01*
X156337000Y-124261700D02*
X156210000Y-124134700D01*
X156210000Y-124134700D02*
X156210000Y-121920000D01*
D24*
X104140000Y-111125000D02*
X104140000Y-109924700D01*
X110490000Y-105410000D02*
X109289700Y-105410000D01*
X109289700Y-105410000D02*
X104775000Y-109924700D01*
X104775000Y-109924700D02*
X104140000Y-109924700D01*
X149860000Y-33020000D02*
X149860000Y-34220300D01*
X149860000Y-34220300D02*
X150235100Y-34220300D01*
X150235100Y-34220300D02*
X152400000Y-36385200D01*
X152400000Y-36385200D02*
X152400000Y-36830000D01*
X149860000Y-33020000D02*
X149860000Y-30480000D01*
X102235000Y-82550000D02*
X102235000Y-83750300D01*
X102235000Y-83750300D02*
X102760300Y-83750300D01*
X102760300Y-83750300D02*
X106680000Y-87670000D01*
X102235000Y-82550000D02*
X102235000Y-79375000D01*
X96520000Y-60960000D02*
X100935400Y-65375400D01*
X100935400Y-65375400D02*
X100935400Y-78075400D01*
X100935400Y-78075400D02*
X102235000Y-79375000D01*
X125730000Y-105410000D02*
X125730000Y-102870000D01*
X104140000Y-111125000D02*
X104140000Y-113665000D01*
X84836000Y-30960000D02*
X84836000Y-32122300D01*
X84836000Y-32122300D02*
X83517300Y-32122300D01*
X83517300Y-32122300D02*
X82510000Y-31115000D01*
D23*
X81915000Y-86995000D02*
X81915000Y-88120300D01*
X81915000Y-88120300D02*
X82994500Y-89199800D01*
X82994500Y-89199800D02*
X82994500Y-92964000D01*
X82994500Y-92964000D02*
X82994500Y-96964500D01*
X82994500Y-96964500D02*
X83185000Y-97155000D01*
X81915000Y-83185000D02*
X81915000Y-84310300D01*
X81915000Y-84310300D02*
X87874500Y-90269800D01*
X87874500Y-90269800D02*
X87874500Y-92964000D01*
X87874500Y-92964000D02*
X87630000Y-93208500D01*
X87630000Y-93208500D02*
X87630000Y-97155000D01*
X92456000Y-36350000D02*
X92456000Y-35262700D01*
X92456000Y-35262700D02*
X94277300Y-35262700D01*
X94277300Y-35262700D02*
X97790000Y-31750000D01*
X97790000Y-36630000D02*
X101800000Y-36630000D01*
X101800000Y-36630000D02*
X102235000Y-36195000D01*
X93726000Y-37437300D02*
X96982700Y-37437300D01*
X96982700Y-37437300D02*
X97790000Y-36630000D01*
X93726000Y-36350000D02*
X93726000Y-37437300D01*
X88646000Y-36350000D02*
X88646000Y-35262700D01*
X82550000Y-36195000D02*
X83482300Y-35262700D01*
X83482300Y-35262700D02*
X88646000Y-35262700D01*
X87819500Y-42069500D02*
X87819500Y-54069500D01*
X89916000Y-36350000D02*
X89916000Y-46196000D01*
X89916000Y-46196000D02*
X90519500Y-46799500D01*
X91186000Y-36350000D02*
X91186000Y-45466000D01*
X91186000Y-45466000D02*
X92519500Y-46799500D01*
X94615000Y-86995000D02*
X94615000Y-87630000D01*
X94615000Y-85090000D02*
X94615000Y-86995000D01*
X94615000Y-86995000D02*
X89535000Y-86995000D01*
X89535000Y-83185000D02*
X89535000Y-86995000D01*
X110490000Y-102870000D02*
X110490000Y-101744700D01*
X104140000Y-46355000D02*
X104140000Y-47480300D01*
X107638300Y-89122200D02*
X107808500Y-88952000D01*
X107808500Y-88952000D02*
X107808500Y-87185100D01*
X107808500Y-87185100D02*
X103744800Y-83121400D01*
X103744800Y-83121400D02*
X103744800Y-74831700D01*
X103744800Y-74831700D02*
X101832800Y-72919700D01*
X101832800Y-72919700D02*
X101832800Y-49787500D01*
X101832800Y-49787500D02*
X104140000Y-47480300D01*
X110490000Y-101744700D02*
X110208700Y-101744700D01*
X110208700Y-101744700D02*
X107560100Y-99096100D01*
X107560100Y-99096100D02*
X107560100Y-98359900D01*
X103020000Y-66040000D02*
X105157200Y-68177200D01*
X105157200Y-68177200D02*
X105157200Y-83034100D01*
X105157200Y-83034100D02*
X108402600Y-86279500D01*
X108402600Y-86279500D02*
X108960400Y-86279500D01*
X103020000Y-66040000D02*
X104140000Y-64920000D01*
X104140000Y-64920000D02*
X104140000Y-60960000D01*
X125730000Y-100330000D02*
X125730000Y-99204700D01*
X124184400Y-95367000D02*
X124184400Y-97940400D01*
X124184400Y-97940400D02*
X125448700Y-99204700D01*
X125448700Y-99204700D02*
X125730000Y-99204700D01*
X110490000Y-113030000D02*
X110490000Y-114155300D01*
X110490000Y-114155300D02*
X108219600Y-116425700D01*
X108219600Y-116425700D02*
X108219600Y-116583300D01*
X94615000Y-92710000D02*
X94615000Y-93835300D01*
X90951300Y-113732300D02*
X90243900Y-113024900D01*
X90243900Y-113024900D02*
X90243900Y-100353600D01*
X90243900Y-100353600D02*
X93489700Y-97107800D01*
X93489700Y-97107800D02*
X93489700Y-94679200D01*
X93489700Y-94679200D02*
X94333600Y-93835300D01*
X94333600Y-93835300D02*
X94615000Y-93835300D01*
X110490000Y-38100000D02*
X110490000Y-39225300D01*
X110490000Y-77470000D02*
X110490000Y-76344700D01*
X110490000Y-76344700D02*
X110771300Y-76344700D01*
X110771300Y-76344700D02*
X111615300Y-75500700D01*
X111615300Y-75500700D02*
X111615300Y-40069200D01*
X111615300Y-40069200D02*
X110771400Y-39225300D01*
X110771400Y-39225300D02*
X110490000Y-39225300D01*
X110490000Y-35560000D02*
X110490000Y-38100000D01*
X110490000Y-48260000D02*
X109364700Y-48260000D01*
X108213000Y-73409300D02*
X109364700Y-72257600D01*
X109364700Y-72257600D02*
X109364700Y-48260000D01*
X122877000Y-96313100D02*
X121613000Y-95049100D01*
X121613000Y-95049100D02*
X121613000Y-82678600D01*
X87376000Y-36350000D02*
X87376000Y-39047200D01*
X87376000Y-39047200D02*
X86137000Y-40286200D01*
X86137000Y-40286200D02*
X86137000Y-54830300D01*
X86137000Y-54830300D02*
X87067700Y-55761000D01*
X87067700Y-55761000D02*
X92640300Y-55761000D01*
X92640300Y-55761000D02*
X105221300Y-43180000D01*
X105221300Y-43180000D02*
X110490000Y-43180000D01*
X93726000Y-30960000D02*
X93726000Y-29872700D01*
X93726000Y-29872700D02*
X97504300Y-29872700D01*
X97504300Y-29872700D02*
X108271600Y-40640000D01*
X108271600Y-40640000D02*
X110490000Y-40640000D01*
X110490000Y-33020000D02*
X109364700Y-33020000D01*
X81381200Y-36620500D02*
X81381200Y-30628100D01*
X81381200Y-30628100D02*
X82598700Y-29410600D01*
X82598700Y-29410600D02*
X99012400Y-29410600D01*
X99012400Y-29410600D02*
X100612200Y-31010400D01*
X100612200Y-31010400D02*
X107355100Y-31010400D01*
X107355100Y-31010400D02*
X109364700Y-33020000D01*
X81280000Y-36721700D02*
X81381200Y-36620500D01*
X81280000Y-39370000D02*
X81280000Y-36721700D01*
X85090000Y-39370000D02*
X81280000Y-39370000D01*
X86106000Y-36350000D02*
X86106000Y-38354000D01*
X86106000Y-38354000D02*
X85090000Y-39370000D01*
X96520000Y-103505000D02*
X96520000Y-104630300D01*
X96520000Y-104630300D02*
X97254000Y-104630300D01*
X97254000Y-104630300D02*
X98598000Y-105974300D01*
X125730000Y-109364700D02*
X125448700Y-109364700D01*
X125448700Y-109364700D02*
X123602300Y-107518300D01*
X123602300Y-107518300D02*
X123602300Y-96012600D01*
X123602300Y-96012600D02*
X123413600Y-95823900D01*
X123413600Y-95823900D02*
X123413600Y-89055200D01*
X123413600Y-89055200D02*
X123713200Y-88755600D01*
X123713200Y-88755600D02*
X123713200Y-88154600D01*
X123713200Y-88154600D02*
X123223100Y-87664500D01*
X123223100Y-87664500D02*
X123223100Y-61645100D01*
X125730000Y-110490000D02*
X125730000Y-109364700D01*
X93980000Y-103505000D02*
X93980000Y-104630300D01*
X93980000Y-104630300D02*
X91440000Y-107170300D01*
X91440000Y-107170300D02*
X91440000Y-111125000D01*
X149860000Y-45720000D02*
X149860000Y-46845300D01*
X149860000Y-95250000D02*
X149860000Y-94124700D01*
X149860000Y-94124700D02*
X149578700Y-94124700D01*
X149578700Y-94124700D02*
X148734600Y-93280600D01*
X148734600Y-93280600D02*
X148734600Y-87156500D01*
X148734600Y-87156500D02*
X149531100Y-86360000D01*
X149531100Y-86360000D02*
X150200800Y-86360000D01*
X150200800Y-86360000D02*
X153528400Y-83032400D01*
X153528400Y-83032400D02*
X153528400Y-50232400D01*
X153528400Y-50232400D02*
X150141300Y-46845300D01*
X150141300Y-46845300D02*
X149860000Y-46845300D01*
X136191600Y-106561900D02*
X136353300Y-106561900D01*
X136353300Y-106561900D02*
X146280200Y-96635000D01*
X146280200Y-96635000D02*
X146280200Y-92514500D01*
X149860000Y-50800000D02*
X149860000Y-51925300D01*
X149860000Y-80010000D02*
X149860000Y-78884700D01*
X149860000Y-78884700D02*
X150141300Y-78884700D01*
X150141300Y-78884700D02*
X150985300Y-78040700D01*
X150985300Y-78040700D02*
X150985300Y-52769200D01*
X150985300Y-52769200D02*
X150141400Y-51925300D01*
X150141400Y-51925300D02*
X149860000Y-51925300D01*
X99060000Y-103505000D02*
X99060000Y-104630300D01*
X99060000Y-111125000D02*
X99060000Y-109999700D01*
X99060000Y-109999700D02*
X99323300Y-109736400D01*
X99323300Y-109736400D02*
X99323300Y-104893600D01*
X99323300Y-104893600D02*
X99060000Y-104630300D01*
D25*
G36*
X82523852Y-28650600D02*
X82523848Y-28650600D01*
X82302163Y-28694696D01*
X82050771Y-28862671D01*
X82008371Y-28926127D01*
X80896728Y-30037771D01*
X80833272Y-30080171D01*
X80831004Y-30083566D01*
X80764005Y-29861136D01*
X80226777Y-29668035D01*
X79656546Y-29695222D01*
X79255995Y-29861136D01*
X79181861Y-30107255D01*
X80010000Y-30935395D01*
X80024142Y-30921252D01*
X80203748Y-31100858D01*
X80189605Y-31115000D01*
X80203748Y-31129142D01*
X80024142Y-31308748D01*
X80010000Y-31294605D01*
X79181861Y-32122745D01*
X79255995Y-32368864D01*
X79793223Y-32561965D01*
X80363454Y-32534778D01*
X80621201Y-32428016D01*
X80621200Y-34875429D01*
X80266777Y-34748035D01*
X79696546Y-34775222D01*
X79295995Y-34941136D01*
X79221861Y-35187255D01*
X80050000Y-36015395D01*
X80064142Y-36001252D01*
X80243748Y-36180858D01*
X80229605Y-36195000D01*
X80243748Y-36209142D01*
X80064143Y-36388748D01*
X80050000Y-36374605D01*
X79221861Y-37202745D01*
X79295995Y-37448864D01*
X79833223Y-37641965D01*
X80403454Y-37614778D01*
X80520001Y-37566503D01*
X80520000Y-39295148D01*
X80505111Y-39370000D01*
X80564096Y-39666537D01*
X80696779Y-39865111D01*
X80732071Y-39917929D01*
X80983463Y-40085904D01*
X81280000Y-40144889D01*
X81354852Y-40130000D01*
X85015153Y-40130000D01*
X85090000Y-40144888D01*
X85164847Y-40130000D01*
X85164852Y-40130000D01*
X85386537Y-40085904D01*
X85404316Y-40074025D01*
X85377000Y-40211349D01*
X85377000Y-40211353D01*
X85362112Y-40286200D01*
X85377000Y-40361047D01*
X85377001Y-54755448D01*
X85362112Y-54830300D01*
X85421097Y-55126837D01*
X85538558Y-55302629D01*
X85589072Y-55378229D01*
X85652528Y-55420629D01*
X86477371Y-56245473D01*
X86519771Y-56308929D01*
X86771163Y-56476904D01*
X86992848Y-56521000D01*
X86992852Y-56521000D01*
X87067700Y-56535888D01*
X87142548Y-56521000D01*
X92565453Y-56521000D01*
X92640300Y-56535888D01*
X92715147Y-56521000D01*
X92715152Y-56521000D01*
X92936837Y-56476904D01*
X93188229Y-56308929D01*
X93230631Y-56245470D01*
X102750587Y-46725515D01*
X102788260Y-46914909D01*
X103105423Y-47389577D01*
X103135694Y-47409804D01*
X101348328Y-49197171D01*
X101284872Y-49239571D01*
X101242472Y-49303027D01*
X101242471Y-49303028D01*
X101116897Y-49490963D01*
X101057912Y-49787500D01*
X101072801Y-49862352D01*
X101072800Y-64331932D01*
X97955000Y-61214133D01*
X97955000Y-60674561D01*
X97736534Y-60147138D01*
X97332862Y-59743466D01*
X96805439Y-59525000D01*
X96234561Y-59525000D01*
X95707138Y-59743466D01*
X95303466Y-60147138D01*
X95085000Y-60674561D01*
X95085000Y-61245439D01*
X95303466Y-61772862D01*
X95707138Y-62176534D01*
X96234561Y-62395000D01*
X96774133Y-62395000D01*
X100100400Y-65721268D01*
X100100401Y-77981456D01*
X99951777Y-77928035D01*
X99381546Y-77955222D01*
X98980995Y-78121136D01*
X98906861Y-78367255D01*
X99735000Y-79195395D01*
X99749143Y-79181253D01*
X99928748Y-79360858D01*
X99914605Y-79375000D01*
X100742745Y-80203139D01*
X100988864Y-80129005D01*
X100991290Y-80122254D01*
X101018466Y-80187862D01*
X101400001Y-80569397D01*
X101400000Y-81382070D01*
X101200423Y-81515423D01*
X100883260Y-81990091D01*
X100771887Y-82550000D01*
X100883260Y-83109909D01*
X101200423Y-83584577D01*
X101391244Y-83712080D01*
X101383642Y-83750300D01*
X101415720Y-83911566D01*
X101200423Y-84055423D01*
X100883260Y-84530091D01*
X100771887Y-85090000D01*
X100883260Y-85649909D01*
X101200423Y-86124577D01*
X101552758Y-86360000D01*
X101200423Y-86595423D01*
X100883260Y-87070091D01*
X100771887Y-87630000D01*
X100883260Y-88189909D01*
X101200423Y-88664577D01*
X101552758Y-88900000D01*
X101200423Y-89135423D01*
X100883260Y-89610091D01*
X100771887Y-90170000D01*
X100883260Y-90729909D01*
X101200423Y-91204577D01*
X101552758Y-91440000D01*
X101200423Y-91675423D01*
X100883260Y-92150091D01*
X100771887Y-92710000D01*
X100883260Y-93269909D01*
X101137377Y-93650221D01*
X94765528Y-100022071D01*
X94702072Y-100064471D01*
X94659672Y-100127927D01*
X94659671Y-100127928D01*
X94534097Y-100315863D01*
X94475112Y-100612400D01*
X94490001Y-100687252D01*
X94490001Y-102143333D01*
X94121333Y-102070000D01*
X93838667Y-102070000D01*
X93420091Y-102153260D01*
X92945423Y-102470423D01*
X92710000Y-102822758D01*
X92474577Y-102470423D01*
X91999909Y-102153260D01*
X91581333Y-102070000D01*
X91298667Y-102070000D01*
X91003900Y-102128633D01*
X91003900Y-100668401D01*
X93313938Y-98358365D01*
X93383959Y-98527423D01*
X93759866Y-98942389D01*
X94265959Y-99181914D01*
X94488000Y-99060629D01*
X94488000Y-97917000D01*
X94742000Y-97917000D01*
X94742000Y-99060629D01*
X94964041Y-99181914D01*
X95470134Y-98942389D01*
X95846041Y-98527423D01*
X96006904Y-98139039D01*
X95884915Y-97917000D01*
X94742000Y-97917000D01*
X94488000Y-97917000D01*
X94468000Y-97917000D01*
X94468000Y-97663000D01*
X94488000Y-97663000D01*
X94488000Y-97643000D01*
X94742000Y-97643000D01*
X94742000Y-97663000D01*
X95884915Y-97663000D01*
X96006904Y-97440961D01*
X95846041Y-97052577D01*
X95470134Y-96637611D01*
X95265892Y-96540947D01*
X95649577Y-96284577D01*
X95966740Y-95809909D01*
X96078113Y-95250000D01*
X95966740Y-94690091D01*
X95649577Y-94215423D01*
X95353614Y-94017667D01*
X95370896Y-93930786D01*
X95649577Y-93744577D01*
X95966740Y-93269909D01*
X96078113Y-92710000D01*
X95966740Y-92150091D01*
X95649577Y-91675423D01*
X95297242Y-91440000D01*
X95649577Y-91204577D01*
X95966740Y-90729909D01*
X96078113Y-90170000D01*
X95966740Y-89610091D01*
X95649577Y-89135423D01*
X95297242Y-88900000D01*
X95649577Y-88664577D01*
X95966740Y-88189909D01*
X96078113Y-87630000D01*
X95966740Y-87070091D01*
X95649577Y-86595423D01*
X95375000Y-86411957D01*
X95375000Y-86308043D01*
X95649577Y-86124577D01*
X95966740Y-85649909D01*
X96078113Y-85090000D01*
X95966740Y-84530091D01*
X95649577Y-84055423D01*
X95528894Y-83974785D01*
X95662765Y-83948157D01*
X95872809Y-83807809D01*
X96013157Y-83597765D01*
X96062440Y-83350000D01*
X96062440Y-81750000D01*
X96013157Y-81502235D01*
X95872809Y-81292191D01*
X95662765Y-81151843D01*
X95415000Y-81102560D01*
X93815000Y-81102560D01*
X93567235Y-81151843D01*
X93357191Y-81292191D01*
X93216843Y-81502235D01*
X93167560Y-81750000D01*
X93167560Y-83350000D01*
X93216843Y-83597765D01*
X93357191Y-83807809D01*
X93567235Y-83948157D01*
X93701106Y-83974785D01*
X93580423Y-84055423D01*
X93263260Y-84530091D01*
X93151887Y-85090000D01*
X93263260Y-85649909D01*
X93580423Y-86124577D01*
X93745683Y-86235000D01*
X90773430Y-86235000D01*
X90751534Y-86182138D01*
X90347862Y-85778466D01*
X90295000Y-85756570D01*
X90295000Y-84423430D01*
X90347862Y-84401534D01*
X90751534Y-83997862D01*
X90970000Y-83470439D01*
X90970000Y-82899561D01*
X90751534Y-82372138D01*
X90347862Y-81968466D01*
X89820439Y-81750000D01*
X89249561Y-81750000D01*
X88722138Y-81968466D01*
X88318466Y-82372138D01*
X88100000Y-82899561D01*
X88100000Y-83470439D01*
X88318466Y-83997862D01*
X88722138Y-84401534D01*
X88775000Y-84423430D01*
X88775001Y-85756570D01*
X88722138Y-85778466D01*
X88318466Y-86182138D01*
X88100000Y-86709561D01*
X88100000Y-87280439D01*
X88318466Y-87807862D01*
X88722138Y-88211534D01*
X89249561Y-88430000D01*
X89820439Y-88430000D01*
X90347862Y-88211534D01*
X90751534Y-87807862D01*
X90773430Y-87755000D01*
X93176751Y-87755000D01*
X93263260Y-88189909D01*
X93580423Y-88664577D01*
X93932758Y-88900000D01*
X93580423Y-89135423D01*
X93263260Y-89610091D01*
X93151887Y-90170000D01*
X93263260Y-90729909D01*
X93580423Y-91204577D01*
X93932758Y-91440000D01*
X93580423Y-91675423D01*
X93263260Y-92150091D01*
X93151887Y-92710000D01*
X93263260Y-93269909D01*
X93487937Y-93606162D01*
X93005228Y-94088871D01*
X92941772Y-94131271D01*
X92899372Y-94194727D01*
X92899371Y-94194728D01*
X92773797Y-94382663D01*
X92714812Y-94679200D01*
X92729701Y-94754052D01*
X92729700Y-96792997D01*
X89759428Y-99763271D01*
X89695972Y-99805671D01*
X89653572Y-99869127D01*
X89653571Y-99869128D01*
X89527997Y-100057063D01*
X89469012Y-100353600D01*
X89483901Y-100428452D01*
X89483901Y-102210372D01*
X89249039Y-102113096D01*
X89027000Y-102235085D01*
X89027000Y-103378000D01*
X89047000Y-103378000D01*
X89047000Y-103632000D01*
X89027000Y-103632000D01*
X89027000Y-104774915D01*
X89249039Y-104896904D01*
X89483901Y-104799628D01*
X89483900Y-109789290D01*
X89459909Y-109773260D01*
X89041333Y-109690000D01*
X88758667Y-109690000D01*
X88340091Y-109773260D01*
X87865423Y-110090423D01*
X87548260Y-110565091D01*
X87436887Y-111125000D01*
X87548260Y-111684909D01*
X87865423Y-112159577D01*
X88340091Y-112476740D01*
X88758667Y-112560000D01*
X89041333Y-112560000D01*
X89459909Y-112476740D01*
X89483900Y-112460710D01*
X89483900Y-112950053D01*
X89469012Y-113024900D01*
X89483900Y-113099747D01*
X89483900Y-113099751D01*
X89527996Y-113321436D01*
X89695971Y-113572829D01*
X89759430Y-113615231D01*
X89916300Y-113772101D01*
X89916300Y-113938174D01*
X90073869Y-114318580D01*
X90365020Y-114609731D01*
X90745426Y-114767300D01*
X91157174Y-114767300D01*
X91537580Y-114609731D01*
X91828731Y-114318580D01*
X91868301Y-114223050D01*
X91868301Y-115431597D01*
X87145528Y-120154371D01*
X87082072Y-120196771D01*
X87039673Y-120260226D01*
X87039671Y-120260228D01*
X86914097Y-120448163D01*
X86876430Y-120637525D01*
X86559375Y-120849375D01*
X86360000Y-121147761D01*
X86160625Y-120849375D01*
X85669418Y-120521161D01*
X85236256Y-120435000D01*
X84943744Y-120435000D01*
X84510582Y-120521161D01*
X84019375Y-120849375D01*
X83691161Y-121340582D01*
X83575908Y-121920000D01*
X83691161Y-122499418D01*
X84019375Y-122990625D01*
X84330001Y-123198178D01*
X84330000Y-124130773D01*
X84154784Y-124203350D01*
X83732677Y-124625457D01*
X83714107Y-124618498D01*
X82729605Y-125603000D01*
X83714107Y-126587502D01*
X83732677Y-126580543D01*
X84154784Y-127002650D01*
X84761596Y-127254000D01*
X85418404Y-127254000D01*
X86025216Y-127002650D01*
X86360000Y-126667866D01*
X86694784Y-127002650D01*
X87301596Y-127254000D01*
X87958404Y-127254000D01*
X88565216Y-127002650D01*
X88900000Y-126667866D01*
X89234784Y-127002650D01*
X89841596Y-127254000D01*
X90498404Y-127254000D01*
X91105216Y-127002650D01*
X91440000Y-126667866D01*
X91774784Y-127002650D01*
X92381596Y-127254000D01*
X93038404Y-127254000D01*
X93213621Y-127181423D01*
X93501771Y-127469573D01*
X93544171Y-127533029D01*
X93795563Y-127701004D01*
X94017248Y-127745100D01*
X94017252Y-127745100D01*
X94092100Y-127759988D01*
X94166948Y-127745100D01*
X157427953Y-127745100D01*
X157502800Y-127759988D01*
X157577647Y-127745100D01*
X157577652Y-127745100D01*
X157799337Y-127701004D01*
X158050729Y-127533029D01*
X158093131Y-127469570D01*
X158162870Y-127399831D01*
X158226329Y-127357429D01*
X158394304Y-127106037D01*
X158438400Y-126884352D01*
X158438400Y-126884347D01*
X158453288Y-126809500D01*
X158438400Y-126734653D01*
X158438400Y-119227246D01*
X158453288Y-119152399D01*
X158438400Y-119077552D01*
X158438400Y-119077548D01*
X158394304Y-118855863D01*
X158226329Y-118604471D01*
X158162873Y-118562071D01*
X150987023Y-111386222D01*
X151211740Y-111049909D01*
X151323113Y-110490000D01*
X151211740Y-109930091D01*
X150894577Y-109455423D01*
X150542242Y-109220000D01*
X150894577Y-108984577D01*
X151211740Y-108509909D01*
X151323113Y-107950000D01*
X151211740Y-107390091D01*
X150894577Y-106915423D01*
X150542242Y-106680000D01*
X150894577Y-106444577D01*
X151211740Y-105969909D01*
X151323113Y-105410000D01*
X151211740Y-104850091D01*
X150955740Y-104466961D01*
X152266951Y-103155750D01*
X157265000Y-103155750D01*
X157265000Y-103846310D01*
X157361673Y-104079699D01*
X157540302Y-104258327D01*
X157773691Y-104355000D01*
X158464250Y-104355000D01*
X158623000Y-104196250D01*
X158623000Y-102997000D01*
X158877000Y-102997000D01*
X158877000Y-104196250D01*
X159035750Y-104355000D01*
X159726309Y-104355000D01*
X159959698Y-104258327D01*
X160138327Y-104079699D01*
X160235000Y-103846310D01*
X160235000Y-103155750D01*
X160076250Y-102997000D01*
X158877000Y-102997000D01*
X158623000Y-102997000D01*
X157423750Y-102997000D01*
X157265000Y-103155750D01*
X152266951Y-103155750D01*
X154946773Y-100475929D01*
X155010229Y-100433529D01*
X155079404Y-100330000D01*
X157235908Y-100330000D01*
X157351161Y-100909418D01*
X157679375Y-101400625D01*
X157701033Y-101415096D01*
X157540302Y-101481673D01*
X157361673Y-101660301D01*
X157265000Y-101893690D01*
X157265000Y-102584250D01*
X157423750Y-102743000D01*
X158623000Y-102743000D01*
X158623000Y-102723000D01*
X158877000Y-102723000D01*
X158877000Y-102743000D01*
X160076250Y-102743000D01*
X160235000Y-102584250D01*
X160235000Y-101893690D01*
X160138327Y-101660301D01*
X159959698Y-101481673D01*
X159798967Y-101415096D01*
X159820625Y-101400625D01*
X160148839Y-100909418D01*
X160264092Y-100330000D01*
X160148839Y-99750582D01*
X159820625Y-99259375D01*
X159329418Y-98931161D01*
X158896256Y-98845000D01*
X158603744Y-98845000D01*
X158170582Y-98931161D01*
X157679375Y-99259375D01*
X157351161Y-99750582D01*
X157235908Y-100330000D01*
X155079404Y-100330000D01*
X155178204Y-100182137D01*
X155222300Y-99960452D01*
X155222300Y-99960448D01*
X155237188Y-99885601D01*
X155222300Y-99810754D01*
X155222300Y-43085047D01*
X155237188Y-43010200D01*
X155222300Y-42935353D01*
X155222300Y-42935348D01*
X155178204Y-42713663D01*
X155010229Y-42462271D01*
X154946773Y-42419871D01*
X153123430Y-40596529D01*
X153154005Y-40583864D01*
X153228139Y-40337745D01*
X152400000Y-39509605D01*
X152385858Y-39523748D01*
X152206253Y-39344143D01*
X152220395Y-39330000D01*
X152579605Y-39330000D01*
X153407745Y-40158139D01*
X153653864Y-40084005D01*
X153846965Y-39546777D01*
X153819778Y-38976546D01*
X153653864Y-38575995D01*
X153407745Y-38501861D01*
X152579605Y-39330000D01*
X152220395Y-39330000D01*
X152206252Y-39315858D01*
X152385858Y-39136252D01*
X152400000Y-39150395D01*
X153228139Y-38322255D01*
X153154005Y-38076136D01*
X153147254Y-38073710D01*
X153212862Y-38046534D01*
X153616534Y-37642862D01*
X153835000Y-37115439D01*
X153835000Y-36544561D01*
X153616534Y-36017138D01*
X153212862Y-35613466D01*
X152685439Y-35395000D01*
X152590668Y-35395000D01*
X151037037Y-33841370D01*
X151211740Y-33579909D01*
X151323113Y-33020000D01*
X151211740Y-32460091D01*
X150894577Y-31985423D01*
X150695000Y-31852070D01*
X150695000Y-31647930D01*
X150894577Y-31514577D01*
X151211740Y-31039909D01*
X151323113Y-30480000D01*
X151211740Y-29920091D01*
X150894577Y-29445423D01*
X150419909Y-29128260D01*
X150001333Y-29045000D01*
X149718667Y-29045000D01*
X149300091Y-29128260D01*
X148825423Y-29445423D01*
X148508260Y-29920091D01*
X148396887Y-30480000D01*
X148508260Y-31039909D01*
X148825423Y-31514577D01*
X149025001Y-31647930D01*
X149025000Y-31852070D01*
X148825423Y-31985423D01*
X148508260Y-32460091D01*
X148396887Y-33020000D01*
X148508260Y-33579909D01*
X148825423Y-34054577D01*
X149016244Y-34182080D01*
X149008642Y-34220300D01*
X149040720Y-34381566D01*
X148825423Y-34525423D01*
X148508260Y-35000091D01*
X148396887Y-35560000D01*
X148508260Y-36119909D01*
X148533979Y-36158400D01*
X147785448Y-36158400D01*
X147710600Y-36143512D01*
X147635752Y-36158400D01*
X147635748Y-36158400D01*
X147462205Y-36192920D01*
X147414062Y-36202496D01*
X147305330Y-36275149D01*
X147162671Y-36370471D01*
X147120271Y-36433927D01*
X144809199Y-38745000D01*
X135914884Y-38745000D01*
X135971740Y-38659909D01*
X136083113Y-38100000D01*
X135971740Y-37540091D01*
X135654577Y-37065423D01*
X135302242Y-36830000D01*
X135654577Y-36594577D01*
X135971740Y-36119909D01*
X136083113Y-35560000D01*
X135971740Y-35000091D01*
X135654577Y-34525423D01*
X135302242Y-34290000D01*
X135654577Y-34054577D01*
X135971740Y-33579909D01*
X136083113Y-33020000D01*
X135971740Y-32460091D01*
X135654577Y-31985423D01*
X135533894Y-31904785D01*
X135667765Y-31878157D01*
X135877809Y-31737809D01*
X136018157Y-31527765D01*
X136067440Y-31280000D01*
X136067440Y-29680000D01*
X136018157Y-29432235D01*
X135877809Y-29222191D01*
X135667765Y-29081843D01*
X135420000Y-29032560D01*
X133820000Y-29032560D01*
X133572235Y-29081843D01*
X133362191Y-29222191D01*
X133221843Y-29432235D01*
X133172560Y-29680000D01*
X133172560Y-31280000D01*
X133221843Y-31527765D01*
X133362191Y-31737809D01*
X133572235Y-31878157D01*
X133706106Y-31904785D01*
X133585423Y-31985423D01*
X133399214Y-32264104D01*
X133198163Y-32304096D01*
X132946771Y-32472071D01*
X132904371Y-32535527D01*
X132054599Y-33385300D01*
X127115169Y-33385300D01*
X127121904Y-33369039D01*
X126999915Y-33147000D01*
X125857000Y-33147000D01*
X125857000Y-33167000D01*
X125603000Y-33167000D01*
X125603000Y-33147000D01*
X124460085Y-33147000D01*
X124338096Y-33369039D01*
X124498959Y-33757423D01*
X124670885Y-33947213D01*
X112375300Y-46242799D01*
X112375300Y-40144048D01*
X112390188Y-40069200D01*
X112375300Y-39994352D01*
X112375300Y-39994348D01*
X112331204Y-39772663D01*
X112331204Y-39772662D01*
X112205629Y-39584727D01*
X112163229Y-39521271D01*
X112099773Y-39478871D01*
X111617063Y-38996162D01*
X111841740Y-38659909D01*
X111953113Y-38100000D01*
X111841740Y-37540091D01*
X111524577Y-37065423D01*
X111250000Y-36881957D01*
X111250000Y-36778043D01*
X111524577Y-36594577D01*
X111841740Y-36119909D01*
X111953113Y-35560000D01*
X111841740Y-35000091D01*
X111524577Y-34525423D01*
X111172242Y-34290000D01*
X111524577Y-34054577D01*
X111841740Y-33579909D01*
X111953113Y-33020000D01*
X111841740Y-32460091D01*
X111524577Y-31985423D01*
X111418082Y-31914265D01*
X111649698Y-31818327D01*
X111828327Y-31639699D01*
X111925000Y-31406310D01*
X111925000Y-30829039D01*
X124338096Y-30829039D01*
X124498959Y-31217423D01*
X124874866Y-31632389D01*
X125123367Y-31750000D01*
X124874866Y-31867611D01*
X124498959Y-32282577D01*
X124338096Y-32670961D01*
X124460085Y-32893000D01*
X125603000Y-32893000D01*
X125603000Y-30607000D01*
X125857000Y-30607000D01*
X125857000Y-32893000D01*
X126999915Y-32893000D01*
X127121904Y-32670961D01*
X126961041Y-32282577D01*
X126585134Y-31867611D01*
X126336633Y-31750000D01*
X126585134Y-31632389D01*
X126961041Y-31217423D01*
X127121904Y-30829039D01*
X126999915Y-30607000D01*
X125857000Y-30607000D01*
X125603000Y-30607000D01*
X124460085Y-30607000D01*
X124338096Y-30829039D01*
X111925000Y-30829039D01*
X111925000Y-30765750D01*
X111766250Y-30607000D01*
X110617000Y-30607000D01*
X110617000Y-30627000D01*
X110363000Y-30627000D01*
X110363000Y-30607000D01*
X109213750Y-30607000D01*
X109055000Y-30765750D01*
X109055000Y-31406310D01*
X109151673Y-31639699D01*
X109330302Y-31818327D01*
X109561918Y-31914265D01*
X109455423Y-31985423D01*
X109435196Y-32015694D01*
X107945431Y-30525930D01*
X107903029Y-30462471D01*
X107651637Y-30294496D01*
X107429952Y-30250400D01*
X107429947Y-30250400D01*
X107355100Y-30235512D01*
X107280253Y-30250400D01*
X103628544Y-30250400D01*
X103681965Y-30101777D01*
X103655834Y-29553690D01*
X109055000Y-29553690D01*
X109055000Y-30194250D01*
X109213750Y-30353000D01*
X110363000Y-30353000D01*
X110363000Y-29203750D01*
X110617000Y-29203750D01*
X110617000Y-30353000D01*
X111766250Y-30353000D01*
X111925000Y-30194250D01*
X111925000Y-30130961D01*
X124338096Y-30130961D01*
X124460085Y-30353000D01*
X125603000Y-30353000D01*
X125603000Y-29209371D01*
X125857000Y-29209371D01*
X125857000Y-30353000D01*
X126999915Y-30353000D01*
X127121904Y-30130961D01*
X126961041Y-29742577D01*
X126585134Y-29327611D01*
X126079041Y-29088086D01*
X125857000Y-29209371D01*
X125603000Y-29209371D01*
X125380959Y-29088086D01*
X124874866Y-29327611D01*
X124498959Y-29742577D01*
X124338096Y-30130961D01*
X111925000Y-30130961D01*
X111925000Y-29553690D01*
X111828327Y-29320301D01*
X111649698Y-29141673D01*
X111416309Y-29045000D01*
X110775750Y-29045000D01*
X110617000Y-29203750D01*
X110363000Y-29203750D01*
X110204250Y-29045000D01*
X109563691Y-29045000D01*
X109330302Y-29141673D01*
X109151673Y-29320301D01*
X109055000Y-29553690D01*
X103655834Y-29553690D01*
X103654778Y-29531546D01*
X103488864Y-29130995D01*
X103242745Y-29056861D01*
X102414605Y-29885000D01*
X102428748Y-29899143D01*
X102249143Y-30078748D01*
X102235000Y-30064605D01*
X102220858Y-30078748D01*
X102041253Y-29899143D01*
X102055395Y-29885000D01*
X101227255Y-29056861D01*
X100981136Y-29130995D01*
X100788035Y-29668223D01*
X100810224Y-30133622D01*
X99602731Y-28926130D01*
X99560329Y-28862671D01*
X99308937Y-28694696D01*
X99087252Y-28650600D01*
X99087247Y-28650600D01*
X99084230Y-28650000D01*
X101475313Y-28650000D01*
X101406861Y-28877255D01*
X102235000Y-29705395D01*
X103063139Y-28877255D01*
X102994687Y-28650000D01*
X158705334Y-28650000D01*
X159203698Y-28712958D01*
X159628893Y-28881305D01*
X159998858Y-29150101D01*
X160290356Y-29502462D01*
X160485067Y-29916244D01*
X160577093Y-30398662D01*
X160580000Y-30491164D01*
X160580001Y-137115326D01*
X160517042Y-137613699D01*
X160348697Y-138038889D01*
X160079899Y-138408859D01*
X159727541Y-138700355D01*
X159313756Y-138895067D01*
X158831339Y-138987093D01*
X158738836Y-138990000D01*
X78784667Y-138990000D01*
X78286301Y-138927042D01*
X77861111Y-138758697D01*
X77491141Y-138489899D01*
X77199645Y-138137541D01*
X77004933Y-137723756D01*
X76912907Y-137241339D01*
X76910000Y-137148836D01*
X76910000Y-136525000D01*
X81086887Y-136525000D01*
X81198260Y-137084909D01*
X81515423Y-137559577D01*
X81990091Y-137876740D01*
X82408667Y-137960000D01*
X82691333Y-137960000D01*
X83109909Y-137876740D01*
X83584577Y-137559577D01*
X83820000Y-137207242D01*
X84055423Y-137559577D01*
X84530091Y-137876740D01*
X84948667Y-137960000D01*
X85231333Y-137960000D01*
X85649909Y-137876740D01*
X86124577Y-137559577D01*
X86360000Y-137207242D01*
X86595423Y-137559577D01*
X87070091Y-137876740D01*
X87488667Y-137960000D01*
X87771333Y-137960000D01*
X88189909Y-137876740D01*
X88664577Y-137559577D01*
X88900000Y-137207242D01*
X89135423Y-137559577D01*
X89610091Y-137876740D01*
X90028667Y-137960000D01*
X90311333Y-137960000D01*
X90729909Y-137876740D01*
X91204577Y-137559577D01*
X91440000Y-137207242D01*
X91675423Y-137559577D01*
X92150091Y-137876740D01*
X92568667Y-137960000D01*
X92851333Y-137960000D01*
X93269909Y-137876740D01*
X93744577Y-137559577D01*
X93980000Y-137207242D01*
X94215423Y-137559577D01*
X94690091Y-137876740D01*
X95108667Y-137960000D01*
X95391333Y-137960000D01*
X95809909Y-137876740D01*
X96284577Y-137559577D01*
X96520000Y-137207242D01*
X96755423Y-137559577D01*
X97230091Y-137876740D01*
X97648667Y-137960000D01*
X97931333Y-137960000D01*
X98349909Y-137876740D01*
X98824577Y-137559577D01*
X99060000Y-137207242D01*
X99295423Y-137559577D01*
X99770091Y-137876740D01*
X100188667Y-137960000D01*
X100471333Y-137960000D01*
X100889909Y-137876740D01*
X101364577Y-137559577D01*
X101435734Y-137453083D01*
X101531673Y-137684699D01*
X101710302Y-137863327D01*
X101943691Y-137960000D01*
X102584250Y-137960000D01*
X102743000Y-137801250D01*
X102743000Y-136652000D01*
X102997000Y-136652000D01*
X102997000Y-137801250D01*
X103155750Y-137960000D01*
X103796309Y-137960000D01*
X104029698Y-137863327D01*
X104208327Y-137684699D01*
X104305000Y-137451310D01*
X104305000Y-136810750D01*
X104146250Y-136652000D01*
X102997000Y-136652000D01*
X102743000Y-136652000D01*
X102723000Y-136652000D01*
X102723000Y-136525000D01*
X108264887Y-136525000D01*
X108376260Y-137084909D01*
X108693423Y-137559577D01*
X109168091Y-137876740D01*
X109586667Y-137960000D01*
X109869333Y-137960000D01*
X110287909Y-137876740D01*
X110762577Y-137559577D01*
X110948786Y-137280896D01*
X111035667Y-137263614D01*
X111233423Y-137559577D01*
X111708091Y-137876740D01*
X112126667Y-137960000D01*
X112409333Y-137960000D01*
X112827909Y-137876740D01*
X113302577Y-137559577D01*
X113488786Y-137280896D01*
X113575667Y-137263614D01*
X113773423Y-137559577D01*
X114248091Y-137876740D01*
X114666667Y-137960000D01*
X114949333Y-137960000D01*
X115367909Y-137876740D01*
X115842577Y-137559577D01*
X116078000Y-137207242D01*
X116313423Y-137559577D01*
X116788091Y-137876740D01*
X117206667Y-137960000D01*
X117489333Y-137960000D01*
X117907909Y-137876740D01*
X118382577Y-137559577D01*
X118618000Y-137207242D01*
X118853423Y-137559577D01*
X119328091Y-137876740D01*
X119746667Y-137960000D01*
X120029333Y-137960000D01*
X120447909Y-137876740D01*
X120922577Y-137559577D01*
X121108786Y-137280896D01*
X121195667Y-137263614D01*
X121393423Y-137559577D01*
X121868091Y-137876740D01*
X122286667Y-137960000D01*
X122569333Y-137960000D01*
X122987909Y-137876740D01*
X123462577Y-137559577D01*
X123648786Y-137280896D01*
X123735667Y-137263614D01*
X123933423Y-137559577D01*
X124408091Y-137876740D01*
X124826667Y-137960000D01*
X125109333Y-137960000D01*
X125527909Y-137876740D01*
X126002577Y-137559577D01*
X126238000Y-137207242D01*
X126473423Y-137559577D01*
X126948091Y-137876740D01*
X127366667Y-137960000D01*
X127649333Y-137960000D01*
X128067909Y-137876740D01*
X128542577Y-137559577D01*
X128613734Y-137453083D01*
X128709673Y-137684699D01*
X128888302Y-137863327D01*
X129121691Y-137960000D01*
X129762250Y-137960000D01*
X129921000Y-137801250D01*
X129921000Y-136652000D01*
X130175000Y-136652000D01*
X130175000Y-137801250D01*
X130333750Y-137960000D01*
X130974309Y-137960000D01*
X131207698Y-137863327D01*
X131386327Y-137684699D01*
X131483000Y-137451310D01*
X131483000Y-136810750D01*
X131324250Y-136652000D01*
X130175000Y-136652000D01*
X129921000Y-136652000D01*
X129901000Y-136652000D01*
X129901000Y-136525000D01*
X134426887Y-136525000D01*
X134538260Y-137084909D01*
X134855423Y-137559577D01*
X135330091Y-137876740D01*
X135748667Y-137960000D01*
X136031333Y-137960000D01*
X136449909Y-137876740D01*
X136924577Y-137559577D01*
X137160000Y-137207242D01*
X137395423Y-137559577D01*
X137870091Y-137876740D01*
X138288667Y-137960000D01*
X138571333Y-137960000D01*
X138989909Y-137876740D01*
X139464577Y-137559577D01*
X139700000Y-137207242D01*
X139935423Y-137559577D01*
X140410091Y-137876740D01*
X140828667Y-137960000D01*
X141111333Y-137960000D01*
X141529909Y-137876740D01*
X142004577Y-137559577D01*
X142240000Y-137207242D01*
X142475423Y-137559577D01*
X142950091Y-137876740D01*
X143368667Y-137960000D01*
X143651333Y-137960000D01*
X144069909Y-137876740D01*
X144544577Y-137559577D01*
X144780000Y-137207242D01*
X145015423Y-137559577D01*
X145490091Y-137876740D01*
X145908667Y-137960000D01*
X146191333Y-137960000D01*
X146609909Y-137876740D01*
X147084577Y-137559577D01*
X147320000Y-137207242D01*
X147555423Y-137559577D01*
X148030091Y-137876740D01*
X148448667Y-137960000D01*
X148731333Y-137960000D01*
X149149909Y-137876740D01*
X149624577Y-137559577D01*
X149860000Y-137207242D01*
X150095423Y-137559577D01*
X150570091Y-137876740D01*
X150988667Y-137960000D01*
X151271333Y-137960000D01*
X151689909Y-137876740D01*
X152164577Y-137559577D01*
X152400000Y-137207242D01*
X152635423Y-137559577D01*
X153110091Y-137876740D01*
X153528667Y-137960000D01*
X153811333Y-137960000D01*
X154229909Y-137876740D01*
X154704577Y-137559577D01*
X154775734Y-137453083D01*
X154871673Y-137684699D01*
X155050302Y-137863327D01*
X155283691Y-137960000D01*
X155924250Y-137960000D01*
X156083000Y-137801250D01*
X156083000Y-136652000D01*
X156337000Y-136652000D01*
X156337000Y-137801250D01*
X156495750Y-137960000D01*
X157136309Y-137960000D01*
X157369698Y-137863327D01*
X157548327Y-137684699D01*
X157645000Y-137451310D01*
X157645000Y-136810750D01*
X157486250Y-136652000D01*
X156337000Y-136652000D01*
X156083000Y-136652000D01*
X156063000Y-136652000D01*
X156063000Y-136398000D01*
X156083000Y-136398000D01*
X156083000Y-135248750D01*
X156337000Y-135248750D01*
X156337000Y-136398000D01*
X157486250Y-136398000D01*
X157645000Y-136239250D01*
X157645000Y-135598690D01*
X157548327Y-135365301D01*
X157369698Y-135186673D01*
X157136309Y-135090000D01*
X156495750Y-135090000D01*
X156337000Y-135248750D01*
X156083000Y-135248750D01*
X155924250Y-135090000D01*
X155283691Y-135090000D01*
X155050302Y-135186673D01*
X154871673Y-135365301D01*
X154775734Y-135596917D01*
X154704577Y-135490423D01*
X154229909Y-135173260D01*
X153811333Y-135090000D01*
X153528667Y-135090000D01*
X153110091Y-135173260D01*
X152635423Y-135490423D01*
X152400000Y-135842758D01*
X152164577Y-135490423D01*
X151689909Y-135173260D01*
X151271333Y-135090000D01*
X150988667Y-135090000D01*
X150570091Y-135173260D01*
X150095423Y-135490423D01*
X149860000Y-135842758D01*
X149624577Y-135490423D01*
X149149909Y-135173260D01*
X148731333Y-135090000D01*
X148448667Y-135090000D01*
X148030091Y-135173260D01*
X147555423Y-135490423D01*
X147320000Y-135842758D01*
X147084577Y-135490423D01*
X146609909Y-135173260D01*
X146191333Y-135090000D01*
X145908667Y-135090000D01*
X145490091Y-135173260D01*
X145015423Y-135490423D01*
X144780000Y-135842758D01*
X144544577Y-135490423D01*
X144069909Y-135173260D01*
X143651333Y-135090000D01*
X143368667Y-135090000D01*
X142950091Y-135173260D01*
X142475423Y-135490423D01*
X142240000Y-135842758D01*
X142004577Y-135490423D01*
X141529909Y-135173260D01*
X141111333Y-135090000D01*
X140828667Y-135090000D01*
X140410091Y-135173260D01*
X139935423Y-135490423D01*
X139700000Y-135842758D01*
X139464577Y-135490423D01*
X138989909Y-135173260D01*
X138571333Y-135090000D01*
X138288667Y-135090000D01*
X137870091Y-135173260D01*
X137395423Y-135490423D01*
X137160000Y-135842758D01*
X136924577Y-135490423D01*
X136449909Y-135173260D01*
X136031333Y-135090000D01*
X135748667Y-135090000D01*
X135330091Y-135173260D01*
X134855423Y-135490423D01*
X134538260Y-135965091D01*
X134426887Y-136525000D01*
X129901000Y-136525000D01*
X129901000Y-136398000D01*
X129921000Y-136398000D01*
X129921000Y-135248750D01*
X130175000Y-135248750D01*
X130175000Y-136398000D01*
X131324250Y-136398000D01*
X131483000Y-136239250D01*
X131483000Y-135598690D01*
X131386327Y-135365301D01*
X131207698Y-135186673D01*
X130974309Y-135090000D01*
X130333750Y-135090000D01*
X130175000Y-135248750D01*
X129921000Y-135248750D01*
X129762250Y-135090000D01*
X129319801Y-135090000D01*
X129608379Y-134801423D01*
X129783596Y-134874000D01*
X130440404Y-134874000D01*
X131047216Y-134622650D01*
X131511650Y-134158216D01*
X131763000Y-133551404D01*
X131763000Y-132894596D01*
X131826000Y-132894596D01*
X131826000Y-133551404D01*
X132077350Y-134158216D01*
X132541784Y-134622650D01*
X133148596Y-134874000D01*
X133805404Y-134874000D01*
X134412216Y-134622650D01*
X134747000Y-134287866D01*
X135081784Y-134622650D01*
X135688596Y-134874000D01*
X136345404Y-134874000D01*
X136952216Y-134622650D01*
X137287000Y-134287866D01*
X137621784Y-134622650D01*
X138228596Y-134874000D01*
X138885404Y-134874000D01*
X139492216Y-134622650D01*
X139827000Y-134287866D01*
X140161784Y-134622650D01*
X140768596Y-134874000D01*
X141425404Y-134874000D01*
X142032216Y-134622650D01*
X142367000Y-134287866D01*
X142701784Y-134622650D01*
X143308596Y-134874000D01*
X143965404Y-134874000D01*
X144572216Y-134622650D01*
X144907000Y-134287866D01*
X145241784Y-134622650D01*
X145848596Y-134874000D01*
X146505404Y-134874000D01*
X147112216Y-134622650D01*
X147447000Y-134287866D01*
X147781784Y-134622650D01*
X148388596Y-134874000D01*
X149045404Y-134874000D01*
X149652216Y-134622650D01*
X149987000Y-134287866D01*
X150321784Y-134622650D01*
X150928596Y-134874000D01*
X151585404Y-134874000D01*
X152192216Y-134622650D01*
X152527000Y-134287866D01*
X152861784Y-134622650D01*
X153468596Y-134874000D01*
X154125404Y-134874000D01*
X154732216Y-134622650D01*
X155067000Y-134287866D01*
X155401784Y-134622650D01*
X156008596Y-134874000D01*
X156665404Y-134874000D01*
X157272216Y-134622650D01*
X157736650Y-134158216D01*
X157988000Y-133551404D01*
X157988000Y-132894596D01*
X157736650Y-132287784D01*
X157272216Y-131823350D01*
X156665404Y-131572000D01*
X156008596Y-131572000D01*
X155401784Y-131823350D01*
X155067000Y-132158134D01*
X154732216Y-131823350D01*
X154125404Y-131572000D01*
X153468596Y-131572000D01*
X152861784Y-131823350D01*
X152527000Y-132158134D01*
X152192216Y-131823350D01*
X151585404Y-131572000D01*
X150928596Y-131572000D01*
X150321784Y-131823350D01*
X149987000Y-132158134D01*
X149652216Y-131823350D01*
X149045404Y-131572000D01*
X148388596Y-131572000D01*
X147781784Y-131823350D01*
X147447000Y-132158134D01*
X147112216Y-131823350D01*
X146505404Y-131572000D01*
X145848596Y-131572000D01*
X145241784Y-131823350D01*
X144907000Y-132158134D01*
X144572216Y-131823350D01*
X143965404Y-131572000D01*
X143308596Y-131572000D01*
X142701784Y-131823350D01*
X142367000Y-132158134D01*
X142032216Y-131823350D01*
X141425404Y-131572000D01*
X140768596Y-131572000D01*
X140161784Y-131823350D01*
X139827000Y-132158134D01*
X139492216Y-131823350D01*
X138885404Y-131572000D01*
X138228596Y-131572000D01*
X137621784Y-131823350D01*
X137287000Y-132158134D01*
X136952216Y-131823350D01*
X136345404Y-131572000D01*
X135688596Y-131572000D01*
X135081784Y-131823350D01*
X134747000Y-132158134D01*
X134412216Y-131823350D01*
X133805404Y-131572000D01*
X133148596Y-131572000D01*
X132541784Y-131823350D01*
X132077350Y-132287784D01*
X131826000Y-132894596D01*
X131763000Y-132894596D01*
X131511650Y-132287784D01*
X131047216Y-131823350D01*
X130440404Y-131572000D01*
X129783596Y-131572000D01*
X129176784Y-131823350D01*
X128842000Y-132158134D01*
X128507216Y-131823350D01*
X127900404Y-131572000D01*
X127243596Y-131572000D01*
X126636784Y-131823350D01*
X126302000Y-132158134D01*
X125967216Y-131823350D01*
X125360404Y-131572000D01*
X124703596Y-131572000D01*
X124096784Y-131823350D01*
X123762000Y-132158134D01*
X123427216Y-131823350D01*
X122820404Y-131572000D01*
X122163596Y-131572000D01*
X121556784Y-131823350D01*
X121222000Y-132158134D01*
X120887216Y-131823350D01*
X120280404Y-131572000D01*
X119623596Y-131572000D01*
X119016784Y-131823350D01*
X118682000Y-132158134D01*
X118347216Y-131823350D01*
X117740404Y-131572000D01*
X117083596Y-131572000D01*
X116476784Y-131823350D01*
X116054677Y-132245457D01*
X116036107Y-132238498D01*
X115051605Y-133223000D01*
X115065748Y-133237143D01*
X114886143Y-133416748D01*
X114872000Y-133402605D01*
X114857858Y-133416748D01*
X114678253Y-133237143D01*
X114692395Y-133223000D01*
X113707893Y-132238498D01*
X113602000Y-132278180D01*
X113496107Y-132238498D01*
X112511605Y-133223000D01*
X112525748Y-133237143D01*
X112346143Y-133416748D01*
X112332000Y-133402605D01*
X111347498Y-134387107D01*
X111425892Y-134596306D01*
X110624222Y-135397977D01*
X110287909Y-135173260D01*
X109869333Y-135090000D01*
X109586667Y-135090000D01*
X109168091Y-135173260D01*
X108693423Y-135490423D01*
X108376260Y-135965091D01*
X108264887Y-136525000D01*
X102723000Y-136525000D01*
X102723000Y-136398000D01*
X102743000Y-136398000D01*
X102743000Y-135248750D01*
X102997000Y-135248750D01*
X102997000Y-136398000D01*
X104146250Y-136398000D01*
X104305000Y-136239250D01*
X104305000Y-135598690D01*
X104208327Y-135365301D01*
X104029698Y-135186673D01*
X103796309Y-135090000D01*
X103155750Y-135090000D01*
X102997000Y-135248750D01*
X102743000Y-135248750D01*
X102584250Y-135090000D01*
X101943691Y-135090000D01*
X101710302Y-135186673D01*
X101531673Y-135365301D01*
X101435734Y-135596917D01*
X101364577Y-135490423D01*
X100889909Y-135173260D01*
X100471333Y-135090000D01*
X100188667Y-135090000D01*
X99770091Y-135173260D01*
X99295423Y-135490423D01*
X99060000Y-135842758D01*
X98824577Y-135490423D01*
X98349909Y-135173260D01*
X97931333Y-135090000D01*
X97648667Y-135090000D01*
X97230091Y-135173260D01*
X96755423Y-135490423D01*
X96520000Y-135842758D01*
X96284577Y-135490423D01*
X95809909Y-135173260D01*
X95391333Y-135090000D01*
X95108667Y-135090000D01*
X94690091Y-135173260D01*
X94215423Y-135490423D01*
X93980000Y-135842758D01*
X93744577Y-135490423D01*
X93269909Y-135173260D01*
X92851333Y-135090000D01*
X92568667Y-135090000D01*
X92150091Y-135173260D01*
X91675423Y-135490423D01*
X91440000Y-135842758D01*
X91204577Y-135490423D01*
X90729909Y-135173260D01*
X90311333Y-135090000D01*
X90028667Y-135090000D01*
X89610091Y-135173260D01*
X89135423Y-135490423D01*
X88900000Y-135842758D01*
X88664577Y-135490423D01*
X88189909Y-135173260D01*
X87771333Y-135090000D01*
X87488667Y-135090000D01*
X87070091Y-135173260D01*
X86595423Y-135490423D01*
X86360000Y-135842758D01*
X86124577Y-135490423D01*
X85649909Y-135173260D01*
X85231333Y-135090000D01*
X84948667Y-135090000D01*
X84530091Y-135173260D01*
X84055423Y-135490423D01*
X83820000Y-135842758D01*
X83584577Y-135490423D01*
X83109909Y-135173260D01*
X82691333Y-135090000D01*
X82408667Y-135090000D01*
X81990091Y-135173260D01*
X81515423Y-135490423D01*
X81198260Y-135965091D01*
X81086887Y-136525000D01*
X76910000Y-136525000D01*
X76910000Y-134387107D01*
X79025498Y-134387107D01*
X79126120Y-134655622D01*
X79741642Y-134884816D01*
X80398019Y-134861014D01*
X80893880Y-134655622D01*
X80994502Y-134387107D01*
X81565498Y-134387107D01*
X81666120Y-134655622D01*
X82281642Y-134884816D01*
X82938019Y-134861014D01*
X83433880Y-134655622D01*
X83534502Y-134387107D01*
X82550000Y-133402605D01*
X81565498Y-134387107D01*
X80994502Y-134387107D01*
X80010000Y-133402605D01*
X79025498Y-134387107D01*
X76910000Y-134387107D01*
X76910000Y-132954642D01*
X78348184Y-132954642D01*
X78371986Y-133611019D01*
X78577378Y-134106880D01*
X78845893Y-134207502D01*
X79830395Y-133223000D01*
X80189605Y-133223000D01*
X81174107Y-134207502D01*
X81280000Y-134167820D01*
X81385893Y-134207502D01*
X82370395Y-133223000D01*
X82729605Y-133223000D01*
X83714107Y-134207502D01*
X83732677Y-134200543D01*
X84154784Y-134622650D01*
X84761596Y-134874000D01*
X85418404Y-134874000D01*
X86025216Y-134622650D01*
X86360000Y-134287866D01*
X86694784Y-134622650D01*
X87301596Y-134874000D01*
X87958404Y-134874000D01*
X88565216Y-134622650D01*
X88900000Y-134287866D01*
X89234784Y-134622650D01*
X89841596Y-134874000D01*
X90498404Y-134874000D01*
X91105216Y-134622650D01*
X91440000Y-134287866D01*
X91774784Y-134622650D01*
X92381596Y-134874000D01*
X93038404Y-134874000D01*
X93645216Y-134622650D01*
X93980000Y-134287866D01*
X94314784Y-134622650D01*
X94921596Y-134874000D01*
X95578404Y-134874000D01*
X96185216Y-134622650D01*
X96520000Y-134287866D01*
X96854784Y-134622650D01*
X97461596Y-134874000D01*
X98118404Y-134874000D01*
X98725216Y-134622650D01*
X99060000Y-134287866D01*
X99394784Y-134622650D01*
X100001596Y-134874000D01*
X100658404Y-134874000D01*
X101265216Y-134622650D01*
X101600000Y-134287866D01*
X101934784Y-134622650D01*
X102541596Y-134874000D01*
X103198404Y-134874000D01*
X103805216Y-134622650D01*
X104040759Y-134387107D01*
X106267498Y-134387107D01*
X106368120Y-134655622D01*
X106983642Y-134884816D01*
X107640019Y-134861014D01*
X108135880Y-134655622D01*
X108236502Y-134387107D01*
X108807498Y-134387107D01*
X108908120Y-134655622D01*
X109523642Y-134884816D01*
X110180019Y-134861014D01*
X110675880Y-134655622D01*
X110776502Y-134387107D01*
X109792000Y-133402605D01*
X108807498Y-134387107D01*
X108236502Y-134387107D01*
X107252000Y-133402605D01*
X106267498Y-134387107D01*
X104040759Y-134387107D01*
X104269650Y-134158216D01*
X104521000Y-133551404D01*
X104521000Y-132954642D01*
X105590184Y-132954642D01*
X105613986Y-133611019D01*
X105819378Y-134106880D01*
X106087893Y-134207502D01*
X107072395Y-133223000D01*
X107431605Y-133223000D01*
X108416107Y-134207502D01*
X108522000Y-134167820D01*
X108627893Y-134207502D01*
X109612395Y-133223000D01*
X109971605Y-133223000D01*
X110956107Y-134207502D01*
X111062000Y-134167820D01*
X111167893Y-134207502D01*
X112152395Y-133223000D01*
X111167893Y-132238498D01*
X111062000Y-132278180D01*
X110956107Y-132238498D01*
X109971605Y-133223000D01*
X109612395Y-133223000D01*
X108627893Y-132238498D01*
X108522000Y-132278180D01*
X108416107Y-132238498D01*
X107431605Y-133223000D01*
X107072395Y-133223000D01*
X106087893Y-132238498D01*
X105819378Y-132339120D01*
X105590184Y-132954642D01*
X104521000Y-132954642D01*
X104521000Y-132894596D01*
X104269650Y-132287784D01*
X104040759Y-132058893D01*
X106267498Y-132058893D01*
X107252000Y-133043395D01*
X108236502Y-132058893D01*
X108807498Y-132058893D01*
X109792000Y-133043395D01*
X110776502Y-132058893D01*
X111347498Y-132058893D01*
X112332000Y-133043395D01*
X113316502Y-132058893D01*
X113887498Y-132058893D01*
X114872000Y-133043395D01*
X115856502Y-132058893D01*
X115755880Y-131790378D01*
X115140358Y-131561184D01*
X114483981Y-131584986D01*
X113988120Y-131790378D01*
X113887498Y-132058893D01*
X113316502Y-132058893D01*
X113215880Y-131790378D01*
X112600358Y-131561184D01*
X111943981Y-131584986D01*
X111448120Y-131790378D01*
X111347498Y-132058893D01*
X110776502Y-132058893D01*
X110675880Y-131790378D01*
X110060358Y-131561184D01*
X109403981Y-131584986D01*
X108908120Y-131790378D01*
X108807498Y-132058893D01*
X108236502Y-132058893D01*
X108135880Y-131790378D01*
X107520358Y-131561184D01*
X106863981Y-131584986D01*
X106368120Y-131790378D01*
X106267498Y-132058893D01*
X104040759Y-132058893D01*
X103805216Y-131823350D01*
X103198404Y-131572000D01*
X102541596Y-131572000D01*
X101934784Y-131823350D01*
X101600000Y-132158134D01*
X101265216Y-131823350D01*
X100658404Y-131572000D01*
X100001596Y-131572000D01*
X99394784Y-131823350D01*
X99060000Y-132158134D01*
X98725216Y-131823350D01*
X98118404Y-131572000D01*
X97461596Y-131572000D01*
X96854784Y-131823350D01*
X96520000Y-132158134D01*
X96185216Y-131823350D01*
X95578404Y-131572000D01*
X94921596Y-131572000D01*
X94314784Y-131823350D01*
X93980000Y-132158134D01*
X93645216Y-131823350D01*
X93038404Y-131572000D01*
X92381596Y-131572000D01*
X91774784Y-131823350D01*
X91440000Y-132158134D01*
X91105216Y-131823350D01*
X90498404Y-131572000D01*
X89841596Y-131572000D01*
X89234784Y-131823350D01*
X88900000Y-132158134D01*
X88565216Y-131823350D01*
X87958404Y-131572000D01*
X87301596Y-131572000D01*
X86694784Y-131823350D01*
X86360000Y-132158134D01*
X86025216Y-131823350D01*
X85418404Y-131572000D01*
X84761596Y-131572000D01*
X84154784Y-131823350D01*
X83732677Y-132245457D01*
X83714107Y-132238498D01*
X82729605Y-133223000D01*
X82370395Y-133223000D01*
X81385893Y-132238498D01*
X81280000Y-132278180D01*
X81174107Y-132238498D01*
X80189605Y-133223000D01*
X79830395Y-133223000D01*
X78845893Y-132238498D01*
X78577378Y-132339120D01*
X78348184Y-132954642D01*
X76910000Y-132954642D01*
X76910000Y-132058893D01*
X79025498Y-132058893D01*
X80010000Y-133043395D01*
X80994502Y-132058893D01*
X81565498Y-132058893D01*
X82550000Y-133043395D01*
X83534502Y-132058893D01*
X83433880Y-131790378D01*
X82818358Y-131561184D01*
X82161981Y-131584986D01*
X81666120Y-131790378D01*
X81565498Y-132058893D01*
X80994502Y-132058893D01*
X80893880Y-131790378D01*
X80278358Y-131561184D01*
X79621981Y-131584986D01*
X79126120Y-131790378D01*
X79025498Y-132058893D01*
X76910000Y-132058893D01*
X76910000Y-126767107D01*
X79025498Y-126767107D01*
X79126120Y-127035622D01*
X79741642Y-127264816D01*
X80398019Y-127241014D01*
X80893880Y-127035622D01*
X80994502Y-126767107D01*
X81565498Y-126767107D01*
X81666120Y-127035622D01*
X82281642Y-127264816D01*
X82938019Y-127241014D01*
X83433880Y-127035622D01*
X83534502Y-126767107D01*
X82550000Y-125782605D01*
X81565498Y-126767107D01*
X80994502Y-126767107D01*
X80010000Y-125782605D01*
X79025498Y-126767107D01*
X76910000Y-126767107D01*
X76910000Y-125334642D01*
X78348184Y-125334642D01*
X78371986Y-125991019D01*
X78577378Y-126486880D01*
X78845893Y-126587502D01*
X79830395Y-125603000D01*
X80189605Y-125603000D01*
X81174107Y-126587502D01*
X81280000Y-126547820D01*
X81385893Y-126587502D01*
X82370395Y-125603000D01*
X81385893Y-124618498D01*
X81280000Y-124658180D01*
X81174107Y-124618498D01*
X80189605Y-125603000D01*
X79830395Y-125603000D01*
X78845893Y-124618498D01*
X78577378Y-124719120D01*
X78348184Y-125334642D01*
X76910000Y-125334642D01*
X76910000Y-124438893D01*
X79025498Y-124438893D01*
X80010000Y-125423395D01*
X80994502Y-124438893D01*
X81565498Y-124438893D01*
X82550000Y-125423395D01*
X83534502Y-124438893D01*
X83433880Y-124170378D01*
X82818358Y-123941184D01*
X82161981Y-123964986D01*
X81666120Y-124170378D01*
X81565498Y-124438893D01*
X80994502Y-124438893D01*
X80893880Y-124170378D01*
X80278358Y-123941184D01*
X79621981Y-123964986D01*
X79126120Y-124170378D01*
X79025498Y-124438893D01*
X76910000Y-124438893D01*
X76910000Y-103854041D01*
X87508086Y-103854041D01*
X87747611Y-104360134D01*
X88162577Y-104736041D01*
X88550961Y-104896904D01*
X88773000Y-104774915D01*
X88773000Y-103632000D01*
X87629371Y-103632000D01*
X87508086Y-103854041D01*
X76910000Y-103854041D01*
X76910000Y-103155959D01*
X87508086Y-103155959D01*
X87629371Y-103378000D01*
X88773000Y-103378000D01*
X88773000Y-102235085D01*
X88550961Y-102113096D01*
X88162577Y-102273959D01*
X87747611Y-102649866D01*
X87508086Y-103155959D01*
X76910000Y-103155959D01*
X76910000Y-98162745D01*
X79856861Y-98162745D01*
X79930995Y-98408864D01*
X80468223Y-98601965D01*
X81038454Y-98574778D01*
X81439005Y-98408864D01*
X81513139Y-98162745D01*
X80685000Y-97334605D01*
X79856861Y-98162745D01*
X76910000Y-98162745D01*
X76910000Y-96938223D01*
X79238035Y-96938223D01*
X79265222Y-97508454D01*
X79431136Y-97909005D01*
X79677255Y-97983139D01*
X80505395Y-97155000D01*
X79677255Y-96326861D01*
X79431136Y-96400995D01*
X79238035Y-96938223D01*
X76910000Y-96938223D01*
X76910000Y-96147255D01*
X79856861Y-96147255D01*
X80685000Y-96975395D01*
X81513139Y-96147255D01*
X81439005Y-95901136D01*
X80901777Y-95708035D01*
X80331546Y-95735222D01*
X79930995Y-95901136D01*
X79856861Y-96147255D01*
X76910000Y-96147255D01*
X76910000Y-83185000D01*
X80451887Y-83185000D01*
X80563260Y-83744909D01*
X80880423Y-84219577D01*
X81159106Y-84405787D01*
X81199097Y-84606837D01*
X81323797Y-84793463D01*
X81367072Y-84858229D01*
X81430528Y-84900629D01*
X82098233Y-85568335D01*
X82056333Y-85560000D01*
X81773667Y-85560000D01*
X81355091Y-85643260D01*
X80880423Y-85960423D01*
X80563260Y-86435091D01*
X80451887Y-86995000D01*
X80563260Y-87554909D01*
X80880423Y-88029577D01*
X81159106Y-88215787D01*
X81164870Y-88244769D01*
X81199097Y-88416837D01*
X81308924Y-88581204D01*
X81367072Y-88668229D01*
X81430528Y-88710629D01*
X82234500Y-89514602D01*
X82234501Y-91779688D01*
X82209960Y-91789853D01*
X81820353Y-92179460D01*
X81609500Y-92688506D01*
X81609500Y-93239494D01*
X81820353Y-93748540D01*
X82209960Y-94138147D01*
X82234500Y-94148312D01*
X82234501Y-96076103D01*
X81968466Y-96342138D01*
X81941475Y-96407299D01*
X81938864Y-96400995D01*
X81692745Y-96326861D01*
X80864605Y-97155000D01*
X81692745Y-97983139D01*
X81938864Y-97909005D01*
X81941290Y-97902254D01*
X81968466Y-97967862D01*
X82372138Y-98371534D01*
X82899561Y-98590000D01*
X83470439Y-98590000D01*
X83997862Y-98371534D01*
X84401534Y-97967862D01*
X84620000Y-97440439D01*
X84620000Y-96869561D01*
X84401534Y-96342138D01*
X83997862Y-95938466D01*
X83754500Y-95837662D01*
X83754500Y-94148312D01*
X83779040Y-94138147D01*
X84168647Y-93748540D01*
X84379500Y-93239494D01*
X84379500Y-92688506D01*
X84168647Y-92179460D01*
X83779040Y-91789853D01*
X83754500Y-91779688D01*
X83754500Y-89274648D01*
X83769388Y-89199800D01*
X83754500Y-89124952D01*
X83754500Y-89124948D01*
X83710404Y-88903263D01*
X83542429Y-88651871D01*
X83478973Y-88609471D01*
X82919305Y-88049804D01*
X82949577Y-88029577D01*
X83266740Y-87554909D01*
X83378113Y-86995000D01*
X83341666Y-86811767D01*
X87114500Y-90584602D01*
X87114501Y-91779688D01*
X87089960Y-91789853D01*
X86700353Y-92179460D01*
X86489500Y-92688506D01*
X86489500Y-93239494D01*
X86700353Y-93748540D01*
X86870000Y-93918187D01*
X86870001Y-95916570D01*
X86817138Y-95938466D01*
X86413466Y-96342138D01*
X86195000Y-96869561D01*
X86195000Y-97440439D01*
X86413466Y-97967862D01*
X86817138Y-98371534D01*
X87344561Y-98590000D01*
X87915439Y-98590000D01*
X88442862Y-98371534D01*
X88651651Y-98162745D01*
X89301861Y-98162745D01*
X89375995Y-98408864D01*
X89913223Y-98601965D01*
X90483454Y-98574778D01*
X90884005Y-98408864D01*
X90958139Y-98162745D01*
X90130000Y-97334605D01*
X89301861Y-98162745D01*
X88651651Y-98162745D01*
X88846534Y-97967862D01*
X88873525Y-97902701D01*
X88876136Y-97909005D01*
X89122255Y-97983139D01*
X89950395Y-97155000D01*
X90309605Y-97155000D01*
X91137745Y-97983139D01*
X91383864Y-97909005D01*
X91576965Y-97371777D01*
X91549778Y-96801546D01*
X91383864Y-96400995D01*
X91137745Y-96326861D01*
X90309605Y-97155000D01*
X89950395Y-97155000D01*
X89122255Y-96326861D01*
X88876136Y-96400995D01*
X88873710Y-96407746D01*
X88846534Y-96342138D01*
X88651651Y-96147255D01*
X89301861Y-96147255D01*
X90130000Y-96975395D01*
X90958139Y-96147255D01*
X90884005Y-95901136D01*
X90346777Y-95708035D01*
X89776546Y-95735222D01*
X89375995Y-95901136D01*
X89301861Y-96147255D01*
X88651651Y-96147255D01*
X88442862Y-95938466D01*
X88390000Y-95916570D01*
X88390000Y-94249587D01*
X88659040Y-94138147D01*
X89048647Y-93748540D01*
X89259500Y-93239494D01*
X89259500Y-92688506D01*
X89048647Y-92179460D01*
X88659040Y-91789853D01*
X88634500Y-91779688D01*
X88634500Y-90344648D01*
X88649388Y-90269800D01*
X88634500Y-90194952D01*
X88634500Y-90194948D01*
X88593554Y-89989100D01*
X88590404Y-89973262D01*
X88464829Y-89785327D01*
X88422429Y-89721871D01*
X88358973Y-89679471D01*
X82919305Y-84239804D01*
X82949577Y-84219577D01*
X83266740Y-83744909D01*
X83378113Y-83185000D01*
X83266740Y-82625091D01*
X82949577Y-82150423D01*
X82474909Y-81833260D01*
X82056333Y-81750000D01*
X81773667Y-81750000D01*
X81355091Y-81833260D01*
X80880423Y-82150423D01*
X80563260Y-82625091D01*
X80451887Y-83185000D01*
X76910000Y-83185000D01*
X76910000Y-80382745D01*
X98906861Y-80382745D01*
X98980995Y-80628864D01*
X99518223Y-80821965D01*
X100088454Y-80794778D01*
X100489005Y-80628864D01*
X100563139Y-80382745D01*
X99735000Y-79554605D01*
X98906861Y-80382745D01*
X76910000Y-80382745D01*
X76910000Y-79158223D01*
X98288035Y-79158223D01*
X98315222Y-79728454D01*
X98481136Y-80129005D01*
X98727255Y-80203139D01*
X99555395Y-79375000D01*
X98727255Y-78546861D01*
X98481136Y-78620995D01*
X98288035Y-79158223D01*
X76910000Y-79158223D01*
X76910000Y-70244615D01*
X95035000Y-70244615D01*
X95035000Y-70835385D01*
X95261078Y-71381185D01*
X95678815Y-71798922D01*
X96224615Y-72025000D01*
X96815385Y-72025000D01*
X97361185Y-71798922D01*
X97778922Y-71381185D01*
X98005000Y-70835385D01*
X98005000Y-70244615D01*
X97778922Y-69698815D01*
X97361185Y-69281078D01*
X96815385Y-69055000D01*
X96224615Y-69055000D01*
X95678815Y-69281078D01*
X95261078Y-69698815D01*
X95035000Y-70244615D01*
X76910000Y-70244615D01*
X76910000Y-65744615D01*
X95035000Y-65744615D01*
X95035000Y-66335385D01*
X95261078Y-66881185D01*
X95678815Y-67298922D01*
X96224615Y-67525000D01*
X96815385Y-67525000D01*
X97361185Y-67298922D01*
X97778922Y-66881185D01*
X98005000Y-66335385D01*
X98005000Y-65744615D01*
X97778922Y-65198815D01*
X97361185Y-64781078D01*
X96815385Y-64555000D01*
X96224615Y-64555000D01*
X95678815Y-64781078D01*
X95261078Y-65198815D01*
X95035000Y-65744615D01*
X76910000Y-65744615D01*
X76910000Y-35978223D01*
X78603035Y-35978223D01*
X78630222Y-36548454D01*
X78796136Y-36949005D01*
X79042255Y-37023139D01*
X79870395Y-36195000D01*
X79042255Y-35366861D01*
X78796136Y-35440995D01*
X78603035Y-35978223D01*
X76910000Y-35978223D01*
X76910000Y-30898223D01*
X78563035Y-30898223D01*
X78590222Y-31468454D01*
X78756136Y-31869005D01*
X79002255Y-31943139D01*
X79830395Y-31115000D01*
X79002255Y-30286861D01*
X78756136Y-30360995D01*
X78563035Y-30898223D01*
X76910000Y-30898223D01*
X76910000Y-30524666D01*
X76972958Y-30026302D01*
X77141305Y-29601107D01*
X77410101Y-29231142D01*
X77762462Y-28939644D01*
X78176244Y-28744933D01*
X78658662Y-28652907D01*
X78751164Y-28650000D01*
X82526869Y-28650000D01*
X82523852Y-28650600D01*
X82523852Y-28650600D01*
G37*
X82523852Y-28650600D02*
X82523848Y-28650600D01*
X82302163Y-28694696D01*
X82050771Y-28862671D01*
X82008371Y-28926127D01*
X80896728Y-30037771D01*
X80833272Y-30080171D01*
X80831004Y-30083566D01*
X80764005Y-29861136D01*
X80226777Y-29668035D01*
X79656546Y-29695222D01*
X79255995Y-29861136D01*
X79181861Y-30107255D01*
X80010000Y-30935395D01*
X80024142Y-30921252D01*
X80203748Y-31100858D01*
X80189605Y-31115000D01*
X80203748Y-31129142D01*
X80024142Y-31308748D01*
X80010000Y-31294605D01*
X79181861Y-32122745D01*
X79255995Y-32368864D01*
X79793223Y-32561965D01*
X80363454Y-32534778D01*
X80621201Y-32428016D01*
X80621200Y-34875429D01*
X80266777Y-34748035D01*
X79696546Y-34775222D01*
X79295995Y-34941136D01*
X79221861Y-35187255D01*
X80050000Y-36015395D01*
X80064142Y-36001252D01*
X80243748Y-36180858D01*
X80229605Y-36195000D01*
X80243748Y-36209142D01*
X80064143Y-36388748D01*
X80050000Y-36374605D01*
X79221861Y-37202745D01*
X79295995Y-37448864D01*
X79833223Y-37641965D01*
X80403454Y-37614778D01*
X80520001Y-37566503D01*
X80520000Y-39295148D01*
X80505111Y-39370000D01*
X80564096Y-39666537D01*
X80696779Y-39865111D01*
X80732071Y-39917929D01*
X80983463Y-40085904D01*
X81280000Y-40144889D01*
X81354852Y-40130000D01*
X85015153Y-40130000D01*
X85090000Y-40144888D01*
X85164847Y-40130000D01*
X85164852Y-40130000D01*
X85386537Y-40085904D01*
X85404316Y-40074025D01*
X85377000Y-40211349D01*
X85377000Y-40211353D01*
X85362112Y-40286200D01*
X85377000Y-40361047D01*
X85377001Y-54755448D01*
X85362112Y-54830300D01*
X85421097Y-55126837D01*
X85538558Y-55302629D01*
X85589072Y-55378229D01*
X85652528Y-55420629D01*
X86477371Y-56245473D01*
X86519771Y-56308929D01*
X86771163Y-56476904D01*
X86992848Y-56521000D01*
X86992852Y-56521000D01*
X87067700Y-56535888D01*
X87142548Y-56521000D01*
X92565453Y-56521000D01*
X92640300Y-56535888D01*
X92715147Y-56521000D01*
X92715152Y-56521000D01*
X92936837Y-56476904D01*
X93188229Y-56308929D01*
X93230631Y-56245470D01*
X102750587Y-46725515D01*
X102788260Y-46914909D01*
X103105423Y-47389577D01*
X103135694Y-47409804D01*
X101348328Y-49197171D01*
X101284872Y-49239571D01*
X101242472Y-49303027D01*
X101242471Y-49303028D01*
X101116897Y-49490963D01*
X101057912Y-49787500D01*
X101072801Y-49862352D01*
X101072800Y-64331932D01*
X97955000Y-61214133D01*
X97955000Y-60674561D01*
X97736534Y-60147138D01*
X97332862Y-59743466D01*
X96805439Y-59525000D01*
X96234561Y-59525000D01*
X95707138Y-59743466D01*
X95303466Y-60147138D01*
X95085000Y-60674561D01*
X95085000Y-61245439D01*
X95303466Y-61772862D01*
X95707138Y-62176534D01*
X96234561Y-62395000D01*
X96774133Y-62395000D01*
X100100400Y-65721268D01*
X100100401Y-77981456D01*
X99951777Y-77928035D01*
X99381546Y-77955222D01*
X98980995Y-78121136D01*
X98906861Y-78367255D01*
X99735000Y-79195395D01*
X99749143Y-79181253D01*
X99928748Y-79360858D01*
X99914605Y-79375000D01*
X100742745Y-80203139D01*
X100988864Y-80129005D01*
X100991290Y-80122254D01*
X101018466Y-80187862D01*
X101400001Y-80569397D01*
X101400000Y-81382070D01*
X101200423Y-81515423D01*
X100883260Y-81990091D01*
X100771887Y-82550000D01*
X100883260Y-83109909D01*
X101200423Y-83584577D01*
X101391244Y-83712080D01*
X101383642Y-83750300D01*
X101415720Y-83911566D01*
X101200423Y-84055423D01*
X100883260Y-84530091D01*
X100771887Y-85090000D01*
X100883260Y-85649909D01*
X101200423Y-86124577D01*
X101552758Y-86360000D01*
X101200423Y-86595423D01*
X100883260Y-87070091D01*
X100771887Y-87630000D01*
X100883260Y-88189909D01*
X101200423Y-88664577D01*
X101552758Y-88900000D01*
X101200423Y-89135423D01*
X100883260Y-89610091D01*
X100771887Y-90170000D01*
X100883260Y-90729909D01*
X101200423Y-91204577D01*
X101552758Y-91440000D01*
X101200423Y-91675423D01*
X100883260Y-92150091D01*
X100771887Y-92710000D01*
X100883260Y-93269909D01*
X101137377Y-93650221D01*
X94765528Y-100022071D01*
X94702072Y-100064471D01*
X94659672Y-100127927D01*
X94659671Y-100127928D01*
X94534097Y-100315863D01*
X94475112Y-100612400D01*
X94490001Y-100687252D01*
X94490001Y-102143333D01*
X94121333Y-102070000D01*
X93838667Y-102070000D01*
X93420091Y-102153260D01*
X92945423Y-102470423D01*
X92710000Y-102822758D01*
X92474577Y-102470423D01*
X91999909Y-102153260D01*
X91581333Y-102070000D01*
X91298667Y-102070000D01*
X91003900Y-102128633D01*
X91003900Y-100668401D01*
X93313938Y-98358365D01*
X93383959Y-98527423D01*
X93759866Y-98942389D01*
X94265959Y-99181914D01*
X94488000Y-99060629D01*
X94488000Y-97917000D01*
X94742000Y-97917000D01*
X94742000Y-99060629D01*
X94964041Y-99181914D01*
X95470134Y-98942389D01*
X95846041Y-98527423D01*
X96006904Y-98139039D01*
X95884915Y-97917000D01*
X94742000Y-97917000D01*
X94488000Y-97917000D01*
X94468000Y-97917000D01*
X94468000Y-97663000D01*
X94488000Y-97663000D01*
X94488000Y-97643000D01*
X94742000Y-97643000D01*
X94742000Y-97663000D01*
X95884915Y-97663000D01*
X96006904Y-97440961D01*
X95846041Y-97052577D01*
X95470134Y-96637611D01*
X95265892Y-96540947D01*
X95649577Y-96284577D01*
X95966740Y-95809909D01*
X96078113Y-95250000D01*
X95966740Y-94690091D01*
X95649577Y-94215423D01*
X95353614Y-94017667D01*
X95370896Y-93930786D01*
X95649577Y-93744577D01*
X95966740Y-93269909D01*
X96078113Y-92710000D01*
X95966740Y-92150091D01*
X95649577Y-91675423D01*
X95297242Y-91440000D01*
X95649577Y-91204577D01*
X95966740Y-90729909D01*
X96078113Y-90170000D01*
X95966740Y-89610091D01*
X95649577Y-89135423D01*
X95297242Y-88900000D01*
X95649577Y-88664577D01*
X95966740Y-88189909D01*
X96078113Y-87630000D01*
X95966740Y-87070091D01*
X95649577Y-86595423D01*
X95375000Y-86411957D01*
X95375000Y-86308043D01*
X95649577Y-86124577D01*
X95966740Y-85649909D01*
X96078113Y-85090000D01*
X95966740Y-84530091D01*
X95649577Y-84055423D01*
X95528894Y-83974785D01*
X95662765Y-83948157D01*
X95872809Y-83807809D01*
X96013157Y-83597765D01*
X96062440Y-83350000D01*
X96062440Y-81750000D01*
X96013157Y-81502235D01*
X95872809Y-81292191D01*
X95662765Y-81151843D01*
X95415000Y-81102560D01*
X93815000Y-81102560D01*
X93567235Y-81151843D01*
X93357191Y-81292191D01*
X93216843Y-81502235D01*
X93167560Y-81750000D01*
X93167560Y-83350000D01*
X93216843Y-83597765D01*
X93357191Y-83807809D01*
X93567235Y-83948157D01*
X93701106Y-83974785D01*
X93580423Y-84055423D01*
X93263260Y-84530091D01*
X93151887Y-85090000D01*
X93263260Y-85649909D01*
X93580423Y-86124577D01*
X93745683Y-86235000D01*
X90773430Y-86235000D01*
X90751534Y-86182138D01*
X90347862Y-85778466D01*
X90295000Y-85756570D01*
X90295000Y-84423430D01*
X90347862Y-84401534D01*
X90751534Y-83997862D01*
X90970000Y-83470439D01*
X90970000Y-82899561D01*
X90751534Y-82372138D01*
X90347862Y-81968466D01*
X89820439Y-81750000D01*
X89249561Y-81750000D01*
X88722138Y-81968466D01*
X88318466Y-82372138D01*
X88100000Y-82899561D01*
X88100000Y-83470439D01*
X88318466Y-83997862D01*
X88722138Y-84401534D01*
X88775000Y-84423430D01*
X88775001Y-85756570D01*
X88722138Y-85778466D01*
X88318466Y-86182138D01*
X88100000Y-86709561D01*
X88100000Y-87280439D01*
X88318466Y-87807862D01*
X88722138Y-88211534D01*
X89249561Y-88430000D01*
X89820439Y-88430000D01*
X90347862Y-88211534D01*
X90751534Y-87807862D01*
X90773430Y-87755000D01*
X93176751Y-87755000D01*
X93263260Y-88189909D01*
X93580423Y-88664577D01*
X93932758Y-88900000D01*
X93580423Y-89135423D01*
X93263260Y-89610091D01*
X93151887Y-90170000D01*
X93263260Y-90729909D01*
X93580423Y-91204577D01*
X93932758Y-91440000D01*
X93580423Y-91675423D01*
X93263260Y-92150091D01*
X93151887Y-92710000D01*
X93263260Y-93269909D01*
X93487937Y-93606162D01*
X93005228Y-94088871D01*
X92941772Y-94131271D01*
X92899372Y-94194727D01*
X92899371Y-94194728D01*
X92773797Y-94382663D01*
X92714812Y-94679200D01*
X92729701Y-94754052D01*
X92729700Y-96792997D01*
X89759428Y-99763271D01*
X89695972Y-99805671D01*
X89653572Y-99869127D01*
X89653571Y-99869128D01*
X89527997Y-100057063D01*
X89469012Y-100353600D01*
X89483901Y-100428452D01*
X89483901Y-102210372D01*
X89249039Y-102113096D01*
X89027000Y-102235085D01*
X89027000Y-103378000D01*
X89047000Y-103378000D01*
X89047000Y-103632000D01*
X89027000Y-103632000D01*
X89027000Y-104774915D01*
X89249039Y-104896904D01*
X89483901Y-104799628D01*
X89483900Y-109789290D01*
X89459909Y-109773260D01*
X89041333Y-109690000D01*
X88758667Y-109690000D01*
X88340091Y-109773260D01*
X87865423Y-110090423D01*
X87548260Y-110565091D01*
X87436887Y-111125000D01*
X87548260Y-111684909D01*
X87865423Y-112159577D01*
X88340091Y-112476740D01*
X88758667Y-112560000D01*
X89041333Y-112560000D01*
X89459909Y-112476740D01*
X89483900Y-112460710D01*
X89483900Y-112950053D01*
X89469012Y-113024900D01*
X89483900Y-113099747D01*
X89483900Y-113099751D01*
X89527996Y-113321436D01*
X89695971Y-113572829D01*
X89759430Y-113615231D01*
X89916300Y-113772101D01*
X89916300Y-113938174D01*
X90073869Y-114318580D01*
X90365020Y-114609731D01*
X90745426Y-114767300D01*
X91157174Y-114767300D01*
X91537580Y-114609731D01*
X91828731Y-114318580D01*
X91868301Y-114223050D01*
X91868301Y-115431597D01*
X87145528Y-120154371D01*
X87082072Y-120196771D01*
X87039673Y-120260226D01*
X87039671Y-120260228D01*
X86914097Y-120448163D01*
X86876430Y-120637525D01*
X86559375Y-120849375D01*
X86360000Y-121147761D01*
X86160625Y-120849375D01*
X85669418Y-120521161D01*
X85236256Y-120435000D01*
X84943744Y-120435000D01*
X84510582Y-120521161D01*
X84019375Y-120849375D01*
X83691161Y-121340582D01*
X83575908Y-121920000D01*
X83691161Y-122499418D01*
X84019375Y-122990625D01*
X84330001Y-123198178D01*
X84330000Y-124130773D01*
X84154784Y-124203350D01*
X83732677Y-124625457D01*
X83714107Y-124618498D01*
X82729605Y-125603000D01*
X83714107Y-126587502D01*
X83732677Y-126580543D01*
X84154784Y-127002650D01*
X84761596Y-127254000D01*
X85418404Y-127254000D01*
X86025216Y-127002650D01*
X86360000Y-126667866D01*
X86694784Y-127002650D01*
X87301596Y-127254000D01*
X87958404Y-127254000D01*
X88565216Y-127002650D01*
X88900000Y-126667866D01*
X89234784Y-127002650D01*
X89841596Y-127254000D01*
X90498404Y-127254000D01*
X91105216Y-127002650D01*
X91440000Y-126667866D01*
X91774784Y-127002650D01*
X92381596Y-127254000D01*
X93038404Y-127254000D01*
X93213621Y-127181423D01*
X93501771Y-127469573D01*
X93544171Y-127533029D01*
X93795563Y-127701004D01*
X94017248Y-127745100D01*
X94017252Y-127745100D01*
X94092100Y-127759988D01*
X94166948Y-127745100D01*
X157427953Y-127745100D01*
X157502800Y-127759988D01*
X157577647Y-127745100D01*
X157577652Y-127745100D01*
X157799337Y-127701004D01*
X158050729Y-127533029D01*
X158093131Y-127469570D01*
X158162870Y-127399831D01*
X158226329Y-127357429D01*
X158394304Y-127106037D01*
X158438400Y-126884352D01*
X158438400Y-126884347D01*
X158453288Y-126809500D01*
X158438400Y-126734653D01*
X158438400Y-119227246D01*
X158453288Y-119152399D01*
X158438400Y-119077552D01*
X158438400Y-119077548D01*
X158394304Y-118855863D01*
X158226329Y-118604471D01*
X158162873Y-118562071D01*
X150987023Y-111386222D01*
X151211740Y-111049909D01*
X151323113Y-110490000D01*
X151211740Y-109930091D01*
X150894577Y-109455423D01*
X150542242Y-109220000D01*
X150894577Y-108984577D01*
X151211740Y-108509909D01*
X151323113Y-107950000D01*
X151211740Y-107390091D01*
X150894577Y-106915423D01*
X150542242Y-106680000D01*
X150894577Y-106444577D01*
X151211740Y-105969909D01*
X151323113Y-105410000D01*
X151211740Y-104850091D01*
X150955740Y-104466961D01*
X152266951Y-103155750D01*
X157265000Y-103155750D01*
X157265000Y-103846310D01*
X157361673Y-104079699D01*
X157540302Y-104258327D01*
X157773691Y-104355000D01*
X158464250Y-104355000D01*
X158623000Y-104196250D01*
X158623000Y-102997000D01*
X158877000Y-102997000D01*
X158877000Y-104196250D01*
X159035750Y-104355000D01*
X159726309Y-104355000D01*
X159959698Y-104258327D01*
X160138327Y-104079699D01*
X160235000Y-103846310D01*
X160235000Y-103155750D01*
X160076250Y-102997000D01*
X158877000Y-102997000D01*
X158623000Y-102997000D01*
X157423750Y-102997000D01*
X157265000Y-103155750D01*
X152266951Y-103155750D01*
X154946773Y-100475929D01*
X155010229Y-100433529D01*
X155079404Y-100330000D01*
X157235908Y-100330000D01*
X157351161Y-100909418D01*
X157679375Y-101400625D01*
X157701033Y-101415096D01*
X157540302Y-101481673D01*
X157361673Y-101660301D01*
X157265000Y-101893690D01*
X157265000Y-102584250D01*
X157423750Y-102743000D01*
X158623000Y-102743000D01*
X158623000Y-102723000D01*
X158877000Y-102723000D01*
X158877000Y-102743000D01*
X160076250Y-102743000D01*
X160235000Y-102584250D01*
X160235000Y-101893690D01*
X160138327Y-101660301D01*
X159959698Y-101481673D01*
X159798967Y-101415096D01*
X159820625Y-101400625D01*
X160148839Y-100909418D01*
X160264092Y-100330000D01*
X160148839Y-99750582D01*
X159820625Y-99259375D01*
X159329418Y-98931161D01*
X158896256Y-98845000D01*
X158603744Y-98845000D01*
X158170582Y-98931161D01*
X157679375Y-99259375D01*
X157351161Y-99750582D01*
X157235908Y-100330000D01*
X155079404Y-100330000D01*
X155178204Y-100182137D01*
X155222300Y-99960452D01*
X155222300Y-99960448D01*
X155237188Y-99885601D01*
X155222300Y-99810754D01*
X155222300Y-43085047D01*
X155237188Y-43010200D01*
X155222300Y-42935353D01*
X155222300Y-42935348D01*
X155178204Y-42713663D01*
X155010229Y-42462271D01*
X154946773Y-42419871D01*
X153123430Y-40596529D01*
X153154005Y-40583864D01*
X153228139Y-40337745D01*
X152400000Y-39509605D01*
X152385858Y-39523748D01*
X152206253Y-39344143D01*
X152220395Y-39330000D01*
X152579605Y-39330000D01*
X153407745Y-40158139D01*
X153653864Y-40084005D01*
X153846965Y-39546777D01*
X153819778Y-38976546D01*
X153653864Y-38575995D01*
X153407745Y-38501861D01*
X152579605Y-39330000D01*
X152220395Y-39330000D01*
X152206252Y-39315858D01*
X152385858Y-39136252D01*
X152400000Y-39150395D01*
X153228139Y-38322255D01*
X153154005Y-38076136D01*
X153147254Y-38073710D01*
X153212862Y-38046534D01*
X153616534Y-37642862D01*
X153835000Y-37115439D01*
X153835000Y-36544561D01*
X153616534Y-36017138D01*
X153212862Y-35613466D01*
X152685439Y-35395000D01*
X152590668Y-35395000D01*
X151037037Y-33841370D01*
X151211740Y-33579909D01*
X151323113Y-33020000D01*
X151211740Y-32460091D01*
X150894577Y-31985423D01*
X150695000Y-31852070D01*
X150695000Y-31647930D01*
X150894577Y-31514577D01*
X151211740Y-31039909D01*
X151323113Y-30480000D01*
X151211740Y-29920091D01*
X150894577Y-29445423D01*
X150419909Y-29128260D01*
X150001333Y-29045000D01*
X149718667Y-29045000D01*
X149300091Y-29128260D01*
X148825423Y-29445423D01*
X148508260Y-29920091D01*
X148396887Y-30480000D01*
X148508260Y-31039909D01*
X148825423Y-31514577D01*
X149025001Y-31647930D01*
X149025000Y-31852070D01*
X148825423Y-31985423D01*
X148508260Y-32460091D01*
X148396887Y-33020000D01*
X148508260Y-33579909D01*
X148825423Y-34054577D01*
X149016244Y-34182080D01*
X149008642Y-34220300D01*
X149040720Y-34381566D01*
X148825423Y-34525423D01*
X148508260Y-35000091D01*
X148396887Y-35560000D01*
X148508260Y-36119909D01*
X148533979Y-36158400D01*
X147785448Y-36158400D01*
X147710600Y-36143512D01*
X147635752Y-36158400D01*
X147635748Y-36158400D01*
X147462205Y-36192920D01*
X147414062Y-36202496D01*
X147305330Y-36275149D01*
X147162671Y-36370471D01*
X147120271Y-36433927D01*
X144809199Y-38745000D01*
X135914884Y-38745000D01*
X135971740Y-38659909D01*
X136083113Y-38100000D01*
X135971740Y-37540091D01*
X135654577Y-37065423D01*
X135302242Y-36830000D01*
X135654577Y-36594577D01*
X135971740Y-36119909D01*
X136083113Y-35560000D01*
X135971740Y-35000091D01*
X135654577Y-34525423D01*
X135302242Y-34290000D01*
X135654577Y-34054577D01*
X135971740Y-33579909D01*
X136083113Y-33020000D01*
X135971740Y-32460091D01*
X135654577Y-31985423D01*
X135533894Y-31904785D01*
X135667765Y-31878157D01*
X135877809Y-31737809D01*
X136018157Y-31527765D01*
X136067440Y-31280000D01*
X136067440Y-29680000D01*
X136018157Y-29432235D01*
X135877809Y-29222191D01*
X135667765Y-29081843D01*
X135420000Y-29032560D01*
X133820000Y-29032560D01*
X133572235Y-29081843D01*
X133362191Y-29222191D01*
X133221843Y-29432235D01*
X133172560Y-29680000D01*
X133172560Y-31280000D01*
X133221843Y-31527765D01*
X133362191Y-31737809D01*
X133572235Y-31878157D01*
X133706106Y-31904785D01*
X133585423Y-31985423D01*
X133399214Y-32264104D01*
X133198163Y-32304096D01*
X132946771Y-32472071D01*
X132904371Y-32535527D01*
X132054599Y-33385300D01*
X127115169Y-33385300D01*
X127121904Y-33369039D01*
X126999915Y-33147000D01*
X125857000Y-33147000D01*
X125857000Y-33167000D01*
X125603000Y-33167000D01*
X125603000Y-33147000D01*
X124460085Y-33147000D01*
X124338096Y-33369039D01*
X124498959Y-33757423D01*
X124670885Y-33947213D01*
X112375300Y-46242799D01*
X112375300Y-40144048D01*
X112390188Y-40069200D01*
X112375300Y-39994352D01*
X112375300Y-39994348D01*
X112331204Y-39772663D01*
X112331204Y-39772662D01*
X112205629Y-39584727D01*
X112163229Y-39521271D01*
X112099773Y-39478871D01*
X111617063Y-38996162D01*
X111841740Y-38659909D01*
X111953113Y-38100000D01*
X111841740Y-37540091D01*
X111524577Y-37065423D01*
X111250000Y-36881957D01*
X111250000Y-36778043D01*
X111524577Y-36594577D01*
X111841740Y-36119909D01*
X111953113Y-35560000D01*
X111841740Y-35000091D01*
X111524577Y-34525423D01*
X111172242Y-34290000D01*
X111524577Y-34054577D01*
X111841740Y-33579909D01*
X111953113Y-33020000D01*
X111841740Y-32460091D01*
X111524577Y-31985423D01*
X111418082Y-31914265D01*
X111649698Y-31818327D01*
X111828327Y-31639699D01*
X111925000Y-31406310D01*
X111925000Y-30829039D01*
X124338096Y-30829039D01*
X124498959Y-31217423D01*
X124874866Y-31632389D01*
X125123367Y-31750000D01*
X124874866Y-31867611D01*
X124498959Y-32282577D01*
X124338096Y-32670961D01*
X124460085Y-32893000D01*
X125603000Y-32893000D01*
X125603000Y-30607000D01*
X125857000Y-30607000D01*
X125857000Y-32893000D01*
X126999915Y-32893000D01*
X127121904Y-32670961D01*
X126961041Y-32282577D01*
X126585134Y-31867611D01*
X126336633Y-31750000D01*
X126585134Y-31632389D01*
X126961041Y-31217423D01*
X127121904Y-30829039D01*
X126999915Y-30607000D01*
X125857000Y-30607000D01*
X125603000Y-30607000D01*
X124460085Y-30607000D01*
X124338096Y-30829039D01*
X111925000Y-30829039D01*
X111925000Y-30765750D01*
X111766250Y-30607000D01*
X110617000Y-30607000D01*
X110617000Y-30627000D01*
X110363000Y-30627000D01*
X110363000Y-30607000D01*
X109213750Y-30607000D01*
X109055000Y-30765750D01*
X109055000Y-31406310D01*
X109151673Y-31639699D01*
X109330302Y-31818327D01*
X109561918Y-31914265D01*
X109455423Y-31985423D01*
X109435196Y-32015694D01*
X107945431Y-30525930D01*
X107903029Y-30462471D01*
X107651637Y-30294496D01*
X107429952Y-30250400D01*
X107429947Y-30250400D01*
X107355100Y-30235512D01*
X107280253Y-30250400D01*
X103628544Y-30250400D01*
X103681965Y-30101777D01*
X103655834Y-29553690D01*
X109055000Y-29553690D01*
X109055000Y-30194250D01*
X109213750Y-30353000D01*
X110363000Y-30353000D01*
X110363000Y-29203750D01*
X110617000Y-29203750D01*
X110617000Y-30353000D01*
X111766250Y-30353000D01*
X111925000Y-30194250D01*
X111925000Y-30130961D01*
X124338096Y-30130961D01*
X124460085Y-30353000D01*
X125603000Y-30353000D01*
X125603000Y-29209371D01*
X125857000Y-29209371D01*
X125857000Y-30353000D01*
X126999915Y-30353000D01*
X127121904Y-30130961D01*
X126961041Y-29742577D01*
X126585134Y-29327611D01*
X126079041Y-29088086D01*
X125857000Y-29209371D01*
X125603000Y-29209371D01*
X125380959Y-29088086D01*
X124874866Y-29327611D01*
X124498959Y-29742577D01*
X124338096Y-30130961D01*
X111925000Y-30130961D01*
X111925000Y-29553690D01*
X111828327Y-29320301D01*
X111649698Y-29141673D01*
X111416309Y-29045000D01*
X110775750Y-29045000D01*
X110617000Y-29203750D01*
X110363000Y-29203750D01*
X110204250Y-29045000D01*
X109563691Y-29045000D01*
X109330302Y-29141673D01*
X109151673Y-29320301D01*
X109055000Y-29553690D01*
X103655834Y-29553690D01*
X103654778Y-29531546D01*
X103488864Y-29130995D01*
X103242745Y-29056861D01*
X102414605Y-29885000D01*
X102428748Y-29899143D01*
X102249143Y-30078748D01*
X102235000Y-30064605D01*
X102220858Y-30078748D01*
X102041253Y-29899143D01*
X102055395Y-29885000D01*
X101227255Y-29056861D01*
X100981136Y-29130995D01*
X100788035Y-29668223D01*
X100810224Y-30133622D01*
X99602731Y-28926130D01*
X99560329Y-28862671D01*
X99308937Y-28694696D01*
X99087252Y-28650600D01*
X99087247Y-28650600D01*
X99084230Y-28650000D01*
X101475313Y-28650000D01*
X101406861Y-28877255D01*
X102235000Y-29705395D01*
X103063139Y-28877255D01*
X102994687Y-28650000D01*
X158705334Y-28650000D01*
X159203698Y-28712958D01*
X159628893Y-28881305D01*
X159998858Y-29150101D01*
X160290356Y-29502462D01*
X160485067Y-29916244D01*
X160577093Y-30398662D01*
X160580000Y-30491164D01*
X160580001Y-137115326D01*
X160517042Y-137613699D01*
X160348697Y-138038889D01*
X160079899Y-138408859D01*
X159727541Y-138700355D01*
X159313756Y-138895067D01*
X158831339Y-138987093D01*
X158738836Y-138990000D01*
X78784667Y-138990000D01*
X78286301Y-138927042D01*
X77861111Y-138758697D01*
X77491141Y-138489899D01*
X77199645Y-138137541D01*
X77004933Y-137723756D01*
X76912907Y-137241339D01*
X76910000Y-137148836D01*
X76910000Y-136525000D01*
X81086887Y-136525000D01*
X81198260Y-137084909D01*
X81515423Y-137559577D01*
X81990091Y-137876740D01*
X82408667Y-137960000D01*
X82691333Y-137960000D01*
X83109909Y-137876740D01*
X83584577Y-137559577D01*
X83820000Y-137207242D01*
X84055423Y-137559577D01*
X84530091Y-137876740D01*
X84948667Y-137960000D01*
X85231333Y-137960000D01*
X85649909Y-137876740D01*
X86124577Y-137559577D01*
X86360000Y-137207242D01*
X86595423Y-137559577D01*
X87070091Y-137876740D01*
X87488667Y-137960000D01*
X87771333Y-137960000D01*
X88189909Y-137876740D01*
X88664577Y-137559577D01*
X88900000Y-137207242D01*
X89135423Y-137559577D01*
X89610091Y-137876740D01*
X90028667Y-137960000D01*
X90311333Y-137960000D01*
X90729909Y-137876740D01*
X91204577Y-137559577D01*
X91440000Y-137207242D01*
X91675423Y-137559577D01*
X92150091Y-137876740D01*
X92568667Y-137960000D01*
X92851333Y-137960000D01*
X93269909Y-137876740D01*
X93744577Y-137559577D01*
X93980000Y-137207242D01*
X94215423Y-137559577D01*
X94690091Y-137876740D01*
X95108667Y-137960000D01*
X95391333Y-137960000D01*
X95809909Y-137876740D01*
X96284577Y-137559577D01*
X96520000Y-137207242D01*
X96755423Y-137559577D01*
X97230091Y-137876740D01*
X97648667Y-137960000D01*
X97931333Y-137960000D01*
X98349909Y-137876740D01*
X98824577Y-137559577D01*
X99060000Y-137207242D01*
X99295423Y-137559577D01*
X99770091Y-137876740D01*
X100188667Y-137960000D01*
X100471333Y-137960000D01*
X100889909Y-137876740D01*
X101364577Y-137559577D01*
X101435734Y-137453083D01*
X101531673Y-137684699D01*
X101710302Y-137863327D01*
X101943691Y-137960000D01*
X102584250Y-137960000D01*
X102743000Y-137801250D01*
X102743000Y-136652000D01*
X102997000Y-136652000D01*
X102997000Y-137801250D01*
X103155750Y-137960000D01*
X103796309Y-137960000D01*
X104029698Y-137863327D01*
X104208327Y-137684699D01*
X104305000Y-137451310D01*
X104305000Y-136810750D01*
X104146250Y-136652000D01*
X102997000Y-136652000D01*
X102743000Y-136652000D01*
X102723000Y-136652000D01*
X102723000Y-136525000D01*
X108264887Y-136525000D01*
X108376260Y-137084909D01*
X108693423Y-137559577D01*
X109168091Y-137876740D01*
X109586667Y-137960000D01*
X109869333Y-137960000D01*
X110287909Y-137876740D01*
X110762577Y-137559577D01*
X110948786Y-137280896D01*
X111035667Y-137263614D01*
X111233423Y-137559577D01*
X111708091Y-137876740D01*
X112126667Y-137960000D01*
X112409333Y-137960000D01*
X112827909Y-137876740D01*
X113302577Y-137559577D01*
X113488786Y-137280896D01*
X113575667Y-137263614D01*
X113773423Y-137559577D01*
X114248091Y-137876740D01*
X114666667Y-137960000D01*
X114949333Y-137960000D01*
X115367909Y-137876740D01*
X115842577Y-137559577D01*
X116078000Y-137207242D01*
X116313423Y-137559577D01*
X116788091Y-137876740D01*
X117206667Y-137960000D01*
X117489333Y-137960000D01*
X117907909Y-137876740D01*
X118382577Y-137559577D01*
X118618000Y-137207242D01*
X118853423Y-137559577D01*
X119328091Y-137876740D01*
X119746667Y-137960000D01*
X120029333Y-137960000D01*
X120447909Y-137876740D01*
X120922577Y-137559577D01*
X121108786Y-137280896D01*
X121195667Y-137263614D01*
X121393423Y-137559577D01*
X121868091Y-137876740D01*
X122286667Y-137960000D01*
X122569333Y-137960000D01*
X122987909Y-137876740D01*
X123462577Y-137559577D01*
X123648786Y-137280896D01*
X123735667Y-137263614D01*
X123933423Y-137559577D01*
X124408091Y-137876740D01*
X124826667Y-137960000D01*
X125109333Y-137960000D01*
X125527909Y-137876740D01*
X126002577Y-137559577D01*
X126238000Y-137207242D01*
X126473423Y-137559577D01*
X126948091Y-137876740D01*
X127366667Y-137960000D01*
X127649333Y-137960000D01*
X128067909Y-137876740D01*
X128542577Y-137559577D01*
X128613734Y-137453083D01*
X128709673Y-137684699D01*
X128888302Y-137863327D01*
X129121691Y-137960000D01*
X129762250Y-137960000D01*
X129921000Y-137801250D01*
X129921000Y-136652000D01*
X130175000Y-136652000D01*
X130175000Y-137801250D01*
X130333750Y-137960000D01*
X130974309Y-137960000D01*
X131207698Y-137863327D01*
X131386327Y-137684699D01*
X131483000Y-137451310D01*
X131483000Y-136810750D01*
X131324250Y-136652000D01*
X130175000Y-136652000D01*
X129921000Y-136652000D01*
X129901000Y-136652000D01*
X129901000Y-136525000D01*
X134426887Y-136525000D01*
X134538260Y-137084909D01*
X134855423Y-137559577D01*
X135330091Y-137876740D01*
X135748667Y-137960000D01*
X136031333Y-137960000D01*
X136449909Y-137876740D01*
X136924577Y-137559577D01*
X137160000Y-137207242D01*
X137395423Y-137559577D01*
X137870091Y-137876740D01*
X138288667Y-137960000D01*
X138571333Y-137960000D01*
X138989909Y-137876740D01*
X139464577Y-137559577D01*
X139700000Y-137207242D01*
X139935423Y-137559577D01*
X140410091Y-137876740D01*
X140828667Y-137960000D01*
X141111333Y-137960000D01*
X141529909Y-137876740D01*
X142004577Y-137559577D01*
X142240000Y-137207242D01*
X142475423Y-137559577D01*
X142950091Y-137876740D01*
X143368667Y-137960000D01*
X143651333Y-137960000D01*
X144069909Y-137876740D01*
X144544577Y-137559577D01*
X144780000Y-137207242D01*
X145015423Y-137559577D01*
X145490091Y-137876740D01*
X145908667Y-137960000D01*
X146191333Y-137960000D01*
X146609909Y-137876740D01*
X147084577Y-137559577D01*
X147320000Y-137207242D01*
X147555423Y-137559577D01*
X148030091Y-137876740D01*
X148448667Y-137960000D01*
X148731333Y-137960000D01*
X149149909Y-137876740D01*
X149624577Y-137559577D01*
X149860000Y-137207242D01*
X150095423Y-137559577D01*
X150570091Y-137876740D01*
X150988667Y-137960000D01*
X151271333Y-137960000D01*
X151689909Y-137876740D01*
X152164577Y-137559577D01*
X152400000Y-137207242D01*
X152635423Y-137559577D01*
X153110091Y-137876740D01*
X153528667Y-137960000D01*
X153811333Y-137960000D01*
X154229909Y-137876740D01*
X154704577Y-137559577D01*
X154775734Y-137453083D01*
X154871673Y-137684699D01*
X155050302Y-137863327D01*
X155283691Y-137960000D01*
X155924250Y-137960000D01*
X156083000Y-137801250D01*
X156083000Y-136652000D01*
X156337000Y-136652000D01*
X156337000Y-137801250D01*
X156495750Y-137960000D01*
X157136309Y-137960000D01*
X157369698Y-137863327D01*
X157548327Y-137684699D01*
X157645000Y-137451310D01*
X157645000Y-136810750D01*
X157486250Y-136652000D01*
X156337000Y-136652000D01*
X156083000Y-136652000D01*
X156063000Y-136652000D01*
X156063000Y-136398000D01*
X156083000Y-136398000D01*
X156083000Y-135248750D01*
X156337000Y-135248750D01*
X156337000Y-136398000D01*
X157486250Y-136398000D01*
X157645000Y-136239250D01*
X157645000Y-135598690D01*
X157548327Y-135365301D01*
X157369698Y-135186673D01*
X157136309Y-135090000D01*
X156495750Y-135090000D01*
X156337000Y-135248750D01*
X156083000Y-135248750D01*
X155924250Y-135090000D01*
X155283691Y-135090000D01*
X155050302Y-135186673D01*
X154871673Y-135365301D01*
X154775734Y-135596917D01*
X154704577Y-135490423D01*
X154229909Y-135173260D01*
X153811333Y-135090000D01*
X153528667Y-135090000D01*
X153110091Y-135173260D01*
X152635423Y-135490423D01*
X152400000Y-135842758D01*
X152164577Y-135490423D01*
X151689909Y-135173260D01*
X151271333Y-135090000D01*
X150988667Y-135090000D01*
X150570091Y-135173260D01*
X150095423Y-135490423D01*
X149860000Y-135842758D01*
X149624577Y-135490423D01*
X149149909Y-135173260D01*
X148731333Y-135090000D01*
X148448667Y-135090000D01*
X148030091Y-135173260D01*
X147555423Y-135490423D01*
X147320000Y-135842758D01*
X147084577Y-135490423D01*
X146609909Y-135173260D01*
X146191333Y-135090000D01*
X145908667Y-135090000D01*
X145490091Y-135173260D01*
X145015423Y-135490423D01*
X144780000Y-135842758D01*
X144544577Y-135490423D01*
X144069909Y-135173260D01*
X143651333Y-135090000D01*
X143368667Y-135090000D01*
X142950091Y-135173260D01*
X142475423Y-135490423D01*
X142240000Y-135842758D01*
X142004577Y-135490423D01*
X141529909Y-135173260D01*
X141111333Y-135090000D01*
X140828667Y-135090000D01*
X140410091Y-135173260D01*
X139935423Y-135490423D01*
X139700000Y-135842758D01*
X139464577Y-135490423D01*
X138989909Y-135173260D01*
X138571333Y-135090000D01*
X138288667Y-135090000D01*
X137870091Y-135173260D01*
X137395423Y-135490423D01*
X137160000Y-135842758D01*
X136924577Y-135490423D01*
X136449909Y-135173260D01*
X136031333Y-135090000D01*
X135748667Y-135090000D01*
X135330091Y-135173260D01*
X134855423Y-135490423D01*
X134538260Y-135965091D01*
X134426887Y-136525000D01*
X129901000Y-136525000D01*
X129901000Y-136398000D01*
X129921000Y-136398000D01*
X129921000Y-135248750D01*
X130175000Y-135248750D01*
X130175000Y-136398000D01*
X131324250Y-136398000D01*
X131483000Y-136239250D01*
X131483000Y-135598690D01*
X131386327Y-135365301D01*
X131207698Y-135186673D01*
X130974309Y-135090000D01*
X130333750Y-135090000D01*
X130175000Y-135248750D01*
X129921000Y-135248750D01*
X129762250Y-135090000D01*
X129319801Y-135090000D01*
X129608379Y-134801423D01*
X129783596Y-134874000D01*
X130440404Y-134874000D01*
X131047216Y-134622650D01*
X131511650Y-134158216D01*
X131763000Y-133551404D01*
X131763000Y-132894596D01*
X131826000Y-132894596D01*
X131826000Y-133551404D01*
X132077350Y-134158216D01*
X132541784Y-134622650D01*
X133148596Y-134874000D01*
X133805404Y-134874000D01*
X134412216Y-134622650D01*
X134747000Y-134287866D01*
X135081784Y-134622650D01*
X135688596Y-134874000D01*
X136345404Y-134874000D01*
X136952216Y-134622650D01*
X137287000Y-134287866D01*
X137621784Y-134622650D01*
X138228596Y-134874000D01*
X138885404Y-134874000D01*
X139492216Y-134622650D01*
X139827000Y-134287866D01*
X140161784Y-134622650D01*
X140768596Y-134874000D01*
X141425404Y-134874000D01*
X142032216Y-134622650D01*
X142367000Y-134287866D01*
X142701784Y-134622650D01*
X143308596Y-134874000D01*
X143965404Y-134874000D01*
X144572216Y-134622650D01*
X144907000Y-134287866D01*
X145241784Y-134622650D01*
X145848596Y-134874000D01*
X146505404Y-134874000D01*
X147112216Y-134622650D01*
X147447000Y-134287866D01*
X147781784Y-134622650D01*
X148388596Y-134874000D01*
X149045404Y-134874000D01*
X149652216Y-134622650D01*
X149987000Y-134287866D01*
X150321784Y-134622650D01*
X150928596Y-134874000D01*
X151585404Y-134874000D01*
X152192216Y-134622650D01*
X152527000Y-134287866D01*
X152861784Y-134622650D01*
X153468596Y-134874000D01*
X154125404Y-134874000D01*
X154732216Y-134622650D01*
X155067000Y-134287866D01*
X155401784Y-134622650D01*
X156008596Y-134874000D01*
X156665404Y-134874000D01*
X157272216Y-134622650D01*
X157736650Y-134158216D01*
X157988000Y-133551404D01*
X157988000Y-132894596D01*
X157736650Y-132287784D01*
X157272216Y-131823350D01*
X156665404Y-131572000D01*
X156008596Y-131572000D01*
X155401784Y-131823350D01*
X155067000Y-132158134D01*
X154732216Y-131823350D01*
X154125404Y-131572000D01*
X153468596Y-131572000D01*
X152861784Y-131823350D01*
X152527000Y-132158134D01*
X152192216Y-131823350D01*
X151585404Y-131572000D01*
X150928596Y-131572000D01*
X150321784Y-131823350D01*
X149987000Y-132158134D01*
X149652216Y-131823350D01*
X149045404Y-131572000D01*
X148388596Y-131572000D01*
X147781784Y-131823350D01*
X147447000Y-132158134D01*
X147112216Y-131823350D01*
X146505404Y-131572000D01*
X145848596Y-131572000D01*
X145241784Y-131823350D01*
X144907000Y-132158134D01*
X144572216Y-131823350D01*
X143965404Y-131572000D01*
X143308596Y-131572000D01*
X142701784Y-131823350D01*
X142367000Y-132158134D01*
X142032216Y-131823350D01*
X141425404Y-131572000D01*
X140768596Y-131572000D01*
X140161784Y-131823350D01*
X139827000Y-132158134D01*
X139492216Y-131823350D01*
X138885404Y-131572000D01*
X138228596Y-131572000D01*
X137621784Y-131823350D01*
X137287000Y-132158134D01*
X136952216Y-131823350D01*
X136345404Y-131572000D01*
X135688596Y-131572000D01*
X135081784Y-131823350D01*
X134747000Y-132158134D01*
X134412216Y-131823350D01*
X133805404Y-131572000D01*
X133148596Y-131572000D01*
X132541784Y-131823350D01*
X132077350Y-132287784D01*
X131826000Y-132894596D01*
X131763000Y-132894596D01*
X131511650Y-132287784D01*
X131047216Y-131823350D01*
X130440404Y-131572000D01*
X129783596Y-131572000D01*
X129176784Y-131823350D01*
X128842000Y-132158134D01*
X128507216Y-131823350D01*
X127900404Y-131572000D01*
X127243596Y-131572000D01*
X126636784Y-131823350D01*
X126302000Y-132158134D01*
X125967216Y-131823350D01*
X125360404Y-131572000D01*
X124703596Y-131572000D01*
X124096784Y-131823350D01*
X123762000Y-132158134D01*
X123427216Y-131823350D01*
X122820404Y-131572000D01*
X122163596Y-131572000D01*
X121556784Y-131823350D01*
X121222000Y-132158134D01*
X120887216Y-131823350D01*
X120280404Y-131572000D01*
X119623596Y-131572000D01*
X119016784Y-131823350D01*
X118682000Y-132158134D01*
X118347216Y-131823350D01*
X117740404Y-131572000D01*
X117083596Y-131572000D01*
X116476784Y-131823350D01*
X116054677Y-132245457D01*
X116036107Y-132238498D01*
X115051605Y-133223000D01*
X115065748Y-133237143D01*
X114886143Y-133416748D01*
X114872000Y-133402605D01*
X114857858Y-133416748D01*
X114678253Y-133237143D01*
X114692395Y-133223000D01*
X113707893Y-132238498D01*
X113602000Y-132278180D01*
X113496107Y-132238498D01*
X112511605Y-133223000D01*
X112525748Y-133237143D01*
X112346143Y-133416748D01*
X112332000Y-133402605D01*
X111347498Y-134387107D01*
X111425892Y-134596306D01*
X110624222Y-135397977D01*
X110287909Y-135173260D01*
X109869333Y-135090000D01*
X109586667Y-135090000D01*
X109168091Y-135173260D01*
X108693423Y-135490423D01*
X108376260Y-135965091D01*
X108264887Y-136525000D01*
X102723000Y-136525000D01*
X102723000Y-136398000D01*
X102743000Y-136398000D01*
X102743000Y-135248750D01*
X102997000Y-135248750D01*
X102997000Y-136398000D01*
X104146250Y-136398000D01*
X104305000Y-136239250D01*
X104305000Y-135598690D01*
X104208327Y-135365301D01*
X104029698Y-135186673D01*
X103796309Y-135090000D01*
X103155750Y-135090000D01*
X102997000Y-135248750D01*
X102743000Y-135248750D01*
X102584250Y-135090000D01*
X101943691Y-135090000D01*
X101710302Y-135186673D01*
X101531673Y-135365301D01*
X101435734Y-135596917D01*
X101364577Y-135490423D01*
X100889909Y-135173260D01*
X100471333Y-135090000D01*
X100188667Y-135090000D01*
X99770091Y-135173260D01*
X99295423Y-135490423D01*
X99060000Y-135842758D01*
X98824577Y-135490423D01*
X98349909Y-135173260D01*
X97931333Y-135090000D01*
X97648667Y-135090000D01*
X97230091Y-135173260D01*
X96755423Y-135490423D01*
X96520000Y-135842758D01*
X96284577Y-135490423D01*
X95809909Y-135173260D01*
X95391333Y-135090000D01*
X95108667Y-135090000D01*
X94690091Y-135173260D01*
X94215423Y-135490423D01*
X93980000Y-135842758D01*
X93744577Y-135490423D01*
X93269909Y-135173260D01*
X92851333Y-135090000D01*
X92568667Y-135090000D01*
X92150091Y-135173260D01*
X91675423Y-135490423D01*
X91440000Y-135842758D01*
X91204577Y-135490423D01*
X90729909Y-135173260D01*
X90311333Y-135090000D01*
X90028667Y-135090000D01*
X89610091Y-135173260D01*
X89135423Y-135490423D01*
X88900000Y-135842758D01*
X88664577Y-135490423D01*
X88189909Y-135173260D01*
X87771333Y-135090000D01*
X87488667Y-135090000D01*
X87070091Y-135173260D01*
X86595423Y-135490423D01*
X86360000Y-135842758D01*
X86124577Y-135490423D01*
X85649909Y-135173260D01*
X85231333Y-135090000D01*
X84948667Y-135090000D01*
X84530091Y-135173260D01*
X84055423Y-135490423D01*
X83820000Y-135842758D01*
X83584577Y-135490423D01*
X83109909Y-135173260D01*
X82691333Y-135090000D01*
X82408667Y-135090000D01*
X81990091Y-135173260D01*
X81515423Y-135490423D01*
X81198260Y-135965091D01*
X81086887Y-136525000D01*
X76910000Y-136525000D01*
X76910000Y-134387107D01*
X79025498Y-134387107D01*
X79126120Y-134655622D01*
X79741642Y-134884816D01*
X80398019Y-134861014D01*
X80893880Y-134655622D01*
X80994502Y-134387107D01*
X81565498Y-134387107D01*
X81666120Y-134655622D01*
X82281642Y-134884816D01*
X82938019Y-134861014D01*
X83433880Y-134655622D01*
X83534502Y-134387107D01*
X82550000Y-133402605D01*
X81565498Y-134387107D01*
X80994502Y-134387107D01*
X80010000Y-133402605D01*
X79025498Y-134387107D01*
X76910000Y-134387107D01*
X76910000Y-132954642D01*
X78348184Y-132954642D01*
X78371986Y-133611019D01*
X78577378Y-134106880D01*
X78845893Y-134207502D01*
X79830395Y-133223000D01*
X80189605Y-133223000D01*
X81174107Y-134207502D01*
X81280000Y-134167820D01*
X81385893Y-134207502D01*
X82370395Y-133223000D01*
X82729605Y-133223000D01*
X83714107Y-134207502D01*
X83732677Y-134200543D01*
X84154784Y-134622650D01*
X84761596Y-134874000D01*
X85418404Y-134874000D01*
X86025216Y-134622650D01*
X86360000Y-134287866D01*
X86694784Y-134622650D01*
X87301596Y-134874000D01*
X87958404Y-134874000D01*
X88565216Y-134622650D01*
X88900000Y-134287866D01*
X89234784Y-134622650D01*
X89841596Y-134874000D01*
X90498404Y-134874000D01*
X91105216Y-134622650D01*
X91440000Y-134287866D01*
X91774784Y-134622650D01*
X92381596Y-134874000D01*
X93038404Y-134874000D01*
X93645216Y-134622650D01*
X93980000Y-134287866D01*
X94314784Y-134622650D01*
X94921596Y-134874000D01*
X95578404Y-134874000D01*
X96185216Y-134622650D01*
X96520000Y-134287866D01*
X96854784Y-134622650D01*
X97461596Y-134874000D01*
X98118404Y-134874000D01*
X98725216Y-134622650D01*
X99060000Y-134287866D01*
X99394784Y-134622650D01*
X100001596Y-134874000D01*
X100658404Y-134874000D01*
X101265216Y-134622650D01*
X101600000Y-134287866D01*
X101934784Y-134622650D01*
X102541596Y-134874000D01*
X103198404Y-134874000D01*
X103805216Y-134622650D01*
X104040759Y-134387107D01*
X106267498Y-134387107D01*
X106368120Y-134655622D01*
X106983642Y-134884816D01*
X107640019Y-134861014D01*
X108135880Y-134655622D01*
X108236502Y-134387107D01*
X108807498Y-134387107D01*
X108908120Y-134655622D01*
X109523642Y-134884816D01*
X110180019Y-134861014D01*
X110675880Y-134655622D01*
X110776502Y-134387107D01*
X109792000Y-133402605D01*
X108807498Y-134387107D01*
X108236502Y-134387107D01*
X107252000Y-133402605D01*
X106267498Y-134387107D01*
X104040759Y-134387107D01*
X104269650Y-134158216D01*
X104521000Y-133551404D01*
X104521000Y-132954642D01*
X105590184Y-132954642D01*
X105613986Y-133611019D01*
X105819378Y-134106880D01*
X106087893Y-134207502D01*
X107072395Y-133223000D01*
X107431605Y-133223000D01*
X108416107Y-134207502D01*
X108522000Y-134167820D01*
X108627893Y-134207502D01*
X109612395Y-133223000D01*
X109971605Y-133223000D01*
X110956107Y-134207502D01*
X111062000Y-134167820D01*
X111167893Y-134207502D01*
X112152395Y-133223000D01*
X111167893Y-132238498D01*
X111062000Y-132278180D01*
X110956107Y-132238498D01*
X109971605Y-133223000D01*
X109612395Y-133223000D01*
X108627893Y-132238498D01*
X108522000Y-132278180D01*
X108416107Y-132238498D01*
X107431605Y-133223000D01*
X107072395Y-133223000D01*
X106087893Y-132238498D01*
X105819378Y-132339120D01*
X105590184Y-132954642D01*
X104521000Y-132954642D01*
X104521000Y-132894596D01*
X104269650Y-132287784D01*
X104040759Y-132058893D01*
X106267498Y-132058893D01*
X107252000Y-133043395D01*
X108236502Y-132058893D01*
X108807498Y-132058893D01*
X109792000Y-133043395D01*
X110776502Y-132058893D01*
X111347498Y-132058893D01*
X112332000Y-133043395D01*
X113316502Y-132058893D01*
X113887498Y-132058893D01*
X114872000Y-133043395D01*
X115856502Y-132058893D01*
X115755880Y-131790378D01*
X115140358Y-131561184D01*
X114483981Y-131584986D01*
X113988120Y-131790378D01*
X113887498Y-132058893D01*
X113316502Y-132058893D01*
X113215880Y-131790378D01*
X112600358Y-131561184D01*
X111943981Y-131584986D01*
X111448120Y-131790378D01*
X111347498Y-132058893D01*
X110776502Y-132058893D01*
X110675880Y-131790378D01*
X110060358Y-131561184D01*
X109403981Y-131584986D01*
X108908120Y-131790378D01*
X108807498Y-132058893D01*
X108236502Y-132058893D01*
X108135880Y-131790378D01*
X107520358Y-131561184D01*
X106863981Y-131584986D01*
X106368120Y-131790378D01*
X106267498Y-132058893D01*
X104040759Y-132058893D01*
X103805216Y-131823350D01*
X103198404Y-131572000D01*
X102541596Y-131572000D01*
X101934784Y-131823350D01*
X101600000Y-132158134D01*
X101265216Y-131823350D01*
X100658404Y-131572000D01*
X100001596Y-131572000D01*
X99394784Y-131823350D01*
X99060000Y-132158134D01*
X98725216Y-131823350D01*
X98118404Y-131572000D01*
X97461596Y-131572000D01*
X96854784Y-131823350D01*
X96520000Y-132158134D01*
X96185216Y-131823350D01*
X95578404Y-131572000D01*
X94921596Y-131572000D01*
X94314784Y-131823350D01*
X93980000Y-132158134D01*
X93645216Y-131823350D01*
X93038404Y-131572000D01*
X92381596Y-131572000D01*
X91774784Y-131823350D01*
X91440000Y-132158134D01*
X91105216Y-131823350D01*
X90498404Y-131572000D01*
X89841596Y-131572000D01*
X89234784Y-131823350D01*
X88900000Y-132158134D01*
X88565216Y-131823350D01*
X87958404Y-131572000D01*
X87301596Y-131572000D01*
X86694784Y-131823350D01*
X86360000Y-132158134D01*
X86025216Y-131823350D01*
X85418404Y-131572000D01*
X84761596Y-131572000D01*
X84154784Y-131823350D01*
X83732677Y-132245457D01*
X83714107Y-132238498D01*
X82729605Y-133223000D01*
X82370395Y-133223000D01*
X81385893Y-132238498D01*
X81280000Y-132278180D01*
X81174107Y-132238498D01*
X80189605Y-133223000D01*
X79830395Y-133223000D01*
X78845893Y-132238498D01*
X78577378Y-132339120D01*
X78348184Y-132954642D01*
X76910000Y-132954642D01*
X76910000Y-132058893D01*
X79025498Y-132058893D01*
X80010000Y-133043395D01*
X80994502Y-132058893D01*
X81565498Y-132058893D01*
X82550000Y-133043395D01*
X83534502Y-132058893D01*
X83433880Y-131790378D01*
X82818358Y-131561184D01*
X82161981Y-131584986D01*
X81666120Y-131790378D01*
X81565498Y-132058893D01*
X80994502Y-132058893D01*
X80893880Y-131790378D01*
X80278358Y-131561184D01*
X79621981Y-131584986D01*
X79126120Y-131790378D01*
X79025498Y-132058893D01*
X76910000Y-132058893D01*
X76910000Y-126767107D01*
X79025498Y-126767107D01*
X79126120Y-127035622D01*
X79741642Y-127264816D01*
X80398019Y-127241014D01*
X80893880Y-127035622D01*
X80994502Y-126767107D01*
X81565498Y-126767107D01*
X81666120Y-127035622D01*
X82281642Y-127264816D01*
X82938019Y-127241014D01*
X83433880Y-127035622D01*
X83534502Y-126767107D01*
X82550000Y-125782605D01*
X81565498Y-126767107D01*
X80994502Y-126767107D01*
X80010000Y-125782605D01*
X79025498Y-126767107D01*
X76910000Y-126767107D01*
X76910000Y-125334642D01*
X78348184Y-125334642D01*
X78371986Y-125991019D01*
X78577378Y-126486880D01*
X78845893Y-126587502D01*
X79830395Y-125603000D01*
X80189605Y-125603000D01*
X81174107Y-126587502D01*
X81280000Y-126547820D01*
X81385893Y-126587502D01*
X82370395Y-125603000D01*
X81385893Y-124618498D01*
X81280000Y-124658180D01*
X81174107Y-124618498D01*
X80189605Y-125603000D01*
X79830395Y-125603000D01*
X78845893Y-124618498D01*
X78577378Y-124719120D01*
X78348184Y-125334642D01*
X76910000Y-125334642D01*
X76910000Y-124438893D01*
X79025498Y-124438893D01*
X80010000Y-125423395D01*
X80994502Y-124438893D01*
X81565498Y-124438893D01*
X82550000Y-125423395D01*
X83534502Y-124438893D01*
X83433880Y-124170378D01*
X82818358Y-123941184D01*
X82161981Y-123964986D01*
X81666120Y-124170378D01*
X81565498Y-124438893D01*
X80994502Y-124438893D01*
X80893880Y-124170378D01*
X80278358Y-123941184D01*
X79621981Y-123964986D01*
X79126120Y-124170378D01*
X79025498Y-124438893D01*
X76910000Y-124438893D01*
X76910000Y-103854041D01*
X87508086Y-103854041D01*
X87747611Y-104360134D01*
X88162577Y-104736041D01*
X88550961Y-104896904D01*
X88773000Y-104774915D01*
X88773000Y-103632000D01*
X87629371Y-103632000D01*
X87508086Y-103854041D01*
X76910000Y-103854041D01*
X76910000Y-103155959D01*
X87508086Y-103155959D01*
X87629371Y-103378000D01*
X88773000Y-103378000D01*
X88773000Y-102235085D01*
X88550961Y-102113096D01*
X88162577Y-102273959D01*
X87747611Y-102649866D01*
X87508086Y-103155959D01*
X76910000Y-103155959D01*
X76910000Y-98162745D01*
X79856861Y-98162745D01*
X79930995Y-98408864D01*
X80468223Y-98601965D01*
X81038454Y-98574778D01*
X81439005Y-98408864D01*
X81513139Y-98162745D01*
X80685000Y-97334605D01*
X79856861Y-98162745D01*
X76910000Y-98162745D01*
X76910000Y-96938223D01*
X79238035Y-96938223D01*
X79265222Y-97508454D01*
X79431136Y-97909005D01*
X79677255Y-97983139D01*
X80505395Y-97155000D01*
X79677255Y-96326861D01*
X79431136Y-96400995D01*
X79238035Y-96938223D01*
X76910000Y-96938223D01*
X76910000Y-96147255D01*
X79856861Y-96147255D01*
X80685000Y-96975395D01*
X81513139Y-96147255D01*
X81439005Y-95901136D01*
X80901777Y-95708035D01*
X80331546Y-95735222D01*
X79930995Y-95901136D01*
X79856861Y-96147255D01*
X76910000Y-96147255D01*
X76910000Y-83185000D01*
X80451887Y-83185000D01*
X80563260Y-83744909D01*
X80880423Y-84219577D01*
X81159106Y-84405787D01*
X81199097Y-84606837D01*
X81323797Y-84793463D01*
X81367072Y-84858229D01*
X81430528Y-84900629D01*
X82098233Y-85568335D01*
X82056333Y-85560000D01*
X81773667Y-85560000D01*
X81355091Y-85643260D01*
X80880423Y-85960423D01*
X80563260Y-86435091D01*
X80451887Y-86995000D01*
X80563260Y-87554909D01*
X80880423Y-88029577D01*
X81159106Y-88215787D01*
X81164870Y-88244769D01*
X81199097Y-88416837D01*
X81308924Y-88581204D01*
X81367072Y-88668229D01*
X81430528Y-88710629D01*
X82234500Y-89514602D01*
X82234501Y-91779688D01*
X82209960Y-91789853D01*
X81820353Y-92179460D01*
X81609500Y-92688506D01*
X81609500Y-93239494D01*
X81820353Y-93748540D01*
X82209960Y-94138147D01*
X82234500Y-94148312D01*
X82234501Y-96076103D01*
X81968466Y-96342138D01*
X81941475Y-96407299D01*
X81938864Y-96400995D01*
X81692745Y-96326861D01*
X80864605Y-97155000D01*
X81692745Y-97983139D01*
X81938864Y-97909005D01*
X81941290Y-97902254D01*
X81968466Y-97967862D01*
X82372138Y-98371534D01*
X82899561Y-98590000D01*
X83470439Y-98590000D01*
X83997862Y-98371534D01*
X84401534Y-97967862D01*
X84620000Y-97440439D01*
X84620000Y-96869561D01*
X84401534Y-96342138D01*
X83997862Y-95938466D01*
X83754500Y-95837662D01*
X83754500Y-94148312D01*
X83779040Y-94138147D01*
X84168647Y-93748540D01*
X84379500Y-93239494D01*
X84379500Y-92688506D01*
X84168647Y-92179460D01*
X83779040Y-91789853D01*
X83754500Y-91779688D01*
X83754500Y-89274648D01*
X83769388Y-89199800D01*
X83754500Y-89124952D01*
X83754500Y-89124948D01*
X83710404Y-88903263D01*
X83542429Y-88651871D01*
X83478973Y-88609471D01*
X82919305Y-88049804D01*
X82949577Y-88029577D01*
X83266740Y-87554909D01*
X83378113Y-86995000D01*
X83341666Y-86811767D01*
X87114500Y-90584602D01*
X87114501Y-91779688D01*
X87089960Y-91789853D01*
X86700353Y-92179460D01*
X86489500Y-92688506D01*
X86489500Y-93239494D01*
X86700353Y-93748540D01*
X86870000Y-93918187D01*
X86870001Y-95916570D01*
X86817138Y-95938466D01*
X86413466Y-96342138D01*
X86195000Y-96869561D01*
X86195000Y-97440439D01*
X86413466Y-97967862D01*
X86817138Y-98371534D01*
X87344561Y-98590000D01*
X87915439Y-98590000D01*
X88442862Y-98371534D01*
X88651651Y-98162745D01*
X89301861Y-98162745D01*
X89375995Y-98408864D01*
X89913223Y-98601965D01*
X90483454Y-98574778D01*
X90884005Y-98408864D01*
X90958139Y-98162745D01*
X90130000Y-97334605D01*
X89301861Y-98162745D01*
X88651651Y-98162745D01*
X88846534Y-97967862D01*
X88873525Y-97902701D01*
X88876136Y-97909005D01*
X89122255Y-97983139D01*
X89950395Y-97155000D01*
X90309605Y-97155000D01*
X91137745Y-97983139D01*
X91383864Y-97909005D01*
X91576965Y-97371777D01*
X91549778Y-96801546D01*
X91383864Y-96400995D01*
X91137745Y-96326861D01*
X90309605Y-97155000D01*
X89950395Y-97155000D01*
X89122255Y-96326861D01*
X88876136Y-96400995D01*
X88873710Y-96407746D01*
X88846534Y-96342138D01*
X88651651Y-96147255D01*
X89301861Y-96147255D01*
X90130000Y-96975395D01*
X90958139Y-96147255D01*
X90884005Y-95901136D01*
X90346777Y-95708035D01*
X89776546Y-95735222D01*
X89375995Y-95901136D01*
X89301861Y-96147255D01*
X88651651Y-96147255D01*
X88442862Y-95938466D01*
X88390000Y-95916570D01*
X88390000Y-94249587D01*
X88659040Y-94138147D01*
X89048647Y-93748540D01*
X89259500Y-93239494D01*
X89259500Y-92688506D01*
X89048647Y-92179460D01*
X88659040Y-91789853D01*
X88634500Y-91779688D01*
X88634500Y-90344648D01*
X88649388Y-90269800D01*
X88634500Y-90194952D01*
X88634500Y-90194948D01*
X88593554Y-89989100D01*
X88590404Y-89973262D01*
X88464829Y-89785327D01*
X88422429Y-89721871D01*
X88358973Y-89679471D01*
X82919305Y-84239804D01*
X82949577Y-84219577D01*
X83266740Y-83744909D01*
X83378113Y-83185000D01*
X83266740Y-82625091D01*
X82949577Y-82150423D01*
X82474909Y-81833260D01*
X82056333Y-81750000D01*
X81773667Y-81750000D01*
X81355091Y-81833260D01*
X80880423Y-82150423D01*
X80563260Y-82625091D01*
X80451887Y-83185000D01*
X76910000Y-83185000D01*
X76910000Y-80382745D01*
X98906861Y-80382745D01*
X98980995Y-80628864D01*
X99518223Y-80821965D01*
X100088454Y-80794778D01*
X100489005Y-80628864D01*
X100563139Y-80382745D01*
X99735000Y-79554605D01*
X98906861Y-80382745D01*
X76910000Y-80382745D01*
X76910000Y-79158223D01*
X98288035Y-79158223D01*
X98315222Y-79728454D01*
X98481136Y-80129005D01*
X98727255Y-80203139D01*
X99555395Y-79375000D01*
X98727255Y-78546861D01*
X98481136Y-78620995D01*
X98288035Y-79158223D01*
X76910000Y-79158223D01*
X76910000Y-70244615D01*
X95035000Y-70244615D01*
X95035000Y-70835385D01*
X95261078Y-71381185D01*
X95678815Y-71798922D01*
X96224615Y-72025000D01*
X96815385Y-72025000D01*
X97361185Y-71798922D01*
X97778922Y-71381185D01*
X98005000Y-70835385D01*
X98005000Y-70244615D01*
X97778922Y-69698815D01*
X97361185Y-69281078D01*
X96815385Y-69055000D01*
X96224615Y-69055000D01*
X95678815Y-69281078D01*
X95261078Y-69698815D01*
X95035000Y-70244615D01*
X76910000Y-70244615D01*
X76910000Y-65744615D01*
X95035000Y-65744615D01*
X95035000Y-66335385D01*
X95261078Y-66881185D01*
X95678815Y-67298922D01*
X96224615Y-67525000D01*
X96815385Y-67525000D01*
X97361185Y-67298922D01*
X97778922Y-66881185D01*
X98005000Y-66335385D01*
X98005000Y-65744615D01*
X97778922Y-65198815D01*
X97361185Y-64781078D01*
X96815385Y-64555000D01*
X96224615Y-64555000D01*
X95678815Y-64781078D01*
X95261078Y-65198815D01*
X95035000Y-65744615D01*
X76910000Y-65744615D01*
X76910000Y-35978223D01*
X78603035Y-35978223D01*
X78630222Y-36548454D01*
X78796136Y-36949005D01*
X79042255Y-37023139D01*
X79870395Y-36195000D01*
X79042255Y-35366861D01*
X78796136Y-35440995D01*
X78603035Y-35978223D01*
X76910000Y-35978223D01*
X76910000Y-30898223D01*
X78563035Y-30898223D01*
X78590222Y-31468454D01*
X78756136Y-31869005D01*
X79002255Y-31943139D01*
X79830395Y-31115000D01*
X79002255Y-30286861D01*
X78756136Y-30360995D01*
X78563035Y-30898223D01*
X76910000Y-30898223D01*
X76910000Y-30524666D01*
X76972958Y-30026302D01*
X77141305Y-29601107D01*
X77410101Y-29231142D01*
X77762462Y-28939644D01*
X78176244Y-28744933D01*
X78658662Y-28652907D01*
X78751164Y-28650000D01*
X82526869Y-28650000D01*
X82523852Y-28650600D01*
G36*
X132279375Y-122990625D02*
X132590001Y-123198178D01*
X132590000Y-124183378D01*
X132541784Y-124203350D01*
X132077350Y-124667784D01*
X131826000Y-125274596D01*
X131826000Y-125931404D01*
X131947653Y-126225100D01*
X131775440Y-126225100D01*
X131775440Y-124587000D01*
X131726157Y-124339235D01*
X131585809Y-124129191D01*
X131420154Y-124018503D01*
X131525904Y-123860237D01*
X131570000Y-123638552D01*
X131570000Y-123638548D01*
X131584888Y-123563701D01*
X131570000Y-123488854D01*
X131570000Y-123198178D01*
X131880625Y-122990625D01*
X132080000Y-122692239D01*
X132279375Y-122990625D01*
X132279375Y-122990625D01*
G37*
X132279375Y-122990625D02*
X132590001Y-123198178D01*
X132590000Y-124183378D01*
X132541784Y-124203350D01*
X132077350Y-124667784D01*
X131826000Y-125274596D01*
X131826000Y-125931404D01*
X131947653Y-126225100D01*
X131775440Y-126225100D01*
X131775440Y-124587000D01*
X131726157Y-124339235D01*
X131585809Y-124129191D01*
X131420154Y-124018503D01*
X131525904Y-123860237D01*
X131570000Y-123638552D01*
X131570000Y-123638548D01*
X131584888Y-123563701D01*
X131570000Y-123488854D01*
X131570000Y-123198178D01*
X131880625Y-122990625D01*
X132080000Y-122692239D01*
X132279375Y-122990625D01*
G36*
X107059000Y-109160274D02*
X107216569Y-109540680D01*
X107332481Y-109656592D01*
X107319112Y-109723800D01*
X107334000Y-109798647D01*
X107334000Y-109798651D01*
X107378096Y-110020336D01*
X107546071Y-110271729D01*
X107609530Y-110314131D01*
X109389493Y-112094095D01*
X109138260Y-112470091D01*
X109026887Y-113030000D01*
X109138260Y-113589909D01*
X109455423Y-114064577D01*
X109485694Y-114084803D01*
X108022199Y-115548300D01*
X108013726Y-115548300D01*
X107633320Y-115705869D01*
X107342169Y-115997020D01*
X107184600Y-116377426D01*
X107184600Y-116789174D01*
X107342169Y-117169580D01*
X107633320Y-117460731D01*
X108013726Y-117618300D01*
X108425474Y-117618300D01*
X108805880Y-117460731D01*
X109097031Y-117169580D01*
X109254600Y-116789174D01*
X109254600Y-116465501D01*
X110974476Y-114745627D01*
X111037929Y-114703229D01*
X111080327Y-114639776D01*
X111080329Y-114639774D01*
X111178307Y-114493139D01*
X111205904Y-114451837D01*
X111245896Y-114250786D01*
X111524577Y-114064577D01*
X111841740Y-113589909D01*
X111937747Y-113107248D01*
X112445744Y-113615246D01*
X112159120Y-113733969D01*
X111867969Y-114025120D01*
X111710400Y-114405526D01*
X111710400Y-114817274D01*
X111867969Y-115197680D01*
X112159120Y-115488831D01*
X112539526Y-115646400D01*
X112705599Y-115646400D01*
X117350000Y-120290802D01*
X117350000Y-120641822D01*
X117039375Y-120849375D01*
X116711161Y-121340582D01*
X116595908Y-121920000D01*
X116711161Y-122499418D01*
X117039375Y-122990625D01*
X117099620Y-123030879D01*
X116927530Y-123202969D01*
X116864071Y-123245371D01*
X116696096Y-123496764D01*
X116652000Y-123718449D01*
X116652000Y-123718453D01*
X116637112Y-123793300D01*
X116652000Y-123868147D01*
X116652000Y-124130773D01*
X116476784Y-124203350D01*
X116054677Y-124625457D01*
X116036107Y-124618498D01*
X115051605Y-125603000D01*
X115065748Y-125617143D01*
X114886143Y-125796748D01*
X114872000Y-125782605D01*
X114857858Y-125796748D01*
X114678253Y-125617143D01*
X114692395Y-125603000D01*
X113707893Y-124618498D01*
X113602000Y-124658180D01*
X113496107Y-124618498D01*
X112511605Y-125603000D01*
X112525748Y-125617143D01*
X112346143Y-125796748D01*
X112332000Y-125782605D01*
X112317858Y-125796748D01*
X112138253Y-125617143D01*
X112152395Y-125603000D01*
X111167893Y-124618498D01*
X111062000Y-124658180D01*
X110956107Y-124618498D01*
X109971605Y-125603000D01*
X109985748Y-125617143D01*
X109806143Y-125796748D01*
X109792000Y-125782605D01*
X109777858Y-125796748D01*
X109598253Y-125617143D01*
X109612395Y-125603000D01*
X108627893Y-124618498D01*
X108522000Y-124658180D01*
X108416107Y-124618498D01*
X107431605Y-125603000D01*
X107445748Y-125617143D01*
X107266143Y-125796748D01*
X107252000Y-125782605D01*
X107237858Y-125796748D01*
X107058253Y-125617143D01*
X107072395Y-125603000D01*
X106087893Y-124618498D01*
X105819378Y-124719120D01*
X105590184Y-125334642D01*
X105613986Y-125991019D01*
X105710945Y-126225100D01*
X104533440Y-126225100D01*
X104533440Y-124587000D01*
X104503980Y-124438893D01*
X106267498Y-124438893D01*
X107252000Y-125423395D01*
X108236502Y-124438893D01*
X108807498Y-124438893D01*
X109792000Y-125423395D01*
X110776502Y-124438893D01*
X111347498Y-124438893D01*
X112332000Y-125423395D01*
X113316502Y-124438893D01*
X113887498Y-124438893D01*
X114872000Y-125423395D01*
X115856502Y-124438893D01*
X115755880Y-124170378D01*
X115140358Y-123941184D01*
X114483981Y-123964986D01*
X113988120Y-124170378D01*
X113887498Y-124438893D01*
X113316502Y-124438893D01*
X113215880Y-124170378D01*
X112600358Y-123941184D01*
X111943981Y-123964986D01*
X111448120Y-124170378D01*
X111347498Y-124438893D01*
X110776502Y-124438893D01*
X110675880Y-124170378D01*
X110060358Y-123941184D01*
X109403981Y-123964986D01*
X108908120Y-124170378D01*
X108807498Y-124438893D01*
X108236502Y-124438893D01*
X108135880Y-124170378D01*
X107520358Y-123941184D01*
X106863981Y-123964986D01*
X106368120Y-124170378D01*
X106267498Y-124438893D01*
X104503980Y-124438893D01*
X104484157Y-124339235D01*
X104343809Y-124129191D01*
X104133765Y-123988843D01*
X103886000Y-123939560D01*
X103630000Y-123939560D01*
X103630000Y-123417440D01*
X103720000Y-123417440D01*
X103967765Y-123368157D01*
X104177809Y-123227809D01*
X104318157Y-123017765D01*
X104367440Y-122770000D01*
X104367440Y-121070000D01*
X104318157Y-120822235D01*
X104177809Y-120612191D01*
X103967765Y-120471843D01*
X103720000Y-120422560D01*
X103630000Y-120422560D01*
X103630000Y-115006984D01*
X103854561Y-115100000D01*
X104425439Y-115100000D01*
X104952862Y-114881534D01*
X105356534Y-114477862D01*
X105575000Y-113950439D01*
X105575000Y-113379561D01*
X105356534Y-112852138D01*
X104975000Y-112470604D01*
X104975000Y-112292930D01*
X105174577Y-112159577D01*
X105491740Y-111684909D01*
X105603113Y-111125000D01*
X105491740Y-110565091D01*
X105421545Y-110460036D01*
X105423587Y-110456980D01*
X107059000Y-108821567D01*
X107059000Y-109160274D01*
X107059000Y-109160274D01*
G37*
X107059000Y-109160274D02*
X107216569Y-109540680D01*
X107332481Y-109656592D01*
X107319112Y-109723800D01*
X107334000Y-109798647D01*
X107334000Y-109798651D01*
X107378096Y-110020336D01*
X107546071Y-110271729D01*
X107609530Y-110314131D01*
X109389493Y-112094095D01*
X109138260Y-112470091D01*
X109026887Y-113030000D01*
X109138260Y-113589909D01*
X109455423Y-114064577D01*
X109485694Y-114084803D01*
X108022199Y-115548300D01*
X108013726Y-115548300D01*
X107633320Y-115705869D01*
X107342169Y-115997020D01*
X107184600Y-116377426D01*
X107184600Y-116789174D01*
X107342169Y-117169580D01*
X107633320Y-117460731D01*
X108013726Y-117618300D01*
X108425474Y-117618300D01*
X108805880Y-117460731D01*
X109097031Y-117169580D01*
X109254600Y-116789174D01*
X109254600Y-116465501D01*
X110974476Y-114745627D01*
X111037929Y-114703229D01*
X111080327Y-114639776D01*
X111080329Y-114639774D01*
X111178307Y-114493139D01*
X111205904Y-114451837D01*
X111245896Y-114250786D01*
X111524577Y-114064577D01*
X111841740Y-113589909D01*
X111937747Y-113107248D01*
X112445744Y-113615246D01*
X112159120Y-113733969D01*
X111867969Y-114025120D01*
X111710400Y-114405526D01*
X111710400Y-114817274D01*
X111867969Y-115197680D01*
X112159120Y-115488831D01*
X112539526Y-115646400D01*
X112705599Y-115646400D01*
X117350000Y-120290802D01*
X117350000Y-120641822D01*
X117039375Y-120849375D01*
X116711161Y-121340582D01*
X116595908Y-121920000D01*
X116711161Y-122499418D01*
X117039375Y-122990625D01*
X117099620Y-123030879D01*
X116927530Y-123202969D01*
X116864071Y-123245371D01*
X116696096Y-123496764D01*
X116652000Y-123718449D01*
X116652000Y-123718453D01*
X116637112Y-123793300D01*
X116652000Y-123868147D01*
X116652000Y-124130773D01*
X116476784Y-124203350D01*
X116054677Y-124625457D01*
X116036107Y-124618498D01*
X115051605Y-125603000D01*
X115065748Y-125617143D01*
X114886143Y-125796748D01*
X114872000Y-125782605D01*
X114857858Y-125796748D01*
X114678253Y-125617143D01*
X114692395Y-125603000D01*
X113707893Y-124618498D01*
X113602000Y-124658180D01*
X113496107Y-124618498D01*
X112511605Y-125603000D01*
X112525748Y-125617143D01*
X112346143Y-125796748D01*
X112332000Y-125782605D01*
X112317858Y-125796748D01*
X112138253Y-125617143D01*
X112152395Y-125603000D01*
X111167893Y-124618498D01*
X111062000Y-124658180D01*
X110956107Y-124618498D01*
X109971605Y-125603000D01*
X109985748Y-125617143D01*
X109806143Y-125796748D01*
X109792000Y-125782605D01*
X109777858Y-125796748D01*
X109598253Y-125617143D01*
X109612395Y-125603000D01*
X108627893Y-124618498D01*
X108522000Y-124658180D01*
X108416107Y-124618498D01*
X107431605Y-125603000D01*
X107445748Y-125617143D01*
X107266143Y-125796748D01*
X107252000Y-125782605D01*
X107237858Y-125796748D01*
X107058253Y-125617143D01*
X107072395Y-125603000D01*
X106087893Y-124618498D01*
X105819378Y-124719120D01*
X105590184Y-125334642D01*
X105613986Y-125991019D01*
X105710945Y-126225100D01*
X104533440Y-126225100D01*
X104533440Y-124587000D01*
X104503980Y-124438893D01*
X106267498Y-124438893D01*
X107252000Y-125423395D01*
X108236502Y-124438893D01*
X108807498Y-124438893D01*
X109792000Y-125423395D01*
X110776502Y-124438893D01*
X111347498Y-124438893D01*
X112332000Y-125423395D01*
X113316502Y-124438893D01*
X113887498Y-124438893D01*
X114872000Y-125423395D01*
X115856502Y-124438893D01*
X115755880Y-124170378D01*
X115140358Y-123941184D01*
X114483981Y-123964986D01*
X113988120Y-124170378D01*
X113887498Y-124438893D01*
X113316502Y-124438893D01*
X113215880Y-124170378D01*
X112600358Y-123941184D01*
X111943981Y-123964986D01*
X111448120Y-124170378D01*
X111347498Y-124438893D01*
X110776502Y-124438893D01*
X110675880Y-124170378D01*
X110060358Y-123941184D01*
X109403981Y-123964986D01*
X108908120Y-124170378D01*
X108807498Y-124438893D01*
X108236502Y-124438893D01*
X108135880Y-124170378D01*
X107520358Y-123941184D01*
X106863981Y-123964986D01*
X106368120Y-124170378D01*
X106267498Y-124438893D01*
X104503980Y-124438893D01*
X104484157Y-124339235D01*
X104343809Y-124129191D01*
X104133765Y-123988843D01*
X103886000Y-123939560D01*
X103630000Y-123939560D01*
X103630000Y-123417440D01*
X103720000Y-123417440D01*
X103967765Y-123368157D01*
X104177809Y-123227809D01*
X104318157Y-123017765D01*
X104367440Y-122770000D01*
X104367440Y-121070000D01*
X104318157Y-120822235D01*
X104177809Y-120612191D01*
X103967765Y-120471843D01*
X103720000Y-120422560D01*
X103630000Y-120422560D01*
X103630000Y-115006984D01*
X103854561Y-115100000D01*
X104425439Y-115100000D01*
X104952862Y-114881534D01*
X105356534Y-114477862D01*
X105575000Y-113950439D01*
X105575000Y-113379561D01*
X105356534Y-112852138D01*
X104975000Y-112470604D01*
X104975000Y-112292930D01*
X105174577Y-112159577D01*
X105491740Y-111684909D01*
X105603113Y-111125000D01*
X105491740Y-110565091D01*
X105421545Y-110460036D01*
X105423587Y-110456980D01*
X107059000Y-108821567D01*
X107059000Y-109160274D01*
G36*
X127199375Y-122990625D02*
X127259620Y-123030879D01*
X127087530Y-123202969D01*
X127024071Y-123245371D01*
X126856096Y-123496764D01*
X126812000Y-123718449D01*
X126812000Y-123718453D01*
X126797112Y-123793300D01*
X126812000Y-123868147D01*
X126812000Y-124130773D01*
X126636784Y-124203350D01*
X126490000Y-124350134D01*
X126490000Y-123198178D01*
X126800625Y-122990625D01*
X127000000Y-122692239D01*
X127199375Y-122990625D01*
X127199375Y-122990625D01*
G37*
X127199375Y-122990625D02*
X127259620Y-123030879D01*
X127087530Y-123202969D01*
X127024071Y-123245371D01*
X126856096Y-123496764D01*
X126812000Y-123718449D01*
X126812000Y-123718453D01*
X126797112Y-123793300D01*
X126812000Y-123868147D01*
X126812000Y-124130773D01*
X126636784Y-124203350D01*
X126490000Y-124350134D01*
X126490000Y-123198178D01*
X126800625Y-122990625D01*
X127000000Y-122692239D01*
X127199375Y-122990625D01*
G36*
X129739375Y-122990625D02*
X130050000Y-123198178D01*
X130050000Y-123248898D01*
X129627528Y-123671371D01*
X129564072Y-123713771D01*
X129521672Y-123777227D01*
X129521671Y-123777228D01*
X129413204Y-123939560D01*
X129096000Y-123939560D01*
X128848235Y-123988843D01*
X128638191Y-124129191D01*
X128556025Y-124252159D01*
X128507216Y-124203350D01*
X128332000Y-124130773D01*
X128332000Y-124108101D01*
X128754473Y-123685629D01*
X128817929Y-123643229D01*
X128985904Y-123391837D01*
X129023571Y-123202474D01*
X129340625Y-122990625D01*
X129540000Y-122692239D01*
X129739375Y-122990625D01*
X129739375Y-122990625D01*
G37*
X129739375Y-122990625D02*
X130050000Y-123198178D01*
X130050000Y-123248898D01*
X129627528Y-123671371D01*
X129564072Y-123713771D01*
X129521672Y-123777227D01*
X129521671Y-123777228D01*
X129413204Y-123939560D01*
X129096000Y-123939560D01*
X128848235Y-123988843D01*
X128638191Y-124129191D01*
X128556025Y-124252159D01*
X128507216Y-124203350D01*
X128332000Y-124130773D01*
X128332000Y-124108101D01*
X128754473Y-123685629D01*
X128817929Y-123643229D01*
X128985904Y-123391837D01*
X129023571Y-123202474D01*
X129340625Y-122990625D01*
X129540000Y-122692239D01*
X129739375Y-122990625D01*
G36*
X135579501Y-117440396D02*
X132865528Y-120154371D01*
X132802072Y-120196771D01*
X132759673Y-120260226D01*
X132759671Y-120260228D01*
X132634097Y-120448163D01*
X132596430Y-120637525D01*
X132279375Y-120849375D01*
X132080000Y-121147761D01*
X131880625Y-120849375D01*
X131820380Y-120809121D01*
X135579501Y-117050001D01*
X135579501Y-117440396D01*
X135579501Y-117440396D01*
G37*
X135579501Y-117440396D02*
X132865528Y-120154371D01*
X132802072Y-120196771D01*
X132759673Y-120260226D01*
X132759671Y-120260228D01*
X132634097Y-120448163D01*
X132596430Y-120637525D01*
X132279375Y-120849375D01*
X132080000Y-121147761D01*
X131880625Y-120849375D01*
X131820380Y-120809121D01*
X135579501Y-117050001D01*
X135579501Y-117440396D01*
G36*
X133585423Y-111524577D02*
X133969108Y-111780947D01*
X133764866Y-111877611D01*
X133388959Y-112292577D01*
X133228096Y-112680961D01*
X133350085Y-112903000D01*
X134493000Y-112903000D01*
X134493000Y-112883000D01*
X134747000Y-112883000D01*
X134747000Y-112903000D01*
X134767000Y-112903000D01*
X134767000Y-113157000D01*
X134747000Y-113157000D01*
X134747000Y-114300629D01*
X134969041Y-114421914D01*
X135129101Y-114346161D01*
X135129101Y-115350797D01*
X130325528Y-120154371D01*
X130262072Y-120196771D01*
X130219673Y-120260226D01*
X130219671Y-120260228D01*
X130094097Y-120448163D01*
X130056430Y-120637525D01*
X129739375Y-120849375D01*
X129540000Y-121147761D01*
X129340625Y-120849375D01*
X129030000Y-120641822D01*
X129030000Y-115498201D01*
X131149162Y-113379039D01*
X133228096Y-113379039D01*
X133388959Y-113767423D01*
X133764866Y-114182389D01*
X134270959Y-114421914D01*
X134493000Y-114300629D01*
X134493000Y-113157000D01*
X133350085Y-113157000D01*
X133228096Y-113379039D01*
X131149162Y-113379039D01*
X133352387Y-111175814D01*
X133585423Y-111524577D01*
X133585423Y-111524577D01*
G37*
X133585423Y-111524577D02*
X133969108Y-111780947D01*
X133764866Y-111877611D01*
X133388959Y-112292577D01*
X133228096Y-112680961D01*
X133350085Y-112903000D01*
X134493000Y-112903000D01*
X134493000Y-112883000D01*
X134747000Y-112883000D01*
X134747000Y-112903000D01*
X134767000Y-112903000D01*
X134767000Y-113157000D01*
X134747000Y-113157000D01*
X134747000Y-114300629D01*
X134969041Y-114421914D01*
X135129101Y-114346161D01*
X135129101Y-115350797D01*
X130325528Y-120154371D01*
X130262072Y-120196771D01*
X130219673Y-120260226D01*
X130219671Y-120260228D01*
X130094097Y-120448163D01*
X130056430Y-120637525D01*
X129739375Y-120849375D01*
X129540000Y-121147761D01*
X129340625Y-120849375D01*
X129030000Y-120641822D01*
X129030000Y-115498201D01*
X131149162Y-113379039D01*
X133228096Y-113379039D01*
X133388959Y-113767423D01*
X133764866Y-114182389D01*
X134270959Y-114421914D01*
X134493000Y-114300629D01*
X134493000Y-113157000D01*
X133350085Y-113157000D01*
X133228096Y-113379039D01*
X131149162Y-113379039D01*
X133352387Y-111175814D01*
X133585423Y-111524577D01*
G36*
X132284301Y-98658604D02*
X132284300Y-100375453D01*
X132269412Y-100450300D01*
X132284300Y-100525147D01*
X132284300Y-100525151D01*
X132328396Y-100746836D01*
X132496371Y-100998229D01*
X132559830Y-101040631D01*
X133492977Y-101973779D01*
X133268260Y-102310091D01*
X133156887Y-102870000D01*
X133268260Y-103429909D01*
X133585423Y-103904577D01*
X133881386Y-104102333D01*
X133864104Y-104189214D01*
X133585423Y-104375423D01*
X133268260Y-104850091D01*
X133156887Y-105410000D01*
X133268260Y-105969909D01*
X133585423Y-106444577D01*
X133881386Y-106642333D01*
X133864104Y-106729214D01*
X133585423Y-106915423D01*
X133399214Y-107194104D01*
X133198163Y-107234096D01*
X132946771Y-107402071D01*
X132778796Y-107653463D01*
X132719811Y-107950000D01*
X132734700Y-108024851D01*
X132734701Y-108513497D01*
X127478999Y-113769200D01*
X127312926Y-113769200D01*
X126932520Y-113926769D01*
X126641369Y-114217920D01*
X126483800Y-114598326D01*
X126483800Y-115010074D01*
X126641369Y-115390480D01*
X126932520Y-115681631D01*
X127312926Y-115839200D01*
X127510000Y-115839200D01*
X127510001Y-120641821D01*
X127199375Y-120849375D01*
X127000000Y-121147761D01*
X126800625Y-120849375D01*
X126483571Y-120637526D01*
X126445904Y-120448163D01*
X126277929Y-120196771D01*
X126214473Y-120154371D01*
X121246700Y-115186599D01*
X121246700Y-95757601D01*
X121842000Y-96352902D01*
X121842000Y-96518974D01*
X121999569Y-96899380D01*
X122290720Y-97190531D01*
X122671126Y-97348100D01*
X122842301Y-97348100D01*
X122842300Y-107443453D01*
X122827412Y-107518300D01*
X122842300Y-107593147D01*
X122842300Y-107593151D01*
X122886396Y-107814836D01*
X123054371Y-108066229D01*
X123117830Y-108108631D01*
X124602977Y-109593779D01*
X124378260Y-109930091D01*
X124266887Y-110490000D01*
X124378260Y-111049909D01*
X124695423Y-111524577D01*
X125047758Y-111760000D01*
X124695423Y-111995423D01*
X124378260Y-112470091D01*
X124266887Y-113030000D01*
X124378260Y-113589909D01*
X124695423Y-114064577D01*
X125170091Y-114381740D01*
X125588667Y-114465000D01*
X125871333Y-114465000D01*
X126289909Y-114381740D01*
X126764577Y-114064577D01*
X127081740Y-113589909D01*
X127193113Y-113030000D01*
X127081740Y-112470091D01*
X126764577Y-111995423D01*
X126412242Y-111760000D01*
X126764577Y-111524577D01*
X127081740Y-111049909D01*
X127193113Y-110490000D01*
X127081740Y-109930091D01*
X126764577Y-109455423D01*
X126485896Y-109269214D01*
X126468614Y-109182333D01*
X126764577Y-108984577D01*
X127081740Y-108509909D01*
X127193113Y-107950000D01*
X127081740Y-107390091D01*
X126764577Y-106915423D01*
X126412242Y-106680000D01*
X126764577Y-106444577D01*
X127081740Y-105969909D01*
X127193113Y-105410000D01*
X127081740Y-104850091D01*
X126764577Y-104375423D01*
X126565000Y-104242070D01*
X126565000Y-104037930D01*
X126764577Y-103904577D01*
X127081740Y-103429909D01*
X127193113Y-102870000D01*
X127081740Y-102310091D01*
X126764577Y-101835423D01*
X126412242Y-101600000D01*
X126764577Y-101364577D01*
X127081740Y-100889909D01*
X127193113Y-100330000D01*
X127081740Y-99770091D01*
X126764577Y-99295423D01*
X126485896Y-99109214D01*
X126468614Y-99022333D01*
X126764577Y-98824577D01*
X127081740Y-98349909D01*
X127193113Y-97790000D01*
X127081740Y-97230091D01*
X126764577Y-96755423D01*
X126412242Y-96520000D01*
X126764577Y-96284577D01*
X127081740Y-95809909D01*
X127193113Y-95250000D01*
X127081740Y-94690091D01*
X126764577Y-94215423D01*
X126380892Y-93959053D01*
X126585134Y-93862389D01*
X126961041Y-93447423D01*
X126993867Y-93368169D01*
X132284301Y-98658604D01*
X132284301Y-98658604D01*
G37*
X132284301Y-98658604D02*
X132284300Y-100375453D01*
X132269412Y-100450300D01*
X132284300Y-100525147D01*
X132284300Y-100525151D01*
X132328396Y-100746836D01*
X132496371Y-100998229D01*
X132559830Y-101040631D01*
X133492977Y-101973779D01*
X133268260Y-102310091D01*
X133156887Y-102870000D01*
X133268260Y-103429909D01*
X133585423Y-103904577D01*
X133881386Y-104102333D01*
X133864104Y-104189214D01*
X133585423Y-104375423D01*
X133268260Y-104850091D01*
X133156887Y-105410000D01*
X133268260Y-105969909D01*
X133585423Y-106444577D01*
X133881386Y-106642333D01*
X133864104Y-106729214D01*
X133585423Y-106915423D01*
X133399214Y-107194104D01*
X133198163Y-107234096D01*
X132946771Y-107402071D01*
X132778796Y-107653463D01*
X132719811Y-107950000D01*
X132734700Y-108024851D01*
X132734701Y-108513497D01*
X127478999Y-113769200D01*
X127312926Y-113769200D01*
X126932520Y-113926769D01*
X126641369Y-114217920D01*
X126483800Y-114598326D01*
X126483800Y-115010074D01*
X126641369Y-115390480D01*
X126932520Y-115681631D01*
X127312926Y-115839200D01*
X127510000Y-115839200D01*
X127510001Y-120641821D01*
X127199375Y-120849375D01*
X127000000Y-121147761D01*
X126800625Y-120849375D01*
X126483571Y-120637526D01*
X126445904Y-120448163D01*
X126277929Y-120196771D01*
X126214473Y-120154371D01*
X121246700Y-115186599D01*
X121246700Y-95757601D01*
X121842000Y-96352902D01*
X121842000Y-96518974D01*
X121999569Y-96899380D01*
X122290720Y-97190531D01*
X122671126Y-97348100D01*
X122842301Y-97348100D01*
X122842300Y-107443453D01*
X122827412Y-107518300D01*
X122842300Y-107593147D01*
X122842300Y-107593151D01*
X122886396Y-107814836D01*
X123054371Y-108066229D01*
X123117830Y-108108631D01*
X124602977Y-109593779D01*
X124378260Y-109930091D01*
X124266887Y-110490000D01*
X124378260Y-111049909D01*
X124695423Y-111524577D01*
X125047758Y-111760000D01*
X124695423Y-111995423D01*
X124378260Y-112470091D01*
X124266887Y-113030000D01*
X124378260Y-113589909D01*
X124695423Y-114064577D01*
X125170091Y-114381740D01*
X125588667Y-114465000D01*
X125871333Y-114465000D01*
X126289909Y-114381740D01*
X126764577Y-114064577D01*
X127081740Y-113589909D01*
X127193113Y-113030000D01*
X127081740Y-112470091D01*
X126764577Y-111995423D01*
X126412242Y-111760000D01*
X126764577Y-111524577D01*
X127081740Y-111049909D01*
X127193113Y-110490000D01*
X127081740Y-109930091D01*
X126764577Y-109455423D01*
X126485896Y-109269214D01*
X126468614Y-109182333D01*
X126764577Y-108984577D01*
X127081740Y-108509909D01*
X127193113Y-107950000D01*
X127081740Y-107390091D01*
X126764577Y-106915423D01*
X126412242Y-106680000D01*
X126764577Y-106444577D01*
X127081740Y-105969909D01*
X127193113Y-105410000D01*
X127081740Y-104850091D01*
X126764577Y-104375423D01*
X126565000Y-104242070D01*
X126565000Y-104037930D01*
X126764577Y-103904577D01*
X127081740Y-103429909D01*
X127193113Y-102870000D01*
X127081740Y-102310091D01*
X126764577Y-101835423D01*
X126412242Y-101600000D01*
X126764577Y-101364577D01*
X127081740Y-100889909D01*
X127193113Y-100330000D01*
X127081740Y-99770091D01*
X126764577Y-99295423D01*
X126485896Y-99109214D01*
X126468614Y-99022333D01*
X126764577Y-98824577D01*
X127081740Y-98349909D01*
X127193113Y-97790000D01*
X127081740Y-97230091D01*
X126764577Y-96755423D01*
X126412242Y-96520000D01*
X126764577Y-96284577D01*
X127081740Y-95809909D01*
X127193113Y-95250000D01*
X127081740Y-94690091D01*
X126764577Y-94215423D01*
X126380892Y-93959053D01*
X126585134Y-93862389D01*
X126961041Y-93447423D01*
X126993867Y-93368169D01*
X132284301Y-98658604D01*
G36*
X101640000Y-113485395D02*
X101654143Y-113471253D01*
X101833748Y-113650858D01*
X101819605Y-113665000D01*
X101833748Y-113679142D01*
X101654143Y-113858748D01*
X101640000Y-113844605D01*
X101625858Y-113858748D01*
X101446252Y-113679142D01*
X101460395Y-113665000D01*
X101446252Y-113650858D01*
X101625858Y-113471252D01*
X101640000Y-113485395D01*
X101640000Y-113485395D01*
G37*
X101640000Y-113485395D02*
X101654143Y-113471253D01*
X101833748Y-113650858D01*
X101819605Y-113665000D01*
X101833748Y-113679142D01*
X101654143Y-113858748D01*
X101640000Y-113844605D01*
X101625858Y-113858748D01*
X101446252Y-113679142D01*
X101460395Y-113665000D01*
X101446252Y-113650858D01*
X101625858Y-113471252D01*
X101640000Y-113485395D01*
G36*
X149987000Y-100203000D02*
X150007000Y-100203000D01*
X150007000Y-100457000D01*
X149987000Y-100457000D01*
X149987000Y-100477000D01*
X149733000Y-100477000D01*
X149733000Y-100457000D01*
X149713000Y-100457000D01*
X149713000Y-100203000D01*
X149733000Y-100203000D01*
X149733000Y-100183000D01*
X149987000Y-100183000D01*
X149987000Y-100203000D01*
X149987000Y-100203000D01*
G37*
X149987000Y-100203000D02*
X150007000Y-100203000D01*
X150007000Y-100457000D01*
X149987000Y-100457000D01*
X149987000Y-100477000D01*
X149733000Y-100477000D01*
X149733000Y-100457000D01*
X149713000Y-100457000D01*
X149713000Y-100203000D01*
X149733000Y-100203000D01*
X149733000Y-100183000D01*
X149987000Y-100183000D01*
X149987000Y-100203000D01*
G36*
X124695423Y-88664577D02*
X124974104Y-88850786D01*
X124991386Y-88937667D01*
X124695423Y-89135423D01*
X124378260Y-89610091D01*
X124266887Y-90170000D01*
X124378260Y-90729909D01*
X124695423Y-91204577D01*
X124974104Y-91390786D01*
X124995894Y-91500330D01*
X124874866Y-91557611D01*
X124498959Y-91972577D01*
X124338096Y-92360961D01*
X124460085Y-92583000D01*
X125603000Y-92583000D01*
X125603000Y-92563000D01*
X125857000Y-92563000D01*
X125857000Y-92583000D01*
X125877000Y-92583000D01*
X125877000Y-92837000D01*
X125857000Y-92837000D01*
X125857000Y-92857000D01*
X125603000Y-92857000D01*
X125603000Y-92837000D01*
X124460085Y-92837000D01*
X124338096Y-93059039D01*
X124498959Y-93447423D01*
X124874866Y-93862389D01*
X125079108Y-93959053D01*
X124695423Y-94215423D01*
X124568266Y-94405727D01*
X124390274Y-94332000D01*
X124173600Y-94332000D01*
X124173600Y-89370002D01*
X124197673Y-89345929D01*
X124261129Y-89303529D01*
X124429104Y-89052137D01*
X124473200Y-88830452D01*
X124473200Y-88830448D01*
X124488088Y-88755601D01*
X124473200Y-88680754D01*
X124473200Y-88331997D01*
X124695423Y-88664577D01*
X124695423Y-88664577D01*
G37*
X124695423Y-88664577D02*
X124974104Y-88850786D01*
X124991386Y-88937667D01*
X124695423Y-89135423D01*
X124378260Y-89610091D01*
X124266887Y-90170000D01*
X124378260Y-90729909D01*
X124695423Y-91204577D01*
X124974104Y-91390786D01*
X124995894Y-91500330D01*
X124874866Y-91557611D01*
X124498959Y-91972577D01*
X124338096Y-92360961D01*
X124460085Y-92583000D01*
X125603000Y-92583000D01*
X125603000Y-92563000D01*
X125857000Y-92563000D01*
X125857000Y-92583000D01*
X125877000Y-92583000D01*
X125877000Y-92837000D01*
X125857000Y-92837000D01*
X125857000Y-92857000D01*
X125603000Y-92857000D01*
X125603000Y-92837000D01*
X124460085Y-92837000D01*
X124338096Y-93059039D01*
X124498959Y-93447423D01*
X124874866Y-93862389D01*
X125079108Y-93959053D01*
X124695423Y-94215423D01*
X124568266Y-94405727D01*
X124390274Y-94332000D01*
X124173600Y-94332000D01*
X124173600Y-89370002D01*
X124197673Y-89345929D01*
X124261129Y-89303529D01*
X124429104Y-89052137D01*
X124473200Y-88830452D01*
X124473200Y-88830448D01*
X124488088Y-88755601D01*
X124473200Y-88680754D01*
X124473200Y-88331997D01*
X124695423Y-88664577D01*
G36*
X105245000Y-87415868D02*
X105245000Y-87955439D01*
X105463466Y-88482862D01*
X105867138Y-88886534D01*
X105932299Y-88913525D01*
X105925995Y-88916136D01*
X105851861Y-89162255D01*
X106680000Y-89990395D01*
X106694143Y-89976253D01*
X106873748Y-90155858D01*
X106859605Y-90170000D01*
X106873748Y-90184143D01*
X106694143Y-90363748D01*
X106680000Y-90349605D01*
X105851861Y-91177745D01*
X105925995Y-91423864D01*
X105962510Y-91436989D01*
X104195799Y-93203700D01*
X103599910Y-93203700D01*
X103698113Y-92710000D01*
X103586740Y-92150091D01*
X103269577Y-91675423D01*
X102917242Y-91440000D01*
X103269577Y-91204577D01*
X103586740Y-90729909D01*
X103698113Y-90170000D01*
X103654994Y-89953223D01*
X105233035Y-89953223D01*
X105260222Y-90523454D01*
X105426136Y-90924005D01*
X105672255Y-90998139D01*
X106500395Y-90170000D01*
X105672255Y-89341861D01*
X105426136Y-89415995D01*
X105233035Y-89953223D01*
X103654994Y-89953223D01*
X103586740Y-89610091D01*
X103269577Y-89135423D01*
X102917242Y-88900000D01*
X103269577Y-88664577D01*
X103586740Y-88189909D01*
X103698113Y-87630000D01*
X103586740Y-87070091D01*
X103269577Y-86595423D01*
X102917242Y-86360000D01*
X103269577Y-86124577D01*
X103543602Y-85714469D01*
X105245000Y-87415868D01*
X105245000Y-87415868D01*
G37*
X105245000Y-87415868D02*
X105245000Y-87955439D01*
X105463466Y-88482862D01*
X105867138Y-88886534D01*
X105932299Y-88913525D01*
X105925995Y-88916136D01*
X105851861Y-89162255D01*
X106680000Y-89990395D01*
X106694143Y-89976253D01*
X106873748Y-90155858D01*
X106859605Y-90170000D01*
X106873748Y-90184143D01*
X106694143Y-90363748D01*
X106680000Y-90349605D01*
X105851861Y-91177745D01*
X105925995Y-91423864D01*
X105962510Y-91436989D01*
X104195799Y-93203700D01*
X103599910Y-93203700D01*
X103698113Y-92710000D01*
X103586740Y-92150091D01*
X103269577Y-91675423D01*
X102917242Y-91440000D01*
X103269577Y-91204577D01*
X103586740Y-90729909D01*
X103698113Y-90170000D01*
X103654994Y-89953223D01*
X105233035Y-89953223D01*
X105260222Y-90523454D01*
X105426136Y-90924005D01*
X105672255Y-90998139D01*
X106500395Y-90170000D01*
X105672255Y-89341861D01*
X105426136Y-89415995D01*
X105233035Y-89953223D01*
X103654994Y-89953223D01*
X103586740Y-89610091D01*
X103269577Y-89135423D01*
X102917242Y-88900000D01*
X103269577Y-88664577D01*
X103586740Y-88189909D01*
X103698113Y-87630000D01*
X103586740Y-87070091D01*
X103269577Y-86595423D01*
X102917242Y-86360000D01*
X103269577Y-86124577D01*
X103543602Y-85714469D01*
X105245000Y-87415868D01*
G36*
X109455423Y-44214577D02*
X109807758Y-44450000D01*
X109455423Y-44685423D01*
X109138260Y-45160091D01*
X109026887Y-45720000D01*
X109138260Y-46279909D01*
X109455423Y-46754577D01*
X109807758Y-46990000D01*
X109455423Y-47225423D01*
X109269214Y-47504104D01*
X109068163Y-47544096D01*
X108816771Y-47712071D01*
X108648796Y-47963463D01*
X108589811Y-48260000D01*
X108604701Y-48334857D01*
X108604701Y-54630442D01*
X108166777Y-54473035D01*
X107596546Y-54500222D01*
X107195995Y-54666136D01*
X107121861Y-54912255D01*
X107950000Y-55740395D01*
X107964142Y-55726252D01*
X108143748Y-55905858D01*
X108129605Y-55920000D01*
X108143748Y-55934142D01*
X107964143Y-56113748D01*
X107950000Y-56099605D01*
X107121861Y-56927745D01*
X107195995Y-57173864D01*
X107202746Y-57176290D01*
X107137138Y-57203466D01*
X106733466Y-57607138D01*
X106515000Y-58134561D01*
X106515000Y-58705439D01*
X106733466Y-59232862D01*
X107137138Y-59636534D01*
X107664561Y-59855000D01*
X108235439Y-59855000D01*
X108604701Y-59702047D01*
X108604700Y-71942798D01*
X108173199Y-72374300D01*
X108007126Y-72374300D01*
X107626720Y-72531869D01*
X107335569Y-72823020D01*
X107178000Y-73203426D01*
X107178000Y-73615174D01*
X107335569Y-73995580D01*
X107626720Y-74286731D01*
X108007126Y-74444300D01*
X108204899Y-74444300D01*
X107740428Y-74908771D01*
X107676972Y-74951171D01*
X107634572Y-75014627D01*
X107634571Y-75014628D01*
X107508997Y-75202563D01*
X107450012Y-75499100D01*
X107464901Y-75573952D01*
X107464900Y-84266999D01*
X105917200Y-82719299D01*
X105917200Y-68252046D01*
X105932088Y-68177199D01*
X105917200Y-68102352D01*
X105917200Y-68102348D01*
X105873104Y-67880663D01*
X105705129Y-67629271D01*
X105641673Y-67586871D01*
X104471372Y-66416570D01*
X104505000Y-66335385D01*
X104505000Y-65744615D01*
X104471372Y-65663430D01*
X104624473Y-65510329D01*
X104687929Y-65467929D01*
X104855904Y-65216537D01*
X104900000Y-64994852D01*
X104900000Y-64994848D01*
X104914888Y-64920001D01*
X104900000Y-64845154D01*
X104900000Y-62178043D01*
X105174577Y-61994577D01*
X105491740Y-61519909D01*
X105603113Y-60960000D01*
X105491740Y-60400091D01*
X105174577Y-59925423D01*
X104699909Y-59608260D01*
X104281333Y-59525000D01*
X103998667Y-59525000D01*
X103580091Y-59608260D01*
X103105423Y-59925423D01*
X102788260Y-60400091D01*
X102676887Y-60960000D01*
X102788260Y-61519909D01*
X103105423Y-61994577D01*
X103380001Y-62178044D01*
X103380000Y-64581764D01*
X103315385Y-64555000D01*
X102724615Y-64555000D01*
X102592800Y-64609600D01*
X102592800Y-55703223D01*
X106503035Y-55703223D01*
X106530222Y-56273454D01*
X106696136Y-56674005D01*
X106942255Y-56748139D01*
X107770395Y-55920000D01*
X106942255Y-55091861D01*
X106696136Y-55165995D01*
X106503035Y-55703223D01*
X102592800Y-55703223D01*
X102592800Y-53689561D01*
X102705000Y-53689561D01*
X102705000Y-54260439D01*
X102923466Y-54787862D01*
X103327138Y-55191534D01*
X103854561Y-55410000D01*
X104425439Y-55410000D01*
X104952862Y-55191534D01*
X105356534Y-54787862D01*
X105575000Y-54260439D01*
X105575000Y-53689561D01*
X105356534Y-53162138D01*
X104952862Y-52758466D01*
X104425439Y-52540000D01*
X103854561Y-52540000D01*
X103327138Y-52758466D01*
X102923466Y-53162138D01*
X102705000Y-53689561D01*
X102592800Y-53689561D01*
X102592800Y-50102301D01*
X104624473Y-48070629D01*
X104687929Y-48028229D01*
X104855904Y-47776837D01*
X104895896Y-47575786D01*
X105174577Y-47389577D01*
X105491740Y-46914909D01*
X105603113Y-46355000D01*
X105491740Y-45795091D01*
X105174577Y-45320423D01*
X104699909Y-45003260D01*
X104510515Y-44965587D01*
X105536102Y-43940000D01*
X109271957Y-43940000D01*
X109455423Y-44214577D01*
X109455423Y-44214577D01*
G37*
X109455423Y-44214577D02*
X109807758Y-44450000D01*
X109455423Y-44685423D01*
X109138260Y-45160091D01*
X109026887Y-45720000D01*
X109138260Y-46279909D01*
X109455423Y-46754577D01*
X109807758Y-46990000D01*
X109455423Y-47225423D01*
X109269214Y-47504104D01*
X109068163Y-47544096D01*
X108816771Y-47712071D01*
X108648796Y-47963463D01*
X108589811Y-48260000D01*
X108604701Y-48334857D01*
X108604701Y-54630442D01*
X108166777Y-54473035D01*
X107596546Y-54500222D01*
X107195995Y-54666136D01*
X107121861Y-54912255D01*
X107950000Y-55740395D01*
X107964142Y-55726252D01*
X108143748Y-55905858D01*
X108129605Y-55920000D01*
X108143748Y-55934142D01*
X107964143Y-56113748D01*
X107950000Y-56099605D01*
X107121861Y-56927745D01*
X107195995Y-57173864D01*
X107202746Y-57176290D01*
X107137138Y-57203466D01*
X106733466Y-57607138D01*
X106515000Y-58134561D01*
X106515000Y-58705439D01*
X106733466Y-59232862D01*
X107137138Y-59636534D01*
X107664561Y-59855000D01*
X108235439Y-59855000D01*
X108604701Y-59702047D01*
X108604700Y-71942798D01*
X108173199Y-72374300D01*
X108007126Y-72374300D01*
X107626720Y-72531869D01*
X107335569Y-72823020D01*
X107178000Y-73203426D01*
X107178000Y-73615174D01*
X107335569Y-73995580D01*
X107626720Y-74286731D01*
X108007126Y-74444300D01*
X108204899Y-74444300D01*
X107740428Y-74908771D01*
X107676972Y-74951171D01*
X107634572Y-75014627D01*
X107634571Y-75014628D01*
X107508997Y-75202563D01*
X107450012Y-75499100D01*
X107464901Y-75573952D01*
X107464900Y-84266999D01*
X105917200Y-82719299D01*
X105917200Y-68252046D01*
X105932088Y-68177199D01*
X105917200Y-68102352D01*
X105917200Y-68102348D01*
X105873104Y-67880663D01*
X105705129Y-67629271D01*
X105641673Y-67586871D01*
X104471372Y-66416570D01*
X104505000Y-66335385D01*
X104505000Y-65744615D01*
X104471372Y-65663430D01*
X104624473Y-65510329D01*
X104687929Y-65467929D01*
X104855904Y-65216537D01*
X104900000Y-64994852D01*
X104900000Y-64994848D01*
X104914888Y-64920001D01*
X104900000Y-64845154D01*
X104900000Y-62178043D01*
X105174577Y-61994577D01*
X105491740Y-61519909D01*
X105603113Y-60960000D01*
X105491740Y-60400091D01*
X105174577Y-59925423D01*
X104699909Y-59608260D01*
X104281333Y-59525000D01*
X103998667Y-59525000D01*
X103580091Y-59608260D01*
X103105423Y-59925423D01*
X102788260Y-60400091D01*
X102676887Y-60960000D01*
X102788260Y-61519909D01*
X103105423Y-61994577D01*
X103380001Y-62178044D01*
X103380000Y-64581764D01*
X103315385Y-64555000D01*
X102724615Y-64555000D01*
X102592800Y-64609600D01*
X102592800Y-55703223D01*
X106503035Y-55703223D01*
X106530222Y-56273454D01*
X106696136Y-56674005D01*
X106942255Y-56748139D01*
X107770395Y-55920000D01*
X106942255Y-55091861D01*
X106696136Y-55165995D01*
X106503035Y-55703223D01*
X102592800Y-55703223D01*
X102592800Y-53689561D01*
X102705000Y-53689561D01*
X102705000Y-54260439D01*
X102923466Y-54787862D01*
X103327138Y-55191534D01*
X103854561Y-55410000D01*
X104425439Y-55410000D01*
X104952862Y-55191534D01*
X105356534Y-54787862D01*
X105575000Y-54260439D01*
X105575000Y-53689561D01*
X105356534Y-53162138D01*
X104952862Y-52758466D01*
X104425439Y-52540000D01*
X103854561Y-52540000D01*
X103327138Y-52758466D01*
X102923466Y-53162138D01*
X102705000Y-53689561D01*
X102592800Y-53689561D01*
X102592800Y-50102301D01*
X104624473Y-48070629D01*
X104687929Y-48028229D01*
X104855904Y-47776837D01*
X104895896Y-47575786D01*
X105174577Y-47389577D01*
X105491740Y-46914909D01*
X105603113Y-46355000D01*
X105491740Y-45795091D01*
X105174577Y-45320423D01*
X104699909Y-45003260D01*
X104510515Y-44965587D01*
X105536102Y-43940000D01*
X109271957Y-43940000D01*
X109455423Y-44214577D01*
G36*
X148825423Y-51834577D02*
X149104104Y-52020786D01*
X149121386Y-52107667D01*
X148825423Y-52305423D01*
X148508260Y-52780091D01*
X148396887Y-53340000D01*
X148508260Y-53899909D01*
X148825423Y-54374577D01*
X149177758Y-54610000D01*
X148825423Y-54845423D01*
X148508260Y-55320091D01*
X148396887Y-55880000D01*
X148508260Y-56439909D01*
X148825423Y-56914577D01*
X149177758Y-57150000D01*
X148825423Y-57385423D01*
X148508260Y-57860091D01*
X148396887Y-58420000D01*
X148508260Y-58979909D01*
X148825423Y-59454577D01*
X149177758Y-59690000D01*
X148825423Y-59925423D01*
X148508260Y-60400091D01*
X148396887Y-60960000D01*
X148508260Y-61519909D01*
X148825423Y-61994577D01*
X149177758Y-62230000D01*
X148825423Y-62465423D01*
X148508260Y-62940091D01*
X148396887Y-63500000D01*
X148508260Y-64059909D01*
X148825423Y-64534577D01*
X149300091Y-64851740D01*
X149718667Y-64935000D01*
X150001333Y-64935000D01*
X150225301Y-64890450D01*
X150225300Y-73539550D01*
X150001333Y-73495000D01*
X149718667Y-73495000D01*
X149300091Y-73578260D01*
X148825423Y-73895423D01*
X148508260Y-74370091D01*
X148396887Y-74930000D01*
X148508260Y-75489909D01*
X148825423Y-75964577D01*
X149177758Y-76200000D01*
X148825423Y-76435423D01*
X148639214Y-76714104D01*
X148438163Y-76754096D01*
X148186771Y-76922071D01*
X148144371Y-76985527D01*
X144127799Y-81002100D01*
X142378711Y-81002100D01*
X142261280Y-80884669D01*
X141880874Y-80727100D01*
X141683000Y-80727100D01*
X141683000Y-66876659D01*
X141827680Y-66816731D01*
X142118831Y-66525580D01*
X142276400Y-66145174D01*
X142276400Y-65733426D01*
X142118831Y-65353020D01*
X142001400Y-65235589D01*
X142001400Y-58037401D01*
X148576606Y-51462196D01*
X148825423Y-51834577D01*
X148825423Y-51834577D01*
G37*
X148825423Y-51834577D02*
X149104104Y-52020786D01*
X149121386Y-52107667D01*
X148825423Y-52305423D01*
X148508260Y-52780091D01*
X148396887Y-53340000D01*
X148508260Y-53899909D01*
X148825423Y-54374577D01*
X149177758Y-54610000D01*
X148825423Y-54845423D01*
X148508260Y-55320091D01*
X148396887Y-55880000D01*
X148508260Y-56439909D01*
X148825423Y-56914577D01*
X149177758Y-57150000D01*
X148825423Y-57385423D01*
X148508260Y-57860091D01*
X148396887Y-58420000D01*
X148508260Y-58979909D01*
X148825423Y-59454577D01*
X149177758Y-59690000D01*
X148825423Y-59925423D01*
X148508260Y-60400091D01*
X148396887Y-60960000D01*
X148508260Y-61519909D01*
X148825423Y-61994577D01*
X149177758Y-62230000D01*
X148825423Y-62465423D01*
X148508260Y-62940091D01*
X148396887Y-63500000D01*
X148508260Y-64059909D01*
X148825423Y-64534577D01*
X149300091Y-64851740D01*
X149718667Y-64935000D01*
X150001333Y-64935000D01*
X150225301Y-64890450D01*
X150225300Y-73539550D01*
X150001333Y-73495000D01*
X149718667Y-73495000D01*
X149300091Y-73578260D01*
X148825423Y-73895423D01*
X148508260Y-74370091D01*
X148396887Y-74930000D01*
X148508260Y-75489909D01*
X148825423Y-75964577D01*
X149177758Y-76200000D01*
X148825423Y-76435423D01*
X148639214Y-76714104D01*
X148438163Y-76754096D01*
X148186771Y-76922071D01*
X148144371Y-76985527D01*
X144127799Y-81002100D01*
X142378711Y-81002100D01*
X142261280Y-80884669D01*
X141880874Y-80727100D01*
X141683000Y-80727100D01*
X141683000Y-66876659D01*
X141827680Y-66816731D01*
X142118831Y-66525580D01*
X142276400Y-66145174D01*
X142276400Y-65733426D01*
X142118831Y-65353020D01*
X142001400Y-65235589D01*
X142001400Y-58037401D01*
X148576606Y-51462196D01*
X148825423Y-51834577D01*
G36*
X133969108Y-62250947D02*
X133764866Y-62347611D01*
X133388959Y-62762577D01*
X133228096Y-63150961D01*
X133350085Y-63373000D01*
X134493000Y-63373000D01*
X134493000Y-63353000D01*
X134747000Y-63353000D01*
X134747000Y-63373000D01*
X134767000Y-63373000D01*
X134767000Y-63627000D01*
X134747000Y-63627000D01*
X134747000Y-64770629D01*
X134969041Y-64891914D01*
X134985300Y-64884219D01*
X134985301Y-73482560D01*
X133820000Y-73482560D01*
X133572235Y-73531843D01*
X133362191Y-73672191D01*
X133221843Y-73882235D01*
X133172560Y-74130000D01*
X133172560Y-75730000D01*
X133221843Y-75977765D01*
X133362191Y-76187809D01*
X133572235Y-76328157D01*
X133727361Y-76359013D01*
X133388959Y-76732577D01*
X133228096Y-77120961D01*
X133350085Y-77343000D01*
X134493000Y-77343000D01*
X134493000Y-77323000D01*
X134747000Y-77323000D01*
X134747000Y-77343000D01*
X134767000Y-77343000D01*
X134767000Y-77597000D01*
X134747000Y-77597000D01*
X134747000Y-77617000D01*
X134493000Y-77617000D01*
X134493000Y-77597000D01*
X133350085Y-77597000D01*
X133228096Y-77819039D01*
X133303008Y-77999906D01*
X129353000Y-74049899D01*
X129353000Y-73883826D01*
X129195431Y-73503420D01*
X128904280Y-73212269D01*
X128523874Y-73054700D01*
X128112126Y-73054700D01*
X127931000Y-73129725D01*
X127931000Y-68161101D01*
X132243062Y-63849039D01*
X133228096Y-63849039D01*
X133388959Y-64237423D01*
X133764866Y-64652389D01*
X134270959Y-64891914D01*
X134493000Y-64770629D01*
X134493000Y-63627000D01*
X133350085Y-63627000D01*
X133228096Y-63849039D01*
X132243062Y-63849039D01*
X133892406Y-62199696D01*
X133969108Y-62250947D01*
X133969108Y-62250947D01*
G37*
X133969108Y-62250947D02*
X133764866Y-62347611D01*
X133388959Y-62762577D01*
X133228096Y-63150961D01*
X133350085Y-63373000D01*
X134493000Y-63373000D01*
X134493000Y-63353000D01*
X134747000Y-63353000D01*
X134747000Y-63373000D01*
X134767000Y-63373000D01*
X134767000Y-63627000D01*
X134747000Y-63627000D01*
X134747000Y-64770629D01*
X134969041Y-64891914D01*
X134985300Y-64884219D01*
X134985301Y-73482560D01*
X133820000Y-73482560D01*
X133572235Y-73531843D01*
X133362191Y-73672191D01*
X133221843Y-73882235D01*
X133172560Y-74130000D01*
X133172560Y-75730000D01*
X133221843Y-75977765D01*
X133362191Y-76187809D01*
X133572235Y-76328157D01*
X133727361Y-76359013D01*
X133388959Y-76732577D01*
X133228096Y-77120961D01*
X133350085Y-77343000D01*
X134493000Y-77343000D01*
X134493000Y-77323000D01*
X134747000Y-77323000D01*
X134747000Y-77343000D01*
X134767000Y-77343000D01*
X134767000Y-77597000D01*
X134747000Y-77597000D01*
X134747000Y-77617000D01*
X134493000Y-77617000D01*
X134493000Y-77597000D01*
X133350085Y-77597000D01*
X133228096Y-77819039D01*
X133303008Y-77999906D01*
X129353000Y-74049899D01*
X129353000Y-73883826D01*
X129195431Y-73503420D01*
X128904280Y-73212269D01*
X128523874Y-73054700D01*
X128112126Y-73054700D01*
X127931000Y-73129725D01*
X127931000Y-68161101D01*
X132243062Y-63849039D01*
X133228096Y-63849039D01*
X133388959Y-64237423D01*
X133764866Y-64652389D01*
X134270959Y-64891914D01*
X134493000Y-64770629D01*
X134493000Y-63627000D01*
X133350085Y-63627000D01*
X133228096Y-63849039D01*
X132243062Y-63849039D01*
X133892406Y-62199696D01*
X133969108Y-62250947D01*
G36*
X152593748Y-77415858D02*
X152579605Y-77430000D01*
X152593748Y-77444143D01*
X152414142Y-77623748D01*
X152400000Y-77609605D01*
X152385858Y-77623748D01*
X152206252Y-77444142D01*
X152220395Y-77430000D01*
X152206252Y-77415858D01*
X152385858Y-77236252D01*
X152400000Y-77250395D01*
X152414142Y-77236252D01*
X152593748Y-77415858D01*
X152593748Y-77415858D01*
G37*
X152593748Y-77415858D02*
X152579605Y-77430000D01*
X152593748Y-77444143D01*
X152414142Y-77623748D01*
X152400000Y-77609605D01*
X152385858Y-77623748D01*
X152206252Y-77444142D01*
X152220395Y-77430000D01*
X152206252Y-77415858D01*
X152385858Y-77236252D01*
X152400000Y-77250395D01*
X152414142Y-77236252D01*
X152593748Y-77415858D01*
G36*
X102724615Y-67525000D02*
X103315385Y-67525000D01*
X103396570Y-67491372D01*
X104397200Y-68492002D01*
X104397200Y-69953743D01*
X104315259Y-69755920D01*
X104063958Y-69675647D01*
X103199605Y-70540000D01*
X104063958Y-71404353D01*
X104315259Y-71324080D01*
X104397200Y-71098194D01*
X104397200Y-74440123D01*
X104335129Y-74347226D01*
X104335127Y-74347224D01*
X104292729Y-74283771D01*
X104229276Y-74241373D01*
X102592800Y-72604899D01*
X102592800Y-71964719D01*
X102791279Y-72036718D01*
X103381458Y-72010315D01*
X103804080Y-71835259D01*
X103884353Y-71583958D01*
X103020000Y-70719605D01*
X103005858Y-70733748D01*
X102826253Y-70554143D01*
X102840395Y-70540000D01*
X102826253Y-70525858D01*
X103005858Y-70346253D01*
X103020000Y-70360395D01*
X103884353Y-69496042D01*
X103804080Y-69244741D01*
X103248721Y-69043282D01*
X102658542Y-69069685D01*
X102592800Y-69096916D01*
X102592800Y-67470400D01*
X102724615Y-67525000D01*
X102724615Y-67525000D01*
G37*
X102724615Y-67525000D02*
X103315385Y-67525000D01*
X103396570Y-67491372D01*
X104397200Y-68492002D01*
X104397200Y-69953743D01*
X104315259Y-69755920D01*
X104063958Y-69675647D01*
X103199605Y-70540000D01*
X104063958Y-71404353D01*
X104315259Y-71324080D01*
X104397200Y-71098194D01*
X104397200Y-74440123D01*
X104335129Y-74347226D01*
X104335127Y-74347224D01*
X104292729Y-74283771D01*
X104229276Y-74241373D01*
X102592800Y-72604899D01*
X102592800Y-71964719D01*
X102791279Y-72036718D01*
X103381458Y-72010315D01*
X103804080Y-71835259D01*
X103884353Y-71583958D01*
X103020000Y-70719605D01*
X103005858Y-70733748D01*
X102826253Y-70554143D01*
X102840395Y-70540000D01*
X102826253Y-70525858D01*
X103005858Y-70346253D01*
X103020000Y-70360395D01*
X103884353Y-69496042D01*
X103804080Y-69244741D01*
X103248721Y-69043282D01*
X102658542Y-69069685D01*
X102592800Y-69096916D01*
X102592800Y-67470400D01*
X102724615Y-67525000D01*
G36*
X107681270Y-41124472D02*
X107723671Y-41187929D01*
X107787127Y-41230329D01*
X107975062Y-41355904D01*
X108023205Y-41365480D01*
X108196748Y-41400000D01*
X108196752Y-41400000D01*
X108271600Y-41414888D01*
X108346448Y-41400000D01*
X109271957Y-41400000D01*
X109455423Y-41674577D01*
X109807758Y-41910000D01*
X109455423Y-42145423D01*
X109271957Y-42420000D01*
X105296148Y-42420000D01*
X105221300Y-42405112D01*
X105146452Y-42420000D01*
X105146448Y-42420000D01*
X104972905Y-42454520D01*
X104924762Y-42464096D01*
X104810882Y-42540189D01*
X104673371Y-42632071D01*
X104630971Y-42695527D01*
X92325499Y-55001000D01*
X89582208Y-55001000D01*
X89804500Y-54464341D01*
X89804500Y-53674659D01*
X89502301Y-52945088D01*
X88943912Y-52386699D01*
X88579500Y-52235754D01*
X88579500Y-50318264D01*
X89720341Y-50318264D01*
X89789559Y-50560242D01*
X90312280Y-50746655D01*
X90866549Y-50718841D01*
X91249441Y-50560242D01*
X91318659Y-50318264D01*
X90519500Y-49519105D01*
X89720341Y-50318264D01*
X88579500Y-50318264D01*
X88579500Y-49132280D01*
X89112345Y-49132280D01*
X89140159Y-49686549D01*
X89298758Y-50069441D01*
X89540736Y-50138659D01*
X90339895Y-49339500D01*
X89540736Y-48540341D01*
X89298758Y-48609559D01*
X89112345Y-49132280D01*
X88579500Y-49132280D01*
X88579500Y-43903246D01*
X88943912Y-43752301D01*
X89156001Y-43540212D01*
X89156001Y-46121148D01*
X89141112Y-46196000D01*
X89156001Y-46270852D01*
X89179533Y-46389155D01*
X89124500Y-46522017D01*
X89124500Y-47076983D01*
X89336876Y-47589704D01*
X89729296Y-47982124D01*
X89924359Y-48062922D01*
X89789559Y-48118758D01*
X89720341Y-48360736D01*
X90519500Y-49159895D01*
X91318659Y-48360736D01*
X91249441Y-48118758D01*
X91104569Y-48067094D01*
X91309704Y-47982124D01*
X91519500Y-47772328D01*
X91729296Y-47982124D01*
X91940240Y-48069500D01*
X91729296Y-48156876D01*
X91336876Y-48549296D01*
X91229090Y-48809515D01*
X90699105Y-49339500D01*
X91229090Y-49869485D01*
X91336876Y-50129704D01*
X91729296Y-50522124D01*
X92242017Y-50734500D01*
X92796983Y-50734500D01*
X93309704Y-50522124D01*
X93702124Y-50129704D01*
X93914500Y-49616983D01*
X93914500Y-49062017D01*
X93702124Y-48549296D01*
X93309704Y-48156876D01*
X93098760Y-48069500D01*
X93309704Y-47982124D01*
X93702124Y-47589704D01*
X93914500Y-47076983D01*
X93914500Y-46522017D01*
X93702124Y-46009296D01*
X93309704Y-45616876D01*
X92796983Y-45404500D01*
X92242017Y-45404500D01*
X92211812Y-45417011D01*
X91946000Y-45151199D01*
X91946000Y-39702745D01*
X101406861Y-39702745D01*
X101480995Y-39948864D01*
X102018223Y-40141965D01*
X102588454Y-40114778D01*
X102989005Y-39948864D01*
X103063139Y-39702745D01*
X102235000Y-38874605D01*
X101406861Y-39702745D01*
X91946000Y-39702745D01*
X91946000Y-38478223D01*
X100788035Y-38478223D01*
X100815222Y-39048454D01*
X100981136Y-39449005D01*
X101227255Y-39523139D01*
X102055395Y-38695000D01*
X102414605Y-38695000D01*
X103242745Y-39523139D01*
X103488864Y-39449005D01*
X103681965Y-38911777D01*
X103654778Y-38341546D01*
X103488864Y-37940995D01*
X103242745Y-37866861D01*
X102414605Y-38695000D01*
X102055395Y-38695000D01*
X101227255Y-37866861D01*
X100981136Y-37940995D01*
X100788035Y-38478223D01*
X91946000Y-38478223D01*
X91946000Y-37721150D01*
X92138500Y-37759440D01*
X92773500Y-37759440D01*
X93005990Y-37713195D01*
X93010096Y-37733837D01*
X93178071Y-37985229D01*
X93429463Y-38153204D01*
X93651148Y-38197300D01*
X93726000Y-38212189D01*
X93800852Y-38197300D01*
X96907853Y-38197300D01*
X96982700Y-38212188D01*
X97057547Y-38197300D01*
X97057552Y-38197300D01*
X97279237Y-38153204D01*
X97496954Y-38007730D01*
X97514506Y-38015000D01*
X98065494Y-38015000D01*
X98574540Y-37804147D01*
X98964147Y-37414540D01*
X98974312Y-37390000D01*
X101400604Y-37390000D01*
X101422138Y-37411534D01*
X101487299Y-37438525D01*
X101480995Y-37441136D01*
X101406861Y-37687255D01*
X102235000Y-38515395D01*
X103063139Y-37687255D01*
X102989005Y-37441136D01*
X102982254Y-37438710D01*
X103047862Y-37411534D01*
X103451534Y-37007862D01*
X103484668Y-36927870D01*
X107681270Y-41124472D01*
X107681270Y-41124472D01*
G37*
X107681270Y-41124472D02*
X107723671Y-41187929D01*
X107787127Y-41230329D01*
X107975062Y-41355904D01*
X108023205Y-41365480D01*
X108196748Y-41400000D01*
X108196752Y-41400000D01*
X108271600Y-41414888D01*
X108346448Y-41400000D01*
X109271957Y-41400000D01*
X109455423Y-41674577D01*
X109807758Y-41910000D01*
X109455423Y-42145423D01*
X109271957Y-42420000D01*
X105296148Y-42420000D01*
X105221300Y-42405112D01*
X105146452Y-42420000D01*
X105146448Y-42420000D01*
X104972905Y-42454520D01*
X104924762Y-42464096D01*
X104810882Y-42540189D01*
X104673371Y-42632071D01*
X104630971Y-42695527D01*
X92325499Y-55001000D01*
X89582208Y-55001000D01*
X89804500Y-54464341D01*
X89804500Y-53674659D01*
X89502301Y-52945088D01*
X88943912Y-52386699D01*
X88579500Y-52235754D01*
X88579500Y-50318264D01*
X89720341Y-50318264D01*
X89789559Y-50560242D01*
X90312280Y-50746655D01*
X90866549Y-50718841D01*
X91249441Y-50560242D01*
X91318659Y-50318264D01*
X90519500Y-49519105D01*
X89720341Y-50318264D01*
X88579500Y-50318264D01*
X88579500Y-49132280D01*
X89112345Y-49132280D01*
X89140159Y-49686549D01*
X89298758Y-50069441D01*
X89540736Y-50138659D01*
X90339895Y-49339500D01*
X89540736Y-48540341D01*
X89298758Y-48609559D01*
X89112345Y-49132280D01*
X88579500Y-49132280D01*
X88579500Y-43903246D01*
X88943912Y-43752301D01*
X89156001Y-43540212D01*
X89156001Y-46121148D01*
X89141112Y-46196000D01*
X89156001Y-46270852D01*
X89179533Y-46389155D01*
X89124500Y-46522017D01*
X89124500Y-47076983D01*
X89336876Y-47589704D01*
X89729296Y-47982124D01*
X89924359Y-48062922D01*
X89789559Y-48118758D01*
X89720341Y-48360736D01*
X90519500Y-49159895D01*
X91318659Y-48360736D01*
X91249441Y-48118758D01*
X91104569Y-48067094D01*
X91309704Y-47982124D01*
X91519500Y-47772328D01*
X91729296Y-47982124D01*
X91940240Y-48069500D01*
X91729296Y-48156876D01*
X91336876Y-48549296D01*
X91229090Y-48809515D01*
X90699105Y-49339500D01*
X91229090Y-49869485D01*
X91336876Y-50129704D01*
X91729296Y-50522124D01*
X92242017Y-50734500D01*
X92796983Y-50734500D01*
X93309704Y-50522124D01*
X93702124Y-50129704D01*
X93914500Y-49616983D01*
X93914500Y-49062017D01*
X93702124Y-48549296D01*
X93309704Y-48156876D01*
X93098760Y-48069500D01*
X93309704Y-47982124D01*
X93702124Y-47589704D01*
X93914500Y-47076983D01*
X93914500Y-46522017D01*
X93702124Y-46009296D01*
X93309704Y-45616876D01*
X92796983Y-45404500D01*
X92242017Y-45404500D01*
X92211812Y-45417011D01*
X91946000Y-45151199D01*
X91946000Y-39702745D01*
X101406861Y-39702745D01*
X101480995Y-39948864D01*
X102018223Y-40141965D01*
X102588454Y-40114778D01*
X102989005Y-39948864D01*
X103063139Y-39702745D01*
X102235000Y-38874605D01*
X101406861Y-39702745D01*
X91946000Y-39702745D01*
X91946000Y-38478223D01*
X100788035Y-38478223D01*
X100815222Y-39048454D01*
X100981136Y-39449005D01*
X101227255Y-39523139D01*
X102055395Y-38695000D01*
X102414605Y-38695000D01*
X103242745Y-39523139D01*
X103488864Y-39449005D01*
X103681965Y-38911777D01*
X103654778Y-38341546D01*
X103488864Y-37940995D01*
X103242745Y-37866861D01*
X102414605Y-38695000D01*
X102055395Y-38695000D01*
X101227255Y-37866861D01*
X100981136Y-37940995D01*
X100788035Y-38478223D01*
X91946000Y-38478223D01*
X91946000Y-37721150D01*
X92138500Y-37759440D01*
X92773500Y-37759440D01*
X93005990Y-37713195D01*
X93010096Y-37733837D01*
X93178071Y-37985229D01*
X93429463Y-38153204D01*
X93651148Y-38197300D01*
X93726000Y-38212189D01*
X93800852Y-38197300D01*
X96907853Y-38197300D01*
X96982700Y-38212188D01*
X97057547Y-38197300D01*
X97057552Y-38197300D01*
X97279237Y-38153204D01*
X97496954Y-38007730D01*
X97514506Y-38015000D01*
X98065494Y-38015000D01*
X98574540Y-37804147D01*
X98964147Y-37414540D01*
X98974312Y-37390000D01*
X101400604Y-37390000D01*
X101422138Y-37411534D01*
X101487299Y-37438525D01*
X101480995Y-37441136D01*
X101406861Y-37687255D01*
X102235000Y-38515395D01*
X103063139Y-37687255D01*
X102989005Y-37441136D01*
X102982254Y-37438710D01*
X103047862Y-37411534D01*
X103451534Y-37007862D01*
X103484668Y-36927870D01*
X107681270Y-41124472D01*
G36*
X84963000Y-36223000D02*
X84983000Y-36223000D01*
X84983000Y-36477000D01*
X84963000Y-36477000D01*
X84963000Y-37588250D01*
X85121750Y-37747000D01*
X85279809Y-37747000D01*
X85346001Y-37719582D01*
X85346001Y-38039197D01*
X84775199Y-38610000D01*
X82040000Y-38610000D01*
X82040000Y-37536984D01*
X82264561Y-37630000D01*
X82835439Y-37630000D01*
X83362862Y-37411534D01*
X83766534Y-37007862D01*
X83883500Y-36725481D01*
X83883500Y-37238310D01*
X83980173Y-37471699D01*
X84158802Y-37650327D01*
X84392191Y-37747000D01*
X84550250Y-37747000D01*
X84709000Y-37588250D01*
X84709000Y-36477000D01*
X84689000Y-36477000D01*
X84689000Y-36223000D01*
X84709000Y-36223000D01*
X84709000Y-36203000D01*
X84963000Y-36203000D01*
X84963000Y-36223000D01*
X84963000Y-36223000D01*
G37*
X84963000Y-36223000D02*
X84983000Y-36223000D01*
X84983000Y-36477000D01*
X84963000Y-36477000D01*
X84963000Y-37588250D01*
X85121750Y-37747000D01*
X85279809Y-37747000D01*
X85346001Y-37719582D01*
X85346001Y-38039197D01*
X84775199Y-38610000D01*
X82040000Y-38610000D01*
X82040000Y-37536984D01*
X82264561Y-37630000D01*
X82835439Y-37630000D01*
X83362862Y-37411534D01*
X83766534Y-37007862D01*
X83883500Y-36725481D01*
X83883500Y-37238310D01*
X83980173Y-37471699D01*
X84158802Y-37650327D01*
X84392191Y-37747000D01*
X84550250Y-37747000D01*
X84709000Y-37588250D01*
X84709000Y-36477000D01*
X84689000Y-36477000D01*
X84689000Y-36223000D01*
X84709000Y-36223000D01*
X84709000Y-36203000D01*
X84963000Y-36203000D01*
X84963000Y-36223000D01*
M02*
